M48
; DRILL file {KiCad (5.1.2)-1} date 2020/04/21 9:17:07
; FORMAT={-:-/ absolute / metric / decimal}
; #@! TF.CreationDate,2020-04-21T09:17:07+09:00
; #@! TF.GenerationSoftware,Kicad,Pcbnew,(5.1.2)-1
FMAT,2
METRIC
T1C0.400
T2C1.000
T3C1.016
T4C1.200
T5C1.500
T6C1.700
T7C3.200
T8C5.500
%
G90
G05
T1
X-27.94Y-24.765
X-26.035Y-15.875
X-25.4Y-8.255
X-23.495Y-11.43
X-22.86Y-24.765
X-22.606Y-34.036
X-20.955Y-14.497
X-20.955Y-31.242
X-17.78Y-7.874
X-17.78Y-24.765
X-15.875Y-15.875
X-12.7Y-24.765
X-10.795Y-14.478
X-8.89Y-9.525
X-8.02Y-25.4
X-7.62Y-32.512
X-3.302Y-32.512
X-2.54Y-26.035
X-1.942Y-3.773
X-1.905Y-2.54
X-1.905Y-7.62
X-1.905Y-8.89
X-1.524Y-32.512
X5.055Y-24.74
X17.145Y-0.635
X18.415Y-0.635
X24.13Y-24.384
X30.226Y-24.384
X30.226Y-22.098
X33.02Y-22.098
X33.655Y3.175
X36.576Y-23.368
X37.465Y-1.27
X38.504Y-23.347
X40.005Y-3.175
X40.005Y-5.08
X40.005Y-9.525
X40.005Y-24.765
X41.275Y-23.495
X42.545Y-23.495
X43.688Y-5.08
X43.815Y-9.525
X44.45Y-1.27
X44.45Y-2.54
T2
X-36.83Y-12.065
X-39.37Y-17.145
X-39.37Y-19.645
X-28.575Y5.715
X-45.085Y-24.765
X-5.08Y9.5
X-41.91Y-27.94
X10.16Y9.525
X-33.02Y29.845
X36.83Y-12.065
X-25.4Y27.94
X-25.4Y17.94
X-36.83Y-27.94
X-34.33Y-27.94
X-19.685Y-33.02
X25.4Y9.5
X-38.735Y33.02
T3
X11.43Y-27.94
X11.43Y-30.48
X13.97Y-27.94
X13.97Y-30.48
X16.51Y-27.94
X16.51Y-30.48
X19.05Y-27.94
X19.05Y-30.48
X21.59Y-27.94
X21.59Y-30.48
X24.13Y-27.94
X24.13Y-30.48
X26.67Y-27.94
X26.67Y-30.48
X29.21Y-27.94
X29.21Y-30.48
X31.75Y-27.94
X31.75Y-30.48
X34.29Y-27.94
X34.29Y-30.48
T4
X15.24Y9.525
X17.78Y9.525
X20.32Y9.525
X-15.24Y9.525
X-12.7Y9.525
X-10.16Y9.525
X30.48Y15.875
X33.02Y15.875
X35.56Y15.875
X30.48Y9.525
X33.02Y9.525
X35.56Y9.525
X0.0Y9.525
X2.54Y9.525
X5.08Y9.525
X0.0Y15.875
X2.54Y15.875
X5.08Y15.875
X15.24Y15.875
X17.78Y15.875
X20.32Y15.875
T5
X-10.16Y4.445
X-8.255Y4.445
X-6.35Y4.445
X-3.81Y4.445
X-1.905Y4.445
X0.0Y4.445
X20.32Y4.445
X22.225Y4.445
X24.13Y4.445
X26.67Y4.445
X28.575Y4.445
X30.48Y4.445
T6
X-31.75Y1.27
X-31.75Y-2.69
X-31.75Y-6.65
X-31.75Y13.335
X-31.75Y9.375
X-31.75Y25.4
X-31.75Y21.44
T7
X-44.5Y-33.0
X-44.5Y33.0
X44.5Y33.0
X44.5Y-33.0
T8
X-12.7Y-6.275
X33.02Y-6.275
X2.54Y-6.275
X2.54Y31.675
X17.78Y31.675
X17.78Y-6.275
X33.02Y31.675
T0
M30
