G04 #@! TF.GenerationSoftware,KiCad,Pcbnew,(5.1.2)-1*
G04 #@! TF.CreationDate,2020-04-21T09:17:00+09:00*
G04 #@! TF.ProjectId,InverterBoard,496e7665-7274-4657-9242-6f6172642e6b,rev?*
G04 #@! TF.SameCoordinates,Original*
G04 #@! TF.FileFunction,Copper,L2,Bot*
G04 #@! TF.FilePolarity,Positive*
%FSLAX46Y46*%
G04 Gerber Fmt 4.6, Leading zero omitted, Abs format (unit mm)*
G04 Created by KiCad (PCBNEW (5.1.2)-1) date 2020-04-21 09:17:00*
%MOMM*%
%LPD*%
G04 APERTURE LIST*
%ADD10C,0.100000*%
%ADD11C,0.875000*%
%ADD12R,1.400000X1.270000*%
%ADD13R,4.800000X4.720000*%
%ADD14C,2.700000*%
%ADD15C,0.500000*%
%ADD16R,1.000000X1.500000*%
%ADD17R,1.905000X2.000000*%
%ADD18O,1.905000X2.000000*%
%ADD19C,0.600000*%
%ADD20O,1.700000X2.000000*%
%ADD21C,1.700000*%
%ADD22O,2.000000X1.700000*%
%ADD23C,2.000000*%
%ADD24C,0.975000*%
%ADD25R,1.727200X1.727200*%
%ADD26O,1.727200X1.727200*%
%ADD27C,1.000000*%
%ADD28C,0.800000*%
%ADD29C,0.500000*%
%ADD30C,1.000000*%
%ADD31C,0.250000*%
%ADD32C,2.000000*%
%ADD33C,1.500000*%
%ADD34C,0.254000*%
G04 APERTURE END LIST*
D10*
G36*
X-5980000Y-28494000D02*
G01*
X-5480000Y-28494000D01*
X-5480000Y-27894000D01*
X-5980000Y-27894000D01*
X-5980000Y-28494000D01*
G37*
G36*
X24500000Y-23414000D02*
G01*
X25000000Y-23414000D01*
X25000000Y-22814000D01*
X24500000Y-22814000D01*
X24500000Y-23414000D01*
G37*
G36*
X-4052309Y-25561053D02*
G01*
X-4031074Y-25564203D01*
X-4010250Y-25569419D01*
X-3990038Y-25576651D01*
X-3970632Y-25585830D01*
X-3952219Y-25596866D01*
X-3934976Y-25609654D01*
X-3919070Y-25624070D01*
X-3904654Y-25639976D01*
X-3891866Y-25657219D01*
X-3880830Y-25675632D01*
X-3871651Y-25695038D01*
X-3864419Y-25715250D01*
X-3859203Y-25736074D01*
X-3856053Y-25757309D01*
X-3855000Y-25778750D01*
X-3855000Y-26291250D01*
X-3856053Y-26312691D01*
X-3859203Y-26333926D01*
X-3864419Y-26354750D01*
X-3871651Y-26374962D01*
X-3880830Y-26394368D01*
X-3891866Y-26412781D01*
X-3904654Y-26430024D01*
X-3919070Y-26445930D01*
X-3934976Y-26460346D01*
X-3952219Y-26473134D01*
X-3970632Y-26484170D01*
X-3990038Y-26493349D01*
X-4010250Y-26500581D01*
X-4031074Y-26505797D01*
X-4052309Y-26508947D01*
X-4073750Y-26510000D01*
X-4511250Y-26510000D01*
X-4532691Y-26508947D01*
X-4553926Y-26505797D01*
X-4574750Y-26500581D01*
X-4594962Y-26493349D01*
X-4614368Y-26484170D01*
X-4632781Y-26473134D01*
X-4650024Y-26460346D01*
X-4665930Y-26445930D01*
X-4680346Y-26430024D01*
X-4693134Y-26412781D01*
X-4704170Y-26394368D01*
X-4713349Y-26374962D01*
X-4720581Y-26354750D01*
X-4725797Y-26333926D01*
X-4728947Y-26312691D01*
X-4730000Y-26291250D01*
X-4730000Y-25778750D01*
X-4728947Y-25757309D01*
X-4725797Y-25736074D01*
X-4720581Y-25715250D01*
X-4713349Y-25695038D01*
X-4704170Y-25675632D01*
X-4693134Y-25657219D01*
X-4680346Y-25639976D01*
X-4665930Y-25624070D01*
X-4650024Y-25609654D01*
X-4632781Y-25596866D01*
X-4614368Y-25585830D01*
X-4594962Y-25576651D01*
X-4574750Y-25569419D01*
X-4553926Y-25564203D01*
X-4532691Y-25561053D01*
X-4511250Y-25560000D01*
X-4073750Y-25560000D01*
X-4052309Y-25561053D01*
X-4052309Y-25561053D01*
G37*
D11*
X-4292500Y-26035000D03*
D10*
G36*
X-5627309Y-25561053D02*
G01*
X-5606074Y-25564203D01*
X-5585250Y-25569419D01*
X-5565038Y-25576651D01*
X-5545632Y-25585830D01*
X-5527219Y-25596866D01*
X-5509976Y-25609654D01*
X-5494070Y-25624070D01*
X-5479654Y-25639976D01*
X-5466866Y-25657219D01*
X-5455830Y-25675632D01*
X-5446651Y-25695038D01*
X-5439419Y-25715250D01*
X-5434203Y-25736074D01*
X-5431053Y-25757309D01*
X-5430000Y-25778750D01*
X-5430000Y-26291250D01*
X-5431053Y-26312691D01*
X-5434203Y-26333926D01*
X-5439419Y-26354750D01*
X-5446651Y-26374962D01*
X-5455830Y-26394368D01*
X-5466866Y-26412781D01*
X-5479654Y-26430024D01*
X-5494070Y-26445930D01*
X-5509976Y-26460346D01*
X-5527219Y-26473134D01*
X-5545632Y-26484170D01*
X-5565038Y-26493349D01*
X-5585250Y-26500581D01*
X-5606074Y-26505797D01*
X-5627309Y-26508947D01*
X-5648750Y-26510000D01*
X-6086250Y-26510000D01*
X-6107691Y-26508947D01*
X-6128926Y-26505797D01*
X-6149750Y-26500581D01*
X-6169962Y-26493349D01*
X-6189368Y-26484170D01*
X-6207781Y-26473134D01*
X-6225024Y-26460346D01*
X-6240930Y-26445930D01*
X-6255346Y-26430024D01*
X-6268134Y-26412781D01*
X-6279170Y-26394368D01*
X-6288349Y-26374962D01*
X-6295581Y-26354750D01*
X-6300797Y-26333926D01*
X-6303947Y-26312691D01*
X-6305000Y-26291250D01*
X-6305000Y-25778750D01*
X-6303947Y-25757309D01*
X-6300797Y-25736074D01*
X-6295581Y-25715250D01*
X-6288349Y-25695038D01*
X-6279170Y-25675632D01*
X-6268134Y-25657219D01*
X-6255346Y-25639976D01*
X-6240930Y-25624070D01*
X-6225024Y-25609654D01*
X-6207781Y-25596866D01*
X-6189368Y-25585830D01*
X-6169962Y-25576651D01*
X-6149750Y-25569419D01*
X-6128926Y-25564203D01*
X-6107691Y-25561053D01*
X-6086250Y-25560000D01*
X-5648750Y-25560000D01*
X-5627309Y-25561053D01*
X-5627309Y-25561053D01*
G37*
D11*
X-5867500Y-26035000D03*
D10*
G36*
X26427691Y-20481053D02*
G01*
X26448926Y-20484203D01*
X26469750Y-20489419D01*
X26489962Y-20496651D01*
X26509368Y-20505830D01*
X26527781Y-20516866D01*
X26545024Y-20529654D01*
X26560930Y-20544070D01*
X26575346Y-20559976D01*
X26588134Y-20577219D01*
X26599170Y-20595632D01*
X26608349Y-20615038D01*
X26615581Y-20635250D01*
X26620797Y-20656074D01*
X26623947Y-20677309D01*
X26625000Y-20698750D01*
X26625000Y-21211250D01*
X26623947Y-21232691D01*
X26620797Y-21253926D01*
X26615581Y-21274750D01*
X26608349Y-21294962D01*
X26599170Y-21314368D01*
X26588134Y-21332781D01*
X26575346Y-21350024D01*
X26560930Y-21365930D01*
X26545024Y-21380346D01*
X26527781Y-21393134D01*
X26509368Y-21404170D01*
X26489962Y-21413349D01*
X26469750Y-21420581D01*
X26448926Y-21425797D01*
X26427691Y-21428947D01*
X26406250Y-21430000D01*
X25968750Y-21430000D01*
X25947309Y-21428947D01*
X25926074Y-21425797D01*
X25905250Y-21420581D01*
X25885038Y-21413349D01*
X25865632Y-21404170D01*
X25847219Y-21393134D01*
X25829976Y-21380346D01*
X25814070Y-21365930D01*
X25799654Y-21350024D01*
X25786866Y-21332781D01*
X25775830Y-21314368D01*
X25766651Y-21294962D01*
X25759419Y-21274750D01*
X25754203Y-21253926D01*
X25751053Y-21232691D01*
X25750000Y-21211250D01*
X25750000Y-20698750D01*
X25751053Y-20677309D01*
X25754203Y-20656074D01*
X25759419Y-20635250D01*
X25766651Y-20615038D01*
X25775830Y-20595632D01*
X25786866Y-20577219D01*
X25799654Y-20559976D01*
X25814070Y-20544070D01*
X25829976Y-20529654D01*
X25847219Y-20516866D01*
X25865632Y-20505830D01*
X25885038Y-20496651D01*
X25905250Y-20489419D01*
X25926074Y-20484203D01*
X25947309Y-20481053D01*
X25968750Y-20480000D01*
X26406250Y-20480000D01*
X26427691Y-20481053D01*
X26427691Y-20481053D01*
G37*
D11*
X26187500Y-20955000D03*
D10*
G36*
X24852691Y-20481053D02*
G01*
X24873926Y-20484203D01*
X24894750Y-20489419D01*
X24914962Y-20496651D01*
X24934368Y-20505830D01*
X24952781Y-20516866D01*
X24970024Y-20529654D01*
X24985930Y-20544070D01*
X25000346Y-20559976D01*
X25013134Y-20577219D01*
X25024170Y-20595632D01*
X25033349Y-20615038D01*
X25040581Y-20635250D01*
X25045797Y-20656074D01*
X25048947Y-20677309D01*
X25050000Y-20698750D01*
X25050000Y-21211250D01*
X25048947Y-21232691D01*
X25045797Y-21253926D01*
X25040581Y-21274750D01*
X25033349Y-21294962D01*
X25024170Y-21314368D01*
X25013134Y-21332781D01*
X25000346Y-21350024D01*
X24985930Y-21365930D01*
X24970024Y-21380346D01*
X24952781Y-21393134D01*
X24934368Y-21404170D01*
X24914962Y-21413349D01*
X24894750Y-21420581D01*
X24873926Y-21425797D01*
X24852691Y-21428947D01*
X24831250Y-21430000D01*
X24393750Y-21430000D01*
X24372309Y-21428947D01*
X24351074Y-21425797D01*
X24330250Y-21420581D01*
X24310038Y-21413349D01*
X24290632Y-21404170D01*
X24272219Y-21393134D01*
X24254976Y-21380346D01*
X24239070Y-21365930D01*
X24224654Y-21350024D01*
X24211866Y-21332781D01*
X24200830Y-21314368D01*
X24191651Y-21294962D01*
X24184419Y-21274750D01*
X24179203Y-21253926D01*
X24176053Y-21232691D01*
X24175000Y-21211250D01*
X24175000Y-20698750D01*
X24176053Y-20677309D01*
X24179203Y-20656074D01*
X24184419Y-20635250D01*
X24191651Y-20615038D01*
X24200830Y-20595632D01*
X24211866Y-20577219D01*
X24224654Y-20559976D01*
X24239070Y-20544070D01*
X24254976Y-20529654D01*
X24272219Y-20516866D01*
X24290632Y-20505830D01*
X24310038Y-20496651D01*
X24330250Y-20489419D01*
X24351074Y-20484203D01*
X24372309Y-20481053D01*
X24393750Y-20480000D01*
X24831250Y-20480000D01*
X24852691Y-20481053D01*
X24852691Y-20481053D01*
G37*
D11*
X24612500Y-20955000D03*
D10*
G36*
X392691Y-25561053D02*
G01*
X413926Y-25564203D01*
X434750Y-25569419D01*
X454962Y-25576651D01*
X474368Y-25585830D01*
X492781Y-25596866D01*
X510024Y-25609654D01*
X525930Y-25624070D01*
X540346Y-25639976D01*
X553134Y-25657219D01*
X564170Y-25675632D01*
X573349Y-25695038D01*
X580581Y-25715250D01*
X585797Y-25736074D01*
X588947Y-25757309D01*
X590000Y-25778750D01*
X590000Y-26291250D01*
X588947Y-26312691D01*
X585797Y-26333926D01*
X580581Y-26354750D01*
X573349Y-26374962D01*
X564170Y-26394368D01*
X553134Y-26412781D01*
X540346Y-26430024D01*
X525930Y-26445930D01*
X510024Y-26460346D01*
X492781Y-26473134D01*
X474368Y-26484170D01*
X454962Y-26493349D01*
X434750Y-26500581D01*
X413926Y-26505797D01*
X392691Y-26508947D01*
X371250Y-26510000D01*
X-66250Y-26510000D01*
X-87691Y-26508947D01*
X-108926Y-26505797D01*
X-129750Y-26500581D01*
X-149962Y-26493349D01*
X-169368Y-26484170D01*
X-187781Y-26473134D01*
X-205024Y-26460346D01*
X-220930Y-26445930D01*
X-235346Y-26430024D01*
X-248134Y-26412781D01*
X-259170Y-26394368D01*
X-268349Y-26374962D01*
X-275581Y-26354750D01*
X-280797Y-26333926D01*
X-283947Y-26312691D01*
X-285000Y-26291250D01*
X-285000Y-25778750D01*
X-283947Y-25757309D01*
X-280797Y-25736074D01*
X-275581Y-25715250D01*
X-268349Y-25695038D01*
X-259170Y-25675632D01*
X-248134Y-25657219D01*
X-235346Y-25639976D01*
X-220930Y-25624070D01*
X-205024Y-25609654D01*
X-187781Y-25596866D01*
X-169368Y-25585830D01*
X-149962Y-25576651D01*
X-129750Y-25569419D01*
X-108926Y-25564203D01*
X-87691Y-25561053D01*
X-66250Y-25560000D01*
X371250Y-25560000D01*
X392691Y-25561053D01*
X392691Y-25561053D01*
G37*
D11*
X152500Y-26035000D03*
D10*
G36*
X-1182309Y-25561053D02*
G01*
X-1161074Y-25564203D01*
X-1140250Y-25569419D01*
X-1120038Y-25576651D01*
X-1100632Y-25585830D01*
X-1082219Y-25596866D01*
X-1064976Y-25609654D01*
X-1049070Y-25624070D01*
X-1034654Y-25639976D01*
X-1021866Y-25657219D01*
X-1010830Y-25675632D01*
X-1001651Y-25695038D01*
X-994419Y-25715250D01*
X-989203Y-25736074D01*
X-986053Y-25757309D01*
X-985000Y-25778750D01*
X-985000Y-26291250D01*
X-986053Y-26312691D01*
X-989203Y-26333926D01*
X-994419Y-26354750D01*
X-1001651Y-26374962D01*
X-1010830Y-26394368D01*
X-1021866Y-26412781D01*
X-1034654Y-26430024D01*
X-1049070Y-26445930D01*
X-1064976Y-26460346D01*
X-1082219Y-26473134D01*
X-1100632Y-26484170D01*
X-1120038Y-26493349D01*
X-1140250Y-26500581D01*
X-1161074Y-26505797D01*
X-1182309Y-26508947D01*
X-1203750Y-26510000D01*
X-1641250Y-26510000D01*
X-1662691Y-26508947D01*
X-1683926Y-26505797D01*
X-1704750Y-26500581D01*
X-1724962Y-26493349D01*
X-1744368Y-26484170D01*
X-1762781Y-26473134D01*
X-1780024Y-26460346D01*
X-1795930Y-26445930D01*
X-1810346Y-26430024D01*
X-1823134Y-26412781D01*
X-1834170Y-26394368D01*
X-1843349Y-26374962D01*
X-1850581Y-26354750D01*
X-1855797Y-26333926D01*
X-1858947Y-26312691D01*
X-1860000Y-26291250D01*
X-1860000Y-25778750D01*
X-1858947Y-25757309D01*
X-1855797Y-25736074D01*
X-1850581Y-25715250D01*
X-1843349Y-25695038D01*
X-1834170Y-25675632D01*
X-1823134Y-25657219D01*
X-1810346Y-25639976D01*
X-1795930Y-25624070D01*
X-1780024Y-25609654D01*
X-1762781Y-25596866D01*
X-1744368Y-25585830D01*
X-1724962Y-25576651D01*
X-1704750Y-25569419D01*
X-1683926Y-25564203D01*
X-1662691Y-25561053D01*
X-1641250Y-25560000D01*
X-1203750Y-25560000D01*
X-1182309Y-25561053D01*
X-1182309Y-25561053D01*
G37*
D11*
X-1422500Y-26035000D03*
D10*
G36*
X33297691Y-20671053D02*
G01*
X33318926Y-20674203D01*
X33339750Y-20679419D01*
X33359962Y-20686651D01*
X33379368Y-20695830D01*
X33397781Y-20706866D01*
X33415024Y-20719654D01*
X33430930Y-20734070D01*
X33445346Y-20749976D01*
X33458134Y-20767219D01*
X33469170Y-20785632D01*
X33478349Y-20805038D01*
X33485581Y-20825250D01*
X33490797Y-20846074D01*
X33493947Y-20867309D01*
X33495000Y-20888750D01*
X33495000Y-21326250D01*
X33493947Y-21347691D01*
X33490797Y-21368926D01*
X33485581Y-21389750D01*
X33478349Y-21409962D01*
X33469170Y-21429368D01*
X33458134Y-21447781D01*
X33445346Y-21465024D01*
X33430930Y-21480930D01*
X33415024Y-21495346D01*
X33397781Y-21508134D01*
X33379368Y-21519170D01*
X33359962Y-21528349D01*
X33339750Y-21535581D01*
X33318926Y-21540797D01*
X33297691Y-21543947D01*
X33276250Y-21545000D01*
X32763750Y-21545000D01*
X32742309Y-21543947D01*
X32721074Y-21540797D01*
X32700250Y-21535581D01*
X32680038Y-21528349D01*
X32660632Y-21519170D01*
X32642219Y-21508134D01*
X32624976Y-21495346D01*
X32609070Y-21480930D01*
X32594654Y-21465024D01*
X32581866Y-21447781D01*
X32570830Y-21429368D01*
X32561651Y-21409962D01*
X32554419Y-21389750D01*
X32549203Y-21368926D01*
X32546053Y-21347691D01*
X32545000Y-21326250D01*
X32545000Y-20888750D01*
X32546053Y-20867309D01*
X32549203Y-20846074D01*
X32554419Y-20825250D01*
X32561651Y-20805038D01*
X32570830Y-20785632D01*
X32581866Y-20767219D01*
X32594654Y-20749976D01*
X32609070Y-20734070D01*
X32624976Y-20719654D01*
X32642219Y-20706866D01*
X32660632Y-20695830D01*
X32680038Y-20686651D01*
X32700250Y-20679419D01*
X32721074Y-20674203D01*
X32742309Y-20671053D01*
X32763750Y-20670000D01*
X33276250Y-20670000D01*
X33297691Y-20671053D01*
X33297691Y-20671053D01*
G37*
D11*
X33020000Y-21107500D03*
D10*
G36*
X33297691Y-19096053D02*
G01*
X33318926Y-19099203D01*
X33339750Y-19104419D01*
X33359962Y-19111651D01*
X33379368Y-19120830D01*
X33397781Y-19131866D01*
X33415024Y-19144654D01*
X33430930Y-19159070D01*
X33445346Y-19174976D01*
X33458134Y-19192219D01*
X33469170Y-19210632D01*
X33478349Y-19230038D01*
X33485581Y-19250250D01*
X33490797Y-19271074D01*
X33493947Y-19292309D01*
X33495000Y-19313750D01*
X33495000Y-19751250D01*
X33493947Y-19772691D01*
X33490797Y-19793926D01*
X33485581Y-19814750D01*
X33478349Y-19834962D01*
X33469170Y-19854368D01*
X33458134Y-19872781D01*
X33445346Y-19890024D01*
X33430930Y-19905930D01*
X33415024Y-19920346D01*
X33397781Y-19933134D01*
X33379368Y-19944170D01*
X33359962Y-19953349D01*
X33339750Y-19960581D01*
X33318926Y-19965797D01*
X33297691Y-19968947D01*
X33276250Y-19970000D01*
X32763750Y-19970000D01*
X32742309Y-19968947D01*
X32721074Y-19965797D01*
X32700250Y-19960581D01*
X32680038Y-19953349D01*
X32660632Y-19944170D01*
X32642219Y-19933134D01*
X32624976Y-19920346D01*
X32609070Y-19905930D01*
X32594654Y-19890024D01*
X32581866Y-19872781D01*
X32570830Y-19854368D01*
X32561651Y-19834962D01*
X32554419Y-19814750D01*
X32549203Y-19793926D01*
X32546053Y-19772691D01*
X32545000Y-19751250D01*
X32545000Y-19313750D01*
X32546053Y-19292309D01*
X32549203Y-19271074D01*
X32554419Y-19250250D01*
X32561651Y-19230038D01*
X32570830Y-19210632D01*
X32581866Y-19192219D01*
X32594654Y-19174976D01*
X32609070Y-19159070D01*
X32624976Y-19144654D01*
X32642219Y-19131866D01*
X32660632Y-19120830D01*
X32680038Y-19111651D01*
X32700250Y-19104419D01*
X32721074Y-19099203D01*
X32742309Y-19096053D01*
X32763750Y-19095000D01*
X33276250Y-19095000D01*
X33297691Y-19096053D01*
X33297691Y-19096053D01*
G37*
D11*
X33020000Y-19532500D03*
D10*
G36*
X-2147309Y-31276053D02*
G01*
X-2126074Y-31279203D01*
X-2105250Y-31284419D01*
X-2085038Y-31291651D01*
X-2065632Y-31300830D01*
X-2047219Y-31311866D01*
X-2029976Y-31324654D01*
X-2014070Y-31339070D01*
X-1999654Y-31354976D01*
X-1986866Y-31372219D01*
X-1975830Y-31390632D01*
X-1966651Y-31410038D01*
X-1959419Y-31430250D01*
X-1954203Y-31451074D01*
X-1951053Y-31472309D01*
X-1950000Y-31493750D01*
X-1950000Y-32006250D01*
X-1951053Y-32027691D01*
X-1954203Y-32048926D01*
X-1959419Y-32069750D01*
X-1966651Y-32089962D01*
X-1975830Y-32109368D01*
X-1986866Y-32127781D01*
X-1999654Y-32145024D01*
X-2014070Y-32160930D01*
X-2029976Y-32175346D01*
X-2047219Y-32188134D01*
X-2065632Y-32199170D01*
X-2085038Y-32208349D01*
X-2105250Y-32215581D01*
X-2126074Y-32220797D01*
X-2147309Y-32223947D01*
X-2168750Y-32225000D01*
X-2606250Y-32225000D01*
X-2627691Y-32223947D01*
X-2648926Y-32220797D01*
X-2669750Y-32215581D01*
X-2689962Y-32208349D01*
X-2709368Y-32199170D01*
X-2727781Y-32188134D01*
X-2745024Y-32175346D01*
X-2760930Y-32160930D01*
X-2775346Y-32145024D01*
X-2788134Y-32127781D01*
X-2799170Y-32109368D01*
X-2808349Y-32089962D01*
X-2815581Y-32069750D01*
X-2820797Y-32048926D01*
X-2823947Y-32027691D01*
X-2825000Y-32006250D01*
X-2825000Y-31493750D01*
X-2823947Y-31472309D01*
X-2820797Y-31451074D01*
X-2815581Y-31430250D01*
X-2808349Y-31410038D01*
X-2799170Y-31390632D01*
X-2788134Y-31372219D01*
X-2775346Y-31354976D01*
X-2760930Y-31339070D01*
X-2745024Y-31324654D01*
X-2727781Y-31311866D01*
X-2709368Y-31300830D01*
X-2689962Y-31291651D01*
X-2669750Y-31284419D01*
X-2648926Y-31279203D01*
X-2627691Y-31276053D01*
X-2606250Y-31275000D01*
X-2168750Y-31275000D01*
X-2147309Y-31276053D01*
X-2147309Y-31276053D01*
G37*
D11*
X-2387500Y-31750000D03*
D10*
G36*
X-3722309Y-31276053D02*
G01*
X-3701074Y-31279203D01*
X-3680250Y-31284419D01*
X-3660038Y-31291651D01*
X-3640632Y-31300830D01*
X-3622219Y-31311866D01*
X-3604976Y-31324654D01*
X-3589070Y-31339070D01*
X-3574654Y-31354976D01*
X-3561866Y-31372219D01*
X-3550830Y-31390632D01*
X-3541651Y-31410038D01*
X-3534419Y-31430250D01*
X-3529203Y-31451074D01*
X-3526053Y-31472309D01*
X-3525000Y-31493750D01*
X-3525000Y-32006250D01*
X-3526053Y-32027691D01*
X-3529203Y-32048926D01*
X-3534419Y-32069750D01*
X-3541651Y-32089962D01*
X-3550830Y-32109368D01*
X-3561866Y-32127781D01*
X-3574654Y-32145024D01*
X-3589070Y-32160930D01*
X-3604976Y-32175346D01*
X-3622219Y-32188134D01*
X-3640632Y-32199170D01*
X-3660038Y-32208349D01*
X-3680250Y-32215581D01*
X-3701074Y-32220797D01*
X-3722309Y-32223947D01*
X-3743750Y-32225000D01*
X-4181250Y-32225000D01*
X-4202691Y-32223947D01*
X-4223926Y-32220797D01*
X-4244750Y-32215581D01*
X-4264962Y-32208349D01*
X-4284368Y-32199170D01*
X-4302781Y-32188134D01*
X-4320024Y-32175346D01*
X-4335930Y-32160930D01*
X-4350346Y-32145024D01*
X-4363134Y-32127781D01*
X-4374170Y-32109368D01*
X-4383349Y-32089962D01*
X-4390581Y-32069750D01*
X-4395797Y-32048926D01*
X-4398947Y-32027691D01*
X-4400000Y-32006250D01*
X-4400000Y-31493750D01*
X-4398947Y-31472309D01*
X-4395797Y-31451074D01*
X-4390581Y-31430250D01*
X-4383349Y-31410038D01*
X-4374170Y-31390632D01*
X-4363134Y-31372219D01*
X-4350346Y-31354976D01*
X-4335930Y-31339070D01*
X-4320024Y-31324654D01*
X-4302781Y-31311866D01*
X-4284368Y-31300830D01*
X-4264962Y-31291651D01*
X-4244750Y-31284419D01*
X-4223926Y-31279203D01*
X-4202691Y-31276053D01*
X-4181250Y-31275000D01*
X-3743750Y-31275000D01*
X-3722309Y-31276053D01*
X-3722309Y-31276053D01*
G37*
D11*
X-3962500Y-31750000D03*
D10*
G36*
X31392691Y-19096053D02*
G01*
X31413926Y-19099203D01*
X31434750Y-19104419D01*
X31454962Y-19111651D01*
X31474368Y-19120830D01*
X31492781Y-19131866D01*
X31510024Y-19144654D01*
X31525930Y-19159070D01*
X31540346Y-19174976D01*
X31553134Y-19192219D01*
X31564170Y-19210632D01*
X31573349Y-19230038D01*
X31580581Y-19250250D01*
X31585797Y-19271074D01*
X31588947Y-19292309D01*
X31590000Y-19313750D01*
X31590000Y-19751250D01*
X31588947Y-19772691D01*
X31585797Y-19793926D01*
X31580581Y-19814750D01*
X31573349Y-19834962D01*
X31564170Y-19854368D01*
X31553134Y-19872781D01*
X31540346Y-19890024D01*
X31525930Y-19905930D01*
X31510024Y-19920346D01*
X31492781Y-19933134D01*
X31474368Y-19944170D01*
X31454962Y-19953349D01*
X31434750Y-19960581D01*
X31413926Y-19965797D01*
X31392691Y-19968947D01*
X31371250Y-19970000D01*
X30858750Y-19970000D01*
X30837309Y-19968947D01*
X30816074Y-19965797D01*
X30795250Y-19960581D01*
X30775038Y-19953349D01*
X30755632Y-19944170D01*
X30737219Y-19933134D01*
X30719976Y-19920346D01*
X30704070Y-19905930D01*
X30689654Y-19890024D01*
X30676866Y-19872781D01*
X30665830Y-19854368D01*
X30656651Y-19834962D01*
X30649419Y-19814750D01*
X30644203Y-19793926D01*
X30641053Y-19772691D01*
X30640000Y-19751250D01*
X30640000Y-19313750D01*
X30641053Y-19292309D01*
X30644203Y-19271074D01*
X30649419Y-19250250D01*
X30656651Y-19230038D01*
X30665830Y-19210632D01*
X30676866Y-19192219D01*
X30689654Y-19174976D01*
X30704070Y-19159070D01*
X30719976Y-19144654D01*
X30737219Y-19131866D01*
X30755632Y-19120830D01*
X30775038Y-19111651D01*
X30795250Y-19104419D01*
X30816074Y-19099203D01*
X30837309Y-19096053D01*
X30858750Y-19095000D01*
X31371250Y-19095000D01*
X31392691Y-19096053D01*
X31392691Y-19096053D01*
G37*
D11*
X31115000Y-19532500D03*
D10*
G36*
X31392691Y-20671053D02*
G01*
X31413926Y-20674203D01*
X31434750Y-20679419D01*
X31454962Y-20686651D01*
X31474368Y-20695830D01*
X31492781Y-20706866D01*
X31510024Y-20719654D01*
X31525930Y-20734070D01*
X31540346Y-20749976D01*
X31553134Y-20767219D01*
X31564170Y-20785632D01*
X31573349Y-20805038D01*
X31580581Y-20825250D01*
X31585797Y-20846074D01*
X31588947Y-20867309D01*
X31590000Y-20888750D01*
X31590000Y-21326250D01*
X31588947Y-21347691D01*
X31585797Y-21368926D01*
X31580581Y-21389750D01*
X31573349Y-21409962D01*
X31564170Y-21429368D01*
X31553134Y-21447781D01*
X31540346Y-21465024D01*
X31525930Y-21480930D01*
X31510024Y-21495346D01*
X31492781Y-21508134D01*
X31474368Y-21519170D01*
X31454962Y-21528349D01*
X31434750Y-21535581D01*
X31413926Y-21540797D01*
X31392691Y-21543947D01*
X31371250Y-21545000D01*
X30858750Y-21545000D01*
X30837309Y-21543947D01*
X30816074Y-21540797D01*
X30795250Y-21535581D01*
X30775038Y-21528349D01*
X30755632Y-21519170D01*
X30737219Y-21508134D01*
X30719976Y-21495346D01*
X30704070Y-21480930D01*
X30689654Y-21465024D01*
X30676866Y-21447781D01*
X30665830Y-21429368D01*
X30656651Y-21409962D01*
X30649419Y-21389750D01*
X30644203Y-21368926D01*
X30641053Y-21347691D01*
X30640000Y-21326250D01*
X30640000Y-20888750D01*
X30641053Y-20867309D01*
X30644203Y-20846074D01*
X30649419Y-20825250D01*
X30656651Y-20805038D01*
X30665830Y-20785632D01*
X30676866Y-20767219D01*
X30689654Y-20749976D01*
X30704070Y-20734070D01*
X30719976Y-20719654D01*
X30737219Y-20706866D01*
X30755632Y-20695830D01*
X30775038Y-20686651D01*
X30795250Y-20679419D01*
X30816074Y-20674203D01*
X30837309Y-20671053D01*
X30858750Y-20670000D01*
X31371250Y-20670000D01*
X31392691Y-20671053D01*
X31392691Y-20671053D01*
G37*
D11*
X31115000Y-21107500D03*
D10*
G36*
X42937691Y-9051053D02*
G01*
X42958926Y-9054203D01*
X42979750Y-9059419D01*
X42999962Y-9066651D01*
X43019368Y-9075830D01*
X43037781Y-9086866D01*
X43055024Y-9099654D01*
X43070930Y-9114070D01*
X43085346Y-9129976D01*
X43098134Y-9147219D01*
X43109170Y-9165632D01*
X43118349Y-9185038D01*
X43125581Y-9205250D01*
X43130797Y-9226074D01*
X43133947Y-9247309D01*
X43135000Y-9268750D01*
X43135000Y-9781250D01*
X43133947Y-9802691D01*
X43130797Y-9823926D01*
X43125581Y-9844750D01*
X43118349Y-9864962D01*
X43109170Y-9884368D01*
X43098134Y-9902781D01*
X43085346Y-9920024D01*
X43070930Y-9935930D01*
X43055024Y-9950346D01*
X43037781Y-9963134D01*
X43019368Y-9974170D01*
X42999962Y-9983349D01*
X42979750Y-9990581D01*
X42958926Y-9995797D01*
X42937691Y-9998947D01*
X42916250Y-10000000D01*
X42478750Y-10000000D01*
X42457309Y-9998947D01*
X42436074Y-9995797D01*
X42415250Y-9990581D01*
X42395038Y-9983349D01*
X42375632Y-9974170D01*
X42357219Y-9963134D01*
X42339976Y-9950346D01*
X42324070Y-9935930D01*
X42309654Y-9920024D01*
X42296866Y-9902781D01*
X42285830Y-9884368D01*
X42276651Y-9864962D01*
X42269419Y-9844750D01*
X42264203Y-9823926D01*
X42261053Y-9802691D01*
X42260000Y-9781250D01*
X42260000Y-9268750D01*
X42261053Y-9247309D01*
X42264203Y-9226074D01*
X42269419Y-9205250D01*
X42276651Y-9185038D01*
X42285830Y-9165632D01*
X42296866Y-9147219D01*
X42309654Y-9129976D01*
X42324070Y-9114070D01*
X42339976Y-9099654D01*
X42357219Y-9086866D01*
X42375632Y-9075830D01*
X42395038Y-9066651D01*
X42415250Y-9059419D01*
X42436074Y-9054203D01*
X42457309Y-9051053D01*
X42478750Y-9050000D01*
X42916250Y-9050000D01*
X42937691Y-9051053D01*
X42937691Y-9051053D01*
G37*
D11*
X42697500Y-9525000D03*
D10*
G36*
X41362691Y-9051053D02*
G01*
X41383926Y-9054203D01*
X41404750Y-9059419D01*
X41424962Y-9066651D01*
X41444368Y-9075830D01*
X41462781Y-9086866D01*
X41480024Y-9099654D01*
X41495930Y-9114070D01*
X41510346Y-9129976D01*
X41523134Y-9147219D01*
X41534170Y-9165632D01*
X41543349Y-9185038D01*
X41550581Y-9205250D01*
X41555797Y-9226074D01*
X41558947Y-9247309D01*
X41560000Y-9268750D01*
X41560000Y-9781250D01*
X41558947Y-9802691D01*
X41555797Y-9823926D01*
X41550581Y-9844750D01*
X41543349Y-9864962D01*
X41534170Y-9884368D01*
X41523134Y-9902781D01*
X41510346Y-9920024D01*
X41495930Y-9935930D01*
X41480024Y-9950346D01*
X41462781Y-9963134D01*
X41444368Y-9974170D01*
X41424962Y-9983349D01*
X41404750Y-9990581D01*
X41383926Y-9995797D01*
X41362691Y-9998947D01*
X41341250Y-10000000D01*
X40903750Y-10000000D01*
X40882309Y-9998947D01*
X40861074Y-9995797D01*
X40840250Y-9990581D01*
X40820038Y-9983349D01*
X40800632Y-9974170D01*
X40782219Y-9963134D01*
X40764976Y-9950346D01*
X40749070Y-9935930D01*
X40734654Y-9920024D01*
X40721866Y-9902781D01*
X40710830Y-9884368D01*
X40701651Y-9864962D01*
X40694419Y-9844750D01*
X40689203Y-9823926D01*
X40686053Y-9802691D01*
X40685000Y-9781250D01*
X40685000Y-9268750D01*
X40686053Y-9247309D01*
X40689203Y-9226074D01*
X40694419Y-9205250D01*
X40701651Y-9185038D01*
X40710830Y-9165632D01*
X40721866Y-9147219D01*
X40734654Y-9129976D01*
X40749070Y-9114070D01*
X40764976Y-9099654D01*
X40782219Y-9086866D01*
X40800632Y-9075830D01*
X40820038Y-9066651D01*
X40840250Y-9059419D01*
X40861074Y-9054203D01*
X40882309Y-9051053D01*
X40903750Y-9050000D01*
X41341250Y-9050000D01*
X41362691Y-9051053D01*
X41362691Y-9051053D01*
G37*
D11*
X41122500Y-9525000D03*
D10*
G36*
X38492691Y-23656053D02*
G01*
X38513926Y-23659203D01*
X38534750Y-23664419D01*
X38554962Y-23671651D01*
X38574368Y-23680830D01*
X38592781Y-23691866D01*
X38610024Y-23704654D01*
X38625930Y-23719070D01*
X38640346Y-23734976D01*
X38653134Y-23752219D01*
X38664170Y-23770632D01*
X38673349Y-23790038D01*
X38680581Y-23810250D01*
X38685797Y-23831074D01*
X38688947Y-23852309D01*
X38690000Y-23873750D01*
X38690000Y-24386250D01*
X38688947Y-24407691D01*
X38685797Y-24428926D01*
X38680581Y-24449750D01*
X38673349Y-24469962D01*
X38664170Y-24489368D01*
X38653134Y-24507781D01*
X38640346Y-24525024D01*
X38625930Y-24540930D01*
X38610024Y-24555346D01*
X38592781Y-24568134D01*
X38574368Y-24579170D01*
X38554962Y-24588349D01*
X38534750Y-24595581D01*
X38513926Y-24600797D01*
X38492691Y-24603947D01*
X38471250Y-24605000D01*
X38033750Y-24605000D01*
X38012309Y-24603947D01*
X37991074Y-24600797D01*
X37970250Y-24595581D01*
X37950038Y-24588349D01*
X37930632Y-24579170D01*
X37912219Y-24568134D01*
X37894976Y-24555346D01*
X37879070Y-24540930D01*
X37864654Y-24525024D01*
X37851866Y-24507781D01*
X37840830Y-24489368D01*
X37831651Y-24469962D01*
X37824419Y-24449750D01*
X37819203Y-24428926D01*
X37816053Y-24407691D01*
X37815000Y-24386250D01*
X37815000Y-23873750D01*
X37816053Y-23852309D01*
X37819203Y-23831074D01*
X37824419Y-23810250D01*
X37831651Y-23790038D01*
X37840830Y-23770632D01*
X37851866Y-23752219D01*
X37864654Y-23734976D01*
X37879070Y-23719070D01*
X37894976Y-23704654D01*
X37912219Y-23691866D01*
X37930632Y-23680830D01*
X37950038Y-23671651D01*
X37970250Y-23664419D01*
X37991074Y-23659203D01*
X38012309Y-23656053D01*
X38033750Y-23655000D01*
X38471250Y-23655000D01*
X38492691Y-23656053D01*
X38492691Y-23656053D01*
G37*
D11*
X38252500Y-24130000D03*
D10*
G36*
X36917691Y-23656053D02*
G01*
X36938926Y-23659203D01*
X36959750Y-23664419D01*
X36979962Y-23671651D01*
X36999368Y-23680830D01*
X37017781Y-23691866D01*
X37035024Y-23704654D01*
X37050930Y-23719070D01*
X37065346Y-23734976D01*
X37078134Y-23752219D01*
X37089170Y-23770632D01*
X37098349Y-23790038D01*
X37105581Y-23810250D01*
X37110797Y-23831074D01*
X37113947Y-23852309D01*
X37115000Y-23873750D01*
X37115000Y-24386250D01*
X37113947Y-24407691D01*
X37110797Y-24428926D01*
X37105581Y-24449750D01*
X37098349Y-24469962D01*
X37089170Y-24489368D01*
X37078134Y-24507781D01*
X37065346Y-24525024D01*
X37050930Y-24540930D01*
X37035024Y-24555346D01*
X37017781Y-24568134D01*
X36999368Y-24579170D01*
X36979962Y-24588349D01*
X36959750Y-24595581D01*
X36938926Y-24600797D01*
X36917691Y-24603947D01*
X36896250Y-24605000D01*
X36458750Y-24605000D01*
X36437309Y-24603947D01*
X36416074Y-24600797D01*
X36395250Y-24595581D01*
X36375038Y-24588349D01*
X36355632Y-24579170D01*
X36337219Y-24568134D01*
X36319976Y-24555346D01*
X36304070Y-24540930D01*
X36289654Y-24525024D01*
X36276866Y-24507781D01*
X36265830Y-24489368D01*
X36256651Y-24469962D01*
X36249419Y-24449750D01*
X36244203Y-24428926D01*
X36241053Y-24407691D01*
X36240000Y-24386250D01*
X36240000Y-23873750D01*
X36241053Y-23852309D01*
X36244203Y-23831074D01*
X36249419Y-23810250D01*
X36256651Y-23790038D01*
X36265830Y-23770632D01*
X36276866Y-23752219D01*
X36289654Y-23734976D01*
X36304070Y-23719070D01*
X36319976Y-23704654D01*
X36337219Y-23691866D01*
X36355632Y-23680830D01*
X36375038Y-23671651D01*
X36395250Y-23664419D01*
X36416074Y-23659203D01*
X36437309Y-23656053D01*
X36458750Y-23655000D01*
X36896250Y-23655000D01*
X36917691Y-23656053D01*
X36917691Y-23656053D01*
G37*
D11*
X36677500Y-24130000D03*
D12*
X-37870000Y8665000D03*
D13*
X-36830000Y12470000D03*
D12*
X-35790000Y8665000D03*
D10*
G36*
X-30625497Y26748796D02*
G01*
X-30601228Y26745196D01*
X-30577430Y26739235D01*
X-30554330Y26730970D01*
X-30532151Y26720480D01*
X-30511108Y26707867D01*
X-30491402Y26693252D01*
X-30473224Y26676776D01*
X-30456748Y26658598D01*
X-30442133Y26638892D01*
X-30429520Y26617849D01*
X-30419030Y26595670D01*
X-30410765Y26572570D01*
X-30404804Y26548772D01*
X-30401204Y26524503D01*
X-30400000Y26499999D01*
X-30400000Y24300001D01*
X-30401204Y24275497D01*
X-30404804Y24251228D01*
X-30410765Y24227430D01*
X-30419030Y24204330D01*
X-30429520Y24182151D01*
X-30442133Y24161108D01*
X-30456748Y24141402D01*
X-30473224Y24123224D01*
X-30491402Y24106748D01*
X-30511108Y24092133D01*
X-30532151Y24079520D01*
X-30554330Y24069030D01*
X-30577430Y24060765D01*
X-30601228Y24054804D01*
X-30625497Y24051204D01*
X-30650001Y24050000D01*
X-32849999Y24050000D01*
X-32874503Y24051204D01*
X-32898772Y24054804D01*
X-32922570Y24060765D01*
X-32945670Y24069030D01*
X-32967849Y24079520D01*
X-32988892Y24092133D01*
X-33008598Y24106748D01*
X-33026776Y24123224D01*
X-33043252Y24141402D01*
X-33057867Y24161108D01*
X-33070480Y24182151D01*
X-33080970Y24204330D01*
X-33089235Y24227430D01*
X-33095196Y24251228D01*
X-33098796Y24275497D01*
X-33100000Y24300001D01*
X-33100000Y26499999D01*
X-33098796Y26524503D01*
X-33095196Y26548772D01*
X-33089235Y26572570D01*
X-33080970Y26595670D01*
X-33070480Y26617849D01*
X-33057867Y26638892D01*
X-33043252Y26658598D01*
X-33026776Y26676776D01*
X-33008598Y26693252D01*
X-32988892Y26707867D01*
X-32967849Y26720480D01*
X-32945670Y26730970D01*
X-32922570Y26739235D01*
X-32898772Y26745196D01*
X-32874503Y26748796D01*
X-32849999Y26750000D01*
X-30650001Y26750000D01*
X-30625497Y26748796D01*
X-30625497Y26748796D01*
G37*
D14*
X-31750000Y25400000D03*
X-31750000Y21440000D03*
D10*
G36*
X-30625497Y2618796D02*
G01*
X-30601228Y2615196D01*
X-30577430Y2609235D01*
X-30554330Y2600970D01*
X-30532151Y2590480D01*
X-30511108Y2577867D01*
X-30491402Y2563252D01*
X-30473224Y2546776D01*
X-30456748Y2528598D01*
X-30442133Y2508892D01*
X-30429520Y2487849D01*
X-30419030Y2465670D01*
X-30410765Y2442570D01*
X-30404804Y2418772D01*
X-30401204Y2394503D01*
X-30400000Y2369999D01*
X-30400000Y170001D01*
X-30401204Y145497D01*
X-30404804Y121228D01*
X-30410765Y97430D01*
X-30419030Y74330D01*
X-30429520Y52151D01*
X-30442133Y31108D01*
X-30456748Y11402D01*
X-30473224Y-6776D01*
X-30491402Y-23252D01*
X-30511108Y-37867D01*
X-30532151Y-50480D01*
X-30554330Y-60970D01*
X-30577430Y-69235D01*
X-30601228Y-75196D01*
X-30625497Y-78796D01*
X-30650001Y-80000D01*
X-32849999Y-80000D01*
X-32874503Y-78796D01*
X-32898772Y-75196D01*
X-32922570Y-69235D01*
X-32945670Y-60970D01*
X-32967849Y-50480D01*
X-32988892Y-37867D01*
X-33008598Y-23252D01*
X-33026776Y-6776D01*
X-33043252Y11402D01*
X-33057867Y31108D01*
X-33070480Y52151D01*
X-33080970Y74330D01*
X-33089235Y97430D01*
X-33095196Y121228D01*
X-33098796Y145497D01*
X-33100000Y170001D01*
X-33100000Y2369999D01*
X-33098796Y2394503D01*
X-33095196Y2418772D01*
X-33089235Y2442570D01*
X-33080970Y2465670D01*
X-33070480Y2487849D01*
X-33057867Y2508892D01*
X-33043252Y2528598D01*
X-33026776Y2546776D01*
X-33008598Y2563252D01*
X-32988892Y2577867D01*
X-32967849Y2590480D01*
X-32945670Y2600970D01*
X-32922570Y2609235D01*
X-32898772Y2615196D01*
X-32874503Y2618796D01*
X-32849999Y2620000D01*
X-30650001Y2620000D01*
X-30625497Y2618796D01*
X-30625497Y2618796D01*
G37*
D14*
X-31750000Y1270000D03*
X-31750000Y-2690000D03*
X-31750000Y-6650000D03*
X-31750000Y9375000D03*
D10*
G36*
X-30625497Y14683796D02*
G01*
X-30601228Y14680196D01*
X-30577430Y14674235D01*
X-30554330Y14665970D01*
X-30532151Y14655480D01*
X-30511108Y14642867D01*
X-30491402Y14628252D01*
X-30473224Y14611776D01*
X-30456748Y14593598D01*
X-30442133Y14573892D01*
X-30429520Y14552849D01*
X-30419030Y14530670D01*
X-30410765Y14507570D01*
X-30404804Y14483772D01*
X-30401204Y14459503D01*
X-30400000Y14434999D01*
X-30400000Y12235001D01*
X-30401204Y12210497D01*
X-30404804Y12186228D01*
X-30410765Y12162430D01*
X-30419030Y12139330D01*
X-30429520Y12117151D01*
X-30442133Y12096108D01*
X-30456748Y12076402D01*
X-30473224Y12058224D01*
X-30491402Y12041748D01*
X-30511108Y12027133D01*
X-30532151Y12014520D01*
X-30554330Y12004030D01*
X-30577430Y11995765D01*
X-30601228Y11989804D01*
X-30625497Y11986204D01*
X-30650001Y11985000D01*
X-32849999Y11985000D01*
X-32874503Y11986204D01*
X-32898772Y11989804D01*
X-32922570Y11995765D01*
X-32945670Y12004030D01*
X-32967849Y12014520D01*
X-32988892Y12027133D01*
X-33008598Y12041748D01*
X-33026776Y12058224D01*
X-33043252Y12076402D01*
X-33057867Y12096108D01*
X-33070480Y12117151D01*
X-33080970Y12139330D01*
X-33089235Y12162430D01*
X-33095196Y12186228D01*
X-33098796Y12210497D01*
X-33100000Y12235001D01*
X-33100000Y14434999D01*
X-33098796Y14459503D01*
X-33095196Y14483772D01*
X-33089235Y14507570D01*
X-33080970Y14530670D01*
X-33070480Y14552849D01*
X-33057867Y14573892D01*
X-33043252Y14593598D01*
X-33026776Y14611776D01*
X-33008598Y14628252D01*
X-32988892Y14642867D01*
X-32967849Y14655480D01*
X-32945670Y14665970D01*
X-32922570Y14674235D01*
X-32898772Y14680196D01*
X-32874503Y14683796D01*
X-32849999Y14685000D01*
X-30650001Y14685000D01*
X-30625497Y14683796D01*
X-30625497Y14683796D01*
G37*
D14*
X-31750000Y13335000D03*
D15*
X-6380000Y-28194000D03*
D10*
G36*
X-5830000Y-28944000D02*
G01*
X-6380000Y-28944000D01*
X-6380000Y-28943398D01*
X-6404534Y-28943398D01*
X-6453365Y-28938588D01*
X-6501490Y-28929016D01*
X-6548445Y-28914772D01*
X-6593778Y-28895995D01*
X-6637051Y-28872864D01*
X-6677850Y-28845604D01*
X-6715779Y-28814476D01*
X-6750476Y-28779779D01*
X-6781604Y-28741850D01*
X-6808864Y-28701051D01*
X-6831995Y-28657778D01*
X-6850772Y-28612445D01*
X-6865016Y-28565490D01*
X-6874588Y-28517365D01*
X-6879398Y-28468534D01*
X-6879398Y-28444000D01*
X-6880000Y-28444000D01*
X-6880000Y-27944000D01*
X-6879398Y-27944000D01*
X-6879398Y-27919466D01*
X-6874588Y-27870635D01*
X-6865016Y-27822510D01*
X-6850772Y-27775555D01*
X-6831995Y-27730222D01*
X-6808864Y-27686949D01*
X-6781604Y-27646150D01*
X-6750476Y-27608221D01*
X-6715779Y-27573524D01*
X-6677850Y-27542396D01*
X-6637051Y-27515136D01*
X-6593778Y-27492005D01*
X-6548445Y-27473228D01*
X-6501490Y-27458984D01*
X-6453365Y-27449412D01*
X-6404534Y-27444602D01*
X-6380000Y-27444602D01*
X-6380000Y-27444000D01*
X-5830000Y-27444000D01*
X-5830000Y-28944000D01*
X-5830000Y-28944000D01*
G37*
D16*
X-5080000Y-28194000D03*
D15*
X-3780000Y-28194000D03*
D10*
G36*
X-3780000Y-27444602D02*
G01*
X-3755466Y-27444602D01*
X-3706635Y-27449412D01*
X-3658510Y-27458984D01*
X-3611555Y-27473228D01*
X-3566222Y-27492005D01*
X-3522949Y-27515136D01*
X-3482150Y-27542396D01*
X-3444221Y-27573524D01*
X-3409524Y-27608221D01*
X-3378396Y-27646150D01*
X-3351136Y-27686949D01*
X-3328005Y-27730222D01*
X-3309228Y-27775555D01*
X-3294984Y-27822510D01*
X-3285412Y-27870635D01*
X-3280602Y-27919466D01*
X-3280602Y-27944000D01*
X-3280000Y-27944000D01*
X-3280000Y-28444000D01*
X-3280602Y-28444000D01*
X-3280602Y-28468534D01*
X-3285412Y-28517365D01*
X-3294984Y-28565490D01*
X-3309228Y-28612445D01*
X-3328005Y-28657778D01*
X-3351136Y-28701051D01*
X-3378396Y-28741850D01*
X-3409524Y-28779779D01*
X-3444221Y-28814476D01*
X-3482150Y-28845604D01*
X-3522949Y-28872864D01*
X-3566222Y-28895995D01*
X-3611555Y-28914772D01*
X-3658510Y-28929016D01*
X-3706635Y-28938588D01*
X-3755466Y-28943398D01*
X-3780000Y-28943398D01*
X-3780000Y-28944000D01*
X-4330000Y-28944000D01*
X-4330000Y-27444000D01*
X-3780000Y-27444000D01*
X-3780000Y-27444602D01*
X-3780000Y-27444602D01*
G37*
D15*
X26700000Y-23114000D03*
D10*
G36*
X26700000Y-22364602D02*
G01*
X26724534Y-22364602D01*
X26773365Y-22369412D01*
X26821490Y-22378984D01*
X26868445Y-22393228D01*
X26913778Y-22412005D01*
X26957051Y-22435136D01*
X26997850Y-22462396D01*
X27035779Y-22493524D01*
X27070476Y-22528221D01*
X27101604Y-22566150D01*
X27128864Y-22606949D01*
X27151995Y-22650222D01*
X27170772Y-22695555D01*
X27185016Y-22742510D01*
X27194588Y-22790635D01*
X27199398Y-22839466D01*
X27199398Y-22864000D01*
X27200000Y-22864000D01*
X27200000Y-23364000D01*
X27199398Y-23364000D01*
X27199398Y-23388534D01*
X27194588Y-23437365D01*
X27185016Y-23485490D01*
X27170772Y-23532445D01*
X27151995Y-23577778D01*
X27128864Y-23621051D01*
X27101604Y-23661850D01*
X27070476Y-23699779D01*
X27035779Y-23734476D01*
X26997850Y-23765604D01*
X26957051Y-23792864D01*
X26913778Y-23815995D01*
X26868445Y-23834772D01*
X26821490Y-23849016D01*
X26773365Y-23858588D01*
X26724534Y-23863398D01*
X26700000Y-23863398D01*
X26700000Y-23864000D01*
X26150000Y-23864000D01*
X26150000Y-22364000D01*
X26700000Y-22364000D01*
X26700000Y-22364602D01*
X26700000Y-22364602D01*
G37*
D16*
X25400000Y-23114000D03*
D15*
X24100000Y-23114000D03*
D10*
G36*
X24650000Y-23864000D02*
G01*
X24100000Y-23864000D01*
X24100000Y-23863398D01*
X24075466Y-23863398D01*
X24026635Y-23858588D01*
X23978510Y-23849016D01*
X23931555Y-23834772D01*
X23886222Y-23815995D01*
X23842949Y-23792864D01*
X23802150Y-23765604D01*
X23764221Y-23734476D01*
X23729524Y-23699779D01*
X23698396Y-23661850D01*
X23671136Y-23621051D01*
X23648005Y-23577778D01*
X23629228Y-23532445D01*
X23614984Y-23485490D01*
X23605412Y-23437365D01*
X23600602Y-23388534D01*
X23600602Y-23364000D01*
X23600000Y-23364000D01*
X23600000Y-22864000D01*
X23600602Y-22864000D01*
X23600602Y-22839466D01*
X23605412Y-22790635D01*
X23614984Y-22742510D01*
X23629228Y-22695555D01*
X23648005Y-22650222D01*
X23671136Y-22606949D01*
X23698396Y-22566150D01*
X23729524Y-22528221D01*
X23764221Y-22493524D01*
X23802150Y-22462396D01*
X23842949Y-22435136D01*
X23886222Y-22412005D01*
X23931555Y-22393228D01*
X23978510Y-22378984D01*
X24026635Y-22369412D01*
X24075466Y-22364602D01*
X24100000Y-22364602D01*
X24100000Y-22364000D01*
X24650000Y-22364000D01*
X24650000Y-23864000D01*
X24650000Y-23864000D01*
G37*
D17*
X-15240000Y9525000D03*
D18*
X-12700000Y9525000D03*
X-10160000Y9525000D03*
X0Y15875000D03*
X2540000Y15875000D03*
D17*
X5080000Y15875000D03*
X0Y9525000D03*
D18*
X2540000Y9525000D03*
X5080000Y9525000D03*
X15240000Y15875000D03*
X17780000Y15875000D03*
D17*
X20320000Y15875000D03*
X15240000Y9525000D03*
D18*
X17780000Y9525000D03*
X20320000Y9525000D03*
X30480000Y15875000D03*
X33020000Y15875000D03*
D17*
X35560000Y15875000D03*
X30480000Y9525000D03*
D18*
X33020000Y9525000D03*
X35560000Y9525000D03*
D10*
G36*
X-1182309Y-23656053D02*
G01*
X-1161074Y-23659203D01*
X-1140250Y-23664419D01*
X-1120038Y-23671651D01*
X-1100632Y-23680830D01*
X-1082219Y-23691866D01*
X-1064976Y-23704654D01*
X-1049070Y-23719070D01*
X-1034654Y-23734976D01*
X-1021866Y-23752219D01*
X-1010830Y-23770632D01*
X-1001651Y-23790038D01*
X-994419Y-23810250D01*
X-989203Y-23831074D01*
X-986053Y-23852309D01*
X-985000Y-23873750D01*
X-985000Y-24386250D01*
X-986053Y-24407691D01*
X-989203Y-24428926D01*
X-994419Y-24449750D01*
X-1001651Y-24469962D01*
X-1010830Y-24489368D01*
X-1021866Y-24507781D01*
X-1034654Y-24525024D01*
X-1049070Y-24540930D01*
X-1064976Y-24555346D01*
X-1082219Y-24568134D01*
X-1100632Y-24579170D01*
X-1120038Y-24588349D01*
X-1140250Y-24595581D01*
X-1161074Y-24600797D01*
X-1182309Y-24603947D01*
X-1203750Y-24605000D01*
X-1641250Y-24605000D01*
X-1662691Y-24603947D01*
X-1683926Y-24600797D01*
X-1704750Y-24595581D01*
X-1724962Y-24588349D01*
X-1744368Y-24579170D01*
X-1762781Y-24568134D01*
X-1780024Y-24555346D01*
X-1795930Y-24540930D01*
X-1810346Y-24525024D01*
X-1823134Y-24507781D01*
X-1834170Y-24489368D01*
X-1843349Y-24469962D01*
X-1850581Y-24449750D01*
X-1855797Y-24428926D01*
X-1858947Y-24407691D01*
X-1860000Y-24386250D01*
X-1860000Y-23873750D01*
X-1858947Y-23852309D01*
X-1855797Y-23831074D01*
X-1850581Y-23810250D01*
X-1843349Y-23790038D01*
X-1834170Y-23770632D01*
X-1823134Y-23752219D01*
X-1810346Y-23734976D01*
X-1795930Y-23719070D01*
X-1780024Y-23704654D01*
X-1762781Y-23691866D01*
X-1744368Y-23680830D01*
X-1724962Y-23671651D01*
X-1704750Y-23664419D01*
X-1683926Y-23659203D01*
X-1662691Y-23656053D01*
X-1641250Y-23655000D01*
X-1203750Y-23655000D01*
X-1182309Y-23656053D01*
X-1182309Y-23656053D01*
G37*
D11*
X-1422500Y-24130000D03*
D10*
G36*
X392691Y-23656053D02*
G01*
X413926Y-23659203D01*
X434750Y-23664419D01*
X454962Y-23671651D01*
X474368Y-23680830D01*
X492781Y-23691866D01*
X510024Y-23704654D01*
X525930Y-23719070D01*
X540346Y-23734976D01*
X553134Y-23752219D01*
X564170Y-23770632D01*
X573349Y-23790038D01*
X580581Y-23810250D01*
X585797Y-23831074D01*
X588947Y-23852309D01*
X590000Y-23873750D01*
X590000Y-24386250D01*
X588947Y-24407691D01*
X585797Y-24428926D01*
X580581Y-24449750D01*
X573349Y-24469962D01*
X564170Y-24489368D01*
X553134Y-24507781D01*
X540346Y-24525024D01*
X525930Y-24540930D01*
X510024Y-24555346D01*
X492781Y-24568134D01*
X474368Y-24579170D01*
X454962Y-24588349D01*
X434750Y-24595581D01*
X413926Y-24600797D01*
X392691Y-24603947D01*
X371250Y-24605000D01*
X-66250Y-24605000D01*
X-87691Y-24603947D01*
X-108926Y-24600797D01*
X-129750Y-24595581D01*
X-149962Y-24588349D01*
X-169368Y-24579170D01*
X-187781Y-24568134D01*
X-205024Y-24555346D01*
X-220930Y-24540930D01*
X-235346Y-24525024D01*
X-248134Y-24507781D01*
X-259170Y-24489368D01*
X-268349Y-24469962D01*
X-275581Y-24449750D01*
X-280797Y-24428926D01*
X-283947Y-24407691D01*
X-285000Y-24386250D01*
X-285000Y-23873750D01*
X-283947Y-23852309D01*
X-280797Y-23831074D01*
X-275581Y-23810250D01*
X-268349Y-23790038D01*
X-259170Y-23770632D01*
X-248134Y-23752219D01*
X-235346Y-23734976D01*
X-220930Y-23719070D01*
X-205024Y-23704654D01*
X-187781Y-23691866D01*
X-169368Y-23680830D01*
X-149962Y-23671651D01*
X-129750Y-23664419D01*
X-108926Y-23659203D01*
X-87691Y-23656053D01*
X-66250Y-23655000D01*
X371250Y-23655000D01*
X392691Y-23656053D01*
X392691Y-23656053D01*
G37*
D11*
X152500Y-24130000D03*
D10*
G36*
X35202691Y-20671053D02*
G01*
X35223926Y-20674203D01*
X35244750Y-20679419D01*
X35264962Y-20686651D01*
X35284368Y-20695830D01*
X35302781Y-20706866D01*
X35320024Y-20719654D01*
X35335930Y-20734070D01*
X35350346Y-20749976D01*
X35363134Y-20767219D01*
X35374170Y-20785632D01*
X35383349Y-20805038D01*
X35390581Y-20825250D01*
X35395797Y-20846074D01*
X35398947Y-20867309D01*
X35400000Y-20888750D01*
X35400000Y-21326250D01*
X35398947Y-21347691D01*
X35395797Y-21368926D01*
X35390581Y-21389750D01*
X35383349Y-21409962D01*
X35374170Y-21429368D01*
X35363134Y-21447781D01*
X35350346Y-21465024D01*
X35335930Y-21480930D01*
X35320024Y-21495346D01*
X35302781Y-21508134D01*
X35284368Y-21519170D01*
X35264962Y-21528349D01*
X35244750Y-21535581D01*
X35223926Y-21540797D01*
X35202691Y-21543947D01*
X35181250Y-21545000D01*
X34668750Y-21545000D01*
X34647309Y-21543947D01*
X34626074Y-21540797D01*
X34605250Y-21535581D01*
X34585038Y-21528349D01*
X34565632Y-21519170D01*
X34547219Y-21508134D01*
X34529976Y-21495346D01*
X34514070Y-21480930D01*
X34499654Y-21465024D01*
X34486866Y-21447781D01*
X34475830Y-21429368D01*
X34466651Y-21409962D01*
X34459419Y-21389750D01*
X34454203Y-21368926D01*
X34451053Y-21347691D01*
X34450000Y-21326250D01*
X34450000Y-20888750D01*
X34451053Y-20867309D01*
X34454203Y-20846074D01*
X34459419Y-20825250D01*
X34466651Y-20805038D01*
X34475830Y-20785632D01*
X34486866Y-20767219D01*
X34499654Y-20749976D01*
X34514070Y-20734070D01*
X34529976Y-20719654D01*
X34547219Y-20706866D01*
X34565632Y-20695830D01*
X34585038Y-20686651D01*
X34605250Y-20679419D01*
X34626074Y-20674203D01*
X34647309Y-20671053D01*
X34668750Y-20670000D01*
X35181250Y-20670000D01*
X35202691Y-20671053D01*
X35202691Y-20671053D01*
G37*
D11*
X34925000Y-21107500D03*
D10*
G36*
X35202691Y-19096053D02*
G01*
X35223926Y-19099203D01*
X35244750Y-19104419D01*
X35264962Y-19111651D01*
X35284368Y-19120830D01*
X35302781Y-19131866D01*
X35320024Y-19144654D01*
X35335930Y-19159070D01*
X35350346Y-19174976D01*
X35363134Y-19192219D01*
X35374170Y-19210632D01*
X35383349Y-19230038D01*
X35390581Y-19250250D01*
X35395797Y-19271074D01*
X35398947Y-19292309D01*
X35400000Y-19313750D01*
X35400000Y-19751250D01*
X35398947Y-19772691D01*
X35395797Y-19793926D01*
X35390581Y-19814750D01*
X35383349Y-19834962D01*
X35374170Y-19854368D01*
X35363134Y-19872781D01*
X35350346Y-19890024D01*
X35335930Y-19905930D01*
X35320024Y-19920346D01*
X35302781Y-19933134D01*
X35284368Y-19944170D01*
X35264962Y-19953349D01*
X35244750Y-19960581D01*
X35223926Y-19965797D01*
X35202691Y-19968947D01*
X35181250Y-19970000D01*
X34668750Y-19970000D01*
X34647309Y-19968947D01*
X34626074Y-19965797D01*
X34605250Y-19960581D01*
X34585038Y-19953349D01*
X34565632Y-19944170D01*
X34547219Y-19933134D01*
X34529976Y-19920346D01*
X34514070Y-19905930D01*
X34499654Y-19890024D01*
X34486866Y-19872781D01*
X34475830Y-19854368D01*
X34466651Y-19834962D01*
X34459419Y-19814750D01*
X34454203Y-19793926D01*
X34451053Y-19772691D01*
X34450000Y-19751250D01*
X34450000Y-19313750D01*
X34451053Y-19292309D01*
X34454203Y-19271074D01*
X34459419Y-19250250D01*
X34466651Y-19230038D01*
X34475830Y-19210632D01*
X34486866Y-19192219D01*
X34499654Y-19174976D01*
X34514070Y-19159070D01*
X34529976Y-19144654D01*
X34547219Y-19131866D01*
X34565632Y-19120830D01*
X34585038Y-19111651D01*
X34605250Y-19104419D01*
X34626074Y-19099203D01*
X34647309Y-19096053D01*
X34668750Y-19095000D01*
X35181250Y-19095000D01*
X35202691Y-19096053D01*
X35202691Y-19096053D01*
G37*
D11*
X34925000Y-19532500D03*
D10*
G36*
X-5957309Y-29752053D02*
G01*
X-5936074Y-29755203D01*
X-5915250Y-29760419D01*
X-5895038Y-29767651D01*
X-5875632Y-29776830D01*
X-5857219Y-29787866D01*
X-5839976Y-29800654D01*
X-5824070Y-29815070D01*
X-5809654Y-29830976D01*
X-5796866Y-29848219D01*
X-5785830Y-29866632D01*
X-5776651Y-29886038D01*
X-5769419Y-29906250D01*
X-5764203Y-29927074D01*
X-5761053Y-29948309D01*
X-5760000Y-29969750D01*
X-5760000Y-30482250D01*
X-5761053Y-30503691D01*
X-5764203Y-30524926D01*
X-5769419Y-30545750D01*
X-5776651Y-30565962D01*
X-5785830Y-30585368D01*
X-5796866Y-30603781D01*
X-5809654Y-30621024D01*
X-5824070Y-30636930D01*
X-5839976Y-30651346D01*
X-5857219Y-30664134D01*
X-5875632Y-30675170D01*
X-5895038Y-30684349D01*
X-5915250Y-30691581D01*
X-5936074Y-30696797D01*
X-5957309Y-30699947D01*
X-5978750Y-30701000D01*
X-6416250Y-30701000D01*
X-6437691Y-30699947D01*
X-6458926Y-30696797D01*
X-6479750Y-30691581D01*
X-6499962Y-30684349D01*
X-6519368Y-30675170D01*
X-6537781Y-30664134D01*
X-6555024Y-30651346D01*
X-6570930Y-30636930D01*
X-6585346Y-30621024D01*
X-6598134Y-30603781D01*
X-6609170Y-30585368D01*
X-6618349Y-30565962D01*
X-6625581Y-30545750D01*
X-6630797Y-30524926D01*
X-6633947Y-30503691D01*
X-6635000Y-30482250D01*
X-6635000Y-29969750D01*
X-6633947Y-29948309D01*
X-6630797Y-29927074D01*
X-6625581Y-29906250D01*
X-6618349Y-29886038D01*
X-6609170Y-29866632D01*
X-6598134Y-29848219D01*
X-6585346Y-29830976D01*
X-6570930Y-29815070D01*
X-6555024Y-29800654D01*
X-6537781Y-29787866D01*
X-6519368Y-29776830D01*
X-6499962Y-29767651D01*
X-6479750Y-29760419D01*
X-6458926Y-29755203D01*
X-6437691Y-29752053D01*
X-6416250Y-29751000D01*
X-5978750Y-29751000D01*
X-5957309Y-29752053D01*
X-5957309Y-29752053D01*
G37*
D11*
X-6197500Y-30226000D03*
D10*
G36*
X-7532309Y-29752053D02*
G01*
X-7511074Y-29755203D01*
X-7490250Y-29760419D01*
X-7470038Y-29767651D01*
X-7450632Y-29776830D01*
X-7432219Y-29787866D01*
X-7414976Y-29800654D01*
X-7399070Y-29815070D01*
X-7384654Y-29830976D01*
X-7371866Y-29848219D01*
X-7360830Y-29866632D01*
X-7351651Y-29886038D01*
X-7344419Y-29906250D01*
X-7339203Y-29927074D01*
X-7336053Y-29948309D01*
X-7335000Y-29969750D01*
X-7335000Y-30482250D01*
X-7336053Y-30503691D01*
X-7339203Y-30524926D01*
X-7344419Y-30545750D01*
X-7351651Y-30565962D01*
X-7360830Y-30585368D01*
X-7371866Y-30603781D01*
X-7384654Y-30621024D01*
X-7399070Y-30636930D01*
X-7414976Y-30651346D01*
X-7432219Y-30664134D01*
X-7450632Y-30675170D01*
X-7470038Y-30684349D01*
X-7490250Y-30691581D01*
X-7511074Y-30696797D01*
X-7532309Y-30699947D01*
X-7553750Y-30701000D01*
X-7991250Y-30701000D01*
X-8012691Y-30699947D01*
X-8033926Y-30696797D01*
X-8054750Y-30691581D01*
X-8074962Y-30684349D01*
X-8094368Y-30675170D01*
X-8112781Y-30664134D01*
X-8130024Y-30651346D01*
X-8145930Y-30636930D01*
X-8160346Y-30621024D01*
X-8173134Y-30603781D01*
X-8184170Y-30585368D01*
X-8193349Y-30565962D01*
X-8200581Y-30545750D01*
X-8205797Y-30524926D01*
X-8208947Y-30503691D01*
X-8210000Y-30482250D01*
X-8210000Y-29969750D01*
X-8208947Y-29948309D01*
X-8205797Y-29927074D01*
X-8200581Y-29906250D01*
X-8193349Y-29886038D01*
X-8184170Y-29866632D01*
X-8173134Y-29848219D01*
X-8160346Y-29830976D01*
X-8145930Y-29815070D01*
X-8130024Y-29800654D01*
X-8112781Y-29787866D01*
X-8094368Y-29776830D01*
X-8074962Y-29767651D01*
X-8054750Y-29760419D01*
X-8033926Y-29755203D01*
X-8012691Y-29752053D01*
X-7991250Y-29751000D01*
X-7553750Y-29751000D01*
X-7532309Y-29752053D01*
X-7532309Y-29752053D01*
G37*
D11*
X-7772500Y-30226000D03*
D10*
G36*
X-3722309Y-29752053D02*
G01*
X-3701074Y-29755203D01*
X-3680250Y-29760419D01*
X-3660038Y-29767651D01*
X-3640632Y-29776830D01*
X-3622219Y-29787866D01*
X-3604976Y-29800654D01*
X-3589070Y-29815070D01*
X-3574654Y-29830976D01*
X-3561866Y-29848219D01*
X-3550830Y-29866632D01*
X-3541651Y-29886038D01*
X-3534419Y-29906250D01*
X-3529203Y-29927074D01*
X-3526053Y-29948309D01*
X-3525000Y-29969750D01*
X-3525000Y-30482250D01*
X-3526053Y-30503691D01*
X-3529203Y-30524926D01*
X-3534419Y-30545750D01*
X-3541651Y-30565962D01*
X-3550830Y-30585368D01*
X-3561866Y-30603781D01*
X-3574654Y-30621024D01*
X-3589070Y-30636930D01*
X-3604976Y-30651346D01*
X-3622219Y-30664134D01*
X-3640632Y-30675170D01*
X-3660038Y-30684349D01*
X-3680250Y-30691581D01*
X-3701074Y-30696797D01*
X-3722309Y-30699947D01*
X-3743750Y-30701000D01*
X-4181250Y-30701000D01*
X-4202691Y-30699947D01*
X-4223926Y-30696797D01*
X-4244750Y-30691581D01*
X-4264962Y-30684349D01*
X-4284368Y-30675170D01*
X-4302781Y-30664134D01*
X-4320024Y-30651346D01*
X-4335930Y-30636930D01*
X-4350346Y-30621024D01*
X-4363134Y-30603781D01*
X-4374170Y-30585368D01*
X-4383349Y-30565962D01*
X-4390581Y-30545750D01*
X-4395797Y-30524926D01*
X-4398947Y-30503691D01*
X-4400000Y-30482250D01*
X-4400000Y-29969750D01*
X-4398947Y-29948309D01*
X-4395797Y-29927074D01*
X-4390581Y-29906250D01*
X-4383349Y-29886038D01*
X-4374170Y-29866632D01*
X-4363134Y-29848219D01*
X-4350346Y-29830976D01*
X-4335930Y-29815070D01*
X-4320024Y-29800654D01*
X-4302781Y-29787866D01*
X-4284368Y-29776830D01*
X-4264962Y-29767651D01*
X-4244750Y-29760419D01*
X-4223926Y-29755203D01*
X-4202691Y-29752053D01*
X-4181250Y-29751000D01*
X-3743750Y-29751000D01*
X-3722309Y-29752053D01*
X-3722309Y-29752053D01*
G37*
D11*
X-3962500Y-30226000D03*
D10*
G36*
X-2147309Y-29752053D02*
G01*
X-2126074Y-29755203D01*
X-2105250Y-29760419D01*
X-2085038Y-29767651D01*
X-2065632Y-29776830D01*
X-2047219Y-29787866D01*
X-2029976Y-29800654D01*
X-2014070Y-29815070D01*
X-1999654Y-29830976D01*
X-1986866Y-29848219D01*
X-1975830Y-29866632D01*
X-1966651Y-29886038D01*
X-1959419Y-29906250D01*
X-1954203Y-29927074D01*
X-1951053Y-29948309D01*
X-1950000Y-29969750D01*
X-1950000Y-30482250D01*
X-1951053Y-30503691D01*
X-1954203Y-30524926D01*
X-1959419Y-30545750D01*
X-1966651Y-30565962D01*
X-1975830Y-30585368D01*
X-1986866Y-30603781D01*
X-1999654Y-30621024D01*
X-2014070Y-30636930D01*
X-2029976Y-30651346D01*
X-2047219Y-30664134D01*
X-2065632Y-30675170D01*
X-2085038Y-30684349D01*
X-2105250Y-30691581D01*
X-2126074Y-30696797D01*
X-2147309Y-30699947D01*
X-2168750Y-30701000D01*
X-2606250Y-30701000D01*
X-2627691Y-30699947D01*
X-2648926Y-30696797D01*
X-2669750Y-30691581D01*
X-2689962Y-30684349D01*
X-2709368Y-30675170D01*
X-2727781Y-30664134D01*
X-2745024Y-30651346D01*
X-2760930Y-30636930D01*
X-2775346Y-30621024D01*
X-2788134Y-30603781D01*
X-2799170Y-30585368D01*
X-2808349Y-30565962D01*
X-2815581Y-30545750D01*
X-2820797Y-30524926D01*
X-2823947Y-30503691D01*
X-2825000Y-30482250D01*
X-2825000Y-29969750D01*
X-2823947Y-29948309D01*
X-2820797Y-29927074D01*
X-2815581Y-29906250D01*
X-2808349Y-29886038D01*
X-2799170Y-29866632D01*
X-2788134Y-29848219D01*
X-2775346Y-29830976D01*
X-2760930Y-29815070D01*
X-2745024Y-29800654D01*
X-2727781Y-29787866D01*
X-2709368Y-29776830D01*
X-2689962Y-29767651D01*
X-2669750Y-29760419D01*
X-2648926Y-29755203D01*
X-2627691Y-29752053D01*
X-2606250Y-29751000D01*
X-2168750Y-29751000D01*
X-2147309Y-29752053D01*
X-2147309Y-29752053D01*
G37*
D11*
X-2387500Y-30226000D03*
D10*
G36*
X29487691Y-22271053D02*
G01*
X29508926Y-22274203D01*
X29529750Y-22279419D01*
X29549962Y-22286651D01*
X29569368Y-22295830D01*
X29587781Y-22306866D01*
X29605024Y-22319654D01*
X29620930Y-22334070D01*
X29635346Y-22349976D01*
X29648134Y-22367219D01*
X29659170Y-22385632D01*
X29668349Y-22405038D01*
X29675581Y-22425250D01*
X29680797Y-22446074D01*
X29683947Y-22467309D01*
X29685000Y-22488750D01*
X29685000Y-22926250D01*
X29683947Y-22947691D01*
X29680797Y-22968926D01*
X29675581Y-22989750D01*
X29668349Y-23009962D01*
X29659170Y-23029368D01*
X29648134Y-23047781D01*
X29635346Y-23065024D01*
X29620930Y-23080930D01*
X29605024Y-23095346D01*
X29587781Y-23108134D01*
X29569368Y-23119170D01*
X29549962Y-23128349D01*
X29529750Y-23135581D01*
X29508926Y-23140797D01*
X29487691Y-23143947D01*
X29466250Y-23145000D01*
X28953750Y-23145000D01*
X28932309Y-23143947D01*
X28911074Y-23140797D01*
X28890250Y-23135581D01*
X28870038Y-23128349D01*
X28850632Y-23119170D01*
X28832219Y-23108134D01*
X28814976Y-23095346D01*
X28799070Y-23080930D01*
X28784654Y-23065024D01*
X28771866Y-23047781D01*
X28760830Y-23029368D01*
X28751651Y-23009962D01*
X28744419Y-22989750D01*
X28739203Y-22968926D01*
X28736053Y-22947691D01*
X28735000Y-22926250D01*
X28735000Y-22488750D01*
X28736053Y-22467309D01*
X28739203Y-22446074D01*
X28744419Y-22425250D01*
X28751651Y-22405038D01*
X28760830Y-22385632D01*
X28771866Y-22367219D01*
X28784654Y-22349976D01*
X28799070Y-22334070D01*
X28814976Y-22319654D01*
X28832219Y-22306866D01*
X28850632Y-22295830D01*
X28870038Y-22286651D01*
X28890250Y-22279419D01*
X28911074Y-22274203D01*
X28932309Y-22271053D01*
X28953750Y-22270000D01*
X29466250Y-22270000D01*
X29487691Y-22271053D01*
X29487691Y-22271053D01*
G37*
D11*
X29210000Y-22707500D03*
D10*
G36*
X29487691Y-23846053D02*
G01*
X29508926Y-23849203D01*
X29529750Y-23854419D01*
X29549962Y-23861651D01*
X29569368Y-23870830D01*
X29587781Y-23881866D01*
X29605024Y-23894654D01*
X29620930Y-23909070D01*
X29635346Y-23924976D01*
X29648134Y-23942219D01*
X29659170Y-23960632D01*
X29668349Y-23980038D01*
X29675581Y-24000250D01*
X29680797Y-24021074D01*
X29683947Y-24042309D01*
X29685000Y-24063750D01*
X29685000Y-24501250D01*
X29683947Y-24522691D01*
X29680797Y-24543926D01*
X29675581Y-24564750D01*
X29668349Y-24584962D01*
X29659170Y-24604368D01*
X29648134Y-24622781D01*
X29635346Y-24640024D01*
X29620930Y-24655930D01*
X29605024Y-24670346D01*
X29587781Y-24683134D01*
X29569368Y-24694170D01*
X29549962Y-24703349D01*
X29529750Y-24710581D01*
X29508926Y-24715797D01*
X29487691Y-24718947D01*
X29466250Y-24720000D01*
X28953750Y-24720000D01*
X28932309Y-24718947D01*
X28911074Y-24715797D01*
X28890250Y-24710581D01*
X28870038Y-24703349D01*
X28850632Y-24694170D01*
X28832219Y-24683134D01*
X28814976Y-24670346D01*
X28799070Y-24655930D01*
X28784654Y-24640024D01*
X28771866Y-24622781D01*
X28760830Y-24604368D01*
X28751651Y-24584962D01*
X28744419Y-24564750D01*
X28739203Y-24543926D01*
X28736053Y-24522691D01*
X28735000Y-24501250D01*
X28735000Y-24063750D01*
X28736053Y-24042309D01*
X28739203Y-24021074D01*
X28744419Y-24000250D01*
X28751651Y-23980038D01*
X28760830Y-23960632D01*
X28771866Y-23942219D01*
X28784654Y-23924976D01*
X28799070Y-23909070D01*
X28814976Y-23894654D01*
X28832219Y-23881866D01*
X28850632Y-23870830D01*
X28870038Y-23861651D01*
X28890250Y-23854419D01*
X28911074Y-23849203D01*
X28932309Y-23846053D01*
X28953750Y-23845000D01*
X29466250Y-23845000D01*
X29487691Y-23846053D01*
X29487691Y-23846053D01*
G37*
D11*
X29210000Y-24282500D03*
D10*
G36*
X29487691Y-20671053D02*
G01*
X29508926Y-20674203D01*
X29529750Y-20679419D01*
X29549962Y-20686651D01*
X29569368Y-20695830D01*
X29587781Y-20706866D01*
X29605024Y-20719654D01*
X29620930Y-20734070D01*
X29635346Y-20749976D01*
X29648134Y-20767219D01*
X29659170Y-20785632D01*
X29668349Y-20805038D01*
X29675581Y-20825250D01*
X29680797Y-20846074D01*
X29683947Y-20867309D01*
X29685000Y-20888750D01*
X29685000Y-21326250D01*
X29683947Y-21347691D01*
X29680797Y-21368926D01*
X29675581Y-21389750D01*
X29668349Y-21409962D01*
X29659170Y-21429368D01*
X29648134Y-21447781D01*
X29635346Y-21465024D01*
X29620930Y-21480930D01*
X29605024Y-21495346D01*
X29587781Y-21508134D01*
X29569368Y-21519170D01*
X29549962Y-21528349D01*
X29529750Y-21535581D01*
X29508926Y-21540797D01*
X29487691Y-21543947D01*
X29466250Y-21545000D01*
X28953750Y-21545000D01*
X28932309Y-21543947D01*
X28911074Y-21540797D01*
X28890250Y-21535581D01*
X28870038Y-21528349D01*
X28850632Y-21519170D01*
X28832219Y-21508134D01*
X28814976Y-21495346D01*
X28799070Y-21480930D01*
X28784654Y-21465024D01*
X28771866Y-21447781D01*
X28760830Y-21429368D01*
X28751651Y-21409962D01*
X28744419Y-21389750D01*
X28739203Y-21368926D01*
X28736053Y-21347691D01*
X28735000Y-21326250D01*
X28735000Y-20888750D01*
X28736053Y-20867309D01*
X28739203Y-20846074D01*
X28744419Y-20825250D01*
X28751651Y-20805038D01*
X28760830Y-20785632D01*
X28771866Y-20767219D01*
X28784654Y-20749976D01*
X28799070Y-20734070D01*
X28814976Y-20719654D01*
X28832219Y-20706866D01*
X28850632Y-20695830D01*
X28870038Y-20686651D01*
X28890250Y-20679419D01*
X28911074Y-20674203D01*
X28932309Y-20671053D01*
X28953750Y-20670000D01*
X29466250Y-20670000D01*
X29487691Y-20671053D01*
X29487691Y-20671053D01*
G37*
D11*
X29210000Y-21107500D03*
D10*
G36*
X29487691Y-19096053D02*
G01*
X29508926Y-19099203D01*
X29529750Y-19104419D01*
X29549962Y-19111651D01*
X29569368Y-19120830D01*
X29587781Y-19131866D01*
X29605024Y-19144654D01*
X29620930Y-19159070D01*
X29635346Y-19174976D01*
X29648134Y-19192219D01*
X29659170Y-19210632D01*
X29668349Y-19230038D01*
X29675581Y-19250250D01*
X29680797Y-19271074D01*
X29683947Y-19292309D01*
X29685000Y-19313750D01*
X29685000Y-19751250D01*
X29683947Y-19772691D01*
X29680797Y-19793926D01*
X29675581Y-19814750D01*
X29668349Y-19834962D01*
X29659170Y-19854368D01*
X29648134Y-19872781D01*
X29635346Y-19890024D01*
X29620930Y-19905930D01*
X29605024Y-19920346D01*
X29587781Y-19933134D01*
X29569368Y-19944170D01*
X29549962Y-19953349D01*
X29529750Y-19960581D01*
X29508926Y-19965797D01*
X29487691Y-19968947D01*
X29466250Y-19970000D01*
X28953750Y-19970000D01*
X28932309Y-19968947D01*
X28911074Y-19965797D01*
X28890250Y-19960581D01*
X28870038Y-19953349D01*
X28850632Y-19944170D01*
X28832219Y-19933134D01*
X28814976Y-19920346D01*
X28799070Y-19905930D01*
X28784654Y-19890024D01*
X28771866Y-19872781D01*
X28760830Y-19854368D01*
X28751651Y-19834962D01*
X28744419Y-19814750D01*
X28739203Y-19793926D01*
X28736053Y-19772691D01*
X28735000Y-19751250D01*
X28735000Y-19313750D01*
X28736053Y-19292309D01*
X28739203Y-19271074D01*
X28744419Y-19250250D01*
X28751651Y-19230038D01*
X28760830Y-19210632D01*
X28771866Y-19192219D01*
X28784654Y-19174976D01*
X28799070Y-19159070D01*
X28814976Y-19144654D01*
X28832219Y-19131866D01*
X28850632Y-19120830D01*
X28870038Y-19111651D01*
X28890250Y-19104419D01*
X28911074Y-19099203D01*
X28932309Y-19096053D01*
X28953750Y-19095000D01*
X29466250Y-19095000D01*
X29487691Y-19096053D01*
X29487691Y-19096053D01*
G37*
D11*
X29210000Y-19532500D03*
D10*
G36*
X36472691Y-25446053D02*
G01*
X36493926Y-25449203D01*
X36514750Y-25454419D01*
X36534962Y-25461651D01*
X36554368Y-25470830D01*
X36572781Y-25481866D01*
X36590024Y-25494654D01*
X36605930Y-25509070D01*
X36620346Y-25524976D01*
X36633134Y-25542219D01*
X36644170Y-25560632D01*
X36653349Y-25580038D01*
X36660581Y-25600250D01*
X36665797Y-25621074D01*
X36668947Y-25642309D01*
X36670000Y-25663750D01*
X36670000Y-26101250D01*
X36668947Y-26122691D01*
X36665797Y-26143926D01*
X36660581Y-26164750D01*
X36653349Y-26184962D01*
X36644170Y-26204368D01*
X36633134Y-26222781D01*
X36620346Y-26240024D01*
X36605930Y-26255930D01*
X36590024Y-26270346D01*
X36572781Y-26283134D01*
X36554368Y-26294170D01*
X36534962Y-26303349D01*
X36514750Y-26310581D01*
X36493926Y-26315797D01*
X36472691Y-26318947D01*
X36451250Y-26320000D01*
X35938750Y-26320000D01*
X35917309Y-26318947D01*
X35896074Y-26315797D01*
X35875250Y-26310581D01*
X35855038Y-26303349D01*
X35835632Y-26294170D01*
X35817219Y-26283134D01*
X35799976Y-26270346D01*
X35784070Y-26255930D01*
X35769654Y-26240024D01*
X35756866Y-26222781D01*
X35745830Y-26204368D01*
X35736651Y-26184962D01*
X35729419Y-26164750D01*
X35724203Y-26143926D01*
X35721053Y-26122691D01*
X35720000Y-26101250D01*
X35720000Y-25663750D01*
X35721053Y-25642309D01*
X35724203Y-25621074D01*
X35729419Y-25600250D01*
X35736651Y-25580038D01*
X35745830Y-25560632D01*
X35756866Y-25542219D01*
X35769654Y-25524976D01*
X35784070Y-25509070D01*
X35799976Y-25494654D01*
X35817219Y-25481866D01*
X35835632Y-25470830D01*
X35855038Y-25461651D01*
X35875250Y-25454419D01*
X35896074Y-25449203D01*
X35917309Y-25446053D01*
X35938750Y-25445000D01*
X36451250Y-25445000D01*
X36472691Y-25446053D01*
X36472691Y-25446053D01*
G37*
D11*
X36195000Y-25882500D03*
D10*
G36*
X36472691Y-27021053D02*
G01*
X36493926Y-27024203D01*
X36514750Y-27029419D01*
X36534962Y-27036651D01*
X36554368Y-27045830D01*
X36572781Y-27056866D01*
X36590024Y-27069654D01*
X36605930Y-27084070D01*
X36620346Y-27099976D01*
X36633134Y-27117219D01*
X36644170Y-27135632D01*
X36653349Y-27155038D01*
X36660581Y-27175250D01*
X36665797Y-27196074D01*
X36668947Y-27217309D01*
X36670000Y-27238750D01*
X36670000Y-27676250D01*
X36668947Y-27697691D01*
X36665797Y-27718926D01*
X36660581Y-27739750D01*
X36653349Y-27759962D01*
X36644170Y-27779368D01*
X36633134Y-27797781D01*
X36620346Y-27815024D01*
X36605930Y-27830930D01*
X36590024Y-27845346D01*
X36572781Y-27858134D01*
X36554368Y-27869170D01*
X36534962Y-27878349D01*
X36514750Y-27885581D01*
X36493926Y-27890797D01*
X36472691Y-27893947D01*
X36451250Y-27895000D01*
X35938750Y-27895000D01*
X35917309Y-27893947D01*
X35896074Y-27890797D01*
X35875250Y-27885581D01*
X35855038Y-27878349D01*
X35835632Y-27869170D01*
X35817219Y-27858134D01*
X35799976Y-27845346D01*
X35784070Y-27830930D01*
X35769654Y-27815024D01*
X35756866Y-27797781D01*
X35745830Y-27779368D01*
X35736651Y-27759962D01*
X35729419Y-27739750D01*
X35724203Y-27718926D01*
X35721053Y-27697691D01*
X35720000Y-27676250D01*
X35720000Y-27238750D01*
X35721053Y-27217309D01*
X35724203Y-27196074D01*
X35729419Y-27175250D01*
X35736651Y-27155038D01*
X35745830Y-27135632D01*
X35756866Y-27117219D01*
X35769654Y-27099976D01*
X35784070Y-27084070D01*
X35799976Y-27069654D01*
X35817219Y-27056866D01*
X35835632Y-27045830D01*
X35855038Y-27036651D01*
X35875250Y-27029419D01*
X35896074Y-27024203D01*
X35917309Y-27021053D01*
X35938750Y-27020000D01*
X36451250Y-27020000D01*
X36472691Y-27021053D01*
X36472691Y-27021053D01*
G37*
D11*
X36195000Y-27457500D03*
D10*
G36*
X39012691Y-27021053D02*
G01*
X39033926Y-27024203D01*
X39054750Y-27029419D01*
X39074962Y-27036651D01*
X39094368Y-27045830D01*
X39112781Y-27056866D01*
X39130024Y-27069654D01*
X39145930Y-27084070D01*
X39160346Y-27099976D01*
X39173134Y-27117219D01*
X39184170Y-27135632D01*
X39193349Y-27155038D01*
X39200581Y-27175250D01*
X39205797Y-27196074D01*
X39208947Y-27217309D01*
X39210000Y-27238750D01*
X39210000Y-27676250D01*
X39208947Y-27697691D01*
X39205797Y-27718926D01*
X39200581Y-27739750D01*
X39193349Y-27759962D01*
X39184170Y-27779368D01*
X39173134Y-27797781D01*
X39160346Y-27815024D01*
X39145930Y-27830930D01*
X39130024Y-27845346D01*
X39112781Y-27858134D01*
X39094368Y-27869170D01*
X39074962Y-27878349D01*
X39054750Y-27885581D01*
X39033926Y-27890797D01*
X39012691Y-27893947D01*
X38991250Y-27895000D01*
X38478750Y-27895000D01*
X38457309Y-27893947D01*
X38436074Y-27890797D01*
X38415250Y-27885581D01*
X38395038Y-27878349D01*
X38375632Y-27869170D01*
X38357219Y-27858134D01*
X38339976Y-27845346D01*
X38324070Y-27830930D01*
X38309654Y-27815024D01*
X38296866Y-27797781D01*
X38285830Y-27779368D01*
X38276651Y-27759962D01*
X38269419Y-27739750D01*
X38264203Y-27718926D01*
X38261053Y-27697691D01*
X38260000Y-27676250D01*
X38260000Y-27238750D01*
X38261053Y-27217309D01*
X38264203Y-27196074D01*
X38269419Y-27175250D01*
X38276651Y-27155038D01*
X38285830Y-27135632D01*
X38296866Y-27117219D01*
X38309654Y-27099976D01*
X38324070Y-27084070D01*
X38339976Y-27069654D01*
X38357219Y-27056866D01*
X38375632Y-27045830D01*
X38395038Y-27036651D01*
X38415250Y-27029419D01*
X38436074Y-27024203D01*
X38457309Y-27021053D01*
X38478750Y-27020000D01*
X38991250Y-27020000D01*
X39012691Y-27021053D01*
X39012691Y-27021053D01*
G37*
D11*
X38735000Y-27457500D03*
D10*
G36*
X39012691Y-25446053D02*
G01*
X39033926Y-25449203D01*
X39054750Y-25454419D01*
X39074962Y-25461651D01*
X39094368Y-25470830D01*
X39112781Y-25481866D01*
X39130024Y-25494654D01*
X39145930Y-25509070D01*
X39160346Y-25524976D01*
X39173134Y-25542219D01*
X39184170Y-25560632D01*
X39193349Y-25580038D01*
X39200581Y-25600250D01*
X39205797Y-25621074D01*
X39208947Y-25642309D01*
X39210000Y-25663750D01*
X39210000Y-26101250D01*
X39208947Y-26122691D01*
X39205797Y-26143926D01*
X39200581Y-26164750D01*
X39193349Y-26184962D01*
X39184170Y-26204368D01*
X39173134Y-26222781D01*
X39160346Y-26240024D01*
X39145930Y-26255930D01*
X39130024Y-26270346D01*
X39112781Y-26283134D01*
X39094368Y-26294170D01*
X39074962Y-26303349D01*
X39054750Y-26310581D01*
X39033926Y-26315797D01*
X39012691Y-26318947D01*
X38991250Y-26320000D01*
X38478750Y-26320000D01*
X38457309Y-26318947D01*
X38436074Y-26315797D01*
X38415250Y-26310581D01*
X38395038Y-26303349D01*
X38375632Y-26294170D01*
X38357219Y-26283134D01*
X38339976Y-26270346D01*
X38324070Y-26255930D01*
X38309654Y-26240024D01*
X38296866Y-26222781D01*
X38285830Y-26204368D01*
X38276651Y-26184962D01*
X38269419Y-26164750D01*
X38264203Y-26143926D01*
X38261053Y-26122691D01*
X38260000Y-26101250D01*
X38260000Y-25663750D01*
X38261053Y-25642309D01*
X38264203Y-25621074D01*
X38269419Y-25600250D01*
X38276651Y-25580038D01*
X38285830Y-25560632D01*
X38296866Y-25542219D01*
X38309654Y-25524976D01*
X38324070Y-25509070D01*
X38339976Y-25494654D01*
X38357219Y-25481866D01*
X38375632Y-25470830D01*
X38395038Y-25461651D01*
X38415250Y-25454419D01*
X38436074Y-25449203D01*
X38457309Y-25446053D01*
X38478750Y-25445000D01*
X38991250Y-25445000D01*
X39012691Y-25446053D01*
X39012691Y-25446053D01*
G37*
D11*
X38735000Y-25882500D03*
D10*
G36*
X-6820297Y-23090722D02*
G01*
X-6805736Y-23092882D01*
X-6791457Y-23096459D01*
X-6777597Y-23101418D01*
X-6764290Y-23107712D01*
X-6751664Y-23115280D01*
X-6739841Y-23124048D01*
X-6728934Y-23133934D01*
X-6719048Y-23144841D01*
X-6710280Y-23156664D01*
X-6702712Y-23169290D01*
X-6696418Y-23182597D01*
X-6691459Y-23196457D01*
X-6687882Y-23210736D01*
X-6685722Y-23225297D01*
X-6685000Y-23240000D01*
X-6685000Y-24890000D01*
X-6685722Y-24904703D01*
X-6687882Y-24919264D01*
X-6691459Y-24933543D01*
X-6696418Y-24947403D01*
X-6702712Y-24960710D01*
X-6710280Y-24973336D01*
X-6719048Y-24985159D01*
X-6728934Y-24996066D01*
X-6739841Y-25005952D01*
X-6751664Y-25014720D01*
X-6764290Y-25022288D01*
X-6777597Y-25028582D01*
X-6791457Y-25033541D01*
X-6805736Y-25037118D01*
X-6820297Y-25039278D01*
X-6835000Y-25040000D01*
X-7135000Y-25040000D01*
X-7149703Y-25039278D01*
X-7164264Y-25037118D01*
X-7178543Y-25033541D01*
X-7192403Y-25028582D01*
X-7205710Y-25022288D01*
X-7218336Y-25014720D01*
X-7230159Y-25005952D01*
X-7241066Y-24996066D01*
X-7250952Y-24985159D01*
X-7259720Y-24973336D01*
X-7267288Y-24960710D01*
X-7273582Y-24947403D01*
X-7278541Y-24933543D01*
X-7282118Y-24919264D01*
X-7284278Y-24904703D01*
X-7285000Y-24890000D01*
X-7285000Y-23240000D01*
X-7284278Y-23225297D01*
X-7282118Y-23210736D01*
X-7278541Y-23196457D01*
X-7273582Y-23182597D01*
X-7267288Y-23169290D01*
X-7259720Y-23156664D01*
X-7250952Y-23144841D01*
X-7241066Y-23133934D01*
X-7230159Y-23124048D01*
X-7218336Y-23115280D01*
X-7205710Y-23107712D01*
X-7192403Y-23101418D01*
X-7178543Y-23096459D01*
X-7164264Y-23092882D01*
X-7149703Y-23090722D01*
X-7135000Y-23090000D01*
X-6835000Y-23090000D01*
X-6820297Y-23090722D01*
X-6820297Y-23090722D01*
G37*
D19*
X-6985000Y-24065000D03*
D10*
G36*
X-5550297Y-23090722D02*
G01*
X-5535736Y-23092882D01*
X-5521457Y-23096459D01*
X-5507597Y-23101418D01*
X-5494290Y-23107712D01*
X-5481664Y-23115280D01*
X-5469841Y-23124048D01*
X-5458934Y-23133934D01*
X-5449048Y-23144841D01*
X-5440280Y-23156664D01*
X-5432712Y-23169290D01*
X-5426418Y-23182597D01*
X-5421459Y-23196457D01*
X-5417882Y-23210736D01*
X-5415722Y-23225297D01*
X-5415000Y-23240000D01*
X-5415000Y-24890000D01*
X-5415722Y-24904703D01*
X-5417882Y-24919264D01*
X-5421459Y-24933543D01*
X-5426418Y-24947403D01*
X-5432712Y-24960710D01*
X-5440280Y-24973336D01*
X-5449048Y-24985159D01*
X-5458934Y-24996066D01*
X-5469841Y-25005952D01*
X-5481664Y-25014720D01*
X-5494290Y-25022288D01*
X-5507597Y-25028582D01*
X-5521457Y-25033541D01*
X-5535736Y-25037118D01*
X-5550297Y-25039278D01*
X-5565000Y-25040000D01*
X-5865000Y-25040000D01*
X-5879703Y-25039278D01*
X-5894264Y-25037118D01*
X-5908543Y-25033541D01*
X-5922403Y-25028582D01*
X-5935710Y-25022288D01*
X-5948336Y-25014720D01*
X-5960159Y-25005952D01*
X-5971066Y-24996066D01*
X-5980952Y-24985159D01*
X-5989720Y-24973336D01*
X-5997288Y-24960710D01*
X-6003582Y-24947403D01*
X-6008541Y-24933543D01*
X-6012118Y-24919264D01*
X-6014278Y-24904703D01*
X-6015000Y-24890000D01*
X-6015000Y-23240000D01*
X-6014278Y-23225297D01*
X-6012118Y-23210736D01*
X-6008541Y-23196457D01*
X-6003582Y-23182597D01*
X-5997288Y-23169290D01*
X-5989720Y-23156664D01*
X-5980952Y-23144841D01*
X-5971066Y-23133934D01*
X-5960159Y-23124048D01*
X-5948336Y-23115280D01*
X-5935710Y-23107712D01*
X-5922403Y-23101418D01*
X-5908543Y-23096459D01*
X-5894264Y-23092882D01*
X-5879703Y-23090722D01*
X-5865000Y-23090000D01*
X-5565000Y-23090000D01*
X-5550297Y-23090722D01*
X-5550297Y-23090722D01*
G37*
D19*
X-5715000Y-24065000D03*
D10*
G36*
X-4280297Y-23090722D02*
G01*
X-4265736Y-23092882D01*
X-4251457Y-23096459D01*
X-4237597Y-23101418D01*
X-4224290Y-23107712D01*
X-4211664Y-23115280D01*
X-4199841Y-23124048D01*
X-4188934Y-23133934D01*
X-4179048Y-23144841D01*
X-4170280Y-23156664D01*
X-4162712Y-23169290D01*
X-4156418Y-23182597D01*
X-4151459Y-23196457D01*
X-4147882Y-23210736D01*
X-4145722Y-23225297D01*
X-4145000Y-23240000D01*
X-4145000Y-24890000D01*
X-4145722Y-24904703D01*
X-4147882Y-24919264D01*
X-4151459Y-24933543D01*
X-4156418Y-24947403D01*
X-4162712Y-24960710D01*
X-4170280Y-24973336D01*
X-4179048Y-24985159D01*
X-4188934Y-24996066D01*
X-4199841Y-25005952D01*
X-4211664Y-25014720D01*
X-4224290Y-25022288D01*
X-4237597Y-25028582D01*
X-4251457Y-25033541D01*
X-4265736Y-25037118D01*
X-4280297Y-25039278D01*
X-4295000Y-25040000D01*
X-4595000Y-25040000D01*
X-4609703Y-25039278D01*
X-4624264Y-25037118D01*
X-4638543Y-25033541D01*
X-4652403Y-25028582D01*
X-4665710Y-25022288D01*
X-4678336Y-25014720D01*
X-4690159Y-25005952D01*
X-4701066Y-24996066D01*
X-4710952Y-24985159D01*
X-4719720Y-24973336D01*
X-4727288Y-24960710D01*
X-4733582Y-24947403D01*
X-4738541Y-24933543D01*
X-4742118Y-24919264D01*
X-4744278Y-24904703D01*
X-4745000Y-24890000D01*
X-4745000Y-23240000D01*
X-4744278Y-23225297D01*
X-4742118Y-23210736D01*
X-4738541Y-23196457D01*
X-4733582Y-23182597D01*
X-4727288Y-23169290D01*
X-4719720Y-23156664D01*
X-4710952Y-23144841D01*
X-4701066Y-23133934D01*
X-4690159Y-23124048D01*
X-4678336Y-23115280D01*
X-4665710Y-23107712D01*
X-4652403Y-23101418D01*
X-4638543Y-23096459D01*
X-4624264Y-23092882D01*
X-4609703Y-23090722D01*
X-4595000Y-23090000D01*
X-4295000Y-23090000D01*
X-4280297Y-23090722D01*
X-4280297Y-23090722D01*
G37*
D19*
X-4445000Y-24065000D03*
D10*
G36*
X-3010297Y-23090722D02*
G01*
X-2995736Y-23092882D01*
X-2981457Y-23096459D01*
X-2967597Y-23101418D01*
X-2954290Y-23107712D01*
X-2941664Y-23115280D01*
X-2929841Y-23124048D01*
X-2918934Y-23133934D01*
X-2909048Y-23144841D01*
X-2900280Y-23156664D01*
X-2892712Y-23169290D01*
X-2886418Y-23182597D01*
X-2881459Y-23196457D01*
X-2877882Y-23210736D01*
X-2875722Y-23225297D01*
X-2875000Y-23240000D01*
X-2875000Y-24890000D01*
X-2875722Y-24904703D01*
X-2877882Y-24919264D01*
X-2881459Y-24933543D01*
X-2886418Y-24947403D01*
X-2892712Y-24960710D01*
X-2900280Y-24973336D01*
X-2909048Y-24985159D01*
X-2918934Y-24996066D01*
X-2929841Y-25005952D01*
X-2941664Y-25014720D01*
X-2954290Y-25022288D01*
X-2967597Y-25028582D01*
X-2981457Y-25033541D01*
X-2995736Y-25037118D01*
X-3010297Y-25039278D01*
X-3025000Y-25040000D01*
X-3325000Y-25040000D01*
X-3339703Y-25039278D01*
X-3354264Y-25037118D01*
X-3368543Y-25033541D01*
X-3382403Y-25028582D01*
X-3395710Y-25022288D01*
X-3408336Y-25014720D01*
X-3420159Y-25005952D01*
X-3431066Y-24996066D01*
X-3440952Y-24985159D01*
X-3449720Y-24973336D01*
X-3457288Y-24960710D01*
X-3463582Y-24947403D01*
X-3468541Y-24933543D01*
X-3472118Y-24919264D01*
X-3474278Y-24904703D01*
X-3475000Y-24890000D01*
X-3475000Y-23240000D01*
X-3474278Y-23225297D01*
X-3472118Y-23210736D01*
X-3468541Y-23196457D01*
X-3463582Y-23182597D01*
X-3457288Y-23169290D01*
X-3449720Y-23156664D01*
X-3440952Y-23144841D01*
X-3431066Y-23133934D01*
X-3420159Y-23124048D01*
X-3408336Y-23115280D01*
X-3395710Y-23107712D01*
X-3382403Y-23101418D01*
X-3368543Y-23096459D01*
X-3354264Y-23092882D01*
X-3339703Y-23090722D01*
X-3325000Y-23090000D01*
X-3025000Y-23090000D01*
X-3010297Y-23090722D01*
X-3010297Y-23090722D01*
G37*
D19*
X-3175000Y-24065000D03*
D10*
G36*
X-3010297Y-18140722D02*
G01*
X-2995736Y-18142882D01*
X-2981457Y-18146459D01*
X-2967597Y-18151418D01*
X-2954290Y-18157712D01*
X-2941664Y-18165280D01*
X-2929841Y-18174048D01*
X-2918934Y-18183934D01*
X-2909048Y-18194841D01*
X-2900280Y-18206664D01*
X-2892712Y-18219290D01*
X-2886418Y-18232597D01*
X-2881459Y-18246457D01*
X-2877882Y-18260736D01*
X-2875722Y-18275297D01*
X-2875000Y-18290000D01*
X-2875000Y-19940000D01*
X-2875722Y-19954703D01*
X-2877882Y-19969264D01*
X-2881459Y-19983543D01*
X-2886418Y-19997403D01*
X-2892712Y-20010710D01*
X-2900280Y-20023336D01*
X-2909048Y-20035159D01*
X-2918934Y-20046066D01*
X-2929841Y-20055952D01*
X-2941664Y-20064720D01*
X-2954290Y-20072288D01*
X-2967597Y-20078582D01*
X-2981457Y-20083541D01*
X-2995736Y-20087118D01*
X-3010297Y-20089278D01*
X-3025000Y-20090000D01*
X-3325000Y-20090000D01*
X-3339703Y-20089278D01*
X-3354264Y-20087118D01*
X-3368543Y-20083541D01*
X-3382403Y-20078582D01*
X-3395710Y-20072288D01*
X-3408336Y-20064720D01*
X-3420159Y-20055952D01*
X-3431066Y-20046066D01*
X-3440952Y-20035159D01*
X-3449720Y-20023336D01*
X-3457288Y-20010710D01*
X-3463582Y-19997403D01*
X-3468541Y-19983543D01*
X-3472118Y-19969264D01*
X-3474278Y-19954703D01*
X-3475000Y-19940000D01*
X-3475000Y-18290000D01*
X-3474278Y-18275297D01*
X-3472118Y-18260736D01*
X-3468541Y-18246457D01*
X-3463582Y-18232597D01*
X-3457288Y-18219290D01*
X-3449720Y-18206664D01*
X-3440952Y-18194841D01*
X-3431066Y-18183934D01*
X-3420159Y-18174048D01*
X-3408336Y-18165280D01*
X-3395710Y-18157712D01*
X-3382403Y-18151418D01*
X-3368543Y-18146459D01*
X-3354264Y-18142882D01*
X-3339703Y-18140722D01*
X-3325000Y-18140000D01*
X-3025000Y-18140000D01*
X-3010297Y-18140722D01*
X-3010297Y-18140722D01*
G37*
D19*
X-3175000Y-19115000D03*
D10*
G36*
X-4280297Y-18140722D02*
G01*
X-4265736Y-18142882D01*
X-4251457Y-18146459D01*
X-4237597Y-18151418D01*
X-4224290Y-18157712D01*
X-4211664Y-18165280D01*
X-4199841Y-18174048D01*
X-4188934Y-18183934D01*
X-4179048Y-18194841D01*
X-4170280Y-18206664D01*
X-4162712Y-18219290D01*
X-4156418Y-18232597D01*
X-4151459Y-18246457D01*
X-4147882Y-18260736D01*
X-4145722Y-18275297D01*
X-4145000Y-18290000D01*
X-4145000Y-19940000D01*
X-4145722Y-19954703D01*
X-4147882Y-19969264D01*
X-4151459Y-19983543D01*
X-4156418Y-19997403D01*
X-4162712Y-20010710D01*
X-4170280Y-20023336D01*
X-4179048Y-20035159D01*
X-4188934Y-20046066D01*
X-4199841Y-20055952D01*
X-4211664Y-20064720D01*
X-4224290Y-20072288D01*
X-4237597Y-20078582D01*
X-4251457Y-20083541D01*
X-4265736Y-20087118D01*
X-4280297Y-20089278D01*
X-4295000Y-20090000D01*
X-4595000Y-20090000D01*
X-4609703Y-20089278D01*
X-4624264Y-20087118D01*
X-4638543Y-20083541D01*
X-4652403Y-20078582D01*
X-4665710Y-20072288D01*
X-4678336Y-20064720D01*
X-4690159Y-20055952D01*
X-4701066Y-20046066D01*
X-4710952Y-20035159D01*
X-4719720Y-20023336D01*
X-4727288Y-20010710D01*
X-4733582Y-19997403D01*
X-4738541Y-19983543D01*
X-4742118Y-19969264D01*
X-4744278Y-19954703D01*
X-4745000Y-19940000D01*
X-4745000Y-18290000D01*
X-4744278Y-18275297D01*
X-4742118Y-18260736D01*
X-4738541Y-18246457D01*
X-4733582Y-18232597D01*
X-4727288Y-18219290D01*
X-4719720Y-18206664D01*
X-4710952Y-18194841D01*
X-4701066Y-18183934D01*
X-4690159Y-18174048D01*
X-4678336Y-18165280D01*
X-4665710Y-18157712D01*
X-4652403Y-18151418D01*
X-4638543Y-18146459D01*
X-4624264Y-18142882D01*
X-4609703Y-18140722D01*
X-4595000Y-18140000D01*
X-4295000Y-18140000D01*
X-4280297Y-18140722D01*
X-4280297Y-18140722D01*
G37*
D19*
X-4445000Y-19115000D03*
D10*
G36*
X-5550297Y-18140722D02*
G01*
X-5535736Y-18142882D01*
X-5521457Y-18146459D01*
X-5507597Y-18151418D01*
X-5494290Y-18157712D01*
X-5481664Y-18165280D01*
X-5469841Y-18174048D01*
X-5458934Y-18183934D01*
X-5449048Y-18194841D01*
X-5440280Y-18206664D01*
X-5432712Y-18219290D01*
X-5426418Y-18232597D01*
X-5421459Y-18246457D01*
X-5417882Y-18260736D01*
X-5415722Y-18275297D01*
X-5415000Y-18290000D01*
X-5415000Y-19940000D01*
X-5415722Y-19954703D01*
X-5417882Y-19969264D01*
X-5421459Y-19983543D01*
X-5426418Y-19997403D01*
X-5432712Y-20010710D01*
X-5440280Y-20023336D01*
X-5449048Y-20035159D01*
X-5458934Y-20046066D01*
X-5469841Y-20055952D01*
X-5481664Y-20064720D01*
X-5494290Y-20072288D01*
X-5507597Y-20078582D01*
X-5521457Y-20083541D01*
X-5535736Y-20087118D01*
X-5550297Y-20089278D01*
X-5565000Y-20090000D01*
X-5865000Y-20090000D01*
X-5879703Y-20089278D01*
X-5894264Y-20087118D01*
X-5908543Y-20083541D01*
X-5922403Y-20078582D01*
X-5935710Y-20072288D01*
X-5948336Y-20064720D01*
X-5960159Y-20055952D01*
X-5971066Y-20046066D01*
X-5980952Y-20035159D01*
X-5989720Y-20023336D01*
X-5997288Y-20010710D01*
X-6003582Y-19997403D01*
X-6008541Y-19983543D01*
X-6012118Y-19969264D01*
X-6014278Y-19954703D01*
X-6015000Y-19940000D01*
X-6015000Y-18290000D01*
X-6014278Y-18275297D01*
X-6012118Y-18260736D01*
X-6008541Y-18246457D01*
X-6003582Y-18232597D01*
X-5997288Y-18219290D01*
X-5989720Y-18206664D01*
X-5980952Y-18194841D01*
X-5971066Y-18183934D01*
X-5960159Y-18174048D01*
X-5948336Y-18165280D01*
X-5935710Y-18157712D01*
X-5922403Y-18151418D01*
X-5908543Y-18146459D01*
X-5894264Y-18142882D01*
X-5879703Y-18140722D01*
X-5865000Y-18140000D01*
X-5565000Y-18140000D01*
X-5550297Y-18140722D01*
X-5550297Y-18140722D01*
G37*
D19*
X-5715000Y-19115000D03*
D10*
G36*
X-6820297Y-18140722D02*
G01*
X-6805736Y-18142882D01*
X-6791457Y-18146459D01*
X-6777597Y-18151418D01*
X-6764290Y-18157712D01*
X-6751664Y-18165280D01*
X-6739841Y-18174048D01*
X-6728934Y-18183934D01*
X-6719048Y-18194841D01*
X-6710280Y-18206664D01*
X-6702712Y-18219290D01*
X-6696418Y-18232597D01*
X-6691459Y-18246457D01*
X-6687882Y-18260736D01*
X-6685722Y-18275297D01*
X-6685000Y-18290000D01*
X-6685000Y-19940000D01*
X-6685722Y-19954703D01*
X-6687882Y-19969264D01*
X-6691459Y-19983543D01*
X-6696418Y-19997403D01*
X-6702712Y-20010710D01*
X-6710280Y-20023336D01*
X-6719048Y-20035159D01*
X-6728934Y-20046066D01*
X-6739841Y-20055952D01*
X-6751664Y-20064720D01*
X-6764290Y-20072288D01*
X-6777597Y-20078582D01*
X-6791457Y-20083541D01*
X-6805736Y-20087118D01*
X-6820297Y-20089278D01*
X-6835000Y-20090000D01*
X-7135000Y-20090000D01*
X-7149703Y-20089278D01*
X-7164264Y-20087118D01*
X-7178543Y-20083541D01*
X-7192403Y-20078582D01*
X-7205710Y-20072288D01*
X-7218336Y-20064720D01*
X-7230159Y-20055952D01*
X-7241066Y-20046066D01*
X-7250952Y-20035159D01*
X-7259720Y-20023336D01*
X-7267288Y-20010710D01*
X-7273582Y-19997403D01*
X-7278541Y-19983543D01*
X-7282118Y-19969264D01*
X-7284278Y-19954703D01*
X-7285000Y-19940000D01*
X-7285000Y-18290000D01*
X-7284278Y-18275297D01*
X-7282118Y-18260736D01*
X-7278541Y-18246457D01*
X-7273582Y-18232597D01*
X-7267288Y-18219290D01*
X-7259720Y-18206664D01*
X-7250952Y-18194841D01*
X-7241066Y-18183934D01*
X-7230159Y-18174048D01*
X-7218336Y-18165280D01*
X-7205710Y-18157712D01*
X-7192403Y-18151418D01*
X-7178543Y-18146459D01*
X-7164264Y-18142882D01*
X-7149703Y-18140722D01*
X-7135000Y-18140000D01*
X-6835000Y-18140000D01*
X-6820297Y-18140722D01*
X-6820297Y-18140722D01*
G37*
D19*
X-6985000Y-19115000D03*
D10*
G36*
X23659703Y-18010722D02*
G01*
X23674264Y-18012882D01*
X23688543Y-18016459D01*
X23702403Y-18021418D01*
X23715710Y-18027712D01*
X23728336Y-18035280D01*
X23740159Y-18044048D01*
X23751066Y-18053934D01*
X23760952Y-18064841D01*
X23769720Y-18076664D01*
X23777288Y-18089290D01*
X23783582Y-18102597D01*
X23788541Y-18116457D01*
X23792118Y-18130736D01*
X23794278Y-18145297D01*
X23795000Y-18160000D01*
X23795000Y-19810000D01*
X23794278Y-19824703D01*
X23792118Y-19839264D01*
X23788541Y-19853543D01*
X23783582Y-19867403D01*
X23777288Y-19880710D01*
X23769720Y-19893336D01*
X23760952Y-19905159D01*
X23751066Y-19916066D01*
X23740159Y-19925952D01*
X23728336Y-19934720D01*
X23715710Y-19942288D01*
X23702403Y-19948582D01*
X23688543Y-19953541D01*
X23674264Y-19957118D01*
X23659703Y-19959278D01*
X23645000Y-19960000D01*
X23345000Y-19960000D01*
X23330297Y-19959278D01*
X23315736Y-19957118D01*
X23301457Y-19953541D01*
X23287597Y-19948582D01*
X23274290Y-19942288D01*
X23261664Y-19934720D01*
X23249841Y-19925952D01*
X23238934Y-19916066D01*
X23229048Y-19905159D01*
X23220280Y-19893336D01*
X23212712Y-19880710D01*
X23206418Y-19867403D01*
X23201459Y-19853543D01*
X23197882Y-19839264D01*
X23195722Y-19824703D01*
X23195000Y-19810000D01*
X23195000Y-18160000D01*
X23195722Y-18145297D01*
X23197882Y-18130736D01*
X23201459Y-18116457D01*
X23206418Y-18102597D01*
X23212712Y-18089290D01*
X23220280Y-18076664D01*
X23229048Y-18064841D01*
X23238934Y-18053934D01*
X23249841Y-18044048D01*
X23261664Y-18035280D01*
X23274290Y-18027712D01*
X23287597Y-18021418D01*
X23301457Y-18016459D01*
X23315736Y-18012882D01*
X23330297Y-18010722D01*
X23345000Y-18010000D01*
X23645000Y-18010000D01*
X23659703Y-18010722D01*
X23659703Y-18010722D01*
G37*
D19*
X23495000Y-18985000D03*
D10*
G36*
X24929703Y-18010722D02*
G01*
X24944264Y-18012882D01*
X24958543Y-18016459D01*
X24972403Y-18021418D01*
X24985710Y-18027712D01*
X24998336Y-18035280D01*
X25010159Y-18044048D01*
X25021066Y-18053934D01*
X25030952Y-18064841D01*
X25039720Y-18076664D01*
X25047288Y-18089290D01*
X25053582Y-18102597D01*
X25058541Y-18116457D01*
X25062118Y-18130736D01*
X25064278Y-18145297D01*
X25065000Y-18160000D01*
X25065000Y-19810000D01*
X25064278Y-19824703D01*
X25062118Y-19839264D01*
X25058541Y-19853543D01*
X25053582Y-19867403D01*
X25047288Y-19880710D01*
X25039720Y-19893336D01*
X25030952Y-19905159D01*
X25021066Y-19916066D01*
X25010159Y-19925952D01*
X24998336Y-19934720D01*
X24985710Y-19942288D01*
X24972403Y-19948582D01*
X24958543Y-19953541D01*
X24944264Y-19957118D01*
X24929703Y-19959278D01*
X24915000Y-19960000D01*
X24615000Y-19960000D01*
X24600297Y-19959278D01*
X24585736Y-19957118D01*
X24571457Y-19953541D01*
X24557597Y-19948582D01*
X24544290Y-19942288D01*
X24531664Y-19934720D01*
X24519841Y-19925952D01*
X24508934Y-19916066D01*
X24499048Y-19905159D01*
X24490280Y-19893336D01*
X24482712Y-19880710D01*
X24476418Y-19867403D01*
X24471459Y-19853543D01*
X24467882Y-19839264D01*
X24465722Y-19824703D01*
X24465000Y-19810000D01*
X24465000Y-18160000D01*
X24465722Y-18145297D01*
X24467882Y-18130736D01*
X24471459Y-18116457D01*
X24476418Y-18102597D01*
X24482712Y-18089290D01*
X24490280Y-18076664D01*
X24499048Y-18064841D01*
X24508934Y-18053934D01*
X24519841Y-18044048D01*
X24531664Y-18035280D01*
X24544290Y-18027712D01*
X24557597Y-18021418D01*
X24571457Y-18016459D01*
X24585736Y-18012882D01*
X24600297Y-18010722D01*
X24615000Y-18010000D01*
X24915000Y-18010000D01*
X24929703Y-18010722D01*
X24929703Y-18010722D01*
G37*
D19*
X24765000Y-18985000D03*
D10*
G36*
X26199703Y-18010722D02*
G01*
X26214264Y-18012882D01*
X26228543Y-18016459D01*
X26242403Y-18021418D01*
X26255710Y-18027712D01*
X26268336Y-18035280D01*
X26280159Y-18044048D01*
X26291066Y-18053934D01*
X26300952Y-18064841D01*
X26309720Y-18076664D01*
X26317288Y-18089290D01*
X26323582Y-18102597D01*
X26328541Y-18116457D01*
X26332118Y-18130736D01*
X26334278Y-18145297D01*
X26335000Y-18160000D01*
X26335000Y-19810000D01*
X26334278Y-19824703D01*
X26332118Y-19839264D01*
X26328541Y-19853543D01*
X26323582Y-19867403D01*
X26317288Y-19880710D01*
X26309720Y-19893336D01*
X26300952Y-19905159D01*
X26291066Y-19916066D01*
X26280159Y-19925952D01*
X26268336Y-19934720D01*
X26255710Y-19942288D01*
X26242403Y-19948582D01*
X26228543Y-19953541D01*
X26214264Y-19957118D01*
X26199703Y-19959278D01*
X26185000Y-19960000D01*
X25885000Y-19960000D01*
X25870297Y-19959278D01*
X25855736Y-19957118D01*
X25841457Y-19953541D01*
X25827597Y-19948582D01*
X25814290Y-19942288D01*
X25801664Y-19934720D01*
X25789841Y-19925952D01*
X25778934Y-19916066D01*
X25769048Y-19905159D01*
X25760280Y-19893336D01*
X25752712Y-19880710D01*
X25746418Y-19867403D01*
X25741459Y-19853543D01*
X25737882Y-19839264D01*
X25735722Y-19824703D01*
X25735000Y-19810000D01*
X25735000Y-18160000D01*
X25735722Y-18145297D01*
X25737882Y-18130736D01*
X25741459Y-18116457D01*
X25746418Y-18102597D01*
X25752712Y-18089290D01*
X25760280Y-18076664D01*
X25769048Y-18064841D01*
X25778934Y-18053934D01*
X25789841Y-18044048D01*
X25801664Y-18035280D01*
X25814290Y-18027712D01*
X25827597Y-18021418D01*
X25841457Y-18016459D01*
X25855736Y-18012882D01*
X25870297Y-18010722D01*
X25885000Y-18010000D01*
X26185000Y-18010000D01*
X26199703Y-18010722D01*
X26199703Y-18010722D01*
G37*
D19*
X26035000Y-18985000D03*
D10*
G36*
X27469703Y-18010722D02*
G01*
X27484264Y-18012882D01*
X27498543Y-18016459D01*
X27512403Y-18021418D01*
X27525710Y-18027712D01*
X27538336Y-18035280D01*
X27550159Y-18044048D01*
X27561066Y-18053934D01*
X27570952Y-18064841D01*
X27579720Y-18076664D01*
X27587288Y-18089290D01*
X27593582Y-18102597D01*
X27598541Y-18116457D01*
X27602118Y-18130736D01*
X27604278Y-18145297D01*
X27605000Y-18160000D01*
X27605000Y-19810000D01*
X27604278Y-19824703D01*
X27602118Y-19839264D01*
X27598541Y-19853543D01*
X27593582Y-19867403D01*
X27587288Y-19880710D01*
X27579720Y-19893336D01*
X27570952Y-19905159D01*
X27561066Y-19916066D01*
X27550159Y-19925952D01*
X27538336Y-19934720D01*
X27525710Y-19942288D01*
X27512403Y-19948582D01*
X27498543Y-19953541D01*
X27484264Y-19957118D01*
X27469703Y-19959278D01*
X27455000Y-19960000D01*
X27155000Y-19960000D01*
X27140297Y-19959278D01*
X27125736Y-19957118D01*
X27111457Y-19953541D01*
X27097597Y-19948582D01*
X27084290Y-19942288D01*
X27071664Y-19934720D01*
X27059841Y-19925952D01*
X27048934Y-19916066D01*
X27039048Y-19905159D01*
X27030280Y-19893336D01*
X27022712Y-19880710D01*
X27016418Y-19867403D01*
X27011459Y-19853543D01*
X27007882Y-19839264D01*
X27005722Y-19824703D01*
X27005000Y-19810000D01*
X27005000Y-18160000D01*
X27005722Y-18145297D01*
X27007882Y-18130736D01*
X27011459Y-18116457D01*
X27016418Y-18102597D01*
X27022712Y-18089290D01*
X27030280Y-18076664D01*
X27039048Y-18064841D01*
X27048934Y-18053934D01*
X27059841Y-18044048D01*
X27071664Y-18035280D01*
X27084290Y-18027712D01*
X27097597Y-18021418D01*
X27111457Y-18016459D01*
X27125736Y-18012882D01*
X27140297Y-18010722D01*
X27155000Y-18010000D01*
X27455000Y-18010000D01*
X27469703Y-18010722D01*
X27469703Y-18010722D01*
G37*
D19*
X27305000Y-18985000D03*
D10*
G36*
X27469703Y-13060722D02*
G01*
X27484264Y-13062882D01*
X27498543Y-13066459D01*
X27512403Y-13071418D01*
X27525710Y-13077712D01*
X27538336Y-13085280D01*
X27550159Y-13094048D01*
X27561066Y-13103934D01*
X27570952Y-13114841D01*
X27579720Y-13126664D01*
X27587288Y-13139290D01*
X27593582Y-13152597D01*
X27598541Y-13166457D01*
X27602118Y-13180736D01*
X27604278Y-13195297D01*
X27605000Y-13210000D01*
X27605000Y-14860000D01*
X27604278Y-14874703D01*
X27602118Y-14889264D01*
X27598541Y-14903543D01*
X27593582Y-14917403D01*
X27587288Y-14930710D01*
X27579720Y-14943336D01*
X27570952Y-14955159D01*
X27561066Y-14966066D01*
X27550159Y-14975952D01*
X27538336Y-14984720D01*
X27525710Y-14992288D01*
X27512403Y-14998582D01*
X27498543Y-15003541D01*
X27484264Y-15007118D01*
X27469703Y-15009278D01*
X27455000Y-15010000D01*
X27155000Y-15010000D01*
X27140297Y-15009278D01*
X27125736Y-15007118D01*
X27111457Y-15003541D01*
X27097597Y-14998582D01*
X27084290Y-14992288D01*
X27071664Y-14984720D01*
X27059841Y-14975952D01*
X27048934Y-14966066D01*
X27039048Y-14955159D01*
X27030280Y-14943336D01*
X27022712Y-14930710D01*
X27016418Y-14917403D01*
X27011459Y-14903543D01*
X27007882Y-14889264D01*
X27005722Y-14874703D01*
X27005000Y-14860000D01*
X27005000Y-13210000D01*
X27005722Y-13195297D01*
X27007882Y-13180736D01*
X27011459Y-13166457D01*
X27016418Y-13152597D01*
X27022712Y-13139290D01*
X27030280Y-13126664D01*
X27039048Y-13114841D01*
X27048934Y-13103934D01*
X27059841Y-13094048D01*
X27071664Y-13085280D01*
X27084290Y-13077712D01*
X27097597Y-13071418D01*
X27111457Y-13066459D01*
X27125736Y-13062882D01*
X27140297Y-13060722D01*
X27155000Y-13060000D01*
X27455000Y-13060000D01*
X27469703Y-13060722D01*
X27469703Y-13060722D01*
G37*
D19*
X27305000Y-14035000D03*
D10*
G36*
X26199703Y-13060722D02*
G01*
X26214264Y-13062882D01*
X26228543Y-13066459D01*
X26242403Y-13071418D01*
X26255710Y-13077712D01*
X26268336Y-13085280D01*
X26280159Y-13094048D01*
X26291066Y-13103934D01*
X26300952Y-13114841D01*
X26309720Y-13126664D01*
X26317288Y-13139290D01*
X26323582Y-13152597D01*
X26328541Y-13166457D01*
X26332118Y-13180736D01*
X26334278Y-13195297D01*
X26335000Y-13210000D01*
X26335000Y-14860000D01*
X26334278Y-14874703D01*
X26332118Y-14889264D01*
X26328541Y-14903543D01*
X26323582Y-14917403D01*
X26317288Y-14930710D01*
X26309720Y-14943336D01*
X26300952Y-14955159D01*
X26291066Y-14966066D01*
X26280159Y-14975952D01*
X26268336Y-14984720D01*
X26255710Y-14992288D01*
X26242403Y-14998582D01*
X26228543Y-15003541D01*
X26214264Y-15007118D01*
X26199703Y-15009278D01*
X26185000Y-15010000D01*
X25885000Y-15010000D01*
X25870297Y-15009278D01*
X25855736Y-15007118D01*
X25841457Y-15003541D01*
X25827597Y-14998582D01*
X25814290Y-14992288D01*
X25801664Y-14984720D01*
X25789841Y-14975952D01*
X25778934Y-14966066D01*
X25769048Y-14955159D01*
X25760280Y-14943336D01*
X25752712Y-14930710D01*
X25746418Y-14917403D01*
X25741459Y-14903543D01*
X25737882Y-14889264D01*
X25735722Y-14874703D01*
X25735000Y-14860000D01*
X25735000Y-13210000D01*
X25735722Y-13195297D01*
X25737882Y-13180736D01*
X25741459Y-13166457D01*
X25746418Y-13152597D01*
X25752712Y-13139290D01*
X25760280Y-13126664D01*
X25769048Y-13114841D01*
X25778934Y-13103934D01*
X25789841Y-13094048D01*
X25801664Y-13085280D01*
X25814290Y-13077712D01*
X25827597Y-13071418D01*
X25841457Y-13066459D01*
X25855736Y-13062882D01*
X25870297Y-13060722D01*
X25885000Y-13060000D01*
X26185000Y-13060000D01*
X26199703Y-13060722D01*
X26199703Y-13060722D01*
G37*
D19*
X26035000Y-14035000D03*
D10*
G36*
X24929703Y-13060722D02*
G01*
X24944264Y-13062882D01*
X24958543Y-13066459D01*
X24972403Y-13071418D01*
X24985710Y-13077712D01*
X24998336Y-13085280D01*
X25010159Y-13094048D01*
X25021066Y-13103934D01*
X25030952Y-13114841D01*
X25039720Y-13126664D01*
X25047288Y-13139290D01*
X25053582Y-13152597D01*
X25058541Y-13166457D01*
X25062118Y-13180736D01*
X25064278Y-13195297D01*
X25065000Y-13210000D01*
X25065000Y-14860000D01*
X25064278Y-14874703D01*
X25062118Y-14889264D01*
X25058541Y-14903543D01*
X25053582Y-14917403D01*
X25047288Y-14930710D01*
X25039720Y-14943336D01*
X25030952Y-14955159D01*
X25021066Y-14966066D01*
X25010159Y-14975952D01*
X24998336Y-14984720D01*
X24985710Y-14992288D01*
X24972403Y-14998582D01*
X24958543Y-15003541D01*
X24944264Y-15007118D01*
X24929703Y-15009278D01*
X24915000Y-15010000D01*
X24615000Y-15010000D01*
X24600297Y-15009278D01*
X24585736Y-15007118D01*
X24571457Y-15003541D01*
X24557597Y-14998582D01*
X24544290Y-14992288D01*
X24531664Y-14984720D01*
X24519841Y-14975952D01*
X24508934Y-14966066D01*
X24499048Y-14955159D01*
X24490280Y-14943336D01*
X24482712Y-14930710D01*
X24476418Y-14917403D01*
X24471459Y-14903543D01*
X24467882Y-14889264D01*
X24465722Y-14874703D01*
X24465000Y-14860000D01*
X24465000Y-13210000D01*
X24465722Y-13195297D01*
X24467882Y-13180736D01*
X24471459Y-13166457D01*
X24476418Y-13152597D01*
X24482712Y-13139290D01*
X24490280Y-13126664D01*
X24499048Y-13114841D01*
X24508934Y-13103934D01*
X24519841Y-13094048D01*
X24531664Y-13085280D01*
X24544290Y-13077712D01*
X24557597Y-13071418D01*
X24571457Y-13066459D01*
X24585736Y-13062882D01*
X24600297Y-13060722D01*
X24615000Y-13060000D01*
X24915000Y-13060000D01*
X24929703Y-13060722D01*
X24929703Y-13060722D01*
G37*
D19*
X24765000Y-14035000D03*
D10*
G36*
X23659703Y-13060722D02*
G01*
X23674264Y-13062882D01*
X23688543Y-13066459D01*
X23702403Y-13071418D01*
X23715710Y-13077712D01*
X23728336Y-13085280D01*
X23740159Y-13094048D01*
X23751066Y-13103934D01*
X23760952Y-13114841D01*
X23769720Y-13126664D01*
X23777288Y-13139290D01*
X23783582Y-13152597D01*
X23788541Y-13166457D01*
X23792118Y-13180736D01*
X23794278Y-13195297D01*
X23795000Y-13210000D01*
X23795000Y-14860000D01*
X23794278Y-14874703D01*
X23792118Y-14889264D01*
X23788541Y-14903543D01*
X23783582Y-14917403D01*
X23777288Y-14930710D01*
X23769720Y-14943336D01*
X23760952Y-14955159D01*
X23751066Y-14966066D01*
X23740159Y-14975952D01*
X23728336Y-14984720D01*
X23715710Y-14992288D01*
X23702403Y-14998582D01*
X23688543Y-15003541D01*
X23674264Y-15007118D01*
X23659703Y-15009278D01*
X23645000Y-15010000D01*
X23345000Y-15010000D01*
X23330297Y-15009278D01*
X23315736Y-15007118D01*
X23301457Y-15003541D01*
X23287597Y-14998582D01*
X23274290Y-14992288D01*
X23261664Y-14984720D01*
X23249841Y-14975952D01*
X23238934Y-14966066D01*
X23229048Y-14955159D01*
X23220280Y-14943336D01*
X23212712Y-14930710D01*
X23206418Y-14917403D01*
X23201459Y-14903543D01*
X23197882Y-14889264D01*
X23195722Y-14874703D01*
X23195000Y-14860000D01*
X23195000Y-13210000D01*
X23195722Y-13195297D01*
X23197882Y-13180736D01*
X23201459Y-13166457D01*
X23206418Y-13152597D01*
X23212712Y-13139290D01*
X23220280Y-13126664D01*
X23229048Y-13114841D01*
X23238934Y-13103934D01*
X23249841Y-13094048D01*
X23261664Y-13085280D01*
X23274290Y-13077712D01*
X23287597Y-13071418D01*
X23301457Y-13066459D01*
X23315736Y-13062882D01*
X23330297Y-13060722D01*
X23345000Y-13060000D01*
X23645000Y-13060000D01*
X23659703Y-13060722D01*
X23659703Y-13060722D01*
G37*
D19*
X23495000Y-14035000D03*
D20*
X-34330000Y-27940000D03*
D10*
G36*
X-36205496Y-26941204D02*
G01*
X-36181227Y-26944804D01*
X-36157429Y-26950765D01*
X-36134329Y-26959030D01*
X-36112151Y-26969520D01*
X-36091107Y-26982133D01*
X-36071402Y-26996747D01*
X-36053223Y-27013223D01*
X-36036747Y-27031402D01*
X-36022133Y-27051107D01*
X-36009520Y-27072151D01*
X-35999030Y-27094329D01*
X-35990765Y-27117429D01*
X-35984804Y-27141227D01*
X-35981204Y-27165496D01*
X-35980000Y-27190000D01*
X-35980000Y-28690000D01*
X-35981204Y-28714504D01*
X-35984804Y-28738773D01*
X-35990765Y-28762571D01*
X-35999030Y-28785671D01*
X-36009520Y-28807849D01*
X-36022133Y-28828893D01*
X-36036747Y-28848598D01*
X-36053223Y-28866777D01*
X-36071402Y-28883253D01*
X-36091107Y-28897867D01*
X-36112151Y-28910480D01*
X-36134329Y-28920970D01*
X-36157429Y-28929235D01*
X-36181227Y-28935196D01*
X-36205496Y-28938796D01*
X-36230000Y-28940000D01*
X-37430000Y-28940000D01*
X-37454504Y-28938796D01*
X-37478773Y-28935196D01*
X-37502571Y-28929235D01*
X-37525671Y-28920970D01*
X-37547849Y-28910480D01*
X-37568893Y-28897867D01*
X-37588598Y-28883253D01*
X-37606777Y-28866777D01*
X-37623253Y-28848598D01*
X-37637867Y-28828893D01*
X-37650480Y-28807849D01*
X-37660970Y-28785671D01*
X-37669235Y-28762571D01*
X-37675196Y-28738773D01*
X-37678796Y-28714504D01*
X-37680000Y-28690000D01*
X-37680000Y-27190000D01*
X-37678796Y-27165496D01*
X-37675196Y-27141227D01*
X-37669235Y-27117429D01*
X-37660970Y-27094329D01*
X-37650480Y-27072151D01*
X-37637867Y-27051107D01*
X-37623253Y-27031402D01*
X-37606777Y-27013223D01*
X-37588598Y-26996747D01*
X-37568893Y-26982133D01*
X-37547849Y-26969520D01*
X-37525671Y-26959030D01*
X-37502571Y-26950765D01*
X-37478773Y-26944804D01*
X-37454504Y-26941204D01*
X-37430000Y-26940000D01*
X-36230000Y-26940000D01*
X-36205496Y-26941204D01*
X-36205496Y-26941204D01*
G37*
D21*
X-36830000Y-27940000D03*
D10*
G36*
X-38595496Y-16296204D02*
G01*
X-38571227Y-16299804D01*
X-38547429Y-16305765D01*
X-38524329Y-16314030D01*
X-38502151Y-16324520D01*
X-38481107Y-16337133D01*
X-38461402Y-16351747D01*
X-38443223Y-16368223D01*
X-38426747Y-16386402D01*
X-38412133Y-16406107D01*
X-38399520Y-16427151D01*
X-38389030Y-16449329D01*
X-38380765Y-16472429D01*
X-38374804Y-16496227D01*
X-38371204Y-16520496D01*
X-38370000Y-16545000D01*
X-38370000Y-17745000D01*
X-38371204Y-17769504D01*
X-38374804Y-17793773D01*
X-38380765Y-17817571D01*
X-38389030Y-17840671D01*
X-38399520Y-17862849D01*
X-38412133Y-17883893D01*
X-38426747Y-17903598D01*
X-38443223Y-17921777D01*
X-38461402Y-17938253D01*
X-38481107Y-17952867D01*
X-38502151Y-17965480D01*
X-38524329Y-17975970D01*
X-38547429Y-17984235D01*
X-38571227Y-17990196D01*
X-38595496Y-17993796D01*
X-38620000Y-17995000D01*
X-40120000Y-17995000D01*
X-40144504Y-17993796D01*
X-40168773Y-17990196D01*
X-40192571Y-17984235D01*
X-40215671Y-17975970D01*
X-40237849Y-17965480D01*
X-40258893Y-17952867D01*
X-40278598Y-17938253D01*
X-40296777Y-17921777D01*
X-40313253Y-17903598D01*
X-40327867Y-17883893D01*
X-40340480Y-17862849D01*
X-40350970Y-17840671D01*
X-40359235Y-17817571D01*
X-40365196Y-17793773D01*
X-40368796Y-17769504D01*
X-40370000Y-17745000D01*
X-40370000Y-16545000D01*
X-40368796Y-16520496D01*
X-40365196Y-16496227D01*
X-40359235Y-16472429D01*
X-40350970Y-16449329D01*
X-40340480Y-16427151D01*
X-40327867Y-16406107D01*
X-40313253Y-16386402D01*
X-40296777Y-16368223D01*
X-40278598Y-16351747D01*
X-40258893Y-16337133D01*
X-40237849Y-16324520D01*
X-40215671Y-16314030D01*
X-40192571Y-16305765D01*
X-40168773Y-16299804D01*
X-40144504Y-16296204D01*
X-40120000Y-16295000D01*
X-38620000Y-16295000D01*
X-38595496Y-16296204D01*
X-38595496Y-16296204D01*
G37*
D21*
X-39370000Y-17145000D03*
D22*
X-39370000Y-19645000D03*
D23*
X-25400000Y27940000D03*
X-25400000Y17940000D03*
D10*
G36*
X43115142Y-2476174D02*
G01*
X43138803Y-2479684D01*
X43162007Y-2485496D01*
X43184529Y-2493554D01*
X43206153Y-2503782D01*
X43226670Y-2516079D01*
X43245883Y-2530329D01*
X43263607Y-2546393D01*
X43279671Y-2564117D01*
X43293921Y-2583330D01*
X43306218Y-2603847D01*
X43316446Y-2625471D01*
X43324504Y-2647993D01*
X43330316Y-2671197D01*
X43333826Y-2694858D01*
X43335000Y-2718750D01*
X43335000Y-3631250D01*
X43333826Y-3655142D01*
X43330316Y-3678803D01*
X43324504Y-3702007D01*
X43316446Y-3724529D01*
X43306218Y-3746153D01*
X43293921Y-3766670D01*
X43279671Y-3785883D01*
X43263607Y-3803607D01*
X43245883Y-3819671D01*
X43226670Y-3833921D01*
X43206153Y-3846218D01*
X43184529Y-3856446D01*
X43162007Y-3864504D01*
X43138803Y-3870316D01*
X43115142Y-3873826D01*
X43091250Y-3875000D01*
X42603750Y-3875000D01*
X42579858Y-3873826D01*
X42556197Y-3870316D01*
X42532993Y-3864504D01*
X42510471Y-3856446D01*
X42488847Y-3846218D01*
X42468330Y-3833921D01*
X42449117Y-3819671D01*
X42431393Y-3803607D01*
X42415329Y-3785883D01*
X42401079Y-3766670D01*
X42388782Y-3746153D01*
X42378554Y-3724529D01*
X42370496Y-3702007D01*
X42364684Y-3678803D01*
X42361174Y-3655142D01*
X42360000Y-3631250D01*
X42360000Y-2718750D01*
X42361174Y-2694858D01*
X42364684Y-2671197D01*
X42370496Y-2647993D01*
X42378554Y-2625471D01*
X42388782Y-2603847D01*
X42401079Y-2583330D01*
X42415329Y-2564117D01*
X42431393Y-2546393D01*
X42449117Y-2530329D01*
X42468330Y-2516079D01*
X42488847Y-2503782D01*
X42510471Y-2493554D01*
X42532993Y-2485496D01*
X42556197Y-2479684D01*
X42579858Y-2476174D01*
X42603750Y-2475000D01*
X43091250Y-2475000D01*
X43115142Y-2476174D01*
X43115142Y-2476174D01*
G37*
D24*
X42847500Y-3175000D03*
D10*
G36*
X41240142Y-2476174D02*
G01*
X41263803Y-2479684D01*
X41287007Y-2485496D01*
X41309529Y-2493554D01*
X41331153Y-2503782D01*
X41351670Y-2516079D01*
X41370883Y-2530329D01*
X41388607Y-2546393D01*
X41404671Y-2564117D01*
X41418921Y-2583330D01*
X41431218Y-2603847D01*
X41441446Y-2625471D01*
X41449504Y-2647993D01*
X41455316Y-2671197D01*
X41458826Y-2694858D01*
X41460000Y-2718750D01*
X41460000Y-3631250D01*
X41458826Y-3655142D01*
X41455316Y-3678803D01*
X41449504Y-3702007D01*
X41441446Y-3724529D01*
X41431218Y-3746153D01*
X41418921Y-3766670D01*
X41404671Y-3785883D01*
X41388607Y-3803607D01*
X41370883Y-3819671D01*
X41351670Y-3833921D01*
X41331153Y-3846218D01*
X41309529Y-3856446D01*
X41287007Y-3864504D01*
X41263803Y-3870316D01*
X41240142Y-3873826D01*
X41216250Y-3875000D01*
X40728750Y-3875000D01*
X40704858Y-3873826D01*
X40681197Y-3870316D01*
X40657993Y-3864504D01*
X40635471Y-3856446D01*
X40613847Y-3846218D01*
X40593330Y-3833921D01*
X40574117Y-3819671D01*
X40556393Y-3803607D01*
X40540329Y-3785883D01*
X40526079Y-3766670D01*
X40513782Y-3746153D01*
X40503554Y-3724529D01*
X40495496Y-3702007D01*
X40489684Y-3678803D01*
X40486174Y-3655142D01*
X40485000Y-3631250D01*
X40485000Y-2718750D01*
X40486174Y-2694858D01*
X40489684Y-2671197D01*
X40495496Y-2647993D01*
X40503554Y-2625471D01*
X40513782Y-2603847D01*
X40526079Y-2583330D01*
X40540329Y-2564117D01*
X40556393Y-2546393D01*
X40574117Y-2530329D01*
X40593330Y-2516079D01*
X40613847Y-2503782D01*
X40635471Y-2493554D01*
X40657993Y-2485496D01*
X40681197Y-2479684D01*
X40704858Y-2476174D01*
X40728750Y-2475000D01*
X41216250Y-2475000D01*
X41240142Y-2476174D01*
X41240142Y-2476174D01*
G37*
D24*
X40972500Y-3175000D03*
D10*
G36*
X42937691Y-4606053D02*
G01*
X42958926Y-4609203D01*
X42979750Y-4614419D01*
X42999962Y-4621651D01*
X43019368Y-4630830D01*
X43037781Y-4641866D01*
X43055024Y-4654654D01*
X43070930Y-4669070D01*
X43085346Y-4684976D01*
X43098134Y-4702219D01*
X43109170Y-4720632D01*
X43118349Y-4740038D01*
X43125581Y-4760250D01*
X43130797Y-4781074D01*
X43133947Y-4802309D01*
X43135000Y-4823750D01*
X43135000Y-5336250D01*
X43133947Y-5357691D01*
X43130797Y-5378926D01*
X43125581Y-5399750D01*
X43118349Y-5419962D01*
X43109170Y-5439368D01*
X43098134Y-5457781D01*
X43085346Y-5475024D01*
X43070930Y-5490930D01*
X43055024Y-5505346D01*
X43037781Y-5518134D01*
X43019368Y-5529170D01*
X42999962Y-5538349D01*
X42979750Y-5545581D01*
X42958926Y-5550797D01*
X42937691Y-5553947D01*
X42916250Y-5555000D01*
X42478750Y-5555000D01*
X42457309Y-5553947D01*
X42436074Y-5550797D01*
X42415250Y-5545581D01*
X42395038Y-5538349D01*
X42375632Y-5529170D01*
X42357219Y-5518134D01*
X42339976Y-5505346D01*
X42324070Y-5490930D01*
X42309654Y-5475024D01*
X42296866Y-5457781D01*
X42285830Y-5439368D01*
X42276651Y-5419962D01*
X42269419Y-5399750D01*
X42264203Y-5378926D01*
X42261053Y-5357691D01*
X42260000Y-5336250D01*
X42260000Y-4823750D01*
X42261053Y-4802309D01*
X42264203Y-4781074D01*
X42269419Y-4760250D01*
X42276651Y-4740038D01*
X42285830Y-4720632D01*
X42296866Y-4702219D01*
X42309654Y-4684976D01*
X42324070Y-4669070D01*
X42339976Y-4654654D01*
X42357219Y-4641866D01*
X42375632Y-4630830D01*
X42395038Y-4621651D01*
X42415250Y-4614419D01*
X42436074Y-4609203D01*
X42457309Y-4606053D01*
X42478750Y-4605000D01*
X42916250Y-4605000D01*
X42937691Y-4606053D01*
X42937691Y-4606053D01*
G37*
D11*
X42697500Y-5080000D03*
D10*
G36*
X41362691Y-4606053D02*
G01*
X41383926Y-4609203D01*
X41404750Y-4614419D01*
X41424962Y-4621651D01*
X41444368Y-4630830D01*
X41462781Y-4641866D01*
X41480024Y-4654654D01*
X41495930Y-4669070D01*
X41510346Y-4684976D01*
X41523134Y-4702219D01*
X41534170Y-4720632D01*
X41543349Y-4740038D01*
X41550581Y-4760250D01*
X41555797Y-4781074D01*
X41558947Y-4802309D01*
X41560000Y-4823750D01*
X41560000Y-5336250D01*
X41558947Y-5357691D01*
X41555797Y-5378926D01*
X41550581Y-5399750D01*
X41543349Y-5419962D01*
X41534170Y-5439368D01*
X41523134Y-5457781D01*
X41510346Y-5475024D01*
X41495930Y-5490930D01*
X41480024Y-5505346D01*
X41462781Y-5518134D01*
X41444368Y-5529170D01*
X41424962Y-5538349D01*
X41404750Y-5545581D01*
X41383926Y-5550797D01*
X41362691Y-5553947D01*
X41341250Y-5555000D01*
X40903750Y-5555000D01*
X40882309Y-5553947D01*
X40861074Y-5550797D01*
X40840250Y-5545581D01*
X40820038Y-5538349D01*
X40800632Y-5529170D01*
X40782219Y-5518134D01*
X40764976Y-5505346D01*
X40749070Y-5490930D01*
X40734654Y-5475024D01*
X40721866Y-5457781D01*
X40710830Y-5439368D01*
X40701651Y-5419962D01*
X40694419Y-5399750D01*
X40689203Y-5378926D01*
X40686053Y-5357691D01*
X40685000Y-5336250D01*
X40685000Y-4823750D01*
X40686053Y-4802309D01*
X40689203Y-4781074D01*
X40694419Y-4760250D01*
X40701651Y-4740038D01*
X40710830Y-4720632D01*
X40721866Y-4702219D01*
X40734654Y-4684976D01*
X40749070Y-4669070D01*
X40764976Y-4654654D01*
X40782219Y-4641866D01*
X40800632Y-4630830D01*
X40820038Y-4621651D01*
X40840250Y-4614419D01*
X40861074Y-4609203D01*
X40882309Y-4606053D01*
X40903750Y-4605000D01*
X41341250Y-4605000D01*
X41362691Y-4606053D01*
X41362691Y-4606053D01*
G37*
D11*
X41122500Y-5080000D03*
D25*
X11430000Y-30480000D03*
D26*
X11430000Y-27940000D03*
X13970000Y-30480000D03*
X13970000Y-27940000D03*
X16510000Y-30480000D03*
X16510000Y-27940000D03*
X19050000Y-30480000D03*
X19050000Y-27940000D03*
X21590000Y-30480000D03*
X21590000Y-27940000D03*
X24130000Y-30480000D03*
X24130000Y-27940000D03*
X26670000Y-30480000D03*
X26670000Y-27940000D03*
X29210000Y-30480000D03*
X29210000Y-27940000D03*
X31750000Y-30480000D03*
X31750000Y-27940000D03*
X34290000Y-30480000D03*
X34290000Y-27940000D03*
D23*
X-41910000Y-27940000D03*
X-19685000Y-33020000D03*
X-45085000Y-24765000D03*
X-36830000Y-12065000D03*
X-33020000Y29845000D03*
X-38735000Y33020000D03*
X-28575000Y5715000D03*
X-5080000Y9500000D03*
X10160000Y9525000D03*
X25400000Y9500000D03*
D27*
X0Y-27940000D03*
X37084000Y-20320000D03*
X-5715000Y-32385000D03*
X30988000Y-22860000D03*
D23*
X36830000Y-12065000D03*
D28*
X-2540000Y-26035000D03*
X40005000Y-24765000D03*
X-20955000Y-31242008D03*
X-22606016Y-34036000D03*
X5055000Y-24740020D03*
X-27940000Y-24765000D03*
X-22860000Y-24765000D03*
X-17780000Y-24765000D03*
X-12700000Y-24765000D03*
X-8019846Y-25400000D03*
X-7620000Y-32512000D03*
X24130000Y-24384010D03*
X30226000Y-24384012D03*
X44450000Y-1270000D03*
X37465000Y-1270000D03*
X40005000Y-9525000D03*
X40005000Y-5080000D03*
X40005000Y-3175000D03*
X-26035000Y-15875000D03*
X-15875000Y-15875000D03*
X-1905000Y-8890000D03*
D23*
X-6350000Y4445000D03*
X-8255000Y4445000D03*
X-10160000Y4445000D03*
D28*
X-1941761Y-3773239D03*
X-10794985Y-14477985D03*
X-8890000Y-9525000D03*
D23*
X24130006Y4445000D03*
X22225000Y4445000D03*
X20320000Y4445000D03*
D28*
X-1524012Y-32512000D03*
X33020000Y-22098000D03*
X-3302000Y-32512004D03*
X30226004Y-22098000D03*
X43815000Y-9525000D03*
X38504468Y-23346504D03*
X36576000Y-23368016D03*
X-20955000Y-14496991D03*
D23*
X-3810000Y4445000D03*
X-1905000Y4445000D03*
X0Y4445000D03*
X26670000Y4445000D03*
D28*
X18415000Y-635000D03*
D23*
X28575000Y4445000D03*
X30480000Y4445000D03*
D28*
X-25400000Y-8255000D03*
X-23495000Y-11430000D03*
X-17780000Y-7874000D03*
X-1905000Y-2539994D03*
X-1905000Y-7620000D03*
X17145000Y-635000D03*
X33655000Y3175012D03*
X42545000Y-23495000D03*
X41275000Y-23495000D03*
X43688000Y-5080000D03*
X44450012Y-2540000D03*
D29*
X27305000Y-18985000D02*
X27305000Y-20955000D01*
X-3175000Y-24065000D02*
X-3175000Y-26035000D01*
X-4292500Y-26035000D02*
X-3175000Y-26035000D01*
X-3175000Y-26035000D02*
X-3175000Y-27335000D01*
X-3175000Y-28482500D02*
X-3175000Y-27335000D01*
X-2387500Y-29270000D02*
X-3175000Y-28482500D01*
X-2387500Y-29845000D02*
X-2387500Y-29270000D01*
X-2387500Y-31750000D02*
X-2387500Y-29845000D01*
X31115000Y-19532500D02*
X29210000Y-19532500D01*
X26700000Y-21467500D02*
X26187500Y-20955000D01*
X26700000Y-22860000D02*
X26700000Y-21467500D01*
X27305000Y-20955000D02*
X26187500Y-20955000D01*
X-3810000Y-28082000D02*
X-3810000Y-28194000D01*
X-3175000Y-27335000D02*
X-3175000Y-27447000D01*
X-3175000Y-27447000D02*
X-3810000Y-28082000D01*
X-2540000Y-26035000D02*
X-3175000Y-26035000D01*
X-1422500Y-26035000D02*
X-2540000Y-26035000D01*
D30*
X34290000Y-30480000D02*
X34290000Y-27940000D01*
D29*
X-2387500Y-34137500D02*
X-2540000Y-34290000D01*
X-2387500Y-31750000D02*
X-2387500Y-34137500D01*
D30*
X5079980Y-24765000D02*
X5055000Y-24740020D01*
X8255000Y-24765000D02*
X5079980Y-24765000D01*
X9525000Y-26035000D02*
X8255000Y-24765000D01*
D29*
X10066400Y-30480000D02*
X9525000Y-30480000D01*
X11430000Y-30480000D02*
X10066400Y-30480000D01*
D30*
X9525000Y-34290000D02*
X9525000Y-30480000D01*
D29*
X11430000Y-27940000D02*
X9525000Y-27940000D01*
D30*
X9525000Y-30480000D02*
X9525000Y-27940000D01*
X9525000Y-27940000D02*
X9525000Y-26035000D01*
X-10795000Y-26670000D02*
X-9525000Y-27940000D01*
X-34330000Y-27940000D02*
X-33060000Y-26670000D01*
D29*
X-27940000Y-24765000D02*
X-27940000Y-26670000D01*
D30*
X-33060000Y-26670000D02*
X-27940000Y-26670000D01*
D29*
X-22860000Y-24765000D02*
X-22860000Y-26670000D01*
D30*
X-27940000Y-26670000D02*
X-22860000Y-26670000D01*
D29*
X-17780000Y-24765000D02*
X-17780000Y-26670000D01*
D30*
X-22860000Y-26670000D02*
X-17780000Y-26670000D01*
D29*
X-12700000Y-24765000D02*
X-12700000Y-26670000D01*
D30*
X-17780000Y-26670000D02*
X-12700000Y-26670000D01*
X-12700000Y-26670000D02*
X-10795000Y-26670000D01*
D29*
X-8019846Y-25965685D02*
X-8019846Y-25400000D01*
X-8019846Y-26434846D02*
X-8019846Y-25965685D01*
X-9525000Y-27940000D02*
X-8019846Y-26434846D01*
D31*
X-22098000Y-33527984D02*
X-22606016Y-34036000D01*
X-22098000Y-31750000D02*
X-22098000Y-33527984D01*
X-20955000Y-31242008D02*
X-21590008Y-31242008D01*
X-21590008Y-31242008D02*
X-22098000Y-31750000D01*
D30*
X-2794000Y-34544000D02*
X-2540000Y-34290000D01*
X-8382000Y-34544000D02*
X-2794000Y-34544000D01*
X-9525000Y-27940000D02*
X-9525000Y-33401000D01*
X-9525000Y-33401000D02*
X-8382000Y-34544000D01*
X11430000Y-34290000D02*
X33020000Y-34290000D01*
X-2540000Y-34290000D02*
X11430000Y-34290000D01*
X33020000Y-34290000D02*
X34290000Y-33020000D01*
X34290000Y-33020000D02*
X34290000Y-30480000D01*
X40005000Y-22987000D02*
X40005000Y-24765000D01*
X39116000Y-22098000D02*
X40005000Y-22987000D01*
X36131500Y-22098000D02*
X39116000Y-22098000D01*
X34290000Y-23939500D02*
X36131500Y-22098000D01*
D29*
X31115000Y-19532500D02*
X32029500Y-19532500D01*
X32029500Y-19532500D02*
X33020000Y-19532500D01*
X27813000Y-20955000D02*
X27305000Y-20955000D01*
X28194000Y-20574000D02*
X27813000Y-20955000D01*
X28194000Y-19812000D02*
X28194000Y-20574000D01*
X29210000Y-19532500D02*
X28473500Y-19532500D01*
X28473500Y-19532500D02*
X28194000Y-19812000D01*
D30*
X34290000Y-27940000D02*
X34290000Y-25654000D01*
X34290000Y-25654000D02*
X34290000Y-23939500D01*
X27940000Y-21336000D02*
X27686000Y-21082000D01*
X27940000Y-25146000D02*
X27940000Y-21336000D01*
X34290000Y-25654000D02*
X28448000Y-25654000D01*
X28448000Y-25654000D02*
X27940000Y-25146000D01*
D29*
X-36830000Y-27940000D02*
X-41910000Y-27940000D01*
X23495000Y-19837500D02*
X24612500Y-20955000D01*
X23495000Y-18985000D02*
X23495000Y-19837500D01*
X-6985000Y-27559000D02*
X-6350000Y-28194000D01*
X-6985000Y-27305000D02*
X-6985000Y-27559000D01*
X-6614290Y-26934290D02*
X-6985000Y-27305000D01*
X-6985000Y-24065000D02*
X-6614290Y-24435710D01*
X-6614290Y-25288210D02*
X-6329112Y-25573388D01*
X-6614290Y-24435710D02*
X-6614290Y-26934290D01*
X-6329112Y-25573388D02*
X-5867500Y-26035000D01*
X-6614290Y-24435710D02*
X-6614290Y-25288210D01*
X-7772500Y-30226000D02*
X-7772500Y-32359500D01*
X-7772500Y-32359500D02*
X-7620000Y-32512000D01*
X-7772500Y-30226000D02*
X-7772500Y-29586500D01*
X-7772500Y-29586500D02*
X-6380000Y-28194000D01*
X29210000Y-24282500D02*
X29210000Y-24384000D01*
X24130000Y-23818325D02*
X24130000Y-24384010D01*
X24612500Y-20955000D02*
X24130000Y-21437500D01*
X24130000Y-21437500D02*
X24130000Y-23818325D01*
X29210000Y-24282500D02*
X30124488Y-24282500D01*
X30124488Y-24282500D02*
X30226000Y-24384012D01*
D30*
X44450000Y-1270000D02*
X37465000Y-1270000D01*
D29*
X41122500Y-9525000D02*
X40005000Y-9525000D01*
X41122500Y-5080000D02*
X40005000Y-5080000D01*
X40972500Y-3175000D02*
X40005000Y-3175000D01*
D31*
X-1505001Y-9289999D02*
X-1905000Y-8890000D01*
X-127000Y-10668000D02*
X-1505001Y-9289999D01*
X4572000Y-10668000D02*
X-127000Y-10668000D01*
X20320000Y8890000D02*
X19304000Y7874000D01*
X20320000Y9525000D02*
X20320000Y8890000D01*
X17399000Y7874000D02*
X16510000Y6985000D01*
X19304000Y7874000D02*
X17399000Y7874000D01*
X16510000Y6985000D02*
X16510000Y1270000D01*
X16510000Y1270000D02*
X4572000Y-10668000D01*
X5080000Y7620000D02*
X5080000Y9525000D01*
X3600489Y6140489D02*
X5080000Y7620000D01*
X-13163511Y6140489D02*
X3600489Y6140489D01*
X-15875000Y-15875000D02*
X-15875000Y3429000D01*
X-15875000Y3429000D02*
X-13163511Y6140489D01*
X-10160000Y10541000D02*
X-10160000Y9525000D01*
X-11049000Y11430000D02*
X-10160000Y10541000D01*
X-20955000Y11430000D02*
X-11049000Y11430000D01*
X-26797000Y5588000D02*
X-20955000Y11430000D01*
X-26035000Y-15875000D02*
X-26797000Y-15113000D01*
X-26797000Y-15113000D02*
X-26797000Y5588000D01*
D32*
X-6350000Y3030787D02*
X-6350000Y4445000D01*
D30*
X-5715000Y-16510000D02*
X-5715000Y-19115000D01*
X-6350000Y-15875000D02*
X-5715000Y-16510000D01*
X-6985000Y-19115000D02*
X-6985000Y-16510000D01*
X-6985000Y-16510000D02*
X-6350000Y-15875000D01*
D32*
X-6840787Y3030787D02*
X-6350000Y3030787D01*
X-8255000Y4445000D02*
X-6840787Y3030787D01*
X-6350000Y635000D02*
X-6350000Y-635000D01*
X-10160000Y4445000D02*
X-6350000Y635000D01*
X-6350000Y-17145000D02*
X-6350000Y-635000D01*
X-6350000Y-635000D02*
X-6350000Y3030787D01*
X-10160000Y4445000D02*
X-6350000Y4445000D01*
X17780000Y11342500D02*
X17780000Y9525000D01*
X15240000Y15875000D02*
X15240000Y13882500D01*
X15240000Y13882500D02*
X17780000Y11342500D01*
D31*
X-10794985Y-11429985D02*
X-9289999Y-9924999D01*
X-9289999Y-9924999D02*
X-8890000Y-9525000D01*
X-10794985Y-14477985D02*
X-10794985Y-11429985D01*
X-1233239Y-3773239D02*
X-1941761Y-3773239D01*
X7620000Y5080000D02*
X-1233239Y-3773239D01*
X7620000Y12700000D02*
X7620000Y5080000D01*
X15240000Y15875000D02*
X10795000Y15875000D01*
X10795000Y15875000D02*
X7620000Y12700000D01*
D32*
X24130000Y-12065000D02*
X24130006Y-12064994D01*
D30*
X24765000Y-11430000D02*
X24765000Y-14035000D01*
X24130000Y-10795000D02*
X24765000Y-11430000D01*
X23495000Y-14035000D02*
X23495000Y-11430000D01*
X23495000Y-11430000D02*
X24130000Y-10795000D01*
D32*
X23225011Y3445001D02*
X24130006Y2540006D01*
X23224999Y3445001D02*
X23225011Y3445001D01*
X22225000Y4445000D02*
X23224999Y3445001D01*
X24130006Y2540006D02*
X24130006Y4445000D01*
X24130006Y634994D02*
X24130006Y-6D01*
X20320000Y4445000D02*
X24130006Y634994D01*
X24130006Y-12064994D02*
X24130006Y-6D01*
X24130006Y-6D02*
X24130006Y2540006D01*
X20320000Y4445000D02*
X24130006Y4445000D01*
X-36830000Y23495000D02*
X-36830000Y12470000D01*
X-31750000Y25400000D02*
X-34925000Y25400000D01*
X-34925000Y25400000D02*
X-36830000Y23495000D01*
X-35965000Y13335000D02*
X-36830000Y12470000D01*
X-31750000Y13335000D02*
X-35965000Y13335000D01*
D29*
X152500Y-26035000D02*
X152500Y-24130000D01*
D31*
X152500Y-27787500D02*
X0Y-27940000D01*
X152500Y-26035000D02*
X152500Y-27787500D01*
X-1124013Y-32112001D02*
X-1524012Y-32512000D01*
X152500Y-30835488D02*
X-1124013Y-32112001D01*
X152500Y-26035000D02*
X152500Y-30835488D01*
X33020000Y-21107500D02*
X34925000Y-21107500D01*
X33020000Y-21107500D02*
X33020000Y-22098000D01*
X36296500Y-21107500D02*
X37084000Y-20320000D01*
X34925000Y-21107500D02*
X36296500Y-21107500D01*
D29*
X-3962500Y-31750000D02*
X-3962500Y-30226000D01*
X-3962500Y-30226000D02*
X-6197500Y-30226000D01*
D31*
X24130000Y-27940000D02*
X24130000Y-27992478D01*
X-4597500Y-32385000D02*
X-5715000Y-32385000D01*
X-3962500Y-31750000D02*
X-4597500Y-32385000D01*
X-3302000Y-32410500D02*
X-3302000Y-32512004D01*
X-3962500Y-31750000D02*
X-3302000Y-32410500D01*
D29*
X31115000Y-21107500D02*
X29210000Y-21107500D01*
X29210000Y-21107500D02*
X29210000Y-22707500D01*
D31*
X31115000Y-22733000D02*
X30988000Y-22860000D01*
X31115000Y-21107500D02*
X31115000Y-22733000D01*
X30226004Y-21082004D02*
X30226004Y-22098000D01*
X30226000Y-21082000D02*
X30226004Y-21082004D01*
D29*
X42697500Y-9525000D02*
X43815000Y-9525000D01*
D31*
X38252500Y-25400000D02*
X38735000Y-25882500D01*
X38252500Y-24130000D02*
X38252500Y-25400000D01*
X38460996Y-23346504D02*
X38504468Y-23346504D01*
X38252500Y-23555000D02*
X38460996Y-23346504D01*
X38252500Y-24130000D02*
X38252500Y-23555000D01*
X36677500Y-25400000D02*
X36195000Y-25882500D01*
X36677500Y-24130000D02*
X36677500Y-25400000D01*
X36677500Y-23469516D02*
X36576000Y-23368016D01*
X36677500Y-24130000D02*
X36677500Y-23469516D01*
D33*
X-37870000Y7215000D02*
X-38100000Y6985000D01*
X-37870000Y8665000D02*
X-37870000Y7215000D01*
X-35790000Y7215000D02*
X-35560000Y6985000D01*
X-35790000Y8665000D02*
X-35790000Y7215000D01*
D32*
X-35560000Y6985000D02*
X-38100000Y6985000D01*
X-34140000Y6985000D02*
X-35560000Y6985000D01*
X-31750000Y9375000D02*
X-34140000Y6985000D01*
X2540000Y11430000D02*
X2540000Y9525000D01*
X0Y15875000D02*
X0Y13970000D01*
X0Y13970000D02*
X2540000Y11430000D01*
D30*
X-3175000Y-16510000D02*
X-3175000Y-19115000D01*
X-3810000Y-15875000D02*
X-3175000Y-16510000D01*
X-4445000Y-19115000D02*
X-4445000Y-16510000D01*
X-4445000Y-16510000D02*
X-3810000Y-15875000D01*
D31*
X-21373990Y-14096992D02*
X-20973991Y-14496991D01*
D32*
X-3175000Y3175000D02*
X-3810000Y3175000D01*
X-1905000Y4445000D02*
X-3175000Y3175000D01*
X-3810000Y3175000D02*
X-3810000Y4445000D01*
X-3810000Y635000D02*
X-3810000Y-635000D01*
X0Y4445000D02*
X-3810000Y635000D01*
X-3810000Y-17145000D02*
X-3810000Y-635000D01*
X-3810000Y-635000D02*
X-3810000Y3175000D01*
X-3810000Y4445000D02*
X0Y4445000D01*
D31*
X-20955000Y-13931306D02*
X-20955000Y-14496991D01*
X-4445000Y15875000D02*
X-7620000Y12700000D01*
X0Y15875000D02*
X-4445000Y15875000D01*
X-7620000Y8636000D02*
X-8890000Y7366000D01*
X-7620000Y12700000D02*
X-7620000Y8636000D01*
X-8890000Y7366000D02*
X-13843000Y7366000D01*
X-20955000Y254000D02*
X-20955000Y-13931306D01*
X-13843000Y7366000D02*
X-20955000Y254000D01*
D32*
X33020000Y11430000D02*
X33020000Y9525000D01*
X30480000Y15875000D02*
X30480000Y13970000D01*
X30480000Y13970000D02*
X33020000Y11430000D01*
D30*
X26035000Y-11430000D02*
X26670000Y-10795000D01*
X26035000Y-14035000D02*
X26035000Y-11430000D01*
X27305000Y-11430000D02*
X26670000Y-10795000D01*
X27305000Y-14035000D02*
X27305000Y-11430000D01*
D32*
X28575000Y4445000D02*
X26670000Y2540000D01*
X26670000Y2540000D02*
X26670000Y4445000D01*
X26670000Y635000D02*
X26670000Y0D01*
X30480000Y4445000D02*
X26670000Y635000D01*
X26670000Y-12065000D02*
X26670000Y0D01*
X26670000Y0D02*
X26670000Y2540000D01*
X26670000Y4445000D02*
X30480000Y4445000D01*
D31*
X18415000Y5715000D02*
X18415000Y-69315D01*
X26035000Y15875000D02*
X22860000Y12700000D01*
X30480000Y15875000D02*
X26035000Y15875000D01*
X22860000Y12700000D02*
X22860000Y8207500D01*
X22860000Y8207500D02*
X21002500Y6350000D01*
X21002500Y6350000D02*
X19050000Y6350000D01*
X18415000Y-69315D02*
X18415000Y-635000D01*
X19050000Y6350000D02*
X18415000Y5715000D01*
X-5080000Y-24700000D02*
X-4445000Y-24065000D01*
X-5080000Y-27940000D02*
X-5080000Y-24700000D01*
X25400000Y-19304000D02*
X25400000Y-23114000D01*
X25654000Y-19050000D02*
X25400000Y-19304000D01*
X26035000Y-18985000D02*
X25970000Y-19050000D01*
X25970000Y-19050000D02*
X25654000Y-19050000D01*
X-15240000Y9525000D02*
X-15240000Y8275000D01*
X-15240000Y8275000D02*
X-25400000Y-1885000D01*
X-25400000Y-7689315D02*
X-25400000Y-8255000D01*
X-25400000Y-1885000D02*
X-25400000Y-7689315D01*
X-8128000Y8693700D02*
X-9055689Y7766011D01*
X-8128000Y12827000D02*
X-8128000Y8693700D01*
X-3175000Y17780000D02*
X-8128000Y12827000D01*
X-14204989Y7766011D02*
X-23495000Y-1524000D01*
X3222500Y17780000D02*
X-3175000Y17780000D01*
X5080000Y15875000D02*
X5080000Y15922500D01*
X5080000Y15922500D02*
X3222500Y17780000D01*
X-9055689Y7766011D02*
X-14204989Y7766011D01*
X-23495000Y-1524000D02*
X-23495000Y-10864315D01*
X-23495000Y-10864315D02*
X-23495000Y-11430000D01*
X0Y8255000D02*
X-1714500Y6540500D01*
X0Y9525000D02*
X0Y8255000D01*
X-1714500Y6540500D02*
X-13652500Y6540500D01*
X-13652500Y6540500D02*
X-17780000Y2413000D01*
X-17780000Y2413000D02*
X-17780000Y-7308315D01*
X-17780000Y-7308315D02*
X-17780000Y-7874000D01*
X-1904994Y-2540000D02*
X-1905000Y-2539994D01*
X-1270000Y-2540000D02*
X-1904994Y-2540000D01*
X20320000Y17145000D02*
X19685000Y17780000D01*
X20320000Y15875000D02*
X20320000Y17145000D01*
X19685000Y17780000D02*
X12065000Y17780000D01*
X12065000Y17780000D02*
X7112000Y12827000D01*
X7112000Y12827000D02*
X7112000Y5842000D01*
X7112000Y5842000D02*
X-1270000Y-2540000D01*
X-1505001Y-8019999D02*
X-1905000Y-7620000D01*
X381000Y-9906000D02*
X-1505001Y-8019999D01*
X4042501Y-9906000D02*
X381000Y-9906000D01*
X15240000Y9525000D02*
X15240000Y1291499D01*
X15240000Y1291499D02*
X4042501Y-9906000D01*
X17145000Y-69315D02*
X17145000Y-635000D01*
X17780000Y565685D02*
X17145000Y-69315D01*
X18669000Y6985000D02*
X17780000Y6096000D01*
X20955000Y6985000D02*
X18669000Y6985000D01*
X17780000Y6096000D02*
X17780000Y565685D01*
X35560000Y15922500D02*
X33702500Y17780000D01*
X33702500Y17780000D02*
X27305000Y17780000D01*
X35560000Y15875000D02*
X35560000Y15922500D01*
X22352000Y8382000D02*
X20955000Y6985000D01*
X27305000Y17780000D02*
X22352000Y12827000D01*
X22352000Y12827000D02*
X22352000Y8382000D01*
X33655000Y6350006D02*
X33655000Y3175012D01*
X30480000Y9525000D02*
X30480006Y9525000D01*
X30480006Y9525000D02*
X33655000Y6350006D01*
X-1524000Y-24028500D02*
X-1422500Y-24130000D01*
X-1524000Y-23220112D02*
X-1524000Y-24028500D01*
X-2138112Y-22606000D02*
X-1524000Y-23220112D01*
X-5334000Y-22606000D02*
X-2138112Y-22606000D01*
X-5715000Y-24065000D02*
X-5715000Y-22987000D01*
X-5715000Y-22987000D02*
X-5334000Y-22606000D01*
X24765000Y-17910000D02*
X24765000Y-18985000D01*
X25149000Y-17526000D02*
X24765000Y-17910000D01*
X34036000Y-17526000D02*
X25149000Y-17526000D01*
X34925000Y-19532500D02*
X34925000Y-18415000D01*
X34925000Y-18415000D02*
X34036000Y-17526000D01*
X42545000Y-24060685D02*
X42545000Y-23495000D01*
X42545000Y-26289000D02*
X42545000Y-24060685D01*
X39878000Y-28956000D02*
X42545000Y-26289000D01*
X36830000Y-28956000D02*
X39878000Y-28956000D01*
X36195000Y-27457500D02*
X36195000Y-28321000D01*
X36195000Y-28321000D02*
X36830000Y-28956000D01*
X41275000Y-26670000D02*
X41275000Y-23495000D01*
X39497000Y-28448000D02*
X41275000Y-26670000D01*
X39116000Y-28448000D02*
X39497000Y-28448000D01*
X38735000Y-27457500D02*
X38735000Y-28067000D01*
X38735000Y-28067000D02*
X39116000Y-28448000D01*
D29*
X43688000Y-5080000D02*
X42697500Y-5080000D01*
X42847500Y-3175000D02*
X43482500Y-2540000D01*
X43482500Y-2540000D02*
X43884327Y-2540000D01*
X43884327Y-2540000D02*
X44450012Y-2540000D01*
D34*
G36*
X22556928Y-19810000D02*
G01*
X22572071Y-19963745D01*
X22616916Y-20111582D01*
X22689742Y-20247829D01*
X22750234Y-20321539D01*
X22755590Y-20331559D01*
X22838468Y-20432546D01*
X22838471Y-20432549D01*
X22866184Y-20466317D01*
X22899951Y-20494029D01*
X23376229Y-20970308D01*
X23308411Y-21097188D01*
X23283049Y-21180795D01*
X23260088Y-21256486D01*
X23257805Y-21264011D01*
X23245000Y-21394024D01*
X23245000Y-21394031D01*
X23240719Y-21437500D01*
X23245000Y-21480969D01*
X23245000Y-22116710D01*
X23182958Y-22192309D01*
X23128502Y-22273808D01*
X23069536Y-22384125D01*
X23032027Y-22474681D01*
X22995718Y-22594377D01*
X22976596Y-22690510D01*
X22964336Y-22814991D01*
X22964336Y-22839550D01*
X22961928Y-22864000D01*
X22961928Y-23364000D01*
X22964336Y-23388450D01*
X22964336Y-23413009D01*
X22976596Y-23537490D01*
X22995718Y-23633623D01*
X23032027Y-23753319D01*
X23069536Y-23843875D01*
X23128502Y-23954192D01*
X23165083Y-24008940D01*
X23134774Y-24082112D01*
X23095000Y-24282071D01*
X23095000Y-24485949D01*
X23134774Y-24685908D01*
X23212795Y-24874266D01*
X23326063Y-25043784D01*
X23470226Y-25187947D01*
X23639744Y-25301215D01*
X23828102Y-25379236D01*
X24028061Y-25419010D01*
X24231939Y-25419010D01*
X24431898Y-25379236D01*
X24620256Y-25301215D01*
X24789774Y-25187947D01*
X24933937Y-25043784D01*
X25047205Y-24874266D01*
X25125226Y-24685908D01*
X25161793Y-24502072D01*
X25900000Y-24502072D01*
X26024482Y-24489812D01*
X26144180Y-24453502D01*
X26254494Y-24394537D01*
X26351185Y-24315185D01*
X26430537Y-24218494D01*
X26489502Y-24108180D01*
X26525812Y-23988482D01*
X26538072Y-23864000D01*
X26538072Y-22364000D01*
X26525812Y-22239518D01*
X26489502Y-22119820D01*
X26445214Y-22036964D01*
X26473250Y-22065000D01*
X26625000Y-22068072D01*
X26749482Y-22055812D01*
X26869180Y-22019502D01*
X26979494Y-21960537D01*
X27076185Y-21881185D01*
X27155537Y-21784494D01*
X27214502Y-21674180D01*
X27250812Y-21554482D01*
X27263072Y-21430000D01*
X27260000Y-21240750D01*
X27101250Y-21082000D01*
X26314500Y-21082000D01*
X26314500Y-21102000D01*
X26160000Y-21102000D01*
X26160000Y-20808000D01*
X26314500Y-20808000D01*
X26314500Y-20828000D01*
X27101250Y-20828000D01*
X27260000Y-20669250D01*
X27263072Y-20480000D01*
X27250812Y-20355518D01*
X27214502Y-20235820D01*
X27178000Y-20167531D01*
X27178000Y-19112000D01*
X27158000Y-19112000D01*
X27158000Y-18858000D01*
X27178000Y-18858000D01*
X27178000Y-18838000D01*
X27432000Y-18838000D01*
X27432000Y-18858000D01*
X27452000Y-18858000D01*
X27452000Y-19112000D01*
X27432000Y-19112000D01*
X27432000Y-20436250D01*
X27590750Y-20595000D01*
X27605000Y-20598072D01*
X27729482Y-20585812D01*
X27849180Y-20549502D01*
X27959494Y-20490537D01*
X28056185Y-20411185D01*
X28135537Y-20314494D01*
X28167327Y-20255019D01*
X28204463Y-20324494D01*
X28259100Y-20391070D01*
X28241329Y-20412725D01*
X28162150Y-20560858D01*
X28113392Y-20721592D01*
X28096928Y-20888750D01*
X28096928Y-21326250D01*
X28113392Y-21493408D01*
X28162150Y-21654142D01*
X28241329Y-21802275D01*
X28325000Y-21904230D01*
X28325001Y-21910770D01*
X28241329Y-22012725D01*
X28162150Y-22160858D01*
X28113392Y-22321592D01*
X28096928Y-22488750D01*
X28096928Y-22926250D01*
X28113392Y-23093408D01*
X28162150Y-23254142D01*
X28241329Y-23402275D01*
X28317426Y-23495000D01*
X28241329Y-23587725D01*
X28162150Y-23735858D01*
X28113392Y-23896592D01*
X28096928Y-24063750D01*
X28096928Y-24501250D01*
X28113392Y-24668408D01*
X28162150Y-24829142D01*
X28241329Y-24977275D01*
X28347885Y-25107115D01*
X28477725Y-25213671D01*
X28625858Y-25292850D01*
X28786592Y-25341608D01*
X28953750Y-25358072D01*
X29466250Y-25358072D01*
X29633408Y-25341608D01*
X29748771Y-25306613D01*
X29924102Y-25379238D01*
X30124061Y-25419012D01*
X30327939Y-25419012D01*
X30527898Y-25379238D01*
X30716256Y-25301217D01*
X30885774Y-25187949D01*
X31029937Y-25043786D01*
X31143205Y-24874268D01*
X31221226Y-24685910D01*
X31261000Y-24485951D01*
X31261000Y-24282073D01*
X31221226Y-24082114D01*
X31178645Y-23979315D01*
X31319067Y-23951383D01*
X31525624Y-23865824D01*
X31711520Y-23741612D01*
X31869612Y-23583520D01*
X31993824Y-23397624D01*
X32079383Y-23191067D01*
X32123000Y-22971788D01*
X32123000Y-22748212D01*
X32080455Y-22534323D01*
X32102795Y-22588256D01*
X32216063Y-22757774D01*
X32360226Y-22901937D01*
X32529744Y-23015205D01*
X32718102Y-23093226D01*
X32918061Y-23133000D01*
X33121939Y-23133000D01*
X33321898Y-23093226D01*
X33510256Y-23015205D01*
X33679774Y-22901937D01*
X33823937Y-22757774D01*
X33937205Y-22588256D01*
X34015226Y-22399898D01*
X34055000Y-22199939D01*
X34055000Y-21996061D01*
X34035689Y-21898976D01*
X34062885Y-21932115D01*
X34192725Y-22038671D01*
X34340858Y-22117850D01*
X34501592Y-22166608D01*
X34668750Y-22183072D01*
X35181250Y-22183072D01*
X35348408Y-22166608D01*
X35509142Y-22117850D01*
X35657275Y-22038671D01*
X35787115Y-21932115D01*
X35840143Y-21867500D01*
X36259178Y-21867500D01*
X36296500Y-21871176D01*
X36333822Y-21867500D01*
X36333833Y-21867500D01*
X36445486Y-21856503D01*
X36588747Y-21813046D01*
X36720776Y-21742474D01*
X36836501Y-21647501D01*
X36860303Y-21618498D01*
X37023801Y-21455000D01*
X37195788Y-21455000D01*
X37415067Y-21411383D01*
X37621624Y-21325824D01*
X37807520Y-21201612D01*
X37965612Y-21043520D01*
X38089824Y-20857624D01*
X38175383Y-20651067D01*
X38219000Y-20431788D01*
X38219000Y-20208212D01*
X38175383Y-19988933D01*
X38089824Y-19782376D01*
X37965612Y-19596480D01*
X37807520Y-19438388D01*
X37621624Y-19314176D01*
X37415067Y-19228617D01*
X37195788Y-19185000D01*
X36972212Y-19185000D01*
X36752933Y-19228617D01*
X36546376Y-19314176D01*
X36360480Y-19438388D01*
X36202388Y-19596480D01*
X36078176Y-19782376D01*
X36021002Y-19920406D01*
X36021608Y-19918408D01*
X36038072Y-19751250D01*
X36038072Y-19313750D01*
X36021608Y-19146592D01*
X35972850Y-18985858D01*
X35893671Y-18837725D01*
X35787115Y-18707885D01*
X35685000Y-18624082D01*
X35685000Y-18452323D01*
X35688676Y-18415000D01*
X46840001Y-18415000D01*
X46840001Y-29337000D01*
X42926000Y-29337000D01*
X42901224Y-29339440D01*
X42877399Y-29346667D01*
X42855443Y-29358403D01*
X42836197Y-29374197D01*
X40804197Y-31406197D01*
X40788403Y-31425443D01*
X40776667Y-31447399D01*
X40769440Y-31471224D01*
X40767000Y-31496000D01*
X40767000Y-35340000D01*
X-40767000Y-35340000D01*
X-40767000Y-32858967D01*
X-21320000Y-32858967D01*
X-21320000Y-33181033D01*
X-21257168Y-33496912D01*
X-21133918Y-33794463D01*
X-20954987Y-34062252D01*
X-20727252Y-34289987D01*
X-20459463Y-34468918D01*
X-20161912Y-34592168D01*
X-19846033Y-34655000D01*
X-19523967Y-34655000D01*
X-19208088Y-34592168D01*
X-18910537Y-34468918D01*
X-18642748Y-34289987D01*
X-18415013Y-34062252D01*
X-18236082Y-33794463D01*
X-18112832Y-33496912D01*
X-18050000Y-33181033D01*
X-18050000Y-32858967D01*
X-18112832Y-32543088D01*
X-18236082Y-32245537D01*
X-18415013Y-31977748D01*
X-18642748Y-31750013D01*
X-18910537Y-31571082D01*
X-19208088Y-31447832D01*
X-19523967Y-31385000D01*
X-19846033Y-31385000D01*
X-20161912Y-31447832D01*
X-20459463Y-31571082D01*
X-20727252Y-31750013D01*
X-20954987Y-31977748D01*
X-21133918Y-32245537D01*
X-21257168Y-32543088D01*
X-21320000Y-32858967D01*
X-40767000Y-32858967D01*
X-40767000Y-31496000D01*
X-40769440Y-31471224D01*
X-40776667Y-31447399D01*
X-40788403Y-31425443D01*
X-40804197Y-31406197D01*
X-42836197Y-29374197D01*
X-42855443Y-29358403D01*
X-42877399Y-29346667D01*
X-42901224Y-29339440D01*
X-42926000Y-29337000D01*
X-46840000Y-29337000D01*
X-46840000Y-27778967D01*
X-43545000Y-27778967D01*
X-43545000Y-28101033D01*
X-43482168Y-28416912D01*
X-43358918Y-28714463D01*
X-43179987Y-28982252D01*
X-42952252Y-29209987D01*
X-42684463Y-29388918D01*
X-42386912Y-29512168D01*
X-42071033Y-29575000D01*
X-41748967Y-29575000D01*
X-41433088Y-29512168D01*
X-41135537Y-29388918D01*
X-40867748Y-29209987D01*
X-40640013Y-28982252D01*
X-40534941Y-28825000D01*
X-38304776Y-28825000D01*
X-38301008Y-28863254D01*
X-38250472Y-29029850D01*
X-38168405Y-29183386D01*
X-38057962Y-29317962D01*
X-37923386Y-29428405D01*
X-37769850Y-29510472D01*
X-37603254Y-29561008D01*
X-37430000Y-29578072D01*
X-36230000Y-29578072D01*
X-36056746Y-29561008D01*
X-35890150Y-29510472D01*
X-35736614Y-29428405D01*
X-35602038Y-29317962D01*
X-35491595Y-29183386D01*
X-35437086Y-29081407D01*
X-35436802Y-29081795D01*
X-35222046Y-29278664D01*
X-34973009Y-29429854D01*
X-34699261Y-29529554D01*
X-34686890Y-29531476D01*
X-34457000Y-29410155D01*
X-34457000Y-28067000D01*
X-34203000Y-28067000D01*
X-34203000Y-29410155D01*
X-33973110Y-29531476D01*
X-33960739Y-29529554D01*
X-33686991Y-29429854D01*
X-33437954Y-29278664D01*
X-33223198Y-29081795D01*
X-33050975Y-28846812D01*
X-32927904Y-28582745D01*
X-32858715Y-28299742D01*
X-33002768Y-28067000D01*
X-34203000Y-28067000D01*
X-34457000Y-28067000D01*
X-34477000Y-28067000D01*
X-34477000Y-27813000D01*
X-34457000Y-27813000D01*
X-34457000Y-26469845D01*
X-34203000Y-26469845D01*
X-34203000Y-27813000D01*
X-33002768Y-27813000D01*
X-32858715Y-27580258D01*
X-32927904Y-27297255D01*
X-33050975Y-27033188D01*
X-33223198Y-26798205D01*
X-33437954Y-26601336D01*
X-33686991Y-26450146D01*
X-33960739Y-26350446D01*
X-33973110Y-26348524D01*
X-34203000Y-26469845D01*
X-34457000Y-26469845D01*
X-34686890Y-26348524D01*
X-34699261Y-26350446D01*
X-34973009Y-26450146D01*
X-35222046Y-26601336D01*
X-35436802Y-26798205D01*
X-35437086Y-26798593D01*
X-35491595Y-26696614D01*
X-35602038Y-26562038D01*
X-35736614Y-26451595D01*
X-35890150Y-26369528D01*
X-36056746Y-26318992D01*
X-36230000Y-26301928D01*
X-37430000Y-26301928D01*
X-37603254Y-26318992D01*
X-37769850Y-26369528D01*
X-37923386Y-26451595D01*
X-38057962Y-26562038D01*
X-38168405Y-26696614D01*
X-38250472Y-26850150D01*
X-38301008Y-27016746D01*
X-38304776Y-27055000D01*
X-40534941Y-27055000D01*
X-40640013Y-26897748D01*
X-40867748Y-26670013D01*
X-41135537Y-26491082D01*
X-41433088Y-26367832D01*
X-41748967Y-26305000D01*
X-42071033Y-26305000D01*
X-42386912Y-26367832D01*
X-42684463Y-26491082D01*
X-42952252Y-26670013D01*
X-43179987Y-26897748D01*
X-43358918Y-27165537D01*
X-43482168Y-27463088D01*
X-43545000Y-27778967D01*
X-46840000Y-27778967D01*
X-46840000Y-25900413D01*
X-46040808Y-25900413D01*
X-45945044Y-26164814D01*
X-45655429Y-26305704D01*
X-45343892Y-26387384D01*
X-45022405Y-26406718D01*
X-44703325Y-26362961D01*
X-44398912Y-26257795D01*
X-44224956Y-26164814D01*
X-44129192Y-25900413D01*
X-45085000Y-24944605D01*
X-46040808Y-25900413D01*
X-46840000Y-25900413D01*
X-46840000Y-24827595D01*
X-46726718Y-24827595D01*
X-46682961Y-25146675D01*
X-46577795Y-25451088D01*
X-46484814Y-25625044D01*
X-46220413Y-25720808D01*
X-45264605Y-24765000D01*
X-44905395Y-24765000D01*
X-43949587Y-25720808D01*
X-43685186Y-25625044D01*
X-43544296Y-25335429D01*
X-43462616Y-25023892D01*
X-43443282Y-24702405D01*
X-43487039Y-24383325D01*
X-43592205Y-24078912D01*
X-43685186Y-23904956D01*
X-43949587Y-23809192D01*
X-44905395Y-24765000D01*
X-45264605Y-24765000D01*
X-46220413Y-23809192D01*
X-46484814Y-23904956D01*
X-46625704Y-24194571D01*
X-46707384Y-24506108D01*
X-46726718Y-24827595D01*
X-46840000Y-24827595D01*
X-46840000Y-23495000D01*
X-45992062Y-23495000D01*
X-46040808Y-23629587D01*
X-45085000Y-24585395D01*
X-44129192Y-23629587D01*
X-44177938Y-23495000D01*
X-7923072Y-23495000D01*
X-7923072Y-24890000D01*
X-7907929Y-25043745D01*
X-7863084Y-25191582D01*
X-7790258Y-25327829D01*
X-7692251Y-25447251D01*
X-7572829Y-25545258D01*
X-7499290Y-25584566D01*
X-7499289Y-26567711D01*
X-7580044Y-26648466D01*
X-7613817Y-26676183D01*
X-7724411Y-26810942D01*
X-7806589Y-26964688D01*
X-7833985Y-27055000D01*
X-7849996Y-27107781D01*
X-7857195Y-27131511D01*
X-7870000Y-27261524D01*
X-7870000Y-27261531D01*
X-7874281Y-27305000D01*
X-7870000Y-27348469D01*
X-7870000Y-27515531D01*
X-7874281Y-27559000D01*
X-7870000Y-27602469D01*
X-7870000Y-27602477D01*
X-7857195Y-27732490D01*
X-7806589Y-27899313D01*
X-7724411Y-28053059D01*
X-7619036Y-28181458D01*
X-8367549Y-28929971D01*
X-8401316Y-28957683D01*
X-8429029Y-28991451D01*
X-8429032Y-28991454D01*
X-8502592Y-29081087D01*
X-8511910Y-29092441D01*
X-8594088Y-29246187D01*
X-8644695Y-29413010D01*
X-8645686Y-29423069D01*
X-8703671Y-29493725D01*
X-8782850Y-29641858D01*
X-8831608Y-29802592D01*
X-8848072Y-29969750D01*
X-8848072Y-30482250D01*
X-8831608Y-30649408D01*
X-8782850Y-30810142D01*
X-8703671Y-30958275D01*
X-8657500Y-31014535D01*
X-8657499Y-32316021D01*
X-8661781Y-32359500D01*
X-8655000Y-32428354D01*
X-8655000Y-32613939D01*
X-8615226Y-32813898D01*
X-8537205Y-33002256D01*
X-8423937Y-33171774D01*
X-8279774Y-33315937D01*
X-8110256Y-33429205D01*
X-7921898Y-33507226D01*
X-7721939Y-33547000D01*
X-7518061Y-33547000D01*
X-7318102Y-33507226D01*
X-7129744Y-33429205D01*
X-6960226Y-33315937D01*
X-6816063Y-33171774D01*
X-6702795Y-33002256D01*
X-6689332Y-32969754D01*
X-6596612Y-33108520D01*
X-6438520Y-33266612D01*
X-6252624Y-33390824D01*
X-6046067Y-33476383D01*
X-5826788Y-33520000D01*
X-5603212Y-33520000D01*
X-5383933Y-33476383D01*
X-5177376Y-33390824D01*
X-4991480Y-33266612D01*
X-4869868Y-33145000D01*
X-4634822Y-33145000D01*
X-4597500Y-33148676D01*
X-4560178Y-33145000D01*
X-4560167Y-33145000D01*
X-4448514Y-33134003D01*
X-4305253Y-33090546D01*
X-4198383Y-33033422D01*
X-4105937Y-33171778D01*
X-3961774Y-33315941D01*
X-3792256Y-33429209D01*
X-3603898Y-33507230D01*
X-3403939Y-33547004D01*
X-3200061Y-33547004D01*
X-3000102Y-33507230D01*
X-2811744Y-33429209D01*
X-2642226Y-33315941D01*
X-2498063Y-33171778D01*
X-2413005Y-33044479D01*
X-2327949Y-33171774D01*
X-2183786Y-33315937D01*
X-2014268Y-33429205D01*
X-1825910Y-33507226D01*
X-1625951Y-33547000D01*
X-1422073Y-33547000D01*
X-1222114Y-33507226D01*
X-1033756Y-33429205D01*
X-864238Y-33315937D01*
X-720075Y-33171774D01*
X-606807Y-33002256D01*
X-528786Y-32813898D01*
X-489012Y-32613939D01*
X-489012Y-32551801D01*
X663503Y-31399287D01*
X692501Y-31375489D01*
X718671Y-31343600D01*
X9928328Y-31343600D01*
X9940588Y-31468082D01*
X9976898Y-31587780D01*
X10035863Y-31698094D01*
X10115215Y-31794785D01*
X10211906Y-31874137D01*
X10322220Y-31933102D01*
X10441918Y-31969412D01*
X10566400Y-31981672D01*
X11144250Y-31978600D01*
X11303000Y-31819850D01*
X11303000Y-30607000D01*
X10090150Y-30607000D01*
X9931400Y-30765750D01*
X9928328Y-31343600D01*
X718671Y-31343600D01*
X759692Y-31293617D01*
X787474Y-31259765D01*
X858046Y-31127735D01*
X861612Y-31115978D01*
X901503Y-30984474D01*
X912500Y-30872821D01*
X912500Y-30872811D01*
X916176Y-30835488D01*
X912500Y-30798166D01*
X912500Y-29616400D01*
X9928328Y-29616400D01*
X9931400Y-30194250D01*
X10090150Y-30353000D01*
X11303000Y-30353000D01*
X11303000Y-28067000D01*
X10095536Y-28067000D01*
X9975037Y-28299027D01*
X10073036Y-28575978D01*
X10223183Y-28828488D01*
X10384692Y-29007947D01*
X10322220Y-29026898D01*
X10211906Y-29085863D01*
X10115215Y-29165215D01*
X10035863Y-29261906D01*
X9976898Y-29372220D01*
X9940588Y-29491918D01*
X9928328Y-29616400D01*
X912500Y-29616400D01*
X912500Y-28617293D01*
X1005824Y-28477624D01*
X1091383Y-28271067D01*
X1135000Y-28051788D01*
X1135000Y-27828212D01*
X1091383Y-27608933D01*
X1079802Y-27580973D01*
X9975037Y-27580973D01*
X10095536Y-27813000D01*
X11303000Y-27813000D01*
X11303000Y-26606183D01*
X11557000Y-26606183D01*
X11557000Y-27813000D01*
X11577000Y-27813000D01*
X11577000Y-28067000D01*
X11557000Y-28067000D01*
X11557000Y-30353000D01*
X11577000Y-30353000D01*
X11577000Y-30607000D01*
X11557000Y-30607000D01*
X11557000Y-31819850D01*
X11715750Y-31978600D01*
X12293600Y-31981672D01*
X12418082Y-31969412D01*
X12537780Y-31933102D01*
X12648094Y-31874137D01*
X12744785Y-31794785D01*
X12824137Y-31698094D01*
X12883102Y-31587780D01*
X12898586Y-31536735D01*
X12905203Y-31544797D01*
X13133394Y-31732069D01*
X13393736Y-31871225D01*
X13676223Y-31956916D01*
X13896381Y-31978600D01*
X14043619Y-31978600D01*
X14263777Y-31956916D01*
X14546264Y-31871225D01*
X14806606Y-31732069D01*
X15034797Y-31544797D01*
X15222069Y-31316606D01*
X15240000Y-31283060D01*
X15257931Y-31316606D01*
X15445203Y-31544797D01*
X15673394Y-31732069D01*
X15933736Y-31871225D01*
X16216223Y-31956916D01*
X16436381Y-31978600D01*
X16583619Y-31978600D01*
X16803777Y-31956916D01*
X17086264Y-31871225D01*
X17346606Y-31732069D01*
X17574797Y-31544797D01*
X17762069Y-31316606D01*
X17780000Y-31283060D01*
X17797931Y-31316606D01*
X17985203Y-31544797D01*
X18213394Y-31732069D01*
X18473736Y-31871225D01*
X18756223Y-31956916D01*
X18976381Y-31978600D01*
X19123619Y-31978600D01*
X19343777Y-31956916D01*
X19626264Y-31871225D01*
X19886606Y-31732069D01*
X20114797Y-31544797D01*
X20302069Y-31316606D01*
X20320000Y-31283060D01*
X20337931Y-31316606D01*
X20525203Y-31544797D01*
X20753394Y-31732069D01*
X21013736Y-31871225D01*
X21296223Y-31956916D01*
X21516381Y-31978600D01*
X21663619Y-31978600D01*
X21883777Y-31956916D01*
X22166264Y-31871225D01*
X22426606Y-31732069D01*
X22654797Y-31544797D01*
X22842069Y-31316606D01*
X22860000Y-31283060D01*
X22877931Y-31316606D01*
X23065203Y-31544797D01*
X23293394Y-31732069D01*
X23553736Y-31871225D01*
X23836223Y-31956916D01*
X24056381Y-31978600D01*
X24203619Y-31978600D01*
X24423777Y-31956916D01*
X24706264Y-31871225D01*
X24966606Y-31732069D01*
X25194797Y-31544797D01*
X25382069Y-31316606D01*
X25400000Y-31283060D01*
X25417931Y-31316606D01*
X25605203Y-31544797D01*
X25833394Y-31732069D01*
X26093736Y-31871225D01*
X26376223Y-31956916D01*
X26596381Y-31978600D01*
X26743619Y-31978600D01*
X26963777Y-31956916D01*
X27246264Y-31871225D01*
X27506606Y-31732069D01*
X27734797Y-31544797D01*
X27922069Y-31316606D01*
X27940000Y-31283060D01*
X27957931Y-31316606D01*
X28145203Y-31544797D01*
X28373394Y-31732069D01*
X28633736Y-31871225D01*
X28916223Y-31956916D01*
X29136381Y-31978600D01*
X29283619Y-31978600D01*
X29503777Y-31956916D01*
X29786264Y-31871225D01*
X30046606Y-31732069D01*
X30274797Y-31544797D01*
X30462069Y-31316606D01*
X30480000Y-31283060D01*
X30497931Y-31316606D01*
X30685203Y-31544797D01*
X30913394Y-31732069D01*
X31173736Y-31871225D01*
X31456223Y-31956916D01*
X31676381Y-31978600D01*
X31823619Y-31978600D01*
X32043777Y-31956916D01*
X32326264Y-31871225D01*
X32586606Y-31732069D01*
X32814797Y-31544797D01*
X33002069Y-31316606D01*
X33025863Y-31272090D01*
X33083183Y-31368488D01*
X33279707Y-31586854D01*
X33515056Y-31762684D01*
X33780186Y-31889222D01*
X33930974Y-31934958D01*
X34163000Y-31813817D01*
X34163000Y-30607000D01*
X34417000Y-30607000D01*
X34417000Y-31813817D01*
X34649026Y-31934958D01*
X34799814Y-31889222D01*
X35064944Y-31762684D01*
X35300293Y-31586854D01*
X35496817Y-31368488D01*
X35646964Y-31115978D01*
X35744963Y-30839027D01*
X35624464Y-30607000D01*
X34417000Y-30607000D01*
X34163000Y-30607000D01*
X34143000Y-30607000D01*
X34143000Y-30353000D01*
X34163000Y-30353000D01*
X34163000Y-28067000D01*
X34143000Y-28067000D01*
X34143000Y-27813000D01*
X34163000Y-27813000D01*
X34163000Y-26606183D01*
X34417000Y-26606183D01*
X34417000Y-27813000D01*
X34437000Y-27813000D01*
X34437000Y-28067000D01*
X34417000Y-28067000D01*
X34417000Y-30353000D01*
X35624464Y-30353000D01*
X35744963Y-30120973D01*
X35646964Y-29844022D01*
X35496817Y-29591512D01*
X35300293Y-29373146D01*
X35081922Y-29210000D01*
X35300293Y-29046854D01*
X35496817Y-28828488D01*
X35553527Y-28733117D01*
X35560026Y-28745276D01*
X35614946Y-28812195D01*
X35655000Y-28861001D01*
X35683998Y-28884799D01*
X36266200Y-29467002D01*
X36289999Y-29496001D01*
X36333225Y-29531476D01*
X36405724Y-29590974D01*
X36537753Y-29661546D01*
X36681014Y-29705003D01*
X36830000Y-29719677D01*
X36867333Y-29716000D01*
X39840678Y-29716000D01*
X39878000Y-29719676D01*
X39915322Y-29716000D01*
X39915333Y-29716000D01*
X40026986Y-29705003D01*
X40170247Y-29661546D01*
X40302276Y-29590974D01*
X40418001Y-29496001D01*
X40441804Y-29466997D01*
X43056004Y-26852798D01*
X43085001Y-26829001D01*
X43179974Y-26713276D01*
X43250546Y-26581247D01*
X43294003Y-26437986D01*
X43305000Y-26326333D01*
X43305000Y-26326332D01*
X43308677Y-26289000D01*
X43305000Y-26251667D01*
X43305000Y-24198711D01*
X43348937Y-24154774D01*
X43462205Y-23985256D01*
X43540226Y-23796898D01*
X43580000Y-23596939D01*
X43580000Y-23393061D01*
X43540226Y-23193102D01*
X43462205Y-23004744D01*
X43348937Y-22835226D01*
X43204774Y-22691063D01*
X43035256Y-22577795D01*
X42846898Y-22499774D01*
X42646939Y-22460000D01*
X42443061Y-22460000D01*
X42243102Y-22499774D01*
X42054744Y-22577795D01*
X41910000Y-22674510D01*
X41765256Y-22577795D01*
X41576898Y-22499774D01*
X41376939Y-22460000D01*
X41173061Y-22460000D01*
X40973102Y-22499774D01*
X40784744Y-22577795D01*
X40615226Y-22691063D01*
X40471063Y-22835226D01*
X40357795Y-23004744D01*
X40279774Y-23193102D01*
X40240000Y-23393061D01*
X40240000Y-23596939D01*
X40279774Y-23796898D01*
X40357795Y-23985256D01*
X40471063Y-24154774D01*
X40515001Y-24198712D01*
X40515000Y-26355198D01*
X39823927Y-27046271D01*
X39782850Y-26910858D01*
X39703671Y-26762725D01*
X39627574Y-26670000D01*
X39703671Y-26577275D01*
X39782850Y-26429142D01*
X39831608Y-26268408D01*
X39848072Y-26101250D01*
X39848072Y-25663750D01*
X39831608Y-25496592D01*
X39782850Y-25335858D01*
X39703671Y-25187725D01*
X39597115Y-25057885D01*
X39467275Y-24951329D01*
X39319142Y-24872150D01*
X39198030Y-24835411D01*
X39262850Y-24714142D01*
X39311608Y-24553408D01*
X39328072Y-24386250D01*
X39328072Y-23976844D01*
X39421673Y-23836760D01*
X39499694Y-23648402D01*
X39539468Y-23448443D01*
X39539468Y-23244565D01*
X39499694Y-23044606D01*
X39421673Y-22856248D01*
X39308405Y-22686730D01*
X39164242Y-22542567D01*
X38994724Y-22429299D01*
X38806366Y-22351278D01*
X38606407Y-22311504D01*
X38402529Y-22311504D01*
X38202570Y-22351278D01*
X38014212Y-22429299D01*
X37844694Y-22542567D01*
X37700531Y-22686730D01*
X37587263Y-22856248D01*
X37535779Y-22980541D01*
X37493205Y-22877760D01*
X37379937Y-22708242D01*
X37235774Y-22564079D01*
X37066256Y-22450811D01*
X36877898Y-22372790D01*
X36677939Y-22333016D01*
X36474061Y-22333016D01*
X36274102Y-22372790D01*
X36085744Y-22450811D01*
X35916226Y-22564079D01*
X35772063Y-22708242D01*
X35658795Y-22877760D01*
X35580774Y-23066118D01*
X35541000Y-23266077D01*
X35541000Y-23469955D01*
X35580774Y-23669914D01*
X35614084Y-23750331D01*
X35601928Y-23873750D01*
X35601928Y-24386250D01*
X35618392Y-24553408D01*
X35667150Y-24714142D01*
X35731970Y-24835411D01*
X35610858Y-24872150D01*
X35462725Y-24951329D01*
X35332885Y-25057885D01*
X35226329Y-25187725D01*
X35147150Y-25335858D01*
X35098392Y-25496592D01*
X35081928Y-25663750D01*
X35081928Y-26101250D01*
X35098392Y-26268408D01*
X35147150Y-26429142D01*
X35226329Y-26577275D01*
X35302426Y-26670000D01*
X35226329Y-26762725D01*
X35220537Y-26773560D01*
X35064944Y-26657316D01*
X34799814Y-26530778D01*
X34649026Y-26485042D01*
X34417000Y-26606183D01*
X34163000Y-26606183D01*
X33930974Y-26485042D01*
X33780186Y-26530778D01*
X33515056Y-26657316D01*
X33279707Y-26833146D01*
X33083183Y-27051512D01*
X33025863Y-27147910D01*
X33002069Y-27103394D01*
X32814797Y-26875203D01*
X32586606Y-26687931D01*
X32326264Y-26548775D01*
X32043777Y-26463084D01*
X31823619Y-26441400D01*
X31676381Y-26441400D01*
X31456223Y-26463084D01*
X31173736Y-26548775D01*
X30913394Y-26687931D01*
X30685203Y-26875203D01*
X30497931Y-27103394D01*
X30480000Y-27136940D01*
X30462069Y-27103394D01*
X30274797Y-26875203D01*
X30046606Y-26687931D01*
X29786264Y-26548775D01*
X29503777Y-26463084D01*
X29283619Y-26441400D01*
X29136381Y-26441400D01*
X28916223Y-26463084D01*
X28633736Y-26548775D01*
X28373394Y-26687931D01*
X28145203Y-26875203D01*
X27957931Y-27103394D01*
X27940000Y-27136940D01*
X27922069Y-27103394D01*
X27734797Y-26875203D01*
X27506606Y-26687931D01*
X27246264Y-26548775D01*
X26963777Y-26463084D01*
X26743619Y-26441400D01*
X26596381Y-26441400D01*
X26376223Y-26463084D01*
X26093736Y-26548775D01*
X25833394Y-26687931D01*
X25605203Y-26875203D01*
X25417931Y-27103394D01*
X25400000Y-27136940D01*
X25382069Y-27103394D01*
X25194797Y-26875203D01*
X24966606Y-26687931D01*
X24706264Y-26548775D01*
X24423777Y-26463084D01*
X24203619Y-26441400D01*
X24056381Y-26441400D01*
X23836223Y-26463084D01*
X23553736Y-26548775D01*
X23293394Y-26687931D01*
X23065203Y-26875203D01*
X22877931Y-27103394D01*
X22860000Y-27136940D01*
X22842069Y-27103394D01*
X22654797Y-26875203D01*
X22426606Y-26687931D01*
X22166264Y-26548775D01*
X21883777Y-26463084D01*
X21663619Y-26441400D01*
X21516381Y-26441400D01*
X21296223Y-26463084D01*
X21013736Y-26548775D01*
X20753394Y-26687931D01*
X20525203Y-26875203D01*
X20337931Y-27103394D01*
X20320000Y-27136940D01*
X20302069Y-27103394D01*
X20114797Y-26875203D01*
X19886606Y-26687931D01*
X19626264Y-26548775D01*
X19343777Y-26463084D01*
X19123619Y-26441400D01*
X18976381Y-26441400D01*
X18756223Y-26463084D01*
X18473736Y-26548775D01*
X18213394Y-26687931D01*
X17985203Y-26875203D01*
X17797931Y-27103394D01*
X17780000Y-27136940D01*
X17762069Y-27103394D01*
X17574797Y-26875203D01*
X17346606Y-26687931D01*
X17086264Y-26548775D01*
X16803777Y-26463084D01*
X16583619Y-26441400D01*
X16436381Y-26441400D01*
X16216223Y-26463084D01*
X15933736Y-26548775D01*
X15673394Y-26687931D01*
X15445203Y-26875203D01*
X15257931Y-27103394D01*
X15240000Y-27136940D01*
X15222069Y-27103394D01*
X15034797Y-26875203D01*
X14806606Y-26687931D01*
X14546264Y-26548775D01*
X14263777Y-26463084D01*
X14043619Y-26441400D01*
X13896381Y-26441400D01*
X13676223Y-26463084D01*
X13393736Y-26548775D01*
X13133394Y-26687931D01*
X12905203Y-26875203D01*
X12717931Y-27103394D01*
X12694137Y-27147910D01*
X12636817Y-27051512D01*
X12440293Y-26833146D01*
X12204944Y-26657316D01*
X11939814Y-26530778D01*
X11789026Y-26485042D01*
X11557000Y-26606183D01*
X11303000Y-26606183D01*
X11070974Y-26485042D01*
X10920186Y-26530778D01*
X10655056Y-26657316D01*
X10419707Y-26833146D01*
X10223183Y-27051512D01*
X10073036Y-27304022D01*
X9975037Y-27580973D01*
X1079802Y-27580973D01*
X1005824Y-27402376D01*
X912500Y-27262707D01*
X912500Y-26950143D01*
X977115Y-26897115D01*
X1083671Y-26767275D01*
X1162850Y-26619142D01*
X1211608Y-26458408D01*
X1228072Y-26291250D01*
X1228072Y-25778750D01*
X1211608Y-25611592D01*
X1162850Y-25450858D01*
X1083671Y-25302725D01*
X1037500Y-25246465D01*
X1037500Y-24918535D01*
X1083671Y-24862275D01*
X1162850Y-24714142D01*
X1211608Y-24553408D01*
X1228072Y-24386250D01*
X1228072Y-23873750D01*
X1211608Y-23706592D01*
X1162850Y-23545858D01*
X1135666Y-23495000D01*
X12954000Y-23495000D01*
X12978776Y-23492560D01*
X13002601Y-23485333D01*
X13024557Y-23473597D01*
X13043803Y-23457803D01*
X18086606Y-18415000D01*
X22556928Y-18415000D01*
X22556928Y-19810000D01*
X22556928Y-19810000D01*
G37*
X22556928Y-19810000D02*
X22572071Y-19963745D01*
X22616916Y-20111582D01*
X22689742Y-20247829D01*
X22750234Y-20321539D01*
X22755590Y-20331559D01*
X22838468Y-20432546D01*
X22838471Y-20432549D01*
X22866184Y-20466317D01*
X22899951Y-20494029D01*
X23376229Y-20970308D01*
X23308411Y-21097188D01*
X23283049Y-21180795D01*
X23260088Y-21256486D01*
X23257805Y-21264011D01*
X23245000Y-21394024D01*
X23245000Y-21394031D01*
X23240719Y-21437500D01*
X23245000Y-21480969D01*
X23245000Y-22116710D01*
X23182958Y-22192309D01*
X23128502Y-22273808D01*
X23069536Y-22384125D01*
X23032027Y-22474681D01*
X22995718Y-22594377D01*
X22976596Y-22690510D01*
X22964336Y-22814991D01*
X22964336Y-22839550D01*
X22961928Y-22864000D01*
X22961928Y-23364000D01*
X22964336Y-23388450D01*
X22964336Y-23413009D01*
X22976596Y-23537490D01*
X22995718Y-23633623D01*
X23032027Y-23753319D01*
X23069536Y-23843875D01*
X23128502Y-23954192D01*
X23165083Y-24008940D01*
X23134774Y-24082112D01*
X23095000Y-24282071D01*
X23095000Y-24485949D01*
X23134774Y-24685908D01*
X23212795Y-24874266D01*
X23326063Y-25043784D01*
X23470226Y-25187947D01*
X23639744Y-25301215D01*
X23828102Y-25379236D01*
X24028061Y-25419010D01*
X24231939Y-25419010D01*
X24431898Y-25379236D01*
X24620256Y-25301215D01*
X24789774Y-25187947D01*
X24933937Y-25043784D01*
X25047205Y-24874266D01*
X25125226Y-24685908D01*
X25161793Y-24502072D01*
X25900000Y-24502072D01*
X26024482Y-24489812D01*
X26144180Y-24453502D01*
X26254494Y-24394537D01*
X26351185Y-24315185D01*
X26430537Y-24218494D01*
X26489502Y-24108180D01*
X26525812Y-23988482D01*
X26538072Y-23864000D01*
X26538072Y-22364000D01*
X26525812Y-22239518D01*
X26489502Y-22119820D01*
X26445214Y-22036964D01*
X26473250Y-22065000D01*
X26625000Y-22068072D01*
X26749482Y-22055812D01*
X26869180Y-22019502D01*
X26979494Y-21960537D01*
X27076185Y-21881185D01*
X27155537Y-21784494D01*
X27214502Y-21674180D01*
X27250812Y-21554482D01*
X27263072Y-21430000D01*
X27260000Y-21240750D01*
X27101250Y-21082000D01*
X26314500Y-21082000D01*
X26314500Y-21102000D01*
X26160000Y-21102000D01*
X26160000Y-20808000D01*
X26314500Y-20808000D01*
X26314500Y-20828000D01*
X27101250Y-20828000D01*
X27260000Y-20669250D01*
X27263072Y-20480000D01*
X27250812Y-20355518D01*
X27214502Y-20235820D01*
X27178000Y-20167531D01*
X27178000Y-19112000D01*
X27158000Y-19112000D01*
X27158000Y-18858000D01*
X27178000Y-18858000D01*
X27178000Y-18838000D01*
X27432000Y-18838000D01*
X27432000Y-18858000D01*
X27452000Y-18858000D01*
X27452000Y-19112000D01*
X27432000Y-19112000D01*
X27432000Y-20436250D01*
X27590750Y-20595000D01*
X27605000Y-20598072D01*
X27729482Y-20585812D01*
X27849180Y-20549502D01*
X27959494Y-20490537D01*
X28056185Y-20411185D01*
X28135537Y-20314494D01*
X28167327Y-20255019D01*
X28204463Y-20324494D01*
X28259100Y-20391070D01*
X28241329Y-20412725D01*
X28162150Y-20560858D01*
X28113392Y-20721592D01*
X28096928Y-20888750D01*
X28096928Y-21326250D01*
X28113392Y-21493408D01*
X28162150Y-21654142D01*
X28241329Y-21802275D01*
X28325000Y-21904230D01*
X28325001Y-21910770D01*
X28241329Y-22012725D01*
X28162150Y-22160858D01*
X28113392Y-22321592D01*
X28096928Y-22488750D01*
X28096928Y-22926250D01*
X28113392Y-23093408D01*
X28162150Y-23254142D01*
X28241329Y-23402275D01*
X28317426Y-23495000D01*
X28241329Y-23587725D01*
X28162150Y-23735858D01*
X28113392Y-23896592D01*
X28096928Y-24063750D01*
X28096928Y-24501250D01*
X28113392Y-24668408D01*
X28162150Y-24829142D01*
X28241329Y-24977275D01*
X28347885Y-25107115D01*
X28477725Y-25213671D01*
X28625858Y-25292850D01*
X28786592Y-25341608D01*
X28953750Y-25358072D01*
X29466250Y-25358072D01*
X29633408Y-25341608D01*
X29748771Y-25306613D01*
X29924102Y-25379238D01*
X30124061Y-25419012D01*
X30327939Y-25419012D01*
X30527898Y-25379238D01*
X30716256Y-25301217D01*
X30885774Y-25187949D01*
X31029937Y-25043786D01*
X31143205Y-24874268D01*
X31221226Y-24685910D01*
X31261000Y-24485951D01*
X31261000Y-24282073D01*
X31221226Y-24082114D01*
X31178645Y-23979315D01*
X31319067Y-23951383D01*
X31525624Y-23865824D01*
X31711520Y-23741612D01*
X31869612Y-23583520D01*
X31993824Y-23397624D01*
X32079383Y-23191067D01*
X32123000Y-22971788D01*
X32123000Y-22748212D01*
X32080455Y-22534323D01*
X32102795Y-22588256D01*
X32216063Y-22757774D01*
X32360226Y-22901937D01*
X32529744Y-23015205D01*
X32718102Y-23093226D01*
X32918061Y-23133000D01*
X33121939Y-23133000D01*
X33321898Y-23093226D01*
X33510256Y-23015205D01*
X33679774Y-22901937D01*
X33823937Y-22757774D01*
X33937205Y-22588256D01*
X34015226Y-22399898D01*
X34055000Y-22199939D01*
X34055000Y-21996061D01*
X34035689Y-21898976D01*
X34062885Y-21932115D01*
X34192725Y-22038671D01*
X34340858Y-22117850D01*
X34501592Y-22166608D01*
X34668750Y-22183072D01*
X35181250Y-22183072D01*
X35348408Y-22166608D01*
X35509142Y-22117850D01*
X35657275Y-22038671D01*
X35787115Y-21932115D01*
X35840143Y-21867500D01*
X36259178Y-21867500D01*
X36296500Y-21871176D01*
X36333822Y-21867500D01*
X36333833Y-21867500D01*
X36445486Y-21856503D01*
X36588747Y-21813046D01*
X36720776Y-21742474D01*
X36836501Y-21647501D01*
X36860303Y-21618498D01*
X37023801Y-21455000D01*
X37195788Y-21455000D01*
X37415067Y-21411383D01*
X37621624Y-21325824D01*
X37807520Y-21201612D01*
X37965612Y-21043520D01*
X38089824Y-20857624D01*
X38175383Y-20651067D01*
X38219000Y-20431788D01*
X38219000Y-20208212D01*
X38175383Y-19988933D01*
X38089824Y-19782376D01*
X37965612Y-19596480D01*
X37807520Y-19438388D01*
X37621624Y-19314176D01*
X37415067Y-19228617D01*
X37195788Y-19185000D01*
X36972212Y-19185000D01*
X36752933Y-19228617D01*
X36546376Y-19314176D01*
X36360480Y-19438388D01*
X36202388Y-19596480D01*
X36078176Y-19782376D01*
X36021002Y-19920406D01*
X36021608Y-19918408D01*
X36038072Y-19751250D01*
X36038072Y-19313750D01*
X36021608Y-19146592D01*
X35972850Y-18985858D01*
X35893671Y-18837725D01*
X35787115Y-18707885D01*
X35685000Y-18624082D01*
X35685000Y-18452323D01*
X35688676Y-18415000D01*
X46840001Y-18415000D01*
X46840001Y-29337000D01*
X42926000Y-29337000D01*
X42901224Y-29339440D01*
X42877399Y-29346667D01*
X42855443Y-29358403D01*
X42836197Y-29374197D01*
X40804197Y-31406197D01*
X40788403Y-31425443D01*
X40776667Y-31447399D01*
X40769440Y-31471224D01*
X40767000Y-31496000D01*
X40767000Y-35340000D01*
X-40767000Y-35340000D01*
X-40767000Y-32858967D01*
X-21320000Y-32858967D01*
X-21320000Y-33181033D01*
X-21257168Y-33496912D01*
X-21133918Y-33794463D01*
X-20954987Y-34062252D01*
X-20727252Y-34289987D01*
X-20459463Y-34468918D01*
X-20161912Y-34592168D01*
X-19846033Y-34655000D01*
X-19523967Y-34655000D01*
X-19208088Y-34592168D01*
X-18910537Y-34468918D01*
X-18642748Y-34289987D01*
X-18415013Y-34062252D01*
X-18236082Y-33794463D01*
X-18112832Y-33496912D01*
X-18050000Y-33181033D01*
X-18050000Y-32858967D01*
X-18112832Y-32543088D01*
X-18236082Y-32245537D01*
X-18415013Y-31977748D01*
X-18642748Y-31750013D01*
X-18910537Y-31571082D01*
X-19208088Y-31447832D01*
X-19523967Y-31385000D01*
X-19846033Y-31385000D01*
X-20161912Y-31447832D01*
X-20459463Y-31571082D01*
X-20727252Y-31750013D01*
X-20954987Y-31977748D01*
X-21133918Y-32245537D01*
X-21257168Y-32543088D01*
X-21320000Y-32858967D01*
X-40767000Y-32858967D01*
X-40767000Y-31496000D01*
X-40769440Y-31471224D01*
X-40776667Y-31447399D01*
X-40788403Y-31425443D01*
X-40804197Y-31406197D01*
X-42836197Y-29374197D01*
X-42855443Y-29358403D01*
X-42877399Y-29346667D01*
X-42901224Y-29339440D01*
X-42926000Y-29337000D01*
X-46840000Y-29337000D01*
X-46840000Y-27778967D01*
X-43545000Y-27778967D01*
X-43545000Y-28101033D01*
X-43482168Y-28416912D01*
X-43358918Y-28714463D01*
X-43179987Y-28982252D01*
X-42952252Y-29209987D01*
X-42684463Y-29388918D01*
X-42386912Y-29512168D01*
X-42071033Y-29575000D01*
X-41748967Y-29575000D01*
X-41433088Y-29512168D01*
X-41135537Y-29388918D01*
X-40867748Y-29209987D01*
X-40640013Y-28982252D01*
X-40534941Y-28825000D01*
X-38304776Y-28825000D01*
X-38301008Y-28863254D01*
X-38250472Y-29029850D01*
X-38168405Y-29183386D01*
X-38057962Y-29317962D01*
X-37923386Y-29428405D01*
X-37769850Y-29510472D01*
X-37603254Y-29561008D01*
X-37430000Y-29578072D01*
X-36230000Y-29578072D01*
X-36056746Y-29561008D01*
X-35890150Y-29510472D01*
X-35736614Y-29428405D01*
X-35602038Y-29317962D01*
X-35491595Y-29183386D01*
X-35437086Y-29081407D01*
X-35436802Y-29081795D01*
X-35222046Y-29278664D01*
X-34973009Y-29429854D01*
X-34699261Y-29529554D01*
X-34686890Y-29531476D01*
X-34457000Y-29410155D01*
X-34457000Y-28067000D01*
X-34203000Y-28067000D01*
X-34203000Y-29410155D01*
X-33973110Y-29531476D01*
X-33960739Y-29529554D01*
X-33686991Y-29429854D01*
X-33437954Y-29278664D01*
X-33223198Y-29081795D01*
X-33050975Y-28846812D01*
X-32927904Y-28582745D01*
X-32858715Y-28299742D01*
X-33002768Y-28067000D01*
X-34203000Y-28067000D01*
X-34457000Y-28067000D01*
X-34477000Y-28067000D01*
X-34477000Y-27813000D01*
X-34457000Y-27813000D01*
X-34457000Y-26469845D01*
X-34203000Y-26469845D01*
X-34203000Y-27813000D01*
X-33002768Y-27813000D01*
X-32858715Y-27580258D01*
X-32927904Y-27297255D01*
X-33050975Y-27033188D01*
X-33223198Y-26798205D01*
X-33437954Y-26601336D01*
X-33686991Y-26450146D01*
X-33960739Y-26350446D01*
X-33973110Y-26348524D01*
X-34203000Y-26469845D01*
X-34457000Y-26469845D01*
X-34686890Y-26348524D01*
X-34699261Y-26350446D01*
X-34973009Y-26450146D01*
X-35222046Y-26601336D01*
X-35436802Y-26798205D01*
X-35437086Y-26798593D01*
X-35491595Y-26696614D01*
X-35602038Y-26562038D01*
X-35736614Y-26451595D01*
X-35890150Y-26369528D01*
X-36056746Y-26318992D01*
X-36230000Y-26301928D01*
X-37430000Y-26301928D01*
X-37603254Y-26318992D01*
X-37769850Y-26369528D01*
X-37923386Y-26451595D01*
X-38057962Y-26562038D01*
X-38168405Y-26696614D01*
X-38250472Y-26850150D01*
X-38301008Y-27016746D01*
X-38304776Y-27055000D01*
X-40534941Y-27055000D01*
X-40640013Y-26897748D01*
X-40867748Y-26670013D01*
X-41135537Y-26491082D01*
X-41433088Y-26367832D01*
X-41748967Y-26305000D01*
X-42071033Y-26305000D01*
X-42386912Y-26367832D01*
X-42684463Y-26491082D01*
X-42952252Y-26670013D01*
X-43179987Y-26897748D01*
X-43358918Y-27165537D01*
X-43482168Y-27463088D01*
X-43545000Y-27778967D01*
X-46840000Y-27778967D01*
X-46840000Y-25900413D01*
X-46040808Y-25900413D01*
X-45945044Y-26164814D01*
X-45655429Y-26305704D01*
X-45343892Y-26387384D01*
X-45022405Y-26406718D01*
X-44703325Y-26362961D01*
X-44398912Y-26257795D01*
X-44224956Y-26164814D01*
X-44129192Y-25900413D01*
X-45085000Y-24944605D01*
X-46040808Y-25900413D01*
X-46840000Y-25900413D01*
X-46840000Y-24827595D01*
X-46726718Y-24827595D01*
X-46682961Y-25146675D01*
X-46577795Y-25451088D01*
X-46484814Y-25625044D01*
X-46220413Y-25720808D01*
X-45264605Y-24765000D01*
X-44905395Y-24765000D01*
X-43949587Y-25720808D01*
X-43685186Y-25625044D01*
X-43544296Y-25335429D01*
X-43462616Y-25023892D01*
X-43443282Y-24702405D01*
X-43487039Y-24383325D01*
X-43592205Y-24078912D01*
X-43685186Y-23904956D01*
X-43949587Y-23809192D01*
X-44905395Y-24765000D01*
X-45264605Y-24765000D01*
X-46220413Y-23809192D01*
X-46484814Y-23904956D01*
X-46625704Y-24194571D01*
X-46707384Y-24506108D01*
X-46726718Y-24827595D01*
X-46840000Y-24827595D01*
X-46840000Y-23495000D01*
X-45992062Y-23495000D01*
X-46040808Y-23629587D01*
X-45085000Y-24585395D01*
X-44129192Y-23629587D01*
X-44177938Y-23495000D01*
X-7923072Y-23495000D01*
X-7923072Y-24890000D01*
X-7907929Y-25043745D01*
X-7863084Y-25191582D01*
X-7790258Y-25327829D01*
X-7692251Y-25447251D01*
X-7572829Y-25545258D01*
X-7499290Y-25584566D01*
X-7499289Y-26567711D01*
X-7580044Y-26648466D01*
X-7613817Y-26676183D01*
X-7724411Y-26810942D01*
X-7806589Y-26964688D01*
X-7833985Y-27055000D01*
X-7849996Y-27107781D01*
X-7857195Y-27131511D01*
X-7870000Y-27261524D01*
X-7870000Y-27261531D01*
X-7874281Y-27305000D01*
X-7870000Y-27348469D01*
X-7870000Y-27515531D01*
X-7874281Y-27559000D01*
X-7870000Y-27602469D01*
X-7870000Y-27602477D01*
X-7857195Y-27732490D01*
X-7806589Y-27899313D01*
X-7724411Y-28053059D01*
X-7619036Y-28181458D01*
X-8367549Y-28929971D01*
X-8401316Y-28957683D01*
X-8429029Y-28991451D01*
X-8429032Y-28991454D01*
X-8502592Y-29081087D01*
X-8511910Y-29092441D01*
X-8594088Y-29246187D01*
X-8644695Y-29413010D01*
X-8645686Y-29423069D01*
X-8703671Y-29493725D01*
X-8782850Y-29641858D01*
X-8831608Y-29802592D01*
X-8848072Y-29969750D01*
X-8848072Y-30482250D01*
X-8831608Y-30649408D01*
X-8782850Y-30810142D01*
X-8703671Y-30958275D01*
X-8657500Y-31014535D01*
X-8657499Y-32316021D01*
X-8661781Y-32359500D01*
X-8655000Y-32428354D01*
X-8655000Y-32613939D01*
X-8615226Y-32813898D01*
X-8537205Y-33002256D01*
X-8423937Y-33171774D01*
X-8279774Y-33315937D01*
X-8110256Y-33429205D01*
X-7921898Y-33507226D01*
X-7721939Y-33547000D01*
X-7518061Y-33547000D01*
X-7318102Y-33507226D01*
X-7129744Y-33429205D01*
X-6960226Y-33315937D01*
X-6816063Y-33171774D01*
X-6702795Y-33002256D01*
X-6689332Y-32969754D01*
X-6596612Y-33108520D01*
X-6438520Y-33266612D01*
X-6252624Y-33390824D01*
X-6046067Y-33476383D01*
X-5826788Y-33520000D01*
X-5603212Y-33520000D01*
X-5383933Y-33476383D01*
X-5177376Y-33390824D01*
X-4991480Y-33266612D01*
X-4869868Y-33145000D01*
X-4634822Y-33145000D01*
X-4597500Y-33148676D01*
X-4560178Y-33145000D01*
X-4560167Y-33145000D01*
X-4448514Y-33134003D01*
X-4305253Y-33090546D01*
X-4198383Y-33033422D01*
X-4105937Y-33171778D01*
X-3961774Y-33315941D01*
X-3792256Y-33429209D01*
X-3603898Y-33507230D01*
X-3403939Y-33547004D01*
X-3200061Y-33547004D01*
X-3000102Y-33507230D01*
X-2811744Y-33429209D01*
X-2642226Y-33315941D01*
X-2498063Y-33171778D01*
X-2413005Y-33044479D01*
X-2327949Y-33171774D01*
X-2183786Y-33315937D01*
X-2014268Y-33429205D01*
X-1825910Y-33507226D01*
X-1625951Y-33547000D01*
X-1422073Y-33547000D01*
X-1222114Y-33507226D01*
X-1033756Y-33429205D01*
X-864238Y-33315937D01*
X-720075Y-33171774D01*
X-606807Y-33002256D01*
X-528786Y-32813898D01*
X-489012Y-32613939D01*
X-489012Y-32551801D01*
X663503Y-31399287D01*
X692501Y-31375489D01*
X718671Y-31343600D01*
X9928328Y-31343600D01*
X9940588Y-31468082D01*
X9976898Y-31587780D01*
X10035863Y-31698094D01*
X10115215Y-31794785D01*
X10211906Y-31874137D01*
X10322220Y-31933102D01*
X10441918Y-31969412D01*
X10566400Y-31981672D01*
X11144250Y-31978600D01*
X11303000Y-31819850D01*
X11303000Y-30607000D01*
X10090150Y-30607000D01*
X9931400Y-30765750D01*
X9928328Y-31343600D01*
X718671Y-31343600D01*
X759692Y-31293617D01*
X787474Y-31259765D01*
X858046Y-31127735D01*
X861612Y-31115978D01*
X901503Y-30984474D01*
X912500Y-30872821D01*
X912500Y-30872811D01*
X916176Y-30835488D01*
X912500Y-30798166D01*
X912500Y-29616400D01*
X9928328Y-29616400D01*
X9931400Y-30194250D01*
X10090150Y-30353000D01*
X11303000Y-30353000D01*
X11303000Y-28067000D01*
X10095536Y-28067000D01*
X9975037Y-28299027D01*
X10073036Y-28575978D01*
X10223183Y-28828488D01*
X10384692Y-29007947D01*
X10322220Y-29026898D01*
X10211906Y-29085863D01*
X10115215Y-29165215D01*
X10035863Y-29261906D01*
X9976898Y-29372220D01*
X9940588Y-29491918D01*
X9928328Y-29616400D01*
X912500Y-29616400D01*
X912500Y-28617293D01*
X1005824Y-28477624D01*
X1091383Y-28271067D01*
X1135000Y-28051788D01*
X1135000Y-27828212D01*
X1091383Y-27608933D01*
X1079802Y-27580973D01*
X9975037Y-27580973D01*
X10095536Y-27813000D01*
X11303000Y-27813000D01*
X11303000Y-26606183D01*
X11557000Y-26606183D01*
X11557000Y-27813000D01*
X11577000Y-27813000D01*
X11577000Y-28067000D01*
X11557000Y-28067000D01*
X11557000Y-30353000D01*
X11577000Y-30353000D01*
X11577000Y-30607000D01*
X11557000Y-30607000D01*
X11557000Y-31819850D01*
X11715750Y-31978600D01*
X12293600Y-31981672D01*
X12418082Y-31969412D01*
X12537780Y-31933102D01*
X12648094Y-31874137D01*
X12744785Y-31794785D01*
X12824137Y-31698094D01*
X12883102Y-31587780D01*
X12898586Y-31536735D01*
X12905203Y-31544797D01*
X13133394Y-31732069D01*
X13393736Y-31871225D01*
X13676223Y-31956916D01*
X13896381Y-31978600D01*
X14043619Y-31978600D01*
X14263777Y-31956916D01*
X14546264Y-31871225D01*
X14806606Y-31732069D01*
X15034797Y-31544797D01*
X15222069Y-31316606D01*
X15240000Y-31283060D01*
X15257931Y-31316606D01*
X15445203Y-31544797D01*
X15673394Y-31732069D01*
X15933736Y-31871225D01*
X16216223Y-31956916D01*
X16436381Y-31978600D01*
X16583619Y-31978600D01*
X16803777Y-31956916D01*
X17086264Y-31871225D01*
X17346606Y-31732069D01*
X17574797Y-31544797D01*
X17762069Y-31316606D01*
X17780000Y-31283060D01*
X17797931Y-31316606D01*
X17985203Y-31544797D01*
X18213394Y-31732069D01*
X18473736Y-31871225D01*
X18756223Y-31956916D01*
X18976381Y-31978600D01*
X19123619Y-31978600D01*
X19343777Y-31956916D01*
X19626264Y-31871225D01*
X19886606Y-31732069D01*
X20114797Y-31544797D01*
X20302069Y-31316606D01*
X20320000Y-31283060D01*
X20337931Y-31316606D01*
X20525203Y-31544797D01*
X20753394Y-31732069D01*
X21013736Y-31871225D01*
X21296223Y-31956916D01*
X21516381Y-31978600D01*
X21663619Y-31978600D01*
X21883777Y-31956916D01*
X22166264Y-31871225D01*
X22426606Y-31732069D01*
X22654797Y-31544797D01*
X22842069Y-31316606D01*
X22860000Y-31283060D01*
X22877931Y-31316606D01*
X23065203Y-31544797D01*
X23293394Y-31732069D01*
X23553736Y-31871225D01*
X23836223Y-31956916D01*
X24056381Y-31978600D01*
X24203619Y-31978600D01*
X24423777Y-31956916D01*
X24706264Y-31871225D01*
X24966606Y-31732069D01*
X25194797Y-31544797D01*
X25382069Y-31316606D01*
X25400000Y-31283060D01*
X25417931Y-31316606D01*
X25605203Y-31544797D01*
X25833394Y-31732069D01*
X26093736Y-31871225D01*
X26376223Y-31956916D01*
X26596381Y-31978600D01*
X26743619Y-31978600D01*
X26963777Y-31956916D01*
X27246264Y-31871225D01*
X27506606Y-31732069D01*
X27734797Y-31544797D01*
X27922069Y-31316606D01*
X27940000Y-31283060D01*
X27957931Y-31316606D01*
X28145203Y-31544797D01*
X28373394Y-31732069D01*
X28633736Y-31871225D01*
X28916223Y-31956916D01*
X29136381Y-31978600D01*
X29283619Y-31978600D01*
X29503777Y-31956916D01*
X29786264Y-31871225D01*
X30046606Y-31732069D01*
X30274797Y-31544797D01*
X30462069Y-31316606D01*
X30480000Y-31283060D01*
X30497931Y-31316606D01*
X30685203Y-31544797D01*
X30913394Y-31732069D01*
X31173736Y-31871225D01*
X31456223Y-31956916D01*
X31676381Y-31978600D01*
X31823619Y-31978600D01*
X32043777Y-31956916D01*
X32326264Y-31871225D01*
X32586606Y-31732069D01*
X32814797Y-31544797D01*
X33002069Y-31316606D01*
X33025863Y-31272090D01*
X33083183Y-31368488D01*
X33279707Y-31586854D01*
X33515056Y-31762684D01*
X33780186Y-31889222D01*
X33930974Y-31934958D01*
X34163000Y-31813817D01*
X34163000Y-30607000D01*
X34417000Y-30607000D01*
X34417000Y-31813817D01*
X34649026Y-31934958D01*
X34799814Y-31889222D01*
X35064944Y-31762684D01*
X35300293Y-31586854D01*
X35496817Y-31368488D01*
X35646964Y-31115978D01*
X35744963Y-30839027D01*
X35624464Y-30607000D01*
X34417000Y-30607000D01*
X34163000Y-30607000D01*
X34143000Y-30607000D01*
X34143000Y-30353000D01*
X34163000Y-30353000D01*
X34163000Y-28067000D01*
X34143000Y-28067000D01*
X34143000Y-27813000D01*
X34163000Y-27813000D01*
X34163000Y-26606183D01*
X34417000Y-26606183D01*
X34417000Y-27813000D01*
X34437000Y-27813000D01*
X34437000Y-28067000D01*
X34417000Y-28067000D01*
X34417000Y-30353000D01*
X35624464Y-30353000D01*
X35744963Y-30120973D01*
X35646964Y-29844022D01*
X35496817Y-29591512D01*
X35300293Y-29373146D01*
X35081922Y-29210000D01*
X35300293Y-29046854D01*
X35496817Y-28828488D01*
X35553527Y-28733117D01*
X35560026Y-28745276D01*
X35614946Y-28812195D01*
X35655000Y-28861001D01*
X35683998Y-28884799D01*
X36266200Y-29467002D01*
X36289999Y-29496001D01*
X36333225Y-29531476D01*
X36405724Y-29590974D01*
X36537753Y-29661546D01*
X36681014Y-29705003D01*
X36830000Y-29719677D01*
X36867333Y-29716000D01*
X39840678Y-29716000D01*
X39878000Y-29719676D01*
X39915322Y-29716000D01*
X39915333Y-29716000D01*
X40026986Y-29705003D01*
X40170247Y-29661546D01*
X40302276Y-29590974D01*
X40418001Y-29496001D01*
X40441804Y-29466997D01*
X43056004Y-26852798D01*
X43085001Y-26829001D01*
X43179974Y-26713276D01*
X43250546Y-26581247D01*
X43294003Y-26437986D01*
X43305000Y-26326333D01*
X43305000Y-26326332D01*
X43308677Y-26289000D01*
X43305000Y-26251667D01*
X43305000Y-24198711D01*
X43348937Y-24154774D01*
X43462205Y-23985256D01*
X43540226Y-23796898D01*
X43580000Y-23596939D01*
X43580000Y-23393061D01*
X43540226Y-23193102D01*
X43462205Y-23004744D01*
X43348937Y-22835226D01*
X43204774Y-22691063D01*
X43035256Y-22577795D01*
X42846898Y-22499774D01*
X42646939Y-22460000D01*
X42443061Y-22460000D01*
X42243102Y-22499774D01*
X42054744Y-22577795D01*
X41910000Y-22674510D01*
X41765256Y-22577795D01*
X41576898Y-22499774D01*
X41376939Y-22460000D01*
X41173061Y-22460000D01*
X40973102Y-22499774D01*
X40784744Y-22577795D01*
X40615226Y-22691063D01*
X40471063Y-22835226D01*
X40357795Y-23004744D01*
X40279774Y-23193102D01*
X40240000Y-23393061D01*
X40240000Y-23596939D01*
X40279774Y-23796898D01*
X40357795Y-23985256D01*
X40471063Y-24154774D01*
X40515001Y-24198712D01*
X40515000Y-26355198D01*
X39823927Y-27046271D01*
X39782850Y-26910858D01*
X39703671Y-26762725D01*
X39627574Y-26670000D01*
X39703671Y-26577275D01*
X39782850Y-26429142D01*
X39831608Y-26268408D01*
X39848072Y-26101250D01*
X39848072Y-25663750D01*
X39831608Y-25496592D01*
X39782850Y-25335858D01*
X39703671Y-25187725D01*
X39597115Y-25057885D01*
X39467275Y-24951329D01*
X39319142Y-24872150D01*
X39198030Y-24835411D01*
X39262850Y-24714142D01*
X39311608Y-24553408D01*
X39328072Y-24386250D01*
X39328072Y-23976844D01*
X39421673Y-23836760D01*
X39499694Y-23648402D01*
X39539468Y-23448443D01*
X39539468Y-23244565D01*
X39499694Y-23044606D01*
X39421673Y-22856248D01*
X39308405Y-22686730D01*
X39164242Y-22542567D01*
X38994724Y-22429299D01*
X38806366Y-22351278D01*
X38606407Y-22311504D01*
X38402529Y-22311504D01*
X38202570Y-22351278D01*
X38014212Y-22429299D01*
X37844694Y-22542567D01*
X37700531Y-22686730D01*
X37587263Y-22856248D01*
X37535779Y-22980541D01*
X37493205Y-22877760D01*
X37379937Y-22708242D01*
X37235774Y-22564079D01*
X37066256Y-22450811D01*
X36877898Y-22372790D01*
X36677939Y-22333016D01*
X36474061Y-22333016D01*
X36274102Y-22372790D01*
X36085744Y-22450811D01*
X35916226Y-22564079D01*
X35772063Y-22708242D01*
X35658795Y-22877760D01*
X35580774Y-23066118D01*
X35541000Y-23266077D01*
X35541000Y-23469955D01*
X35580774Y-23669914D01*
X35614084Y-23750331D01*
X35601928Y-23873750D01*
X35601928Y-24386250D01*
X35618392Y-24553408D01*
X35667150Y-24714142D01*
X35731970Y-24835411D01*
X35610858Y-24872150D01*
X35462725Y-24951329D01*
X35332885Y-25057885D01*
X35226329Y-25187725D01*
X35147150Y-25335858D01*
X35098392Y-25496592D01*
X35081928Y-25663750D01*
X35081928Y-26101250D01*
X35098392Y-26268408D01*
X35147150Y-26429142D01*
X35226329Y-26577275D01*
X35302426Y-26670000D01*
X35226329Y-26762725D01*
X35220537Y-26773560D01*
X35064944Y-26657316D01*
X34799814Y-26530778D01*
X34649026Y-26485042D01*
X34417000Y-26606183D01*
X34163000Y-26606183D01*
X33930974Y-26485042D01*
X33780186Y-26530778D01*
X33515056Y-26657316D01*
X33279707Y-26833146D01*
X33083183Y-27051512D01*
X33025863Y-27147910D01*
X33002069Y-27103394D01*
X32814797Y-26875203D01*
X32586606Y-26687931D01*
X32326264Y-26548775D01*
X32043777Y-26463084D01*
X31823619Y-26441400D01*
X31676381Y-26441400D01*
X31456223Y-26463084D01*
X31173736Y-26548775D01*
X30913394Y-26687931D01*
X30685203Y-26875203D01*
X30497931Y-27103394D01*
X30480000Y-27136940D01*
X30462069Y-27103394D01*
X30274797Y-26875203D01*
X30046606Y-26687931D01*
X29786264Y-26548775D01*
X29503777Y-26463084D01*
X29283619Y-26441400D01*
X29136381Y-26441400D01*
X28916223Y-26463084D01*
X28633736Y-26548775D01*
X28373394Y-26687931D01*
X28145203Y-26875203D01*
X27957931Y-27103394D01*
X27940000Y-27136940D01*
X27922069Y-27103394D01*
X27734797Y-26875203D01*
X27506606Y-26687931D01*
X27246264Y-26548775D01*
X26963777Y-26463084D01*
X26743619Y-26441400D01*
X26596381Y-26441400D01*
X26376223Y-26463084D01*
X26093736Y-26548775D01*
X25833394Y-26687931D01*
X25605203Y-26875203D01*
X25417931Y-27103394D01*
X25400000Y-27136940D01*
X25382069Y-27103394D01*
X25194797Y-26875203D01*
X24966606Y-26687931D01*
X24706264Y-26548775D01*
X24423777Y-26463084D01*
X24203619Y-26441400D01*
X24056381Y-26441400D01*
X23836223Y-26463084D01*
X23553736Y-26548775D01*
X23293394Y-26687931D01*
X23065203Y-26875203D01*
X22877931Y-27103394D01*
X22860000Y-27136940D01*
X22842069Y-27103394D01*
X22654797Y-26875203D01*
X22426606Y-26687931D01*
X22166264Y-26548775D01*
X21883777Y-26463084D01*
X21663619Y-26441400D01*
X21516381Y-26441400D01*
X21296223Y-26463084D01*
X21013736Y-26548775D01*
X20753394Y-26687931D01*
X20525203Y-26875203D01*
X20337931Y-27103394D01*
X20320000Y-27136940D01*
X20302069Y-27103394D01*
X20114797Y-26875203D01*
X19886606Y-26687931D01*
X19626264Y-26548775D01*
X19343777Y-26463084D01*
X19123619Y-26441400D01*
X18976381Y-26441400D01*
X18756223Y-26463084D01*
X18473736Y-26548775D01*
X18213394Y-26687931D01*
X17985203Y-26875203D01*
X17797931Y-27103394D01*
X17780000Y-27136940D01*
X17762069Y-27103394D01*
X17574797Y-26875203D01*
X17346606Y-26687931D01*
X17086264Y-26548775D01*
X16803777Y-26463084D01*
X16583619Y-26441400D01*
X16436381Y-26441400D01*
X16216223Y-26463084D01*
X15933736Y-26548775D01*
X15673394Y-26687931D01*
X15445203Y-26875203D01*
X15257931Y-27103394D01*
X15240000Y-27136940D01*
X15222069Y-27103394D01*
X15034797Y-26875203D01*
X14806606Y-26687931D01*
X14546264Y-26548775D01*
X14263777Y-26463084D01*
X14043619Y-26441400D01*
X13896381Y-26441400D01*
X13676223Y-26463084D01*
X13393736Y-26548775D01*
X13133394Y-26687931D01*
X12905203Y-26875203D01*
X12717931Y-27103394D01*
X12694137Y-27147910D01*
X12636817Y-27051512D01*
X12440293Y-26833146D01*
X12204944Y-26657316D01*
X11939814Y-26530778D01*
X11789026Y-26485042D01*
X11557000Y-26606183D01*
X11303000Y-26606183D01*
X11070974Y-26485042D01*
X10920186Y-26530778D01*
X10655056Y-26657316D01*
X10419707Y-26833146D01*
X10223183Y-27051512D01*
X10073036Y-27304022D01*
X9975037Y-27580973D01*
X1079802Y-27580973D01*
X1005824Y-27402376D01*
X912500Y-27262707D01*
X912500Y-26950143D01*
X977115Y-26897115D01*
X1083671Y-26767275D01*
X1162850Y-26619142D01*
X1211608Y-26458408D01*
X1228072Y-26291250D01*
X1228072Y-25778750D01*
X1211608Y-25611592D01*
X1162850Y-25450858D01*
X1083671Y-25302725D01*
X1037500Y-25246465D01*
X1037500Y-24918535D01*
X1083671Y-24862275D01*
X1162850Y-24714142D01*
X1211608Y-24553408D01*
X1228072Y-24386250D01*
X1228072Y-23873750D01*
X1211608Y-23706592D01*
X1162850Y-23545858D01*
X1135666Y-23495000D01*
X12954000Y-23495000D01*
X12978776Y-23492560D01*
X13002601Y-23485333D01*
X13024557Y-23473597D01*
X13043803Y-23457803D01*
X18086606Y-18415000D01*
X22556928Y-18415000D01*
X22556928Y-19810000D01*
G36*
X-3048000Y-23938000D02*
G01*
X-3028000Y-23938000D01*
X-3028000Y-24192000D01*
X-3048000Y-24192000D01*
X-3048000Y-25516250D01*
X-2889250Y-25675000D01*
X-2875000Y-25678072D01*
X-2750518Y-25665812D01*
X-2630820Y-25629502D01*
X-2520506Y-25570537D01*
X-2497228Y-25551434D01*
X-2498072Y-25560000D01*
X-2495000Y-25749250D01*
X-2336250Y-25908000D01*
X-1549500Y-25908000D01*
X-1549500Y-25888000D01*
X-1295500Y-25888000D01*
X-1295500Y-25908000D01*
X-1275500Y-25908000D01*
X-1275500Y-26162000D01*
X-1295500Y-26162000D01*
X-1295500Y-26986250D01*
X-1136750Y-27145000D01*
X-985000Y-27148072D01*
X-860518Y-27135812D01*
X-775003Y-27109871D01*
X-881612Y-27216480D01*
X-1005824Y-27402376D01*
X-1091383Y-27608933D01*
X-1135000Y-27828212D01*
X-1135000Y-28051788D01*
X-1091383Y-28271067D01*
X-1005824Y-28477624D01*
X-881612Y-28663520D01*
X-723520Y-28821612D01*
X-607499Y-28899135D01*
X-607499Y-30520685D01*
X-1316401Y-31229587D01*
X-1324188Y-31150518D01*
X-1360498Y-31030820D01*
X-1383386Y-30988000D01*
X-1360498Y-30945180D01*
X-1324188Y-30825482D01*
X-1311928Y-30701000D01*
X-1315000Y-30511750D01*
X-1473750Y-30353000D01*
X-2260500Y-30353000D01*
X-2260500Y-31623000D01*
X-2240500Y-31623000D01*
X-2240500Y-31764777D01*
X-2327949Y-31852226D01*
X-2357866Y-31897000D01*
X-2468149Y-31897000D01*
X-2498063Y-31852230D01*
X-2534500Y-31815793D01*
X-2534500Y-31623000D01*
X-2514500Y-31623000D01*
X-2514500Y-30353000D01*
X-2534500Y-30353000D01*
X-2534500Y-30099000D01*
X-2514500Y-30099000D01*
X-2514500Y-29274750D01*
X-2260500Y-29274750D01*
X-2260500Y-30099000D01*
X-1473750Y-30099000D01*
X-1315000Y-29940250D01*
X-1311928Y-29751000D01*
X-1324188Y-29626518D01*
X-1360498Y-29506820D01*
X-1419463Y-29396506D01*
X-1498815Y-29299815D01*
X-1595506Y-29220463D01*
X-1705820Y-29161498D01*
X-1825518Y-29125188D01*
X-1950000Y-29112928D01*
X-2101750Y-29116000D01*
X-2260500Y-29274750D01*
X-2514500Y-29274750D01*
X-2673250Y-29116000D01*
X-2825000Y-29112928D01*
X-2949482Y-29125188D01*
X-3069180Y-29161498D01*
X-3179494Y-29220463D01*
X-3246070Y-29275100D01*
X-3267725Y-29257329D01*
X-3415858Y-29178150D01*
X-3576592Y-29129392D01*
X-3743750Y-29112928D01*
X-3967671Y-29112928D01*
X-3954188Y-29068482D01*
X-3941928Y-28944000D01*
X-3941928Y-27444000D01*
X-3954188Y-27319518D01*
X-3990498Y-27199820D01*
X-4034786Y-27116964D01*
X-4006750Y-27145000D01*
X-3855000Y-27148072D01*
X-3730518Y-27135812D01*
X-3610820Y-27099502D01*
X-3500506Y-27040537D01*
X-3403815Y-26961185D01*
X-3324463Y-26864494D01*
X-3265498Y-26754180D01*
X-3229188Y-26634482D01*
X-3216928Y-26510000D01*
X-2498072Y-26510000D01*
X-2485812Y-26634482D01*
X-2449502Y-26754180D01*
X-2390537Y-26864494D01*
X-2311185Y-26961185D01*
X-2214494Y-27040537D01*
X-2104180Y-27099502D01*
X-1984482Y-27135812D01*
X-1860000Y-27148072D01*
X-1708250Y-27145000D01*
X-1549500Y-26986250D01*
X-1549500Y-26162000D01*
X-2336250Y-26162000D01*
X-2495000Y-26320750D01*
X-2498072Y-26510000D01*
X-3216928Y-26510000D01*
X-3220000Y-26320750D01*
X-3378750Y-26162000D01*
X-4165500Y-26162000D01*
X-4165500Y-26182000D01*
X-4320000Y-26182000D01*
X-4320000Y-25888000D01*
X-4165500Y-25888000D01*
X-4165500Y-25908000D01*
X-3378750Y-25908000D01*
X-3220000Y-25749250D01*
X-3216928Y-25560000D01*
X-3229188Y-25435518D01*
X-3265498Y-25315820D01*
X-3302000Y-25247531D01*
X-3302000Y-24192000D01*
X-3322000Y-24192000D01*
X-3322000Y-23938000D01*
X-3302000Y-23938000D01*
X-3302000Y-23918000D01*
X-3048000Y-23918000D01*
X-3048000Y-23938000D01*
X-3048000Y-23938000D01*
G37*
X-3048000Y-23938000D02*
X-3028000Y-23938000D01*
X-3028000Y-24192000D01*
X-3048000Y-24192000D01*
X-3048000Y-25516250D01*
X-2889250Y-25675000D01*
X-2875000Y-25678072D01*
X-2750518Y-25665812D01*
X-2630820Y-25629502D01*
X-2520506Y-25570537D01*
X-2497228Y-25551434D01*
X-2498072Y-25560000D01*
X-2495000Y-25749250D01*
X-2336250Y-25908000D01*
X-1549500Y-25908000D01*
X-1549500Y-25888000D01*
X-1295500Y-25888000D01*
X-1295500Y-25908000D01*
X-1275500Y-25908000D01*
X-1275500Y-26162000D01*
X-1295500Y-26162000D01*
X-1295500Y-26986250D01*
X-1136750Y-27145000D01*
X-985000Y-27148072D01*
X-860518Y-27135812D01*
X-775003Y-27109871D01*
X-881612Y-27216480D01*
X-1005824Y-27402376D01*
X-1091383Y-27608933D01*
X-1135000Y-27828212D01*
X-1135000Y-28051788D01*
X-1091383Y-28271067D01*
X-1005824Y-28477624D01*
X-881612Y-28663520D01*
X-723520Y-28821612D01*
X-607499Y-28899135D01*
X-607499Y-30520685D01*
X-1316401Y-31229587D01*
X-1324188Y-31150518D01*
X-1360498Y-31030820D01*
X-1383386Y-30988000D01*
X-1360498Y-30945180D01*
X-1324188Y-30825482D01*
X-1311928Y-30701000D01*
X-1315000Y-30511750D01*
X-1473750Y-30353000D01*
X-2260500Y-30353000D01*
X-2260500Y-31623000D01*
X-2240500Y-31623000D01*
X-2240500Y-31764777D01*
X-2327949Y-31852226D01*
X-2357866Y-31897000D01*
X-2468149Y-31897000D01*
X-2498063Y-31852230D01*
X-2534500Y-31815793D01*
X-2534500Y-31623000D01*
X-2514500Y-31623000D01*
X-2514500Y-30353000D01*
X-2534500Y-30353000D01*
X-2534500Y-30099000D01*
X-2514500Y-30099000D01*
X-2514500Y-29274750D01*
X-2260500Y-29274750D01*
X-2260500Y-30099000D01*
X-1473750Y-30099000D01*
X-1315000Y-29940250D01*
X-1311928Y-29751000D01*
X-1324188Y-29626518D01*
X-1360498Y-29506820D01*
X-1419463Y-29396506D01*
X-1498815Y-29299815D01*
X-1595506Y-29220463D01*
X-1705820Y-29161498D01*
X-1825518Y-29125188D01*
X-1950000Y-29112928D01*
X-2101750Y-29116000D01*
X-2260500Y-29274750D01*
X-2514500Y-29274750D01*
X-2673250Y-29116000D01*
X-2825000Y-29112928D01*
X-2949482Y-29125188D01*
X-3069180Y-29161498D01*
X-3179494Y-29220463D01*
X-3246070Y-29275100D01*
X-3267725Y-29257329D01*
X-3415858Y-29178150D01*
X-3576592Y-29129392D01*
X-3743750Y-29112928D01*
X-3967671Y-29112928D01*
X-3954188Y-29068482D01*
X-3941928Y-28944000D01*
X-3941928Y-27444000D01*
X-3954188Y-27319518D01*
X-3990498Y-27199820D01*
X-4034786Y-27116964D01*
X-4006750Y-27145000D01*
X-3855000Y-27148072D01*
X-3730518Y-27135812D01*
X-3610820Y-27099502D01*
X-3500506Y-27040537D01*
X-3403815Y-26961185D01*
X-3324463Y-26864494D01*
X-3265498Y-26754180D01*
X-3229188Y-26634482D01*
X-3216928Y-26510000D01*
X-2498072Y-26510000D01*
X-2485812Y-26634482D01*
X-2449502Y-26754180D01*
X-2390537Y-26864494D01*
X-2311185Y-26961185D01*
X-2214494Y-27040537D01*
X-2104180Y-27099502D01*
X-1984482Y-27135812D01*
X-1860000Y-27148072D01*
X-1708250Y-27145000D01*
X-1549500Y-26986250D01*
X-1549500Y-26162000D01*
X-2336250Y-26162000D01*
X-2495000Y-26320750D01*
X-2498072Y-26510000D01*
X-3216928Y-26510000D01*
X-3220000Y-26320750D01*
X-3378750Y-26162000D01*
X-4165500Y-26162000D01*
X-4165500Y-26182000D01*
X-4320000Y-26182000D01*
X-4320000Y-25888000D01*
X-4165500Y-25888000D01*
X-4165500Y-25908000D01*
X-3378750Y-25908000D01*
X-3220000Y-25749250D01*
X-3216928Y-25560000D01*
X-3229188Y-25435518D01*
X-3265498Y-25315820D01*
X-3302000Y-25247531D01*
X-3302000Y-24192000D01*
X-3322000Y-24192000D01*
X-3322000Y-23938000D01*
X-3302000Y-23938000D01*
X-3302000Y-23918000D01*
X-3048000Y-23918000D01*
X-3048000Y-23938000D01*
G36*
X34106934Y-18671735D02*
G01*
X34062885Y-18707885D01*
X34029709Y-18748311D01*
X34025537Y-18740506D01*
X33946185Y-18643815D01*
X33849494Y-18564463D01*
X33739180Y-18505498D01*
X33619482Y-18469188D01*
X33495000Y-18456928D01*
X33305750Y-18460000D01*
X33147000Y-18618750D01*
X33147000Y-19405500D01*
X33167000Y-19405500D01*
X33167000Y-19659500D01*
X33147000Y-19659500D01*
X33147000Y-19679500D01*
X32893000Y-19679500D01*
X32893000Y-19659500D01*
X32068750Y-19659500D01*
X32067500Y-19660750D01*
X32066250Y-19659500D01*
X31242000Y-19659500D01*
X31242000Y-19679500D01*
X30988000Y-19679500D01*
X30988000Y-19659500D01*
X30163750Y-19659500D01*
X30162500Y-19660750D01*
X30161250Y-19659500D01*
X29337000Y-19659500D01*
X29337000Y-19679500D01*
X29083000Y-19679500D01*
X29083000Y-19659500D01*
X29063000Y-19659500D01*
X29063000Y-19405500D01*
X29083000Y-19405500D01*
X29083000Y-18618750D01*
X29337000Y-18618750D01*
X29337000Y-19405500D01*
X30161250Y-19405500D01*
X30162500Y-19404250D01*
X30163750Y-19405500D01*
X30988000Y-19405500D01*
X30988000Y-18618750D01*
X31242000Y-18618750D01*
X31242000Y-19405500D01*
X32066250Y-19405500D01*
X32067500Y-19404250D01*
X32068750Y-19405500D01*
X32893000Y-19405500D01*
X32893000Y-18618750D01*
X32734250Y-18460000D01*
X32545000Y-18456928D01*
X32420518Y-18469188D01*
X32300820Y-18505498D01*
X32190506Y-18564463D01*
X32093815Y-18643815D01*
X32067500Y-18675880D01*
X32041185Y-18643815D01*
X31944494Y-18564463D01*
X31834180Y-18505498D01*
X31714482Y-18469188D01*
X31590000Y-18456928D01*
X31400750Y-18460000D01*
X31242000Y-18618750D01*
X30988000Y-18618750D01*
X30829250Y-18460000D01*
X30640000Y-18456928D01*
X30515518Y-18469188D01*
X30395820Y-18505498D01*
X30285506Y-18564463D01*
X30188815Y-18643815D01*
X30162500Y-18675880D01*
X30136185Y-18643815D01*
X30039494Y-18564463D01*
X29929180Y-18505498D01*
X29809482Y-18469188D01*
X29685000Y-18456928D01*
X29495750Y-18460000D01*
X29337000Y-18618750D01*
X29083000Y-18618750D01*
X28924250Y-18460000D01*
X28735000Y-18456928D01*
X28610518Y-18469188D01*
X28490820Y-18505498D01*
X28380506Y-18564463D01*
X28283815Y-18643815D01*
X28240009Y-18697193D01*
X28241267Y-18415000D01*
X33850199Y-18415000D01*
X34106934Y-18671735D01*
X34106934Y-18671735D01*
G37*
X34106934Y-18671735D02*
X34062885Y-18707885D01*
X34029709Y-18748311D01*
X34025537Y-18740506D01*
X33946185Y-18643815D01*
X33849494Y-18564463D01*
X33739180Y-18505498D01*
X33619482Y-18469188D01*
X33495000Y-18456928D01*
X33305750Y-18460000D01*
X33147000Y-18618750D01*
X33147000Y-19405500D01*
X33167000Y-19405500D01*
X33167000Y-19659500D01*
X33147000Y-19659500D01*
X33147000Y-19679500D01*
X32893000Y-19679500D01*
X32893000Y-19659500D01*
X32068750Y-19659500D01*
X32067500Y-19660750D01*
X32066250Y-19659500D01*
X31242000Y-19659500D01*
X31242000Y-19679500D01*
X30988000Y-19679500D01*
X30988000Y-19659500D01*
X30163750Y-19659500D01*
X30162500Y-19660750D01*
X30161250Y-19659500D01*
X29337000Y-19659500D01*
X29337000Y-19679500D01*
X29083000Y-19679500D01*
X29083000Y-19659500D01*
X29063000Y-19659500D01*
X29063000Y-19405500D01*
X29083000Y-19405500D01*
X29083000Y-18618750D01*
X29337000Y-18618750D01*
X29337000Y-19405500D01*
X30161250Y-19405500D01*
X30162500Y-19404250D01*
X30163750Y-19405500D01*
X30988000Y-19405500D01*
X30988000Y-18618750D01*
X31242000Y-18618750D01*
X31242000Y-19405500D01*
X32066250Y-19405500D01*
X32067500Y-19404250D01*
X32068750Y-19405500D01*
X32893000Y-19405500D01*
X32893000Y-18618750D01*
X32734250Y-18460000D01*
X32545000Y-18456928D01*
X32420518Y-18469188D01*
X32300820Y-18505498D01*
X32190506Y-18564463D01*
X32093815Y-18643815D01*
X32067500Y-18675880D01*
X32041185Y-18643815D01*
X31944494Y-18564463D01*
X31834180Y-18505498D01*
X31714482Y-18469188D01*
X31590000Y-18456928D01*
X31400750Y-18460000D01*
X31242000Y-18618750D01*
X30988000Y-18618750D01*
X30829250Y-18460000D01*
X30640000Y-18456928D01*
X30515518Y-18469188D01*
X30395820Y-18505498D01*
X30285506Y-18564463D01*
X30188815Y-18643815D01*
X30162500Y-18675880D01*
X30136185Y-18643815D01*
X30039494Y-18564463D01*
X29929180Y-18505498D01*
X29809482Y-18469188D01*
X29685000Y-18456928D01*
X29495750Y-18460000D01*
X29337000Y-18618750D01*
X29083000Y-18618750D01*
X28924250Y-18460000D01*
X28735000Y-18456928D01*
X28610518Y-18469188D01*
X28490820Y-18505498D01*
X28380506Y-18564463D01*
X28283815Y-18643815D01*
X28240009Y-18697193D01*
X28241267Y-18415000D01*
X33850199Y-18415000D01*
X34106934Y-18671735D01*
G36*
X28241808Y-19676442D02*
G01*
X28241732Y-19659502D01*
X28258748Y-19659502D01*
X28241808Y-19676442D01*
X28241808Y-19676442D01*
G37*
X28241808Y-19676442D02*
X28241732Y-19659502D01*
X28258748Y-19659502D01*
X28241808Y-19676442D01*
G36*
X28258748Y-19405498D02*
G01*
X28240600Y-19405498D01*
X28240519Y-19387269D01*
X28258748Y-19405498D01*
X28258748Y-19405498D01*
G37*
X28258748Y-19405498D02*
X28240600Y-19405498D01*
X28240519Y-19387269D01*
X28258748Y-19405498D01*
M02*
