G04 #@! TF.GenerationSoftware,KiCad,Pcbnew,(5.1.2)-1*
G04 #@! TF.CreationDate,2020-04-21T09:17:00+09:00*
G04 #@! TF.ProjectId,InverterBoard,496e7665-7274-4657-9242-6f6172642e6b,rev?*
G04 #@! TF.SameCoordinates,Original*
G04 #@! TF.FileFunction,Soldermask,Top*
G04 #@! TF.FilePolarity,Negative*
%FSLAX46Y46*%
G04 Gerber Fmt 4.6, Leading zero omitted, Abs format (unit mm)*
G04 Created by KiCad (PCBNEW (5.1.2)-1) date 2020-04-21 09:17:00*
%MOMM*%
%LPD*%
G04 APERTURE LIST*
%ADD10C,1.000000*%
%ADD11C,0.100000*%
G04 APERTURE END LIST*
D10*
X-42500000Y-33000000D02*
G75*
G03X-42500000Y-33000000I-2000000J0D01*
G01*
X-42000000Y-33000000D02*
G75*
G03X-42000000Y-33000000I-2500000J0D01*
G01*
X46500000Y-33000000D02*
G75*
G03X46500000Y-33000000I-2000000J0D01*
G01*
X47000000Y-33000000D02*
G75*
G03X47000000Y-33000000I-2500000J0D01*
G01*
X46500000Y33000000D02*
G75*
G03X46500000Y33000000I-2000000J0D01*
G01*
X47000000Y33000000D02*
G75*
G03X47000000Y33000000I-2500000J0D01*
G01*
X-42500000Y33000000D02*
G75*
G03X-42500000Y33000000I-2000000J0D01*
G01*
X-42000000Y33000000D02*
G75*
G03X-42000000Y33000000I-2500000J0D01*
G01*
D11*
G36*
X-44124744Y-31391298D02*
G01*
X-44018421Y-31412447D01*
X-43717958Y-31536903D01*
X-43447549Y-31717585D01*
X-43217585Y-31947549D01*
X-43036903Y-32217958D01*
X-42912447Y-32518421D01*
X-42893744Y-32612448D01*
X-42849000Y-32837389D01*
X-42849000Y-33162611D01*
X-42881613Y-33326564D01*
X-42912447Y-33481579D01*
X-43036903Y-33782042D01*
X-43217585Y-34052451D01*
X-43447549Y-34282415D01*
X-43717958Y-34463097D01*
X-44018421Y-34587553D01*
X-44124744Y-34608702D01*
X-44337389Y-34651000D01*
X-44662611Y-34651000D01*
X-44875256Y-34608702D01*
X-44981579Y-34587553D01*
X-45282042Y-34463097D01*
X-45552451Y-34282415D01*
X-45782415Y-34052451D01*
X-45963097Y-33782042D01*
X-46087553Y-33481579D01*
X-46118387Y-33326564D01*
X-46151000Y-33162611D01*
X-46151000Y-32837389D01*
X-46106256Y-32612448D01*
X-46087553Y-32518421D01*
X-45963097Y-32217958D01*
X-45782415Y-31947549D01*
X-45552451Y-31717585D01*
X-45282042Y-31536903D01*
X-44981579Y-31412447D01*
X-44875256Y-31391298D01*
X-44662611Y-31349000D01*
X-44337389Y-31349000D01*
X-44124744Y-31391298D01*
X-44124744Y-31391298D01*
G37*
G36*
X44875256Y-31391298D02*
G01*
X44981579Y-31412447D01*
X45282042Y-31536903D01*
X45552451Y-31717585D01*
X45782415Y-31947549D01*
X45963097Y-32217958D01*
X46087553Y-32518421D01*
X46106256Y-32612448D01*
X46151000Y-32837389D01*
X46151000Y-33162611D01*
X46118387Y-33326564D01*
X46087553Y-33481579D01*
X45963097Y-33782042D01*
X45782415Y-34052451D01*
X45552451Y-34282415D01*
X45282042Y-34463097D01*
X44981579Y-34587553D01*
X44875256Y-34608702D01*
X44662611Y-34651000D01*
X44337389Y-34651000D01*
X44124744Y-34608702D01*
X44018421Y-34587553D01*
X43717958Y-34463097D01*
X43447549Y-34282415D01*
X43217585Y-34052451D01*
X43036903Y-33782042D01*
X42912447Y-33481579D01*
X42881613Y-33326564D01*
X42849000Y-33162611D01*
X42849000Y-32837389D01*
X42893744Y-32612448D01*
X42912447Y-32518421D01*
X43036903Y-32217958D01*
X43217585Y-31947549D01*
X43447549Y-31717585D01*
X43717958Y-31536903D01*
X44018421Y-31412447D01*
X44124744Y-31391298D01*
X44337389Y-31349000D01*
X44662611Y-31349000D01*
X44875256Y-31391298D01*
X44875256Y-31391298D01*
G37*
G36*
X-25804000Y-34421000D02*
G01*
X-26806000Y-34421000D01*
X-26806000Y-33519000D01*
X-25804000Y-33519000D01*
X-25804000Y-34421000D01*
X-25804000Y-34421000D01*
G37*
G36*
X-29465409Y-33323085D02*
G01*
X-29431431Y-33333393D01*
X-29400110Y-33350134D01*
X-29372661Y-33372661D01*
X-29350134Y-33400110D01*
X-29333393Y-33431431D01*
X-29323085Y-33465409D01*
X-29319000Y-33506890D01*
X-29319000Y-34108110D01*
X-29323085Y-34149591D01*
X-29333393Y-34183569D01*
X-29350134Y-34214890D01*
X-29372661Y-34242339D01*
X-29400110Y-34264866D01*
X-29431431Y-34281607D01*
X-29465409Y-34291915D01*
X-29506890Y-34296000D01*
X-30183110Y-34296000D01*
X-30224591Y-34291915D01*
X-30258569Y-34281607D01*
X-30289890Y-34264866D01*
X-30317339Y-34242339D01*
X-30339866Y-34214890D01*
X-30356607Y-34183569D01*
X-30366915Y-34149591D01*
X-30371000Y-34108110D01*
X-30371000Y-33506890D01*
X-30366915Y-33465409D01*
X-30356607Y-33431431D01*
X-30339866Y-33400110D01*
X-30317339Y-33372661D01*
X-30289890Y-33350134D01*
X-30258569Y-33333393D01*
X-30224591Y-33323085D01*
X-30183110Y-33319000D01*
X-29506890Y-33319000D01*
X-29465409Y-33323085D01*
X-29465409Y-33323085D01*
G37*
G36*
X-24385409Y-33323085D02*
G01*
X-24351431Y-33333393D01*
X-24320110Y-33350134D01*
X-24292661Y-33372661D01*
X-24270134Y-33400110D01*
X-24253393Y-33431431D01*
X-24243085Y-33465409D01*
X-24239000Y-33506890D01*
X-24239000Y-34108110D01*
X-24243085Y-34149591D01*
X-24253393Y-34183569D01*
X-24270134Y-34214890D01*
X-24292661Y-34242339D01*
X-24320110Y-34264866D01*
X-24351431Y-34281607D01*
X-24385409Y-34291915D01*
X-24426890Y-34296000D01*
X-25103110Y-34296000D01*
X-25144591Y-34291915D01*
X-25178569Y-34281607D01*
X-25209890Y-34264866D01*
X-25237339Y-34242339D01*
X-25259866Y-34214890D01*
X-25276607Y-34183569D01*
X-25286915Y-34149591D01*
X-25291000Y-34108110D01*
X-25291000Y-33506890D01*
X-25286915Y-33465409D01*
X-25276607Y-33431431D01*
X-25259866Y-33400110D01*
X-25237339Y-33372661D01*
X-25209890Y-33350134D01*
X-25178569Y-33333393D01*
X-25144591Y-33323085D01*
X-25103110Y-33319000D01*
X-24426890Y-33319000D01*
X-24385409Y-33323085D01*
X-24385409Y-33323085D01*
G37*
G36*
X-19378436Y-32009389D02*
G01*
X-19187167Y-32088615D01*
X-19187165Y-32088616D01*
X-19015027Y-32203635D01*
X-18868635Y-32350027D01*
X-18754394Y-32521000D01*
X-18753615Y-32522167D01*
X-18674389Y-32713436D01*
X-18634000Y-32916484D01*
X-18634000Y-33123516D01*
X-18674389Y-33326564D01*
X-18733711Y-33469780D01*
X-18753616Y-33517835D01*
X-18868635Y-33689973D01*
X-19015027Y-33836365D01*
X-19187165Y-33951384D01*
X-19187166Y-33951385D01*
X-19187167Y-33951385D01*
X-19378436Y-34030611D01*
X-19581484Y-34071000D01*
X-19788516Y-34071000D01*
X-19991564Y-34030611D01*
X-20182833Y-33951385D01*
X-20182834Y-33951385D01*
X-20182835Y-33951384D01*
X-20354973Y-33836365D01*
X-20501365Y-33689973D01*
X-20616384Y-33517835D01*
X-20636289Y-33469780D01*
X-20695611Y-33326564D01*
X-20736000Y-33123516D01*
X-20736000Y-32916484D01*
X-20695611Y-32713436D01*
X-20616385Y-32522167D01*
X-20615605Y-32521000D01*
X-20501365Y-32350027D01*
X-20354973Y-32203635D01*
X-20182835Y-32088616D01*
X-20182833Y-32088615D01*
X-19991564Y-32009389D01*
X-19788516Y-31969000D01*
X-19581484Y-31969000D01*
X-19378436Y-32009389D01*
X-19378436Y-32009389D01*
G37*
G36*
X-27804000Y-33471000D02*
G01*
X-28806000Y-33471000D01*
X-28806000Y-32569000D01*
X-27804000Y-32569000D01*
X-27804000Y-33471000D01*
X-27804000Y-33471000D01*
G37*
G36*
X-29465409Y-31748085D02*
G01*
X-29431431Y-31758393D01*
X-29400110Y-31775134D01*
X-29372661Y-31797661D01*
X-29350134Y-31825110D01*
X-29333393Y-31856431D01*
X-29323085Y-31890409D01*
X-29319000Y-31931890D01*
X-29319000Y-32533110D01*
X-29323085Y-32574591D01*
X-29333393Y-32608569D01*
X-29350134Y-32639890D01*
X-29372661Y-32667339D01*
X-29400110Y-32689866D01*
X-29431431Y-32706607D01*
X-29465409Y-32716915D01*
X-29506890Y-32721000D01*
X-30183110Y-32721000D01*
X-30224591Y-32716915D01*
X-30258569Y-32706607D01*
X-30289890Y-32689866D01*
X-30317339Y-32667339D01*
X-30339866Y-32639890D01*
X-30356607Y-32608569D01*
X-30366915Y-32574591D01*
X-30371000Y-32533110D01*
X-30371000Y-31931890D01*
X-30366915Y-31890409D01*
X-30356607Y-31856431D01*
X-30339866Y-31825110D01*
X-30317339Y-31797661D01*
X-30289890Y-31775134D01*
X-30258569Y-31758393D01*
X-30224591Y-31748085D01*
X-30183110Y-31744000D01*
X-29506890Y-31744000D01*
X-29465409Y-31748085D01*
X-29465409Y-31748085D01*
G37*
G36*
X-24385409Y-31748085D02*
G01*
X-24351431Y-31758393D01*
X-24320110Y-31775134D01*
X-24292661Y-31797661D01*
X-24270134Y-31825110D01*
X-24253393Y-31856431D01*
X-24243085Y-31890409D01*
X-24239000Y-31931890D01*
X-24239000Y-32533110D01*
X-24243085Y-32574591D01*
X-24253393Y-32608569D01*
X-24270134Y-32639890D01*
X-24292661Y-32667339D01*
X-24320110Y-32689866D01*
X-24351431Y-32706607D01*
X-24385409Y-32716915D01*
X-24426890Y-32721000D01*
X-25103110Y-32721000D01*
X-25144591Y-32716915D01*
X-25178569Y-32706607D01*
X-25209890Y-32689866D01*
X-25237339Y-32667339D01*
X-25259866Y-32639890D01*
X-25276607Y-32608569D01*
X-25286915Y-32574591D01*
X-25291000Y-32533110D01*
X-25291000Y-31931890D01*
X-25286915Y-31890409D01*
X-25276607Y-31856431D01*
X-25259866Y-31825110D01*
X-25237339Y-31797661D01*
X-25209890Y-31775134D01*
X-25178569Y-31758393D01*
X-25144591Y-31748085D01*
X-25103110Y-31744000D01*
X-24426890Y-31744000D01*
X-24385409Y-31748085D01*
X-24385409Y-31748085D01*
G37*
G36*
X-25804000Y-32521000D02*
G01*
X-26806000Y-32521000D01*
X-26806000Y-31619000D01*
X-25804000Y-31619000D01*
X-25804000Y-32521000D01*
X-25804000Y-32521000D01*
G37*
G36*
X29389294Y-29578633D02*
G01*
X29561695Y-29630931D01*
X29720583Y-29715858D01*
X29859849Y-29830151D01*
X29974142Y-29969417D01*
X30059069Y-30128305D01*
X30111367Y-30300706D01*
X30129025Y-30480000D01*
X30111367Y-30659294D01*
X30059069Y-30831695D01*
X29974142Y-30990583D01*
X29859849Y-31129849D01*
X29720583Y-31244142D01*
X29561695Y-31329069D01*
X29389294Y-31381367D01*
X29254931Y-31394600D01*
X29165069Y-31394600D01*
X29030706Y-31381367D01*
X28858305Y-31329069D01*
X28699417Y-31244142D01*
X28560151Y-31129849D01*
X28445858Y-30990583D01*
X28360931Y-30831695D01*
X28308633Y-30659294D01*
X28290975Y-30480000D01*
X28308633Y-30300706D01*
X28360931Y-30128305D01*
X28445858Y-29969417D01*
X28560151Y-29830151D01*
X28699417Y-29715858D01*
X28858305Y-29630931D01*
X29030706Y-29578633D01*
X29165069Y-29565400D01*
X29254931Y-29565400D01*
X29389294Y-29578633D01*
X29389294Y-29578633D01*
G37*
G36*
X34469294Y-29578633D02*
G01*
X34641695Y-29630931D01*
X34800583Y-29715858D01*
X34939849Y-29830151D01*
X35054142Y-29969417D01*
X35139069Y-30128305D01*
X35191367Y-30300706D01*
X35209025Y-30480000D01*
X35191367Y-30659294D01*
X35139069Y-30831695D01*
X35054142Y-30990583D01*
X34939849Y-31129849D01*
X34800583Y-31244142D01*
X34641695Y-31329069D01*
X34469294Y-31381367D01*
X34334931Y-31394600D01*
X34245069Y-31394600D01*
X34110706Y-31381367D01*
X33938305Y-31329069D01*
X33779417Y-31244142D01*
X33640151Y-31129849D01*
X33525858Y-30990583D01*
X33440931Y-30831695D01*
X33388633Y-30659294D01*
X33370975Y-30480000D01*
X33388633Y-30300706D01*
X33440931Y-30128305D01*
X33525858Y-29969417D01*
X33640151Y-29830151D01*
X33779417Y-29715858D01*
X33938305Y-29630931D01*
X34110706Y-29578633D01*
X34245069Y-29565400D01*
X34334931Y-29565400D01*
X34469294Y-29578633D01*
X34469294Y-29578633D01*
G37*
G36*
X31929294Y-29578633D02*
G01*
X32101695Y-29630931D01*
X32260583Y-29715858D01*
X32399849Y-29830151D01*
X32514142Y-29969417D01*
X32599069Y-30128305D01*
X32651367Y-30300706D01*
X32669025Y-30480000D01*
X32651367Y-30659294D01*
X32599069Y-30831695D01*
X32514142Y-30990583D01*
X32399849Y-31129849D01*
X32260583Y-31244142D01*
X32101695Y-31329069D01*
X31929294Y-31381367D01*
X31794931Y-31394600D01*
X31705069Y-31394600D01*
X31570706Y-31381367D01*
X31398305Y-31329069D01*
X31239417Y-31244142D01*
X31100151Y-31129849D01*
X30985858Y-30990583D01*
X30900931Y-30831695D01*
X30848633Y-30659294D01*
X30830975Y-30480000D01*
X30848633Y-30300706D01*
X30900931Y-30128305D01*
X30985858Y-29969417D01*
X31100151Y-29830151D01*
X31239417Y-29715858D01*
X31398305Y-29630931D01*
X31570706Y-29578633D01*
X31705069Y-29565400D01*
X31794931Y-29565400D01*
X31929294Y-29578633D01*
X31929294Y-29578633D01*
G37*
G36*
X26849294Y-29578633D02*
G01*
X27021695Y-29630931D01*
X27180583Y-29715858D01*
X27319849Y-29830151D01*
X27434142Y-29969417D01*
X27519069Y-30128305D01*
X27571367Y-30300706D01*
X27589025Y-30480000D01*
X27571367Y-30659294D01*
X27519069Y-30831695D01*
X27434142Y-30990583D01*
X27319849Y-31129849D01*
X27180583Y-31244142D01*
X27021695Y-31329069D01*
X26849294Y-31381367D01*
X26714931Y-31394600D01*
X26625069Y-31394600D01*
X26490706Y-31381367D01*
X26318305Y-31329069D01*
X26159417Y-31244142D01*
X26020151Y-31129849D01*
X25905858Y-30990583D01*
X25820931Y-30831695D01*
X25768633Y-30659294D01*
X25750975Y-30480000D01*
X25768633Y-30300706D01*
X25820931Y-30128305D01*
X25905858Y-29969417D01*
X26020151Y-29830151D01*
X26159417Y-29715858D01*
X26318305Y-29630931D01*
X26490706Y-29578633D01*
X26625069Y-29565400D01*
X26714931Y-29565400D01*
X26849294Y-29578633D01*
X26849294Y-29578633D01*
G37*
G36*
X24309294Y-29578633D02*
G01*
X24481695Y-29630931D01*
X24640583Y-29715858D01*
X24779849Y-29830151D01*
X24894142Y-29969417D01*
X24979069Y-30128305D01*
X25031367Y-30300706D01*
X25049025Y-30480000D01*
X25031367Y-30659294D01*
X24979069Y-30831695D01*
X24894142Y-30990583D01*
X24779849Y-31129849D01*
X24640583Y-31244142D01*
X24481695Y-31329069D01*
X24309294Y-31381367D01*
X24174931Y-31394600D01*
X24085069Y-31394600D01*
X23950706Y-31381367D01*
X23778305Y-31329069D01*
X23619417Y-31244142D01*
X23480151Y-31129849D01*
X23365858Y-30990583D01*
X23280931Y-30831695D01*
X23228633Y-30659294D01*
X23210975Y-30480000D01*
X23228633Y-30300706D01*
X23280931Y-30128305D01*
X23365858Y-29969417D01*
X23480151Y-29830151D01*
X23619417Y-29715858D01*
X23778305Y-29630931D01*
X23950706Y-29578633D01*
X24085069Y-29565400D01*
X24174931Y-29565400D01*
X24309294Y-29578633D01*
X24309294Y-29578633D01*
G37*
G36*
X19229294Y-29578633D02*
G01*
X19401695Y-29630931D01*
X19560583Y-29715858D01*
X19699849Y-29830151D01*
X19814142Y-29969417D01*
X19899069Y-30128305D01*
X19951367Y-30300706D01*
X19969025Y-30480000D01*
X19951367Y-30659294D01*
X19899069Y-30831695D01*
X19814142Y-30990583D01*
X19699849Y-31129849D01*
X19560583Y-31244142D01*
X19401695Y-31329069D01*
X19229294Y-31381367D01*
X19094931Y-31394600D01*
X19005069Y-31394600D01*
X18870706Y-31381367D01*
X18698305Y-31329069D01*
X18539417Y-31244142D01*
X18400151Y-31129849D01*
X18285858Y-30990583D01*
X18200931Y-30831695D01*
X18148633Y-30659294D01*
X18130975Y-30480000D01*
X18148633Y-30300706D01*
X18200931Y-30128305D01*
X18285858Y-29969417D01*
X18400151Y-29830151D01*
X18539417Y-29715858D01*
X18698305Y-29630931D01*
X18870706Y-29578633D01*
X19005069Y-29565400D01*
X19094931Y-29565400D01*
X19229294Y-29578633D01*
X19229294Y-29578633D01*
G37*
G36*
X12344600Y-31394600D02*
G01*
X10515400Y-31394600D01*
X10515400Y-29565400D01*
X12344600Y-29565400D01*
X12344600Y-31394600D01*
X12344600Y-31394600D01*
G37*
G36*
X16689294Y-29578633D02*
G01*
X16861695Y-29630931D01*
X17020583Y-29715858D01*
X17159849Y-29830151D01*
X17274142Y-29969417D01*
X17359069Y-30128305D01*
X17411367Y-30300706D01*
X17429025Y-30480000D01*
X17411367Y-30659294D01*
X17359069Y-30831695D01*
X17274142Y-30990583D01*
X17159849Y-31129849D01*
X17020583Y-31244142D01*
X16861695Y-31329069D01*
X16689294Y-31381367D01*
X16554931Y-31394600D01*
X16465069Y-31394600D01*
X16330706Y-31381367D01*
X16158305Y-31329069D01*
X15999417Y-31244142D01*
X15860151Y-31129849D01*
X15745858Y-30990583D01*
X15660931Y-30831695D01*
X15608633Y-30659294D01*
X15590975Y-30480000D01*
X15608633Y-30300706D01*
X15660931Y-30128305D01*
X15745858Y-29969417D01*
X15860151Y-29830151D01*
X15999417Y-29715858D01*
X16158305Y-29630931D01*
X16330706Y-29578633D01*
X16465069Y-29565400D01*
X16554931Y-29565400D01*
X16689294Y-29578633D01*
X16689294Y-29578633D01*
G37*
G36*
X14149294Y-29578633D02*
G01*
X14321695Y-29630931D01*
X14480583Y-29715858D01*
X14619849Y-29830151D01*
X14734142Y-29969417D01*
X14819069Y-30128305D01*
X14871367Y-30300706D01*
X14889025Y-30480000D01*
X14871367Y-30659294D01*
X14819069Y-30831695D01*
X14734142Y-30990583D01*
X14619849Y-31129849D01*
X14480583Y-31244142D01*
X14321695Y-31329069D01*
X14149294Y-31381367D01*
X14014931Y-31394600D01*
X13925069Y-31394600D01*
X13790706Y-31381367D01*
X13618305Y-31329069D01*
X13459417Y-31244142D01*
X13320151Y-31129849D01*
X13205858Y-30990583D01*
X13120931Y-30831695D01*
X13068633Y-30659294D01*
X13050975Y-30480000D01*
X13068633Y-30300706D01*
X13120931Y-30128305D01*
X13205858Y-29969417D01*
X13320151Y-29830151D01*
X13459417Y-29715858D01*
X13618305Y-29630931D01*
X13790706Y-29578633D01*
X13925069Y-29565400D01*
X14014931Y-29565400D01*
X14149294Y-29578633D01*
X14149294Y-29578633D01*
G37*
G36*
X21769294Y-29578633D02*
G01*
X21941695Y-29630931D01*
X22100583Y-29715858D01*
X22239849Y-29830151D01*
X22354142Y-29969417D01*
X22439069Y-30128305D01*
X22491367Y-30300706D01*
X22509025Y-30480000D01*
X22491367Y-30659294D01*
X22439069Y-30831695D01*
X22354142Y-30990583D01*
X22239849Y-31129849D01*
X22100583Y-31244142D01*
X21941695Y-31329069D01*
X21769294Y-31381367D01*
X21634931Y-31394600D01*
X21545069Y-31394600D01*
X21410706Y-31381367D01*
X21238305Y-31329069D01*
X21079417Y-31244142D01*
X20940151Y-31129849D01*
X20825858Y-30990583D01*
X20740931Y-30831695D01*
X20688633Y-30659294D01*
X20670975Y-30480000D01*
X20688633Y-30300706D01*
X20740931Y-30128305D01*
X20825858Y-29969417D01*
X20940151Y-29830151D01*
X21079417Y-29715858D01*
X21238305Y-29630931D01*
X21410706Y-29578633D01*
X21545069Y-29565400D01*
X21634931Y-29565400D01*
X21769294Y-29578633D01*
X21769294Y-29578633D01*
G37*
G36*
X-24385409Y-30148085D02*
G01*
X-24351431Y-30158393D01*
X-24320110Y-30175134D01*
X-24292661Y-30197661D01*
X-24270134Y-30225110D01*
X-24253393Y-30256431D01*
X-24243085Y-30290409D01*
X-24239000Y-30331890D01*
X-24239000Y-30933110D01*
X-24243085Y-30974591D01*
X-24253393Y-31008569D01*
X-24270134Y-31039890D01*
X-24292661Y-31067339D01*
X-24320110Y-31089866D01*
X-24351431Y-31106607D01*
X-24385409Y-31116915D01*
X-24426890Y-31121000D01*
X-25103110Y-31121000D01*
X-25144591Y-31116915D01*
X-25178569Y-31106607D01*
X-25209890Y-31089866D01*
X-25237339Y-31067339D01*
X-25259866Y-31039890D01*
X-25276607Y-31008569D01*
X-25286915Y-30974591D01*
X-25291000Y-30933110D01*
X-25291000Y-30331890D01*
X-25286915Y-30290409D01*
X-25276607Y-30256431D01*
X-25259866Y-30225110D01*
X-25237339Y-30197661D01*
X-25209890Y-30175134D01*
X-25178569Y-30158393D01*
X-25144591Y-30148085D01*
X-25103110Y-30144000D01*
X-24426890Y-30144000D01*
X-24385409Y-30148085D01*
X-24385409Y-30148085D01*
G37*
G36*
X-21845409Y-30148085D02*
G01*
X-21811431Y-30158393D01*
X-21780110Y-30175134D01*
X-21752661Y-30197661D01*
X-21730134Y-30225110D01*
X-21713393Y-30256431D01*
X-21703085Y-30290409D01*
X-21699000Y-30331890D01*
X-21699000Y-30933110D01*
X-21703085Y-30974591D01*
X-21713393Y-31008569D01*
X-21730134Y-31039890D01*
X-21752661Y-31067339D01*
X-21780110Y-31089866D01*
X-21811431Y-31106607D01*
X-21845409Y-31116915D01*
X-21886890Y-31121000D01*
X-22563110Y-31121000D01*
X-22604591Y-31116915D01*
X-22638569Y-31106607D01*
X-22669890Y-31089866D01*
X-22697339Y-31067339D01*
X-22719866Y-31039890D01*
X-22736607Y-31008569D01*
X-22746915Y-30974591D01*
X-22751000Y-30933110D01*
X-22751000Y-30331890D01*
X-22746915Y-30290409D01*
X-22736607Y-30256431D01*
X-22719866Y-30225110D01*
X-22697339Y-30197661D01*
X-22669890Y-30175134D01*
X-22638569Y-30158393D01*
X-22604591Y-30148085D01*
X-22563110Y-30144000D01*
X-21886890Y-30144000D01*
X-21845409Y-30148085D01*
X-21845409Y-30148085D01*
G37*
G36*
X-25789000Y-30496000D02*
G01*
X-26791000Y-30496000D01*
X-26791000Y-29194000D01*
X-25789000Y-29194000D01*
X-25789000Y-30496000D01*
X-25789000Y-30496000D01*
G37*
G36*
X-29089000Y-30496000D02*
G01*
X-30091000Y-30496000D01*
X-30091000Y-29194000D01*
X-29089000Y-29194000D01*
X-29089000Y-30496000D01*
X-29089000Y-30496000D01*
G37*
G36*
X-24385409Y-28573085D02*
G01*
X-24351431Y-28583393D01*
X-24320110Y-28600134D01*
X-24292661Y-28622661D01*
X-24270134Y-28650110D01*
X-24253393Y-28681431D01*
X-24243085Y-28715409D01*
X-24239000Y-28756890D01*
X-24239000Y-29358110D01*
X-24243085Y-29399591D01*
X-24253393Y-29433569D01*
X-24270134Y-29464890D01*
X-24292661Y-29492339D01*
X-24320110Y-29514866D01*
X-24351431Y-29531607D01*
X-24385409Y-29541915D01*
X-24426890Y-29546000D01*
X-25103110Y-29546000D01*
X-25144591Y-29541915D01*
X-25178569Y-29531607D01*
X-25209890Y-29514866D01*
X-25237339Y-29492339D01*
X-25259866Y-29464890D01*
X-25276607Y-29433569D01*
X-25286915Y-29399591D01*
X-25291000Y-29358110D01*
X-25291000Y-28756890D01*
X-25286915Y-28715409D01*
X-25276607Y-28681431D01*
X-25259866Y-28650110D01*
X-25237339Y-28622661D01*
X-25209890Y-28600134D01*
X-25178569Y-28583393D01*
X-25144591Y-28573085D01*
X-25103110Y-28569000D01*
X-24426890Y-28569000D01*
X-24385409Y-28573085D01*
X-24385409Y-28573085D01*
G37*
G36*
X-21845409Y-28573085D02*
G01*
X-21811431Y-28583393D01*
X-21780110Y-28600134D01*
X-21752661Y-28622661D01*
X-21730134Y-28650110D01*
X-21713393Y-28681431D01*
X-21703085Y-28715409D01*
X-21699000Y-28756890D01*
X-21699000Y-29358110D01*
X-21703085Y-29399591D01*
X-21713393Y-29433569D01*
X-21730134Y-29464890D01*
X-21752661Y-29492339D01*
X-21780110Y-29514866D01*
X-21811431Y-29531607D01*
X-21845409Y-29541915D01*
X-21886890Y-29546000D01*
X-22563110Y-29546000D01*
X-22604591Y-29541915D01*
X-22638569Y-29531607D01*
X-22669890Y-29514866D01*
X-22697339Y-29492339D01*
X-22719866Y-29464890D01*
X-22736607Y-29433569D01*
X-22746915Y-29399591D01*
X-22751000Y-29358110D01*
X-22751000Y-28756890D01*
X-22746915Y-28715409D01*
X-22736607Y-28681431D01*
X-22719866Y-28650110D01*
X-22697339Y-28622661D01*
X-22669890Y-28600134D01*
X-22638569Y-28583393D01*
X-22604591Y-28573085D01*
X-22563110Y-28569000D01*
X-21886890Y-28569000D01*
X-21845409Y-28573085D01*
X-21845409Y-28573085D01*
G37*
G36*
X-34153374Y-26902037D02*
G01*
X-33983535Y-26953557D01*
X-33983533Y-26953558D01*
X-33827011Y-27037221D01*
X-33689814Y-27149814D01*
X-33606996Y-27250730D01*
X-33577222Y-27287009D01*
X-33577221Y-27287011D01*
X-33500038Y-27431408D01*
X-33493557Y-27443534D01*
X-33442037Y-27613373D01*
X-33429000Y-27745742D01*
X-33429000Y-28134257D01*
X-33442037Y-28266626D01*
X-33493557Y-28436466D01*
X-33577222Y-28592991D01*
X-33591159Y-28609973D01*
X-33689814Y-28730186D01*
X-33784750Y-28808097D01*
X-33827009Y-28842778D01*
X-33983534Y-28926443D01*
X-34153373Y-28977963D01*
X-34330000Y-28995359D01*
X-34506626Y-28977963D01*
X-34676465Y-28926443D01*
X-34832990Y-28842778D01*
X-34970185Y-28730185D01*
X-35082778Y-28592991D01*
X-35166443Y-28436466D01*
X-35217963Y-28266627D01*
X-35231000Y-28134258D01*
X-35231000Y-27745743D01*
X-35217963Y-27613374D01*
X-35166443Y-27443535D01*
X-35091641Y-27303591D01*
X-35082779Y-27287011D01*
X-34970186Y-27149814D01*
X-34868729Y-27066552D01*
X-34832991Y-27037222D01*
X-34676466Y-26953557D01*
X-34506627Y-26902037D01*
X-34330000Y-26884641D01*
X-34153374Y-26902037D01*
X-34153374Y-26902037D01*
G37*
G36*
X-41603436Y-26929389D02*
G01*
X-41436954Y-26998348D01*
X-41412165Y-27008616D01*
X-41240027Y-27123635D01*
X-41093635Y-27270027D01*
X-41034005Y-27359269D01*
X-40978615Y-27442167D01*
X-40899389Y-27633436D01*
X-40859000Y-27836484D01*
X-40859000Y-28043516D01*
X-40899389Y-28246564D01*
X-40978049Y-28436466D01*
X-40978616Y-28437835D01*
X-41093635Y-28609973D01*
X-41240027Y-28756365D01*
X-41412165Y-28871384D01*
X-41412166Y-28871385D01*
X-41412167Y-28871385D01*
X-41603436Y-28950611D01*
X-41806484Y-28991000D01*
X-42013516Y-28991000D01*
X-42216564Y-28950611D01*
X-42407833Y-28871385D01*
X-42407834Y-28871385D01*
X-42407835Y-28871384D01*
X-42579973Y-28756365D01*
X-42726365Y-28609973D01*
X-42841384Y-28437835D01*
X-42841951Y-28436466D01*
X-42920611Y-28246564D01*
X-42961000Y-28043516D01*
X-42961000Y-27836484D01*
X-42920611Y-27633436D01*
X-42841385Y-27442167D01*
X-42785994Y-27359269D01*
X-42726365Y-27270027D01*
X-42579973Y-27123635D01*
X-42407835Y-27008616D01*
X-42383046Y-26998348D01*
X-42216564Y-26929389D01*
X-42013516Y-26889000D01*
X-41806484Y-26889000D01*
X-41603436Y-26929389D01*
X-41603436Y-26929389D01*
G37*
G36*
X-36071400Y-26892989D02*
G01*
X-36038348Y-26903015D01*
X-36007897Y-26919292D01*
X-35981201Y-26941201D01*
X-35959292Y-26967897D01*
X-35943015Y-26998348D01*
X-35932989Y-27031400D01*
X-35929000Y-27071903D01*
X-35929000Y-28808097D01*
X-35932989Y-28848600D01*
X-35943015Y-28881652D01*
X-35959292Y-28912103D01*
X-35981201Y-28938799D01*
X-36007897Y-28960708D01*
X-36038348Y-28976985D01*
X-36071400Y-28987011D01*
X-36111903Y-28991000D01*
X-37548097Y-28991000D01*
X-37588600Y-28987011D01*
X-37621652Y-28976985D01*
X-37652103Y-28960708D01*
X-37678799Y-28938799D01*
X-37700708Y-28912103D01*
X-37716985Y-28881652D01*
X-37727011Y-28848600D01*
X-37731000Y-28808097D01*
X-37731000Y-27071903D01*
X-37727011Y-27031400D01*
X-37716985Y-26998348D01*
X-37700708Y-26967897D01*
X-37678799Y-26941201D01*
X-37652103Y-26919292D01*
X-37621652Y-26903015D01*
X-37588600Y-26892989D01*
X-37548097Y-26889000D01*
X-36111903Y-26889000D01*
X-36071400Y-26892989D01*
X-36071400Y-26892989D01*
G37*
G36*
X21769294Y-27038633D02*
G01*
X21941695Y-27090931D01*
X22100583Y-27175858D01*
X22239849Y-27290151D01*
X22354142Y-27429417D01*
X22439069Y-27588305D01*
X22491367Y-27760706D01*
X22509025Y-27940000D01*
X22491367Y-28119294D01*
X22439069Y-28291695D01*
X22354142Y-28450583D01*
X22239849Y-28589849D01*
X22100583Y-28704142D01*
X21941695Y-28789069D01*
X21769294Y-28841367D01*
X21634931Y-28854600D01*
X21545069Y-28854600D01*
X21410706Y-28841367D01*
X21238305Y-28789069D01*
X21079417Y-28704142D01*
X20940151Y-28589849D01*
X20825858Y-28450583D01*
X20740931Y-28291695D01*
X20688633Y-28119294D01*
X20670975Y-27940000D01*
X20688633Y-27760706D01*
X20740931Y-27588305D01*
X20825858Y-27429417D01*
X20940151Y-27290151D01*
X21079417Y-27175858D01*
X21238305Y-27090931D01*
X21410706Y-27038633D01*
X21545069Y-27025400D01*
X21634931Y-27025400D01*
X21769294Y-27038633D01*
X21769294Y-27038633D01*
G37*
G36*
X11609294Y-27038633D02*
G01*
X11781695Y-27090931D01*
X11940583Y-27175858D01*
X12079849Y-27290151D01*
X12194142Y-27429417D01*
X12279069Y-27588305D01*
X12331367Y-27760706D01*
X12349025Y-27940000D01*
X12331367Y-28119294D01*
X12279069Y-28291695D01*
X12194142Y-28450583D01*
X12079849Y-28589849D01*
X11940583Y-28704142D01*
X11781695Y-28789069D01*
X11609294Y-28841367D01*
X11474931Y-28854600D01*
X11385069Y-28854600D01*
X11250706Y-28841367D01*
X11078305Y-28789069D01*
X10919417Y-28704142D01*
X10780151Y-28589849D01*
X10665858Y-28450583D01*
X10580931Y-28291695D01*
X10528633Y-28119294D01*
X10510975Y-27940000D01*
X10528633Y-27760706D01*
X10580931Y-27588305D01*
X10665858Y-27429417D01*
X10780151Y-27290151D01*
X10919417Y-27175858D01*
X11078305Y-27090931D01*
X11250706Y-27038633D01*
X11385069Y-27025400D01*
X11474931Y-27025400D01*
X11609294Y-27038633D01*
X11609294Y-27038633D01*
G37*
G36*
X14149294Y-27038633D02*
G01*
X14321695Y-27090931D01*
X14480583Y-27175858D01*
X14619849Y-27290151D01*
X14734142Y-27429417D01*
X14819069Y-27588305D01*
X14871367Y-27760706D01*
X14889025Y-27940000D01*
X14871367Y-28119294D01*
X14819069Y-28291695D01*
X14734142Y-28450583D01*
X14619849Y-28589849D01*
X14480583Y-28704142D01*
X14321695Y-28789069D01*
X14149294Y-28841367D01*
X14014931Y-28854600D01*
X13925069Y-28854600D01*
X13790706Y-28841367D01*
X13618305Y-28789069D01*
X13459417Y-28704142D01*
X13320151Y-28589849D01*
X13205858Y-28450583D01*
X13120931Y-28291695D01*
X13068633Y-28119294D01*
X13050975Y-27940000D01*
X13068633Y-27760706D01*
X13120931Y-27588305D01*
X13205858Y-27429417D01*
X13320151Y-27290151D01*
X13459417Y-27175858D01*
X13618305Y-27090931D01*
X13790706Y-27038633D01*
X13925069Y-27025400D01*
X14014931Y-27025400D01*
X14149294Y-27038633D01*
X14149294Y-27038633D01*
G37*
G36*
X16689294Y-27038633D02*
G01*
X16861695Y-27090931D01*
X17020583Y-27175858D01*
X17159849Y-27290151D01*
X17274142Y-27429417D01*
X17359069Y-27588305D01*
X17411367Y-27760706D01*
X17429025Y-27940000D01*
X17411367Y-28119294D01*
X17359069Y-28291695D01*
X17274142Y-28450583D01*
X17159849Y-28589849D01*
X17020583Y-28704142D01*
X16861695Y-28789069D01*
X16689294Y-28841367D01*
X16554931Y-28854600D01*
X16465069Y-28854600D01*
X16330706Y-28841367D01*
X16158305Y-28789069D01*
X15999417Y-28704142D01*
X15860151Y-28589849D01*
X15745858Y-28450583D01*
X15660931Y-28291695D01*
X15608633Y-28119294D01*
X15590975Y-27940000D01*
X15608633Y-27760706D01*
X15660931Y-27588305D01*
X15745858Y-27429417D01*
X15860151Y-27290151D01*
X15999417Y-27175858D01*
X16158305Y-27090931D01*
X16330706Y-27038633D01*
X16465069Y-27025400D01*
X16554931Y-27025400D01*
X16689294Y-27038633D01*
X16689294Y-27038633D01*
G37*
G36*
X19229294Y-27038633D02*
G01*
X19401695Y-27090931D01*
X19560583Y-27175858D01*
X19699849Y-27290151D01*
X19814142Y-27429417D01*
X19899069Y-27588305D01*
X19951367Y-27760706D01*
X19969025Y-27940000D01*
X19951367Y-28119294D01*
X19899069Y-28291695D01*
X19814142Y-28450583D01*
X19699849Y-28589849D01*
X19560583Y-28704142D01*
X19401695Y-28789069D01*
X19229294Y-28841367D01*
X19094931Y-28854600D01*
X19005069Y-28854600D01*
X18870706Y-28841367D01*
X18698305Y-28789069D01*
X18539417Y-28704142D01*
X18400151Y-28589849D01*
X18285858Y-28450583D01*
X18200931Y-28291695D01*
X18148633Y-28119294D01*
X18130975Y-27940000D01*
X18148633Y-27760706D01*
X18200931Y-27588305D01*
X18285858Y-27429417D01*
X18400151Y-27290151D01*
X18539417Y-27175858D01*
X18698305Y-27090931D01*
X18870706Y-27038633D01*
X19005069Y-27025400D01*
X19094931Y-27025400D01*
X19229294Y-27038633D01*
X19229294Y-27038633D01*
G37*
G36*
X24309294Y-27038633D02*
G01*
X24481695Y-27090931D01*
X24640583Y-27175858D01*
X24779849Y-27290151D01*
X24894142Y-27429417D01*
X24979069Y-27588305D01*
X25031367Y-27760706D01*
X25049025Y-27940000D01*
X25031367Y-28119294D01*
X24979069Y-28291695D01*
X24894142Y-28450583D01*
X24779849Y-28589849D01*
X24640583Y-28704142D01*
X24481695Y-28789069D01*
X24309294Y-28841367D01*
X24174931Y-28854600D01*
X24085069Y-28854600D01*
X23950706Y-28841367D01*
X23778305Y-28789069D01*
X23619417Y-28704142D01*
X23480151Y-28589849D01*
X23365858Y-28450583D01*
X23280931Y-28291695D01*
X23228633Y-28119294D01*
X23210975Y-27940000D01*
X23228633Y-27760706D01*
X23280931Y-27588305D01*
X23365858Y-27429417D01*
X23480151Y-27290151D01*
X23619417Y-27175858D01*
X23778305Y-27090931D01*
X23950706Y-27038633D01*
X24085069Y-27025400D01*
X24174931Y-27025400D01*
X24309294Y-27038633D01*
X24309294Y-27038633D01*
G37*
G36*
X26849294Y-27038633D02*
G01*
X27021695Y-27090931D01*
X27180583Y-27175858D01*
X27319849Y-27290151D01*
X27434142Y-27429417D01*
X27519069Y-27588305D01*
X27571367Y-27760706D01*
X27589025Y-27940000D01*
X27571367Y-28119294D01*
X27519069Y-28291695D01*
X27434142Y-28450583D01*
X27319849Y-28589849D01*
X27180583Y-28704142D01*
X27021695Y-28789069D01*
X26849294Y-28841367D01*
X26714931Y-28854600D01*
X26625069Y-28854600D01*
X26490706Y-28841367D01*
X26318305Y-28789069D01*
X26159417Y-28704142D01*
X26020151Y-28589849D01*
X25905858Y-28450583D01*
X25820931Y-28291695D01*
X25768633Y-28119294D01*
X25750975Y-27940000D01*
X25768633Y-27760706D01*
X25820931Y-27588305D01*
X25905858Y-27429417D01*
X26020151Y-27290151D01*
X26159417Y-27175858D01*
X26318305Y-27090931D01*
X26490706Y-27038633D01*
X26625069Y-27025400D01*
X26714931Y-27025400D01*
X26849294Y-27038633D01*
X26849294Y-27038633D01*
G37*
G36*
X31929294Y-27038633D02*
G01*
X32101695Y-27090931D01*
X32260583Y-27175858D01*
X32399849Y-27290151D01*
X32514142Y-27429417D01*
X32599069Y-27588305D01*
X32651367Y-27760706D01*
X32669025Y-27940000D01*
X32651367Y-28119294D01*
X32599069Y-28291695D01*
X32514142Y-28450583D01*
X32399849Y-28589849D01*
X32260583Y-28704142D01*
X32101695Y-28789069D01*
X31929294Y-28841367D01*
X31794931Y-28854600D01*
X31705069Y-28854600D01*
X31570706Y-28841367D01*
X31398305Y-28789069D01*
X31239417Y-28704142D01*
X31100151Y-28589849D01*
X30985858Y-28450583D01*
X30900931Y-28291695D01*
X30848633Y-28119294D01*
X30830975Y-27940000D01*
X30848633Y-27760706D01*
X30900931Y-27588305D01*
X30985858Y-27429417D01*
X31100151Y-27290151D01*
X31239417Y-27175858D01*
X31398305Y-27090931D01*
X31570706Y-27038633D01*
X31705069Y-27025400D01*
X31794931Y-27025400D01*
X31929294Y-27038633D01*
X31929294Y-27038633D01*
G37*
G36*
X29389294Y-27038633D02*
G01*
X29561695Y-27090931D01*
X29720583Y-27175858D01*
X29859849Y-27290151D01*
X29974142Y-27429417D01*
X30059069Y-27588305D01*
X30111367Y-27760706D01*
X30129025Y-27940000D01*
X30111367Y-28119294D01*
X30059069Y-28291695D01*
X29974142Y-28450583D01*
X29859849Y-28589849D01*
X29720583Y-28704142D01*
X29561695Y-28789069D01*
X29389294Y-28841367D01*
X29254931Y-28854600D01*
X29165069Y-28854600D01*
X29030706Y-28841367D01*
X28858305Y-28789069D01*
X28699417Y-28704142D01*
X28560151Y-28589849D01*
X28445858Y-28450583D01*
X28360931Y-28291695D01*
X28308633Y-28119294D01*
X28290975Y-27940000D01*
X28308633Y-27760706D01*
X28360931Y-27588305D01*
X28445858Y-27429417D01*
X28560151Y-27290151D01*
X28699417Y-27175858D01*
X28858305Y-27090931D01*
X29030706Y-27038633D01*
X29165069Y-27025400D01*
X29254931Y-27025400D01*
X29389294Y-27038633D01*
X29389294Y-27038633D01*
G37*
G36*
X34469294Y-27038633D02*
G01*
X34641695Y-27090931D01*
X34800583Y-27175858D01*
X34939849Y-27290151D01*
X35054142Y-27429417D01*
X35139069Y-27588305D01*
X35191367Y-27760706D01*
X35209025Y-27940000D01*
X35191367Y-28119294D01*
X35139069Y-28291695D01*
X35054142Y-28450583D01*
X34939849Y-28589849D01*
X34800583Y-28704142D01*
X34641695Y-28789069D01*
X34469294Y-28841367D01*
X34334931Y-28854600D01*
X34245069Y-28854600D01*
X34110706Y-28841367D01*
X33938305Y-28789069D01*
X33779417Y-28704142D01*
X33640151Y-28589849D01*
X33525858Y-28450583D01*
X33440931Y-28291695D01*
X33388633Y-28119294D01*
X33370975Y-27940000D01*
X33388633Y-27760706D01*
X33440931Y-27588305D01*
X33525858Y-27429417D01*
X33640151Y-27290151D01*
X33779417Y-27175858D01*
X33938305Y-27090931D01*
X34110706Y-27038633D01*
X34245069Y-27025400D01*
X34334931Y-27025400D01*
X34469294Y-27038633D01*
X34469294Y-27038633D01*
G37*
G36*
X-4919279Y-26775174D02*
G01*
X-4819005Y-26816709D01*
X-4819004Y-26816710D01*
X-4728758Y-26877010D01*
X-4652010Y-26953758D01*
X-4652009Y-26953760D01*
X-4591709Y-27044005D01*
X-4550174Y-27144279D01*
X-4529000Y-27250730D01*
X-4529000Y-27359270D01*
X-4550174Y-27465721D01*
X-4591709Y-27565995D01*
X-4606616Y-27588305D01*
X-4652010Y-27656242D01*
X-4728758Y-27732990D01*
X-4770238Y-27760706D01*
X-4819005Y-27793291D01*
X-4919279Y-27834826D01*
X-5025730Y-27856000D01*
X-5134270Y-27856000D01*
X-5240721Y-27834826D01*
X-5340995Y-27793291D01*
X-5389762Y-27760706D01*
X-5431242Y-27732990D01*
X-5507990Y-27656242D01*
X-5553384Y-27588305D01*
X-5568291Y-27565995D01*
X-5609826Y-27465721D01*
X-5631000Y-27359270D01*
X-5631000Y-27250730D01*
X-5609826Y-27144279D01*
X-5568291Y-27044005D01*
X-5507991Y-26953760D01*
X-5507990Y-26953758D01*
X-5431242Y-26877010D01*
X-5340996Y-26816710D01*
X-5340995Y-26816709D01*
X-5240721Y-26775174D01*
X-5134270Y-26754000D01*
X-5025730Y-26754000D01*
X-4919279Y-26775174D01*
X-4919279Y-26775174D01*
G37*
G36*
X5240721Y-26775174D02*
G01*
X5340995Y-26816709D01*
X5340996Y-26816710D01*
X5431242Y-26877010D01*
X5507990Y-26953758D01*
X5507991Y-26953760D01*
X5568291Y-27044005D01*
X5609826Y-27144279D01*
X5631000Y-27250730D01*
X5631000Y-27359270D01*
X5609826Y-27465721D01*
X5568291Y-27565995D01*
X5553384Y-27588305D01*
X5507990Y-27656242D01*
X5431242Y-27732990D01*
X5389762Y-27760706D01*
X5340995Y-27793291D01*
X5240721Y-27834826D01*
X5134270Y-27856000D01*
X5025730Y-27856000D01*
X4919279Y-27834826D01*
X4819005Y-27793291D01*
X4770238Y-27760706D01*
X4728758Y-27732990D01*
X4652010Y-27656242D01*
X4606616Y-27588305D01*
X4591709Y-27565995D01*
X4550174Y-27465721D01*
X4529000Y-27359270D01*
X4529000Y-27250730D01*
X4550174Y-27144279D01*
X4591709Y-27044005D01*
X4652009Y-26953760D01*
X4652010Y-26953758D01*
X4728758Y-26877010D01*
X4819004Y-26816710D01*
X4819005Y-26816709D01*
X4919279Y-26775174D01*
X5025730Y-26754000D01*
X5134270Y-26754000D01*
X5240721Y-26775174D01*
X5240721Y-26775174D01*
G37*
G36*
X160721Y-26775174D02*
G01*
X260995Y-26816709D01*
X260996Y-26816710D01*
X351242Y-26877010D01*
X427990Y-26953758D01*
X427991Y-26953760D01*
X488291Y-27044005D01*
X529826Y-27144279D01*
X551000Y-27250730D01*
X551000Y-27359270D01*
X529826Y-27465721D01*
X488291Y-27565995D01*
X473384Y-27588305D01*
X427990Y-27656242D01*
X351242Y-27732990D01*
X309762Y-27760706D01*
X260995Y-27793291D01*
X160721Y-27834826D01*
X54270Y-27856000D01*
X-54270Y-27856000D01*
X-160721Y-27834826D01*
X-260995Y-27793291D01*
X-309762Y-27760706D01*
X-351242Y-27732990D01*
X-427990Y-27656242D01*
X-473384Y-27588305D01*
X-488291Y-27565995D01*
X-529826Y-27465721D01*
X-551000Y-27359270D01*
X-551000Y-27250730D01*
X-529826Y-27144279D01*
X-488291Y-27044005D01*
X-427991Y-26953760D01*
X-427990Y-26953758D01*
X-351242Y-26877010D01*
X-260996Y-26816710D01*
X-260995Y-26816709D01*
X-160721Y-26775174D01*
X-54270Y-26754000D01*
X54270Y-26754000D01*
X160721Y-26775174D01*
X160721Y-26775174D01*
G37*
G36*
X-9999279Y-26775174D02*
G01*
X-9899005Y-26816709D01*
X-9899004Y-26816710D01*
X-9808758Y-26877010D01*
X-9732010Y-26953758D01*
X-9732009Y-26953760D01*
X-9671709Y-27044005D01*
X-9630174Y-27144279D01*
X-9609000Y-27250730D01*
X-9609000Y-27359270D01*
X-9630174Y-27465721D01*
X-9671709Y-27565995D01*
X-9686616Y-27588305D01*
X-9732010Y-27656242D01*
X-9808758Y-27732990D01*
X-9850238Y-27760706D01*
X-9899005Y-27793291D01*
X-9999279Y-27834826D01*
X-10105730Y-27856000D01*
X-10214270Y-27856000D01*
X-10320721Y-27834826D01*
X-10420995Y-27793291D01*
X-10469762Y-27760706D01*
X-10511242Y-27732990D01*
X-10587990Y-27656242D01*
X-10633384Y-27588305D01*
X-10648291Y-27565995D01*
X-10689826Y-27465721D01*
X-10711000Y-27359270D01*
X-10711000Y-27250730D01*
X-10689826Y-27144279D01*
X-10648291Y-27044005D01*
X-10587991Y-26953760D01*
X-10587990Y-26953758D01*
X-10511242Y-26877010D01*
X-10420996Y-26816710D01*
X-10420995Y-26816709D01*
X-10320721Y-26775174D01*
X-10214270Y-26754000D01*
X-10105730Y-26754000D01*
X-9999279Y-26775174D01*
X-9999279Y-26775174D01*
G37*
G36*
X-15079279Y-26775174D02*
G01*
X-14979005Y-26816709D01*
X-14979004Y-26816710D01*
X-14888758Y-26877010D01*
X-14812010Y-26953758D01*
X-14812009Y-26953760D01*
X-14751709Y-27044005D01*
X-14710174Y-27144279D01*
X-14689000Y-27250730D01*
X-14689000Y-27359270D01*
X-14710174Y-27465721D01*
X-14751709Y-27565995D01*
X-14766616Y-27588305D01*
X-14812010Y-27656242D01*
X-14888758Y-27732990D01*
X-14930238Y-27760706D01*
X-14979005Y-27793291D01*
X-15079279Y-27834826D01*
X-15185730Y-27856000D01*
X-15294270Y-27856000D01*
X-15400721Y-27834826D01*
X-15500995Y-27793291D01*
X-15549762Y-27760706D01*
X-15591242Y-27732990D01*
X-15667990Y-27656242D01*
X-15713384Y-27588305D01*
X-15728291Y-27565995D01*
X-15769826Y-27465721D01*
X-15791000Y-27359270D01*
X-15791000Y-27250730D01*
X-15769826Y-27144279D01*
X-15728291Y-27044005D01*
X-15667991Y-26953760D01*
X-15667990Y-26953758D01*
X-15591242Y-26877010D01*
X-15500996Y-26816710D01*
X-15500995Y-26816709D01*
X-15400721Y-26775174D01*
X-15294270Y-26754000D01*
X-15185730Y-26754000D01*
X-15079279Y-26775174D01*
X-15079279Y-26775174D01*
G37*
G36*
X-20159279Y-26775174D02*
G01*
X-20059005Y-26816709D01*
X-20059004Y-26816710D01*
X-19968758Y-26877010D01*
X-19892010Y-26953758D01*
X-19892009Y-26953760D01*
X-19831709Y-27044005D01*
X-19790174Y-27144279D01*
X-19769000Y-27250730D01*
X-19769000Y-27359270D01*
X-19790174Y-27465721D01*
X-19831709Y-27565995D01*
X-19846616Y-27588305D01*
X-19892010Y-27656242D01*
X-19968758Y-27732990D01*
X-20010238Y-27760706D01*
X-20059005Y-27793291D01*
X-20159279Y-27834826D01*
X-20265730Y-27856000D01*
X-20374270Y-27856000D01*
X-20480721Y-27834826D01*
X-20580995Y-27793291D01*
X-20629762Y-27760706D01*
X-20671242Y-27732990D01*
X-20747990Y-27656242D01*
X-20793384Y-27588305D01*
X-20808291Y-27565995D01*
X-20849826Y-27465721D01*
X-20871000Y-27359270D01*
X-20871000Y-27250730D01*
X-20849826Y-27144279D01*
X-20808291Y-27044005D01*
X-20747991Y-26953760D01*
X-20747990Y-26953758D01*
X-20671242Y-26877010D01*
X-20580996Y-26816710D01*
X-20580995Y-26816709D01*
X-20480721Y-26775174D01*
X-20374270Y-26754000D01*
X-20265730Y-26754000D01*
X-20159279Y-26775174D01*
X-20159279Y-26775174D01*
G37*
G36*
X-25239279Y-26775174D02*
G01*
X-25139005Y-26816709D01*
X-25139004Y-26816710D01*
X-25048758Y-26877010D01*
X-24972010Y-26953758D01*
X-24972009Y-26953760D01*
X-24911709Y-27044005D01*
X-24870174Y-27144279D01*
X-24849000Y-27250730D01*
X-24849000Y-27359270D01*
X-24870174Y-27465721D01*
X-24911709Y-27565995D01*
X-24926616Y-27588305D01*
X-24972010Y-27656242D01*
X-25048758Y-27732990D01*
X-25090238Y-27760706D01*
X-25139005Y-27793291D01*
X-25239279Y-27834826D01*
X-25345730Y-27856000D01*
X-25454270Y-27856000D01*
X-25560721Y-27834826D01*
X-25660995Y-27793291D01*
X-25709762Y-27760706D01*
X-25751242Y-27732990D01*
X-25827990Y-27656242D01*
X-25873384Y-27588305D01*
X-25888291Y-27565995D01*
X-25929826Y-27465721D01*
X-25951000Y-27359270D01*
X-25951000Y-27250730D01*
X-25929826Y-27144279D01*
X-25888291Y-27044005D01*
X-25827991Y-26953760D01*
X-25827990Y-26953758D01*
X-25751242Y-26877010D01*
X-25660996Y-26816710D01*
X-25660995Y-26816709D01*
X-25560721Y-26775174D01*
X-25454270Y-26754000D01*
X-25345730Y-26754000D01*
X-25239279Y-26775174D01*
X-25239279Y-26775174D01*
G37*
G36*
X-26810409Y-26402085D02*
G01*
X-26776431Y-26412393D01*
X-26745110Y-26429134D01*
X-26717661Y-26451661D01*
X-26695134Y-26479110D01*
X-26678393Y-26510431D01*
X-26668085Y-26544409D01*
X-26664000Y-26585890D01*
X-26664000Y-27262110D01*
X-26668085Y-27303591D01*
X-26678393Y-27337569D01*
X-26695134Y-27368890D01*
X-26717661Y-27396339D01*
X-26745110Y-27418866D01*
X-26776431Y-27435607D01*
X-26810409Y-27445915D01*
X-26851890Y-27450000D01*
X-27453110Y-27450000D01*
X-27494591Y-27445915D01*
X-27528569Y-27435607D01*
X-27559890Y-27418866D01*
X-27587339Y-27396339D01*
X-27609866Y-27368890D01*
X-27626607Y-27337569D01*
X-27636915Y-27303591D01*
X-27641000Y-27262110D01*
X-27641000Y-26585890D01*
X-27636915Y-26544409D01*
X-27626607Y-26510431D01*
X-27609866Y-26479110D01*
X-27587339Y-26451661D01*
X-27559890Y-26429134D01*
X-27528569Y-26412393D01*
X-27494591Y-26402085D01*
X-27453110Y-26398000D01*
X-26851890Y-26398000D01*
X-26810409Y-26402085D01*
X-26810409Y-26402085D01*
G37*
G36*
X-16650409Y-26402085D02*
G01*
X-16616431Y-26412393D01*
X-16585110Y-26429134D01*
X-16557661Y-26451661D01*
X-16535134Y-26479110D01*
X-16518393Y-26510431D01*
X-16508085Y-26544409D01*
X-16504000Y-26585890D01*
X-16504000Y-27262110D01*
X-16508085Y-27303591D01*
X-16518393Y-27337569D01*
X-16535134Y-27368890D01*
X-16557661Y-27396339D01*
X-16585110Y-27418866D01*
X-16616431Y-27435607D01*
X-16650409Y-27445915D01*
X-16691890Y-27450000D01*
X-17293110Y-27450000D01*
X-17334591Y-27445915D01*
X-17368569Y-27435607D01*
X-17399890Y-27418866D01*
X-17427339Y-27396339D01*
X-17449866Y-27368890D01*
X-17466607Y-27337569D01*
X-17476915Y-27303591D01*
X-17481000Y-27262110D01*
X-17481000Y-26585890D01*
X-17476915Y-26544409D01*
X-17466607Y-26510431D01*
X-17449866Y-26479110D01*
X-17427339Y-26451661D01*
X-17399890Y-26429134D01*
X-17368569Y-26412393D01*
X-17334591Y-26402085D01*
X-17293110Y-26398000D01*
X-16691890Y-26398000D01*
X-16650409Y-26402085D01*
X-16650409Y-26402085D01*
G37*
G36*
X-21730409Y-26402085D02*
G01*
X-21696431Y-26412393D01*
X-21665110Y-26429134D01*
X-21637661Y-26451661D01*
X-21615134Y-26479110D01*
X-21598393Y-26510431D01*
X-21588085Y-26544409D01*
X-21584000Y-26585890D01*
X-21584000Y-27262110D01*
X-21588085Y-27303591D01*
X-21598393Y-27337569D01*
X-21615134Y-27368890D01*
X-21637661Y-27396339D01*
X-21665110Y-27418866D01*
X-21696431Y-27435607D01*
X-21730409Y-27445915D01*
X-21771890Y-27450000D01*
X-22373110Y-27450000D01*
X-22414591Y-27445915D01*
X-22448569Y-27435607D01*
X-22479890Y-27418866D01*
X-22507339Y-27396339D01*
X-22529866Y-27368890D01*
X-22546607Y-27337569D01*
X-22556915Y-27303591D01*
X-22561000Y-27262110D01*
X-22561000Y-26585890D01*
X-22556915Y-26544409D01*
X-22546607Y-26510431D01*
X-22529866Y-26479110D01*
X-22507339Y-26451661D01*
X-22479890Y-26429134D01*
X-22448569Y-26412393D01*
X-22414591Y-26402085D01*
X-22373110Y-26398000D01*
X-21771890Y-26398000D01*
X-21730409Y-26402085D01*
X-21730409Y-26402085D01*
G37*
G36*
X-23305409Y-26402085D02*
G01*
X-23271431Y-26412393D01*
X-23240110Y-26429134D01*
X-23212661Y-26451661D01*
X-23190134Y-26479110D01*
X-23173393Y-26510431D01*
X-23163085Y-26544409D01*
X-23159000Y-26585890D01*
X-23159000Y-27262110D01*
X-23163085Y-27303591D01*
X-23173393Y-27337569D01*
X-23190134Y-27368890D01*
X-23212661Y-27396339D01*
X-23240110Y-27418866D01*
X-23271431Y-27435607D01*
X-23305409Y-27445915D01*
X-23346890Y-27450000D01*
X-23948110Y-27450000D01*
X-23989591Y-27445915D01*
X-24023569Y-27435607D01*
X-24054890Y-27418866D01*
X-24082339Y-27396339D01*
X-24104866Y-27368890D01*
X-24121607Y-27337569D01*
X-24131915Y-27303591D01*
X-24136000Y-27262110D01*
X-24136000Y-26585890D01*
X-24131915Y-26544409D01*
X-24121607Y-26510431D01*
X-24104866Y-26479110D01*
X-24082339Y-26451661D01*
X-24054890Y-26429134D01*
X-24023569Y-26412393D01*
X-23989591Y-26402085D01*
X-23948110Y-26398000D01*
X-23346890Y-26398000D01*
X-23305409Y-26402085D01*
X-23305409Y-26402085D01*
G37*
G36*
X-2985409Y-26402085D02*
G01*
X-2951431Y-26412393D01*
X-2920110Y-26429134D01*
X-2892661Y-26451661D01*
X-2870134Y-26479110D01*
X-2853393Y-26510431D01*
X-2843085Y-26544409D01*
X-2839000Y-26585890D01*
X-2839000Y-27262110D01*
X-2843085Y-27303591D01*
X-2853393Y-27337569D01*
X-2870134Y-27368890D01*
X-2892661Y-27396339D01*
X-2920110Y-27418866D01*
X-2951431Y-27435607D01*
X-2985409Y-27445915D01*
X-3026890Y-27450000D01*
X-3628110Y-27450000D01*
X-3669591Y-27445915D01*
X-3703569Y-27435607D01*
X-3734890Y-27418866D01*
X-3762339Y-27396339D01*
X-3784866Y-27368890D01*
X-3801607Y-27337569D01*
X-3811915Y-27303591D01*
X-3816000Y-27262110D01*
X-3816000Y-26585890D01*
X-3811915Y-26544409D01*
X-3801607Y-26510431D01*
X-3784866Y-26479110D01*
X-3762339Y-26451661D01*
X-3734890Y-26429134D01*
X-3703569Y-26412393D01*
X-3669591Y-26402085D01*
X-3628110Y-26398000D01*
X-3026890Y-26398000D01*
X-2985409Y-26402085D01*
X-2985409Y-26402085D01*
G37*
G36*
X-1410409Y-26402085D02*
G01*
X-1376431Y-26412393D01*
X-1345110Y-26429134D01*
X-1317661Y-26451661D01*
X-1295134Y-26479110D01*
X-1278393Y-26510431D01*
X-1268085Y-26544409D01*
X-1264000Y-26585890D01*
X-1264000Y-27262110D01*
X-1268085Y-27303591D01*
X-1278393Y-27337569D01*
X-1295134Y-27368890D01*
X-1317661Y-27396339D01*
X-1345110Y-27418866D01*
X-1376431Y-27435607D01*
X-1410409Y-27445915D01*
X-1451890Y-27450000D01*
X-2053110Y-27450000D01*
X-2094591Y-27445915D01*
X-2128569Y-27435607D01*
X-2159890Y-27418866D01*
X-2187339Y-27396339D01*
X-2209866Y-27368890D01*
X-2226607Y-27337569D01*
X-2236915Y-27303591D01*
X-2241000Y-27262110D01*
X-2241000Y-26585890D01*
X-2236915Y-26544409D01*
X-2226607Y-26510431D01*
X-2209866Y-26479110D01*
X-2187339Y-26451661D01*
X-2159890Y-26429134D01*
X-2128569Y-26412393D01*
X-2094591Y-26402085D01*
X-2053110Y-26398000D01*
X-1451890Y-26398000D01*
X-1410409Y-26402085D01*
X-1410409Y-26402085D01*
G37*
G36*
X-8065409Y-26402085D02*
G01*
X-8031431Y-26412393D01*
X-8000110Y-26429134D01*
X-7972661Y-26451661D01*
X-7950134Y-26479110D01*
X-7933393Y-26510431D01*
X-7923085Y-26544409D01*
X-7919000Y-26585890D01*
X-7919000Y-27262110D01*
X-7923085Y-27303591D01*
X-7933393Y-27337569D01*
X-7950134Y-27368890D01*
X-7972661Y-27396339D01*
X-8000110Y-27418866D01*
X-8031431Y-27435607D01*
X-8065409Y-27445915D01*
X-8106890Y-27450000D01*
X-8708110Y-27450000D01*
X-8749591Y-27445915D01*
X-8783569Y-27435607D01*
X-8814890Y-27418866D01*
X-8842339Y-27396339D01*
X-8864866Y-27368890D01*
X-8881607Y-27337569D01*
X-8891915Y-27303591D01*
X-8896000Y-27262110D01*
X-8896000Y-26585890D01*
X-8891915Y-26544409D01*
X-8881607Y-26510431D01*
X-8864866Y-26479110D01*
X-8842339Y-26451661D01*
X-8814890Y-26429134D01*
X-8783569Y-26412393D01*
X-8749591Y-26402085D01*
X-8708110Y-26398000D01*
X-8106890Y-26398000D01*
X-8065409Y-26402085D01*
X-8065409Y-26402085D01*
G37*
G36*
X-13145409Y-26402085D02*
G01*
X-13111431Y-26412393D01*
X-13080110Y-26429134D01*
X-13052661Y-26451661D01*
X-13030134Y-26479110D01*
X-13013393Y-26510431D01*
X-13003085Y-26544409D01*
X-12999000Y-26585890D01*
X-12999000Y-27262110D01*
X-13003085Y-27303591D01*
X-13013393Y-27337569D01*
X-13030134Y-27368890D01*
X-13052661Y-27396339D01*
X-13080110Y-27418866D01*
X-13111431Y-27435607D01*
X-13145409Y-27445915D01*
X-13186890Y-27450000D01*
X-13788110Y-27450000D01*
X-13829591Y-27445915D01*
X-13863569Y-27435607D01*
X-13894890Y-27418866D01*
X-13922339Y-27396339D01*
X-13944866Y-27368890D01*
X-13961607Y-27337569D01*
X-13971915Y-27303591D01*
X-13976000Y-27262110D01*
X-13976000Y-26585890D01*
X-13971915Y-26544409D01*
X-13961607Y-26510431D01*
X-13944866Y-26479110D01*
X-13922339Y-26451661D01*
X-13894890Y-26429134D01*
X-13863569Y-26412393D01*
X-13829591Y-26402085D01*
X-13788110Y-26398000D01*
X-13186890Y-26398000D01*
X-13145409Y-26402085D01*
X-13145409Y-26402085D01*
G37*
G36*
X-11570409Y-26402085D02*
G01*
X-11536431Y-26412393D01*
X-11505110Y-26429134D01*
X-11477661Y-26451661D01*
X-11455134Y-26479110D01*
X-11438393Y-26510431D01*
X-11428085Y-26544409D01*
X-11424000Y-26585890D01*
X-11424000Y-27262110D01*
X-11428085Y-27303591D01*
X-11438393Y-27337569D01*
X-11455134Y-27368890D01*
X-11477661Y-27396339D01*
X-11505110Y-27418866D01*
X-11536431Y-27435607D01*
X-11570409Y-27445915D01*
X-11611890Y-27450000D01*
X-12213110Y-27450000D01*
X-12254591Y-27445915D01*
X-12288569Y-27435607D01*
X-12319890Y-27418866D01*
X-12347339Y-27396339D01*
X-12369866Y-27368890D01*
X-12386607Y-27337569D01*
X-12396915Y-27303591D01*
X-12401000Y-27262110D01*
X-12401000Y-26585890D01*
X-12396915Y-26544409D01*
X-12386607Y-26510431D01*
X-12369866Y-26479110D01*
X-12347339Y-26451661D01*
X-12319890Y-26429134D01*
X-12288569Y-26412393D01*
X-12254591Y-26402085D01*
X-12213110Y-26398000D01*
X-11611890Y-26398000D01*
X-11570409Y-26402085D01*
X-11570409Y-26402085D01*
G37*
G36*
X-28385409Y-26402085D02*
G01*
X-28351431Y-26412393D01*
X-28320110Y-26429134D01*
X-28292661Y-26451661D01*
X-28270134Y-26479110D01*
X-28253393Y-26510431D01*
X-28243085Y-26544409D01*
X-28239000Y-26585890D01*
X-28239000Y-27262110D01*
X-28243085Y-27303591D01*
X-28253393Y-27337569D01*
X-28270134Y-27368890D01*
X-28292661Y-27396339D01*
X-28320110Y-27418866D01*
X-28351431Y-27435607D01*
X-28385409Y-27445915D01*
X-28426890Y-27450000D01*
X-29028110Y-27450000D01*
X-29069591Y-27445915D01*
X-29103569Y-27435607D01*
X-29134890Y-27418866D01*
X-29162339Y-27396339D01*
X-29184866Y-27368890D01*
X-29201607Y-27337569D01*
X-29211915Y-27303591D01*
X-29216000Y-27262110D01*
X-29216000Y-26585890D01*
X-29211915Y-26544409D01*
X-29201607Y-26510431D01*
X-29184866Y-26479110D01*
X-29162339Y-26451661D01*
X-29134890Y-26429134D01*
X-29103569Y-26412393D01*
X-29069591Y-26402085D01*
X-29028110Y-26398000D01*
X-28426890Y-26398000D01*
X-28385409Y-26402085D01*
X-28385409Y-26402085D01*
G37*
G36*
X-18225409Y-26402085D02*
G01*
X-18191431Y-26412393D01*
X-18160110Y-26429134D01*
X-18132661Y-26451661D01*
X-18110134Y-26479110D01*
X-18093393Y-26510431D01*
X-18083085Y-26544409D01*
X-18079000Y-26585890D01*
X-18079000Y-27262110D01*
X-18083085Y-27303591D01*
X-18093393Y-27337569D01*
X-18110134Y-27368890D01*
X-18132661Y-27396339D01*
X-18160110Y-27418866D01*
X-18191431Y-27435607D01*
X-18225409Y-27445915D01*
X-18266890Y-27450000D01*
X-18868110Y-27450000D01*
X-18909591Y-27445915D01*
X-18943569Y-27435607D01*
X-18974890Y-27418866D01*
X-19002339Y-27396339D01*
X-19024866Y-27368890D01*
X-19041607Y-27337569D01*
X-19051915Y-27303591D01*
X-19056000Y-27262110D01*
X-19056000Y-26585890D01*
X-19051915Y-26544409D01*
X-19041607Y-26510431D01*
X-19024866Y-26479110D01*
X-19002339Y-26451661D01*
X-18974890Y-26429134D01*
X-18943569Y-26412393D01*
X-18909591Y-26402085D01*
X-18868110Y-26398000D01*
X-18266890Y-26398000D01*
X-18225409Y-26402085D01*
X-18225409Y-26402085D01*
G37*
G36*
X3669591Y-26402085D02*
G01*
X3703569Y-26412393D01*
X3734890Y-26429134D01*
X3762339Y-26451661D01*
X3784866Y-26479110D01*
X3801607Y-26510431D01*
X3811915Y-26544409D01*
X3816000Y-26585890D01*
X3816000Y-27262110D01*
X3811915Y-27303591D01*
X3801607Y-27337569D01*
X3784866Y-27368890D01*
X3762339Y-27396339D01*
X3734890Y-27418866D01*
X3703569Y-27435607D01*
X3669591Y-27445915D01*
X3628110Y-27450000D01*
X3026890Y-27450000D01*
X2985409Y-27445915D01*
X2951431Y-27435607D01*
X2920110Y-27418866D01*
X2892661Y-27396339D01*
X2870134Y-27368890D01*
X2853393Y-27337569D01*
X2843085Y-27303591D01*
X2839000Y-27262110D01*
X2839000Y-26585890D01*
X2843085Y-26544409D01*
X2853393Y-26510431D01*
X2870134Y-26479110D01*
X2892661Y-26451661D01*
X2920110Y-26429134D01*
X2951431Y-26412393D01*
X2985409Y-26402085D01*
X3026890Y-26398000D01*
X3628110Y-26398000D01*
X3669591Y-26402085D01*
X3669591Y-26402085D01*
G37*
G36*
X-6490409Y-26402085D02*
G01*
X-6456431Y-26412393D01*
X-6425110Y-26429134D01*
X-6397661Y-26451661D01*
X-6375134Y-26479110D01*
X-6358393Y-26510431D01*
X-6348085Y-26544409D01*
X-6344000Y-26585890D01*
X-6344000Y-27262110D01*
X-6348085Y-27303591D01*
X-6358393Y-27337569D01*
X-6375134Y-27368890D01*
X-6397661Y-27396339D01*
X-6425110Y-27418866D01*
X-6456431Y-27435607D01*
X-6490409Y-27445915D01*
X-6531890Y-27450000D01*
X-7133110Y-27450000D01*
X-7174591Y-27445915D01*
X-7208569Y-27435607D01*
X-7239890Y-27418866D01*
X-7267339Y-27396339D01*
X-7289866Y-27368890D01*
X-7306607Y-27337569D01*
X-7316915Y-27303591D01*
X-7321000Y-27262110D01*
X-7321000Y-26585890D01*
X-7316915Y-26544409D01*
X-7306607Y-26510431D01*
X-7289866Y-26479110D01*
X-7267339Y-26451661D01*
X-7239890Y-26429134D01*
X-7208569Y-26412393D01*
X-7174591Y-26402085D01*
X-7133110Y-26398000D01*
X-6531890Y-26398000D01*
X-6490409Y-26402085D01*
X-6490409Y-26402085D01*
G37*
G36*
X2094591Y-26402085D02*
G01*
X2128569Y-26412393D01*
X2159890Y-26429134D01*
X2187339Y-26451661D01*
X2209866Y-26479110D01*
X2226607Y-26510431D01*
X2236915Y-26544409D01*
X2241000Y-26585890D01*
X2241000Y-27262110D01*
X2236915Y-27303591D01*
X2226607Y-27337569D01*
X2209866Y-27368890D01*
X2187339Y-27396339D01*
X2159890Y-27418866D01*
X2128569Y-27435607D01*
X2094591Y-27445915D01*
X2053110Y-27450000D01*
X1451890Y-27450000D01*
X1410409Y-27445915D01*
X1376431Y-27435607D01*
X1345110Y-27418866D01*
X1317661Y-27396339D01*
X1295134Y-27368890D01*
X1278393Y-27337569D01*
X1268085Y-27303591D01*
X1264000Y-27262110D01*
X1264000Y-26585890D01*
X1268085Y-26544409D01*
X1278393Y-26510431D01*
X1295134Y-26479110D01*
X1317661Y-26451661D01*
X1345110Y-26429134D01*
X1376431Y-26412393D01*
X1410409Y-26402085D01*
X1451890Y-26398000D01*
X2053110Y-26398000D01*
X2094591Y-26402085D01*
X2094591Y-26402085D01*
G37*
G36*
X-44778436Y-23754389D02*
G01*
X-44587167Y-23833615D01*
X-44587165Y-23833616D01*
X-44415027Y-23948635D01*
X-44268635Y-24095027D01*
X-44160012Y-24257592D01*
X-44153615Y-24267167D01*
X-44074389Y-24458436D01*
X-44034000Y-24661484D01*
X-44034000Y-24868516D01*
X-44074389Y-25071564D01*
X-44152386Y-25259866D01*
X-44153616Y-25262835D01*
X-44268635Y-25434973D01*
X-44415027Y-25581365D01*
X-44587165Y-25696384D01*
X-44587166Y-25696385D01*
X-44587167Y-25696385D01*
X-44778436Y-25775611D01*
X-44981484Y-25816000D01*
X-45188516Y-25816000D01*
X-45391564Y-25775611D01*
X-45582833Y-25696385D01*
X-45582834Y-25696385D01*
X-45582835Y-25696384D01*
X-45754973Y-25581365D01*
X-45901365Y-25434973D01*
X-46016384Y-25262835D01*
X-46017614Y-25259866D01*
X-46095611Y-25071564D01*
X-46136000Y-24868516D01*
X-46136000Y-24661484D01*
X-46095611Y-24458436D01*
X-46016385Y-24267167D01*
X-46009987Y-24257592D01*
X-45901365Y-24095027D01*
X-45754973Y-23948635D01*
X-45582835Y-23833616D01*
X-45582833Y-23833615D01*
X-45391564Y-23754389D01*
X-45188516Y-23714000D01*
X-44981484Y-23714000D01*
X-44778436Y-23754389D01*
X-44778436Y-23754389D01*
G37*
G36*
X-23759000Y-25791000D02*
G01*
X-24501000Y-25791000D01*
X-24501000Y-23689000D01*
X-23759000Y-23689000D01*
X-23759000Y-25791000D01*
X-23759000Y-25791000D01*
G37*
G36*
X-21219000Y-25791000D02*
G01*
X-21961000Y-25791000D01*
X-21961000Y-23689000D01*
X-21219000Y-23689000D01*
X-21219000Y-25791000D01*
X-21219000Y-25791000D01*
G37*
G36*
X1641000Y-25791000D02*
G01*
X899000Y-25791000D01*
X899000Y-23689000D01*
X1641000Y-23689000D01*
X1641000Y-25791000D01*
X1641000Y-25791000D01*
G37*
G36*
X-3439000Y-25791000D02*
G01*
X-4181000Y-25791000D01*
X-4181000Y-23689000D01*
X-3439000Y-23689000D01*
X-3439000Y-25791000D01*
X-3439000Y-25791000D01*
G37*
G36*
X-5979000Y-25791000D02*
G01*
X-6721000Y-25791000D01*
X-6721000Y-23689000D01*
X-5979000Y-23689000D01*
X-5979000Y-25791000D01*
X-5979000Y-25791000D01*
G37*
G36*
X-8519000Y-25791000D02*
G01*
X-9261000Y-25791000D01*
X-9261000Y-23689000D01*
X-8519000Y-23689000D01*
X-8519000Y-25791000D01*
X-8519000Y-25791000D01*
G37*
G36*
X-11059000Y-25791000D02*
G01*
X-11801000Y-25791000D01*
X-11801000Y-23689000D01*
X-11059000Y-23689000D01*
X-11059000Y-25791000D01*
X-11059000Y-25791000D01*
G37*
G36*
X-16139000Y-25791000D02*
G01*
X-16881000Y-25791000D01*
X-16881000Y-23689000D01*
X-16139000Y-23689000D01*
X-16139000Y-25791000D01*
X-16139000Y-25791000D01*
G37*
G36*
X-18679000Y-25791000D02*
G01*
X-19421000Y-25791000D01*
X-19421000Y-23689000D01*
X-18679000Y-23689000D01*
X-18679000Y-25791000D01*
X-18679000Y-25791000D01*
G37*
G36*
X-28839000Y-25791000D02*
G01*
X-29581000Y-25791000D01*
X-29581000Y-23689000D01*
X-28839000Y-23689000D01*
X-28839000Y-25791000D01*
X-28839000Y-25791000D01*
G37*
G36*
X-26299000Y-25791000D02*
G01*
X-27041000Y-25791000D01*
X-27041000Y-23689000D01*
X-26299000Y-23689000D01*
X-26299000Y-25791000D01*
X-26299000Y-25791000D01*
G37*
G36*
X-899000Y-25791000D02*
G01*
X-1641000Y-25791000D01*
X-1641000Y-23689000D01*
X-899000Y-23689000D01*
X-899000Y-25791000D01*
X-899000Y-25791000D01*
G37*
G36*
X4181000Y-25791000D02*
G01*
X3439000Y-25791000D01*
X3439000Y-23689000D01*
X4181000Y-23689000D01*
X4181000Y-25791000D01*
X4181000Y-25791000D01*
G37*
G36*
X-13599000Y-25791000D02*
G01*
X-14341000Y-25791000D01*
X-14341000Y-23689000D01*
X-13599000Y-23689000D01*
X-13599000Y-25791000D01*
X-13599000Y-25791000D01*
G37*
G36*
X41464591Y-24243085D02*
G01*
X41498569Y-24253393D01*
X41529890Y-24270134D01*
X41557339Y-24292661D01*
X41579866Y-24320110D01*
X41596607Y-24351431D01*
X41606915Y-24385409D01*
X41611000Y-24426890D01*
X41611000Y-25103110D01*
X41606915Y-25144591D01*
X41596607Y-25178569D01*
X41579866Y-25209890D01*
X41557339Y-25237339D01*
X41529890Y-25259866D01*
X41498569Y-25276607D01*
X41464591Y-25286915D01*
X41423110Y-25291000D01*
X40821890Y-25291000D01*
X40780409Y-25286915D01*
X40746431Y-25276607D01*
X40715110Y-25259866D01*
X40687661Y-25237339D01*
X40665134Y-25209890D01*
X40648393Y-25178569D01*
X40638085Y-25144591D01*
X40634000Y-25103110D01*
X40634000Y-24426890D01*
X40638085Y-24385409D01*
X40648393Y-24351431D01*
X40665134Y-24320110D01*
X40687661Y-24292661D01*
X40715110Y-24270134D01*
X40746431Y-24253393D01*
X40780409Y-24243085D01*
X40821890Y-24239000D01*
X41423110Y-24239000D01*
X41464591Y-24243085D01*
X41464591Y-24243085D01*
G37*
G36*
X43039591Y-24243085D02*
G01*
X43073569Y-24253393D01*
X43104890Y-24270134D01*
X43132339Y-24292661D01*
X43154866Y-24320110D01*
X43171607Y-24351431D01*
X43181915Y-24385409D01*
X43186000Y-24426890D01*
X43186000Y-25103110D01*
X43181915Y-25144591D01*
X43171607Y-25178569D01*
X43154866Y-25209890D01*
X43132339Y-25237339D01*
X43104890Y-25259866D01*
X43073569Y-25276607D01*
X43039591Y-25286915D01*
X42998110Y-25291000D01*
X42396890Y-25291000D01*
X42355409Y-25286915D01*
X42321431Y-25276607D01*
X42290110Y-25259866D01*
X42262661Y-25237339D01*
X42240134Y-25209890D01*
X42223393Y-25178569D01*
X42213085Y-25144591D01*
X42209000Y-25103110D01*
X42209000Y-24426890D01*
X42213085Y-24385409D01*
X42223393Y-24351431D01*
X42240134Y-24320110D01*
X42262661Y-24292661D01*
X42290110Y-24270134D01*
X42321431Y-24253393D01*
X42355409Y-24243085D01*
X42396890Y-24239000D01*
X42998110Y-24239000D01*
X43039591Y-24243085D01*
X43039591Y-24243085D01*
G37*
G36*
X37625721Y-22965174D02*
G01*
X37725995Y-23006709D01*
X37725996Y-23006710D01*
X37816242Y-23067010D01*
X37892990Y-23143758D01*
X37892991Y-23143760D01*
X37953291Y-23234005D01*
X37994826Y-23334279D01*
X38016000Y-23440730D01*
X38016000Y-23549270D01*
X37994826Y-23655721D01*
X37953291Y-23755995D01*
X37953290Y-23755996D01*
X37892990Y-23846242D01*
X37816242Y-23922990D01*
X37777861Y-23948635D01*
X37725995Y-23983291D01*
X37625721Y-24024826D01*
X37519270Y-24046000D01*
X37410730Y-24046000D01*
X37304279Y-24024826D01*
X37204005Y-23983291D01*
X37152139Y-23948635D01*
X37113758Y-23922990D01*
X37037010Y-23846242D01*
X36976710Y-23755996D01*
X36976709Y-23755995D01*
X36935174Y-23655721D01*
X36914000Y-23549270D01*
X36914000Y-23440730D01*
X36935174Y-23334279D01*
X36976709Y-23234005D01*
X37037009Y-23143760D01*
X37037010Y-23143758D01*
X37113758Y-23067010D01*
X37204004Y-23006710D01*
X37204005Y-23006709D01*
X37304279Y-22965174D01*
X37410730Y-22944000D01*
X37519270Y-22944000D01*
X37625721Y-22965174D01*
X37625721Y-22965174D01*
G37*
G36*
X44074928Y-20886764D02*
G01*
X44096009Y-20893160D01*
X44115445Y-20903548D01*
X44132476Y-20917524D01*
X44146452Y-20934555D01*
X44156840Y-20953991D01*
X44163236Y-20975072D01*
X44166000Y-21003140D01*
X44166000Y-22666860D01*
X44163236Y-22694928D01*
X44156840Y-22716009D01*
X44146452Y-22735445D01*
X44132476Y-22752476D01*
X44115445Y-22766452D01*
X44096009Y-22776840D01*
X44074928Y-22783236D01*
X44046860Y-22786000D01*
X43583140Y-22786000D01*
X43555072Y-22783236D01*
X43533991Y-22776840D01*
X43514555Y-22766452D01*
X43497524Y-22752476D01*
X43483548Y-22735445D01*
X43473160Y-22716009D01*
X43466764Y-22694928D01*
X43464000Y-22666860D01*
X43464000Y-21003140D01*
X43466764Y-20975072D01*
X43473160Y-20953991D01*
X43483548Y-20934555D01*
X43497524Y-20917524D01*
X43514555Y-20903548D01*
X43533991Y-20893160D01*
X43555072Y-20886764D01*
X43583140Y-20884000D01*
X44046860Y-20884000D01*
X44074928Y-20886764D01*
X44074928Y-20886764D01*
G37*
G36*
X40264928Y-20886764D02*
G01*
X40286009Y-20893160D01*
X40305445Y-20903548D01*
X40322476Y-20917524D01*
X40336452Y-20934555D01*
X40346840Y-20953991D01*
X40353236Y-20975072D01*
X40356000Y-21003140D01*
X40356000Y-22666860D01*
X40353236Y-22694928D01*
X40346840Y-22716009D01*
X40336452Y-22735445D01*
X40322476Y-22752476D01*
X40305445Y-22766452D01*
X40286009Y-22776840D01*
X40264928Y-22783236D01*
X40236860Y-22786000D01*
X39773140Y-22786000D01*
X39745072Y-22783236D01*
X39723991Y-22776840D01*
X39704555Y-22766452D01*
X39687524Y-22752476D01*
X39673548Y-22735445D01*
X39663160Y-22716009D01*
X39656764Y-22694928D01*
X39654000Y-22666860D01*
X39654000Y-21003140D01*
X39656764Y-20975072D01*
X39663160Y-20953991D01*
X39673548Y-20934555D01*
X39687524Y-20917524D01*
X39704555Y-20903548D01*
X39723991Y-20893160D01*
X39745072Y-20886764D01*
X39773140Y-20884000D01*
X40236860Y-20884000D01*
X40264928Y-20886764D01*
X40264928Y-20886764D01*
G37*
G36*
X41534928Y-20886764D02*
G01*
X41556009Y-20893160D01*
X41575445Y-20903548D01*
X41592476Y-20917524D01*
X41606452Y-20934555D01*
X41616840Y-20953991D01*
X41623236Y-20975072D01*
X41626000Y-21003140D01*
X41626000Y-22666860D01*
X41623236Y-22694928D01*
X41616840Y-22716009D01*
X41606452Y-22735445D01*
X41592476Y-22752476D01*
X41575445Y-22766452D01*
X41556009Y-22776840D01*
X41534928Y-22783236D01*
X41506860Y-22786000D01*
X41043140Y-22786000D01*
X41015072Y-22783236D01*
X40993991Y-22776840D01*
X40974555Y-22766452D01*
X40957524Y-22752476D01*
X40943548Y-22735445D01*
X40933160Y-22716009D01*
X40926764Y-22694928D01*
X40924000Y-22666860D01*
X40924000Y-21003140D01*
X40926764Y-20975072D01*
X40933160Y-20953991D01*
X40943548Y-20934555D01*
X40957524Y-20917524D01*
X40974555Y-20903548D01*
X40993991Y-20893160D01*
X41015072Y-20886764D01*
X41043140Y-20884000D01*
X41506860Y-20884000D01*
X41534928Y-20886764D01*
X41534928Y-20886764D01*
G37*
G36*
X42804928Y-20886764D02*
G01*
X42826009Y-20893160D01*
X42845445Y-20903548D01*
X42862476Y-20917524D01*
X42876452Y-20934555D01*
X42886840Y-20953991D01*
X42893236Y-20975072D01*
X42896000Y-21003140D01*
X42896000Y-22666860D01*
X42893236Y-22694928D01*
X42886840Y-22716009D01*
X42876452Y-22735445D01*
X42862476Y-22752476D01*
X42845445Y-22766452D01*
X42826009Y-22776840D01*
X42804928Y-22783236D01*
X42776860Y-22786000D01*
X42313140Y-22786000D01*
X42285072Y-22783236D01*
X42263991Y-22776840D01*
X42244555Y-22766452D01*
X42227524Y-22752476D01*
X42213548Y-22735445D01*
X42203160Y-22716009D01*
X42196764Y-22694928D01*
X42194000Y-22666860D01*
X42194000Y-21003140D01*
X42196764Y-20975072D01*
X42203160Y-20953991D01*
X42213548Y-20934555D01*
X42227524Y-20917524D01*
X42244555Y-20903548D01*
X42263991Y-20893160D01*
X42285072Y-20886764D01*
X42313140Y-20884000D01*
X42776860Y-20884000D01*
X42804928Y-20886764D01*
X42804928Y-20886764D01*
G37*
G36*
X37625721Y-19790174D02*
G01*
X37725995Y-19831709D01*
X37725996Y-19831710D01*
X37816242Y-19892010D01*
X37892990Y-19968758D01*
X37892991Y-19968760D01*
X37953291Y-20059005D01*
X37994826Y-20159279D01*
X38016000Y-20265730D01*
X38016000Y-20374270D01*
X37994826Y-20480721D01*
X37953291Y-20580995D01*
X37953290Y-20580996D01*
X37892990Y-20671242D01*
X37816242Y-20747990D01*
X37770812Y-20778345D01*
X37725995Y-20808291D01*
X37625721Y-20849826D01*
X37519270Y-20871000D01*
X37410730Y-20871000D01*
X37304279Y-20849826D01*
X37204005Y-20808291D01*
X37159188Y-20778345D01*
X37113758Y-20747990D01*
X37037010Y-20671242D01*
X36976710Y-20580996D01*
X36976709Y-20580995D01*
X36935174Y-20480721D01*
X36914000Y-20374270D01*
X36914000Y-20265730D01*
X36935174Y-20159279D01*
X36976709Y-20059005D01*
X37037009Y-19968760D01*
X37037010Y-19968758D01*
X37113758Y-19892010D01*
X37204004Y-19831710D01*
X37204005Y-19831709D01*
X37304279Y-19790174D01*
X37410730Y-19769000D01*
X37519270Y-19769000D01*
X37625721Y-19790174D01*
X37625721Y-19790174D01*
G37*
G36*
X-39109558Y-18750518D02*
G01*
X-39043373Y-18757037D01*
X-38873534Y-18808557D01*
X-38717009Y-18892222D01*
X-38701171Y-18905220D01*
X-38579814Y-19004814D01*
X-38496552Y-19106271D01*
X-38467222Y-19142009D01*
X-38383557Y-19298534D01*
X-38332037Y-19468373D01*
X-38314641Y-19645000D01*
X-38332037Y-19821627D01*
X-38383557Y-19991466D01*
X-38467222Y-20147991D01*
X-38476486Y-20159279D01*
X-38579814Y-20285186D01*
X-38681271Y-20368448D01*
X-38717009Y-20397778D01*
X-38873534Y-20481443D01*
X-39043373Y-20532963D01*
X-39109557Y-20539481D01*
X-39175740Y-20546000D01*
X-39564260Y-20546000D01*
X-39630443Y-20539481D01*
X-39696627Y-20532963D01*
X-39866466Y-20481443D01*
X-40022991Y-20397778D01*
X-40058729Y-20368448D01*
X-40160186Y-20285186D01*
X-40263514Y-20159279D01*
X-40272778Y-20147991D01*
X-40356443Y-19991466D01*
X-40407963Y-19821627D01*
X-40425359Y-19645000D01*
X-40407963Y-19468373D01*
X-40356443Y-19298534D01*
X-40272778Y-19142009D01*
X-40243448Y-19106271D01*
X-40160186Y-19004814D01*
X-40038829Y-18905220D01*
X-40022991Y-18892222D01*
X-39866466Y-18808557D01*
X-39696627Y-18757037D01*
X-39630442Y-18750518D01*
X-39564260Y-18744000D01*
X-39175740Y-18744000D01*
X-39109558Y-18750518D01*
X-39109558Y-18750518D01*
G37*
G36*
X-11059000Y-19491000D02*
G01*
X-11801000Y-19491000D01*
X-11801000Y-17389000D01*
X-11059000Y-17389000D01*
X-11059000Y-19491000D01*
X-11059000Y-19491000D01*
G37*
G36*
X2911000Y-19491000D02*
G01*
X2169000Y-19491000D01*
X2169000Y-17389000D01*
X2911000Y-17389000D01*
X2911000Y-19491000D01*
X2911000Y-19491000D01*
G37*
G36*
X1641000Y-19491000D02*
G01*
X899000Y-19491000D01*
X899000Y-17389000D01*
X1641000Y-17389000D01*
X1641000Y-19491000D01*
X1641000Y-19491000D01*
G37*
G36*
X-2169000Y-19491000D02*
G01*
X-2911000Y-19491000D01*
X-2911000Y-17389000D01*
X-2169000Y-17389000D01*
X-2169000Y-19491000D01*
X-2169000Y-19491000D01*
G37*
G36*
X-899000Y-19491000D02*
G01*
X-1641000Y-19491000D01*
X-1641000Y-17389000D01*
X-899000Y-17389000D01*
X-899000Y-19491000D01*
X-899000Y-19491000D01*
G37*
G36*
X-8519000Y-19491000D02*
G01*
X-9261000Y-19491000D01*
X-9261000Y-17389000D01*
X-8519000Y-17389000D01*
X-8519000Y-19491000D01*
X-8519000Y-19491000D01*
G37*
G36*
X-7249000Y-19491000D02*
G01*
X-7991000Y-19491000D01*
X-7991000Y-17389000D01*
X-7249000Y-17389000D01*
X-7249000Y-19491000D01*
X-7249000Y-19491000D01*
G37*
G36*
X-5979000Y-19491000D02*
G01*
X-6721000Y-19491000D01*
X-6721000Y-17389000D01*
X-5979000Y-17389000D01*
X-5979000Y-19491000D01*
X-5979000Y-19491000D01*
G37*
G36*
X-12329000Y-19491000D02*
G01*
X-13071000Y-19491000D01*
X-13071000Y-17389000D01*
X-12329000Y-17389000D01*
X-12329000Y-19491000D01*
X-12329000Y-19491000D01*
G37*
G36*
X4181000Y-19491000D02*
G01*
X3439000Y-19491000D01*
X3439000Y-17389000D01*
X4181000Y-17389000D01*
X4181000Y-19491000D01*
X4181000Y-19491000D01*
G37*
G36*
X-16139000Y-19491000D02*
G01*
X-16881000Y-19491000D01*
X-16881000Y-17389000D01*
X-16139000Y-17389000D01*
X-16139000Y-19491000D01*
X-16139000Y-19491000D01*
G37*
G36*
X-3439000Y-19491000D02*
G01*
X-4181000Y-19491000D01*
X-4181000Y-17389000D01*
X-3439000Y-17389000D01*
X-3439000Y-19491000D01*
X-3439000Y-19491000D01*
G37*
G36*
X-13599000Y-19491000D02*
G01*
X-14341000Y-19491000D01*
X-14341000Y-17389000D01*
X-13599000Y-17389000D01*
X-13599000Y-19491000D01*
X-13599000Y-19491000D01*
G37*
G36*
X-28839000Y-19491000D02*
G01*
X-29581000Y-19491000D01*
X-29581000Y-17389000D01*
X-28839000Y-17389000D01*
X-28839000Y-19491000D01*
X-28839000Y-19491000D01*
G37*
G36*
X-27569000Y-19491000D02*
G01*
X-28311000Y-19491000D01*
X-28311000Y-17389000D01*
X-27569000Y-17389000D01*
X-27569000Y-19491000D01*
X-27569000Y-19491000D01*
G37*
G36*
X-26299000Y-19491000D02*
G01*
X-27041000Y-19491000D01*
X-27041000Y-17389000D01*
X-26299000Y-17389000D01*
X-26299000Y-19491000D01*
X-26299000Y-19491000D01*
G37*
G36*
X-23759000Y-19491000D02*
G01*
X-24501000Y-19491000D01*
X-24501000Y-17389000D01*
X-23759000Y-17389000D01*
X-23759000Y-19491000D01*
X-23759000Y-19491000D01*
G37*
G36*
X-22489000Y-19491000D02*
G01*
X-23231000Y-19491000D01*
X-23231000Y-17389000D01*
X-22489000Y-17389000D01*
X-22489000Y-19491000D01*
X-22489000Y-19491000D01*
G37*
G36*
X-21219000Y-19491000D02*
G01*
X-21961000Y-19491000D01*
X-21961000Y-17389000D01*
X-21219000Y-17389000D01*
X-21219000Y-19491000D01*
X-21219000Y-19491000D01*
G37*
G36*
X-18679000Y-19491000D02*
G01*
X-19421000Y-19491000D01*
X-19421000Y-17389000D01*
X-18679000Y-17389000D01*
X-18679000Y-19491000D01*
X-18679000Y-19491000D01*
G37*
G36*
X-17409000Y-19491000D02*
G01*
X-18151000Y-19491000D01*
X-18151000Y-17389000D01*
X-17409000Y-17389000D01*
X-17409000Y-19491000D01*
X-17409000Y-19491000D01*
G37*
G36*
X-32640409Y-18083085D02*
G01*
X-32606431Y-18093393D01*
X-32575110Y-18110134D01*
X-32547661Y-18132661D01*
X-32525134Y-18160110D01*
X-32508393Y-18191431D01*
X-32498085Y-18225409D01*
X-32494000Y-18266890D01*
X-32494000Y-18868110D01*
X-32498085Y-18909591D01*
X-32508393Y-18943569D01*
X-32525134Y-18974890D01*
X-32547661Y-19002339D01*
X-32575110Y-19024866D01*
X-32606431Y-19041607D01*
X-32640409Y-19051915D01*
X-32681890Y-19056000D01*
X-33358110Y-19056000D01*
X-33399591Y-19051915D01*
X-33433569Y-19041607D01*
X-33464890Y-19024866D01*
X-33492339Y-19002339D01*
X-33514866Y-18974890D01*
X-33531607Y-18943569D01*
X-33541915Y-18909591D01*
X-33546000Y-18868110D01*
X-33546000Y-18266890D01*
X-33541915Y-18225409D01*
X-33531607Y-18191431D01*
X-33514866Y-18160110D01*
X-33492339Y-18132661D01*
X-33464890Y-18110134D01*
X-33433569Y-18093393D01*
X-33399591Y-18083085D01*
X-33358110Y-18079000D01*
X-32681890Y-18079000D01*
X-32640409Y-18083085D01*
X-32640409Y-18083085D01*
G37*
G36*
X-38461400Y-16247989D02*
G01*
X-38428348Y-16258015D01*
X-38397897Y-16274292D01*
X-38371201Y-16296201D01*
X-38349292Y-16322897D01*
X-38333015Y-16353348D01*
X-38322989Y-16386400D01*
X-38319000Y-16426903D01*
X-38319000Y-17863097D01*
X-38322989Y-17903600D01*
X-38333015Y-17936652D01*
X-38349292Y-17967103D01*
X-38371201Y-17993799D01*
X-38397897Y-18015708D01*
X-38428348Y-18031985D01*
X-38461400Y-18042011D01*
X-38501903Y-18046000D01*
X-40238097Y-18046000D01*
X-40278600Y-18042011D01*
X-40311652Y-18031985D01*
X-40342103Y-18015708D01*
X-40368799Y-17993799D01*
X-40390708Y-17967103D01*
X-40406985Y-17936652D01*
X-40417011Y-17903600D01*
X-40421000Y-17863097D01*
X-40421000Y-16426903D01*
X-40417011Y-16386400D01*
X-40406985Y-16353348D01*
X-40390708Y-16322897D01*
X-40368799Y-16296201D01*
X-40342103Y-16274292D01*
X-40311652Y-16258015D01*
X-40278600Y-16247989D01*
X-40238097Y-16244000D01*
X-38501903Y-16244000D01*
X-38461400Y-16247989D01*
X-38461400Y-16247989D01*
G37*
G36*
X-32640409Y-16508085D02*
G01*
X-32606431Y-16518393D01*
X-32575110Y-16535134D01*
X-32547661Y-16557661D01*
X-32525134Y-16585110D01*
X-32508393Y-16616431D01*
X-32498085Y-16650409D01*
X-32494000Y-16691890D01*
X-32494000Y-17293110D01*
X-32498085Y-17334591D01*
X-32508393Y-17368569D01*
X-32525134Y-17399890D01*
X-32547661Y-17427339D01*
X-32575110Y-17449866D01*
X-32606431Y-17466607D01*
X-32640409Y-17476915D01*
X-32681890Y-17481000D01*
X-33358110Y-17481000D01*
X-33399591Y-17476915D01*
X-33433569Y-17466607D01*
X-33464890Y-17449866D01*
X-33492339Y-17427339D01*
X-33514866Y-17399890D01*
X-33531607Y-17368569D01*
X-33541915Y-17334591D01*
X-33546000Y-17293110D01*
X-33546000Y-16691890D01*
X-33541915Y-16650409D01*
X-33531607Y-16616431D01*
X-33514866Y-16585110D01*
X-33492339Y-16557661D01*
X-33464890Y-16535134D01*
X-33433569Y-16518393D01*
X-33399591Y-16508085D01*
X-33358110Y-16504000D01*
X-32681890Y-16504000D01*
X-32640409Y-16508085D01*
X-32640409Y-16508085D01*
G37*
G36*
X3669591Y-15734085D02*
G01*
X3703569Y-15744393D01*
X3734890Y-15761134D01*
X3762339Y-15783661D01*
X3784866Y-15811110D01*
X3801607Y-15842431D01*
X3811915Y-15876409D01*
X3816000Y-15917890D01*
X3816000Y-16594110D01*
X3811915Y-16635591D01*
X3801607Y-16669569D01*
X3784866Y-16700890D01*
X3762339Y-16728339D01*
X3734890Y-16750866D01*
X3703569Y-16767607D01*
X3669591Y-16777915D01*
X3628110Y-16782000D01*
X3026890Y-16782000D01*
X2985409Y-16777915D01*
X2951431Y-16767607D01*
X2920110Y-16750866D01*
X2892661Y-16728339D01*
X2870134Y-16700890D01*
X2853393Y-16669569D01*
X2843085Y-16635591D01*
X2839000Y-16594110D01*
X2839000Y-15917890D01*
X2843085Y-15876409D01*
X2853393Y-15842431D01*
X2870134Y-15811110D01*
X2892661Y-15783661D01*
X2920110Y-15761134D01*
X2951431Y-15744393D01*
X2985409Y-15734085D01*
X3026890Y-15730000D01*
X3628110Y-15730000D01*
X3669591Y-15734085D01*
X3669591Y-15734085D01*
G37*
G36*
X2094591Y-15734085D02*
G01*
X2128569Y-15744393D01*
X2159890Y-15761134D01*
X2187339Y-15783661D01*
X2209866Y-15811110D01*
X2226607Y-15842431D01*
X2236915Y-15876409D01*
X2241000Y-15917890D01*
X2241000Y-16594110D01*
X2236915Y-16635591D01*
X2226607Y-16669569D01*
X2209866Y-16700890D01*
X2187339Y-16728339D01*
X2159890Y-16750866D01*
X2128569Y-16767607D01*
X2094591Y-16777915D01*
X2053110Y-16782000D01*
X1451890Y-16782000D01*
X1410409Y-16777915D01*
X1376431Y-16767607D01*
X1345110Y-16750866D01*
X1317661Y-16728339D01*
X1295134Y-16700890D01*
X1278393Y-16669569D01*
X1268085Y-16635591D01*
X1264000Y-16594110D01*
X1264000Y-15917890D01*
X1268085Y-15876409D01*
X1278393Y-15842431D01*
X1295134Y-15811110D01*
X1317661Y-15783661D01*
X1345110Y-15761134D01*
X1376431Y-15744393D01*
X1410409Y-15734085D01*
X1451890Y-15730000D01*
X2053110Y-15730000D01*
X2094591Y-15734085D01*
X2094591Y-15734085D01*
G37*
G36*
X-13145409Y-15734085D02*
G01*
X-13111431Y-15744393D01*
X-13080110Y-15761134D01*
X-13052661Y-15783661D01*
X-13030134Y-15811110D01*
X-13013393Y-15842431D01*
X-13003085Y-15876409D01*
X-12999000Y-15917890D01*
X-12999000Y-16594110D01*
X-13003085Y-16635591D01*
X-13013393Y-16669569D01*
X-13030134Y-16700890D01*
X-13052661Y-16728339D01*
X-13080110Y-16750866D01*
X-13111431Y-16767607D01*
X-13145409Y-16777915D01*
X-13186890Y-16782000D01*
X-13788110Y-16782000D01*
X-13829591Y-16777915D01*
X-13863569Y-16767607D01*
X-13894890Y-16750866D01*
X-13922339Y-16728339D01*
X-13944866Y-16700890D01*
X-13961607Y-16669569D01*
X-13971915Y-16635591D01*
X-13976000Y-16594110D01*
X-13976000Y-15917890D01*
X-13971915Y-15876409D01*
X-13961607Y-15842431D01*
X-13944866Y-15811110D01*
X-13922339Y-15783661D01*
X-13894890Y-15761134D01*
X-13863569Y-15744393D01*
X-13829591Y-15734085D01*
X-13788110Y-15730000D01*
X-13186890Y-15730000D01*
X-13145409Y-15734085D01*
X-13145409Y-15734085D01*
G37*
G36*
X-2985409Y-15734085D02*
G01*
X-2951431Y-15744393D01*
X-2920110Y-15761134D01*
X-2892661Y-15783661D01*
X-2870134Y-15811110D01*
X-2853393Y-15842431D01*
X-2843085Y-15876409D01*
X-2839000Y-15917890D01*
X-2839000Y-16594110D01*
X-2843085Y-16635591D01*
X-2853393Y-16669569D01*
X-2870134Y-16700890D01*
X-2892661Y-16728339D01*
X-2920110Y-16750866D01*
X-2951431Y-16767607D01*
X-2985409Y-16777915D01*
X-3026890Y-16782000D01*
X-3628110Y-16782000D01*
X-3669591Y-16777915D01*
X-3703569Y-16767607D01*
X-3734890Y-16750866D01*
X-3762339Y-16728339D01*
X-3784866Y-16700890D01*
X-3801607Y-16669569D01*
X-3811915Y-16635591D01*
X-3816000Y-16594110D01*
X-3816000Y-15917890D01*
X-3811915Y-15876409D01*
X-3801607Y-15842431D01*
X-3784866Y-15811110D01*
X-3762339Y-15783661D01*
X-3734890Y-15761134D01*
X-3703569Y-15744393D01*
X-3669591Y-15734085D01*
X-3628110Y-15730000D01*
X-3026890Y-15730000D01*
X-2985409Y-15734085D01*
X-2985409Y-15734085D01*
G37*
G36*
X-1410409Y-15734085D02*
G01*
X-1376431Y-15744393D01*
X-1345110Y-15761134D01*
X-1317661Y-15783661D01*
X-1295134Y-15811110D01*
X-1278393Y-15842431D01*
X-1268085Y-15876409D01*
X-1264000Y-15917890D01*
X-1264000Y-16594110D01*
X-1268085Y-16635591D01*
X-1278393Y-16669569D01*
X-1295134Y-16700890D01*
X-1317661Y-16728339D01*
X-1345110Y-16750866D01*
X-1376431Y-16767607D01*
X-1410409Y-16777915D01*
X-1451890Y-16782000D01*
X-2053110Y-16782000D01*
X-2094591Y-16777915D01*
X-2128569Y-16767607D01*
X-2159890Y-16750866D01*
X-2187339Y-16728339D01*
X-2209866Y-16700890D01*
X-2226607Y-16669569D01*
X-2236915Y-16635591D01*
X-2241000Y-16594110D01*
X-2241000Y-15917890D01*
X-2236915Y-15876409D01*
X-2226607Y-15842431D01*
X-2209866Y-15811110D01*
X-2187339Y-15783661D01*
X-2159890Y-15761134D01*
X-2128569Y-15744393D01*
X-2094591Y-15734085D01*
X-2053110Y-15730000D01*
X-1451890Y-15730000D01*
X-1410409Y-15734085D01*
X-1410409Y-15734085D01*
G37*
G36*
X-6490409Y-15734085D02*
G01*
X-6456431Y-15744393D01*
X-6425110Y-15761134D01*
X-6397661Y-15783661D01*
X-6375134Y-15811110D01*
X-6358393Y-15842431D01*
X-6348085Y-15876409D01*
X-6344000Y-15917890D01*
X-6344000Y-16594110D01*
X-6348085Y-16635591D01*
X-6358393Y-16669569D01*
X-6375134Y-16700890D01*
X-6397661Y-16728339D01*
X-6425110Y-16750866D01*
X-6456431Y-16767607D01*
X-6490409Y-16777915D01*
X-6531890Y-16782000D01*
X-7133110Y-16782000D01*
X-7174591Y-16777915D01*
X-7208569Y-16767607D01*
X-7239890Y-16750866D01*
X-7267339Y-16728339D01*
X-7289866Y-16700890D01*
X-7306607Y-16669569D01*
X-7316915Y-16635591D01*
X-7321000Y-16594110D01*
X-7321000Y-15917890D01*
X-7316915Y-15876409D01*
X-7306607Y-15842431D01*
X-7289866Y-15811110D01*
X-7267339Y-15783661D01*
X-7239890Y-15761134D01*
X-7208569Y-15744393D01*
X-7174591Y-15734085D01*
X-7133110Y-15730000D01*
X-6531890Y-15730000D01*
X-6490409Y-15734085D01*
X-6490409Y-15734085D01*
G37*
G36*
X-28385409Y-15734085D02*
G01*
X-28351431Y-15744393D01*
X-28320110Y-15761134D01*
X-28292661Y-15783661D01*
X-28270134Y-15811110D01*
X-28253393Y-15842431D01*
X-28243085Y-15876409D01*
X-28239000Y-15917890D01*
X-28239000Y-16594110D01*
X-28243085Y-16635591D01*
X-28253393Y-16669569D01*
X-28270134Y-16700890D01*
X-28292661Y-16728339D01*
X-28320110Y-16750866D01*
X-28351431Y-16767607D01*
X-28385409Y-16777915D01*
X-28426890Y-16782000D01*
X-29028110Y-16782000D01*
X-29069591Y-16777915D01*
X-29103569Y-16767607D01*
X-29134890Y-16750866D01*
X-29162339Y-16728339D01*
X-29184866Y-16700890D01*
X-29201607Y-16669569D01*
X-29211915Y-16635591D01*
X-29216000Y-16594110D01*
X-29216000Y-15917890D01*
X-29211915Y-15876409D01*
X-29201607Y-15842431D01*
X-29184866Y-15811110D01*
X-29162339Y-15783661D01*
X-29134890Y-15761134D01*
X-29103569Y-15744393D01*
X-29069591Y-15734085D01*
X-29028110Y-15730000D01*
X-28426890Y-15730000D01*
X-28385409Y-15734085D01*
X-28385409Y-15734085D01*
G37*
G36*
X-26810409Y-15734085D02*
G01*
X-26776431Y-15744393D01*
X-26745110Y-15761134D01*
X-26717661Y-15783661D01*
X-26695134Y-15811110D01*
X-26678393Y-15842431D01*
X-26668085Y-15876409D01*
X-26664000Y-15917890D01*
X-26664000Y-16594110D01*
X-26668085Y-16635591D01*
X-26678393Y-16669569D01*
X-26695134Y-16700890D01*
X-26717661Y-16728339D01*
X-26745110Y-16750866D01*
X-26776431Y-16767607D01*
X-26810409Y-16777915D01*
X-26851890Y-16782000D01*
X-27453110Y-16782000D01*
X-27494591Y-16777915D01*
X-27528569Y-16767607D01*
X-27559890Y-16750866D01*
X-27587339Y-16728339D01*
X-27609866Y-16700890D01*
X-27626607Y-16669569D01*
X-27636915Y-16635591D01*
X-27641000Y-16594110D01*
X-27641000Y-15917890D01*
X-27636915Y-15876409D01*
X-27626607Y-15842431D01*
X-27609866Y-15811110D01*
X-27587339Y-15783661D01*
X-27559890Y-15761134D01*
X-27528569Y-15744393D01*
X-27494591Y-15734085D01*
X-27453110Y-15730000D01*
X-26851890Y-15730000D01*
X-26810409Y-15734085D01*
X-26810409Y-15734085D01*
G37*
G36*
X-23305409Y-15734085D02*
G01*
X-23271431Y-15744393D01*
X-23240110Y-15761134D01*
X-23212661Y-15783661D01*
X-23190134Y-15811110D01*
X-23173393Y-15842431D01*
X-23163085Y-15876409D01*
X-23159000Y-15917890D01*
X-23159000Y-16594110D01*
X-23163085Y-16635591D01*
X-23173393Y-16669569D01*
X-23190134Y-16700890D01*
X-23212661Y-16728339D01*
X-23240110Y-16750866D01*
X-23271431Y-16767607D01*
X-23305409Y-16777915D01*
X-23346890Y-16782000D01*
X-23948110Y-16782000D01*
X-23989591Y-16777915D01*
X-24023569Y-16767607D01*
X-24054890Y-16750866D01*
X-24082339Y-16728339D01*
X-24104866Y-16700890D01*
X-24121607Y-16669569D01*
X-24131915Y-16635591D01*
X-24136000Y-16594110D01*
X-24136000Y-15917890D01*
X-24131915Y-15876409D01*
X-24121607Y-15842431D01*
X-24104866Y-15811110D01*
X-24082339Y-15783661D01*
X-24054890Y-15761134D01*
X-24023569Y-15744393D01*
X-23989591Y-15734085D01*
X-23948110Y-15730000D01*
X-23346890Y-15730000D01*
X-23305409Y-15734085D01*
X-23305409Y-15734085D01*
G37*
G36*
X-21730409Y-15734085D02*
G01*
X-21696431Y-15744393D01*
X-21665110Y-15761134D01*
X-21637661Y-15783661D01*
X-21615134Y-15811110D01*
X-21598393Y-15842431D01*
X-21588085Y-15876409D01*
X-21584000Y-15917890D01*
X-21584000Y-16594110D01*
X-21588085Y-16635591D01*
X-21598393Y-16669569D01*
X-21615134Y-16700890D01*
X-21637661Y-16728339D01*
X-21665110Y-16750866D01*
X-21696431Y-16767607D01*
X-21730409Y-16777915D01*
X-21771890Y-16782000D01*
X-22373110Y-16782000D01*
X-22414591Y-16777915D01*
X-22448569Y-16767607D01*
X-22479890Y-16750866D01*
X-22507339Y-16728339D01*
X-22529866Y-16700890D01*
X-22546607Y-16669569D01*
X-22556915Y-16635591D01*
X-22561000Y-16594110D01*
X-22561000Y-15917890D01*
X-22556915Y-15876409D01*
X-22546607Y-15842431D01*
X-22529866Y-15811110D01*
X-22507339Y-15783661D01*
X-22479890Y-15761134D01*
X-22448569Y-15744393D01*
X-22414591Y-15734085D01*
X-22373110Y-15730000D01*
X-21771890Y-15730000D01*
X-21730409Y-15734085D01*
X-21730409Y-15734085D01*
G37*
G36*
X-18225409Y-15734085D02*
G01*
X-18191431Y-15744393D01*
X-18160110Y-15761134D01*
X-18132661Y-15783661D01*
X-18110134Y-15811110D01*
X-18093393Y-15842431D01*
X-18083085Y-15876409D01*
X-18079000Y-15917890D01*
X-18079000Y-16594110D01*
X-18083085Y-16635591D01*
X-18093393Y-16669569D01*
X-18110134Y-16700890D01*
X-18132661Y-16728339D01*
X-18160110Y-16750866D01*
X-18191431Y-16767607D01*
X-18225409Y-16777915D01*
X-18266890Y-16782000D01*
X-18868110Y-16782000D01*
X-18909591Y-16777915D01*
X-18943569Y-16767607D01*
X-18974890Y-16750866D01*
X-19002339Y-16728339D01*
X-19024866Y-16700890D01*
X-19041607Y-16669569D01*
X-19051915Y-16635591D01*
X-19056000Y-16594110D01*
X-19056000Y-15917890D01*
X-19051915Y-15876409D01*
X-19041607Y-15842431D01*
X-19024866Y-15811110D01*
X-19002339Y-15783661D01*
X-18974890Y-15761134D01*
X-18943569Y-15744393D01*
X-18909591Y-15734085D01*
X-18868110Y-15730000D01*
X-18266890Y-15730000D01*
X-18225409Y-15734085D01*
X-18225409Y-15734085D01*
G37*
G36*
X-16650409Y-15734085D02*
G01*
X-16616431Y-15744393D01*
X-16585110Y-15761134D01*
X-16557661Y-15783661D01*
X-16535134Y-15811110D01*
X-16518393Y-15842431D01*
X-16508085Y-15876409D01*
X-16504000Y-15917890D01*
X-16504000Y-16594110D01*
X-16508085Y-16635591D01*
X-16518393Y-16669569D01*
X-16535134Y-16700890D01*
X-16557661Y-16728339D01*
X-16585110Y-16750866D01*
X-16616431Y-16767607D01*
X-16650409Y-16777915D01*
X-16691890Y-16782000D01*
X-17293110Y-16782000D01*
X-17334591Y-16777915D01*
X-17368569Y-16767607D01*
X-17399890Y-16750866D01*
X-17427339Y-16728339D01*
X-17449866Y-16700890D01*
X-17466607Y-16669569D01*
X-17476915Y-16635591D01*
X-17481000Y-16594110D01*
X-17481000Y-15917890D01*
X-17476915Y-15876409D01*
X-17466607Y-15842431D01*
X-17449866Y-15811110D01*
X-17427339Y-15783661D01*
X-17399890Y-15761134D01*
X-17368569Y-15744393D01*
X-17334591Y-15734085D01*
X-17293110Y-15730000D01*
X-16691890Y-15730000D01*
X-16650409Y-15734085D01*
X-16650409Y-15734085D01*
G37*
G36*
X-8065409Y-15734085D02*
G01*
X-8031431Y-15744393D01*
X-8000110Y-15761134D01*
X-7972661Y-15783661D01*
X-7950134Y-15811110D01*
X-7933393Y-15842431D01*
X-7923085Y-15876409D01*
X-7919000Y-15917890D01*
X-7919000Y-16594110D01*
X-7923085Y-16635591D01*
X-7933393Y-16669569D01*
X-7950134Y-16700890D01*
X-7972661Y-16728339D01*
X-8000110Y-16750866D01*
X-8031431Y-16767607D01*
X-8065409Y-16777915D01*
X-8106890Y-16782000D01*
X-8708110Y-16782000D01*
X-8749591Y-16777915D01*
X-8783569Y-16767607D01*
X-8814890Y-16750866D01*
X-8842339Y-16728339D01*
X-8864866Y-16700890D01*
X-8881607Y-16669569D01*
X-8891915Y-16635591D01*
X-8896000Y-16594110D01*
X-8896000Y-15917890D01*
X-8891915Y-15876409D01*
X-8881607Y-15842431D01*
X-8864866Y-15811110D01*
X-8842339Y-15783661D01*
X-8814890Y-15761134D01*
X-8783569Y-15744393D01*
X-8749591Y-15734085D01*
X-8708110Y-15730000D01*
X-8106890Y-15730000D01*
X-8065409Y-15734085D01*
X-8065409Y-15734085D01*
G37*
G36*
X-11570409Y-15734085D02*
G01*
X-11536431Y-15744393D01*
X-11505110Y-15761134D01*
X-11477661Y-15783661D01*
X-11455134Y-15811110D01*
X-11438393Y-15842431D01*
X-11428085Y-15876409D01*
X-11424000Y-15917890D01*
X-11424000Y-16594110D01*
X-11428085Y-16635591D01*
X-11438393Y-16669569D01*
X-11455134Y-16700890D01*
X-11477661Y-16728339D01*
X-11505110Y-16750866D01*
X-11536431Y-16767607D01*
X-11570409Y-16777915D01*
X-11611890Y-16782000D01*
X-12213110Y-16782000D01*
X-12254591Y-16777915D01*
X-12288569Y-16767607D01*
X-12319890Y-16750866D01*
X-12347339Y-16728339D01*
X-12369866Y-16700890D01*
X-12386607Y-16669569D01*
X-12396915Y-16635591D01*
X-12401000Y-16594110D01*
X-12401000Y-15917890D01*
X-12396915Y-15876409D01*
X-12386607Y-15842431D01*
X-12369866Y-15811110D01*
X-12347339Y-15783661D01*
X-12319890Y-15761134D01*
X-12288569Y-15744393D01*
X-12254591Y-15734085D01*
X-12213110Y-15730000D01*
X-11611890Y-15730000D01*
X-11570409Y-15734085D01*
X-11570409Y-15734085D01*
G37*
G36*
X-32640409Y-14273085D02*
G01*
X-32606431Y-14283393D01*
X-32575110Y-14300134D01*
X-32547661Y-14322661D01*
X-32525134Y-14350110D01*
X-32508393Y-14381431D01*
X-32498085Y-14415409D01*
X-32494000Y-14456890D01*
X-32494000Y-15058110D01*
X-32498085Y-15099591D01*
X-32508393Y-15133569D01*
X-32525134Y-15164890D01*
X-32547661Y-15192339D01*
X-32575110Y-15214866D01*
X-32606431Y-15231607D01*
X-32640409Y-15241915D01*
X-32681890Y-15246000D01*
X-33358110Y-15246000D01*
X-33399591Y-15241915D01*
X-33433569Y-15231607D01*
X-33464890Y-15214866D01*
X-33492339Y-15192339D01*
X-33514866Y-15164890D01*
X-33531607Y-15133569D01*
X-33541915Y-15099591D01*
X-33546000Y-15058110D01*
X-33546000Y-14456890D01*
X-33541915Y-14415409D01*
X-33531607Y-14381431D01*
X-33514866Y-14350110D01*
X-33492339Y-14322661D01*
X-33464890Y-14300134D01*
X-33433569Y-14283393D01*
X-33399591Y-14273085D01*
X-33358110Y-14269000D01*
X-32681890Y-14269000D01*
X-32640409Y-14273085D01*
X-32640409Y-14273085D01*
G37*
G36*
X-21550532Y-13731565D02*
G01*
X-21511862Y-13743296D01*
X-21476223Y-13762346D01*
X-21444983Y-13787983D01*
X-21419346Y-13819223D01*
X-21400296Y-13854862D01*
X-21388565Y-13893532D01*
X-21384000Y-13939888D01*
X-21384000Y-15016112D01*
X-21388565Y-15062468D01*
X-21400296Y-15101138D01*
X-21419346Y-15136777D01*
X-21444983Y-15168017D01*
X-21476223Y-15193654D01*
X-21511862Y-15212704D01*
X-21550532Y-15224435D01*
X-21596888Y-15229000D01*
X-22248112Y-15229000D01*
X-22294468Y-15224435D01*
X-22333138Y-15212704D01*
X-22368777Y-15193654D01*
X-22400017Y-15168017D01*
X-22425654Y-15136777D01*
X-22444704Y-15101138D01*
X-22456435Y-15062468D01*
X-22461000Y-15016112D01*
X-22461000Y-13939888D01*
X-22456435Y-13893532D01*
X-22444704Y-13854862D01*
X-22425654Y-13819223D01*
X-22400017Y-13787983D01*
X-22368777Y-13762346D01*
X-22333138Y-13743296D01*
X-22294468Y-13731565D01*
X-22248112Y-13727000D01*
X-21596888Y-13727000D01*
X-21550532Y-13731565D01*
X-21550532Y-13731565D01*
G37*
G36*
X-3105532Y-13731565D02*
G01*
X-3066862Y-13743296D01*
X-3031223Y-13762346D01*
X-2999983Y-13787983D01*
X-2974346Y-13819223D01*
X-2955296Y-13854862D01*
X-2943565Y-13893532D01*
X-2939000Y-13939888D01*
X-2939000Y-15016112D01*
X-2943565Y-15062468D01*
X-2955296Y-15101138D01*
X-2974346Y-15136777D01*
X-2999983Y-15168017D01*
X-3031223Y-15193654D01*
X-3066862Y-15212704D01*
X-3105532Y-15224435D01*
X-3151888Y-15229000D01*
X-3803112Y-15229000D01*
X-3849468Y-15224435D01*
X-3888138Y-15212704D01*
X-3923777Y-15193654D01*
X-3955017Y-15168017D01*
X-3980654Y-15136777D01*
X-3999704Y-15101138D01*
X-4011435Y-15062468D01*
X-4016000Y-15016112D01*
X-4016000Y-13939888D01*
X-4011435Y-13893532D01*
X-3999704Y-13854862D01*
X-3980654Y-13819223D01*
X-3955017Y-13787983D01*
X-3923777Y-13762346D01*
X-3888138Y-13743296D01*
X-3849468Y-13731565D01*
X-3803112Y-13727000D01*
X-3151888Y-13727000D01*
X-3105532Y-13731565D01*
X-3105532Y-13731565D01*
G37*
G36*
X-1230532Y-13731565D02*
G01*
X-1191862Y-13743296D01*
X-1156223Y-13762346D01*
X-1124983Y-13787983D01*
X-1099346Y-13819223D01*
X-1080296Y-13854862D01*
X-1068565Y-13893532D01*
X-1064000Y-13939888D01*
X-1064000Y-15016112D01*
X-1068565Y-15062468D01*
X-1080296Y-15101138D01*
X-1099346Y-15136777D01*
X-1124983Y-15168017D01*
X-1156223Y-15193654D01*
X-1191862Y-15212704D01*
X-1230532Y-15224435D01*
X-1276888Y-15229000D01*
X-1928112Y-15229000D01*
X-1974468Y-15224435D01*
X-2013138Y-15212704D01*
X-2048777Y-15193654D01*
X-2080017Y-15168017D01*
X-2105654Y-15136777D01*
X-2124704Y-15101138D01*
X-2136435Y-15062468D01*
X-2141000Y-15016112D01*
X-2141000Y-13939888D01*
X-2136435Y-13893532D01*
X-2124704Y-13854862D01*
X-2105654Y-13819223D01*
X-2080017Y-13787983D01*
X-2048777Y-13762346D01*
X-2013138Y-13743296D01*
X-1974468Y-13731565D01*
X-1928112Y-13727000D01*
X-1276888Y-13727000D01*
X-1230532Y-13731565D01*
X-1230532Y-13731565D01*
G37*
G36*
X-13265532Y-13731565D02*
G01*
X-13226862Y-13743296D01*
X-13191223Y-13762346D01*
X-13159983Y-13787983D01*
X-13134346Y-13819223D01*
X-13115296Y-13854862D01*
X-13103565Y-13893532D01*
X-13099000Y-13939888D01*
X-13099000Y-15016112D01*
X-13103565Y-15062468D01*
X-13115296Y-15101138D01*
X-13134346Y-15136777D01*
X-13159983Y-15168017D01*
X-13191223Y-15193654D01*
X-13226862Y-15212704D01*
X-13265532Y-15224435D01*
X-13311888Y-15229000D01*
X-13963112Y-15229000D01*
X-14009468Y-15224435D01*
X-14048138Y-15212704D01*
X-14083777Y-15193654D01*
X-14115017Y-15168017D01*
X-14140654Y-15136777D01*
X-14159704Y-15101138D01*
X-14171435Y-15062468D01*
X-14176000Y-15016112D01*
X-14176000Y-13939888D01*
X-14171435Y-13893532D01*
X-14159704Y-13854862D01*
X-14140654Y-13819223D01*
X-14115017Y-13787983D01*
X-14083777Y-13762346D01*
X-14048138Y-13743296D01*
X-14009468Y-13731565D01*
X-13963112Y-13727000D01*
X-13311888Y-13727000D01*
X-13265532Y-13731565D01*
X-13265532Y-13731565D01*
G37*
G36*
X-11390532Y-13731565D02*
G01*
X-11351862Y-13743296D01*
X-11316223Y-13762346D01*
X-11284983Y-13787983D01*
X-11259346Y-13819223D01*
X-11240296Y-13854862D01*
X-11228565Y-13893532D01*
X-11224000Y-13939888D01*
X-11224000Y-15016112D01*
X-11228565Y-15062468D01*
X-11240296Y-15101138D01*
X-11259346Y-15136777D01*
X-11284983Y-15168017D01*
X-11316223Y-15193654D01*
X-11351862Y-15212704D01*
X-11390532Y-15224435D01*
X-11436888Y-15229000D01*
X-12088112Y-15229000D01*
X-12134468Y-15224435D01*
X-12173138Y-15212704D01*
X-12208777Y-15193654D01*
X-12240017Y-15168017D01*
X-12265654Y-15136777D01*
X-12284704Y-15101138D01*
X-12296435Y-15062468D01*
X-12301000Y-15016112D01*
X-12301000Y-13939888D01*
X-12296435Y-13893532D01*
X-12284704Y-13854862D01*
X-12265654Y-13819223D01*
X-12240017Y-13787983D01*
X-12208777Y-13762346D01*
X-12173138Y-13743296D01*
X-12134468Y-13731565D01*
X-12088112Y-13727000D01*
X-11436888Y-13727000D01*
X-11390532Y-13731565D01*
X-11390532Y-13731565D01*
G37*
G36*
X-23425532Y-13731565D02*
G01*
X-23386862Y-13743296D01*
X-23351223Y-13762346D01*
X-23319983Y-13787983D01*
X-23294346Y-13819223D01*
X-23275296Y-13854862D01*
X-23263565Y-13893532D01*
X-23259000Y-13939888D01*
X-23259000Y-15016112D01*
X-23263565Y-15062468D01*
X-23275296Y-15101138D01*
X-23294346Y-15136777D01*
X-23319983Y-15168017D01*
X-23351223Y-15193654D01*
X-23386862Y-15212704D01*
X-23425532Y-15224435D01*
X-23471888Y-15229000D01*
X-24123112Y-15229000D01*
X-24169468Y-15224435D01*
X-24208138Y-15212704D01*
X-24243777Y-15193654D01*
X-24275017Y-15168017D01*
X-24300654Y-15136777D01*
X-24319704Y-15101138D01*
X-24331435Y-15062468D01*
X-24336000Y-15016112D01*
X-24336000Y-13939888D01*
X-24331435Y-13893532D01*
X-24319704Y-13854862D01*
X-24300654Y-13819223D01*
X-24275017Y-13787983D01*
X-24243777Y-13762346D01*
X-24208138Y-13743296D01*
X-24169468Y-13731565D01*
X-24123112Y-13727000D01*
X-23471888Y-13727000D01*
X-23425532Y-13731565D01*
X-23425532Y-13731565D01*
G37*
G36*
X-8065409Y-14083085D02*
G01*
X-8031431Y-14093393D01*
X-8000110Y-14110134D01*
X-7972661Y-14132661D01*
X-7950134Y-14160110D01*
X-7933393Y-14191431D01*
X-7923085Y-14225409D01*
X-7919000Y-14266890D01*
X-7919000Y-14943110D01*
X-7923085Y-14984591D01*
X-7933393Y-15018569D01*
X-7950134Y-15049890D01*
X-7972661Y-15077339D01*
X-8000110Y-15099866D01*
X-8031431Y-15116607D01*
X-8065409Y-15126915D01*
X-8106890Y-15131000D01*
X-8708110Y-15131000D01*
X-8749591Y-15126915D01*
X-8783569Y-15116607D01*
X-8814890Y-15099866D01*
X-8842339Y-15077339D01*
X-8864866Y-15049890D01*
X-8881607Y-15018569D01*
X-8891915Y-14984591D01*
X-8896000Y-14943110D01*
X-8896000Y-14266890D01*
X-8891915Y-14225409D01*
X-8881607Y-14191431D01*
X-8864866Y-14160110D01*
X-8842339Y-14132661D01*
X-8814890Y-14110134D01*
X-8783569Y-14093393D01*
X-8749591Y-14083085D01*
X-8708110Y-14079000D01*
X-8106890Y-14079000D01*
X-8065409Y-14083085D01*
X-8065409Y-14083085D01*
G37*
G36*
X-6490409Y-14083085D02*
G01*
X-6456431Y-14093393D01*
X-6425110Y-14110134D01*
X-6397661Y-14132661D01*
X-6375134Y-14160110D01*
X-6358393Y-14191431D01*
X-6348085Y-14225409D01*
X-6344000Y-14266890D01*
X-6344000Y-14943110D01*
X-6348085Y-14984591D01*
X-6358393Y-15018569D01*
X-6375134Y-15049890D01*
X-6397661Y-15077339D01*
X-6425110Y-15099866D01*
X-6456431Y-15116607D01*
X-6490409Y-15126915D01*
X-6531890Y-15131000D01*
X-7133110Y-15131000D01*
X-7174591Y-15126915D01*
X-7208569Y-15116607D01*
X-7239890Y-15099866D01*
X-7267339Y-15077339D01*
X-7289866Y-15049890D01*
X-7306607Y-15018569D01*
X-7316915Y-14984591D01*
X-7321000Y-14943110D01*
X-7321000Y-14266890D01*
X-7316915Y-14225409D01*
X-7306607Y-14191431D01*
X-7289866Y-14160110D01*
X-7267339Y-14132661D01*
X-7239890Y-14110134D01*
X-7208569Y-14093393D01*
X-7174591Y-14083085D01*
X-7133110Y-14079000D01*
X-6531890Y-14079000D01*
X-6490409Y-14083085D01*
X-6490409Y-14083085D01*
G37*
G36*
X3669591Y-14083085D02*
G01*
X3703569Y-14093393D01*
X3734890Y-14110134D01*
X3762339Y-14132661D01*
X3784866Y-14160110D01*
X3801607Y-14191431D01*
X3811915Y-14225409D01*
X3816000Y-14266890D01*
X3816000Y-14943110D01*
X3811915Y-14984591D01*
X3801607Y-15018569D01*
X3784866Y-15049890D01*
X3762339Y-15077339D01*
X3734890Y-15099866D01*
X3703569Y-15116607D01*
X3669591Y-15126915D01*
X3628110Y-15131000D01*
X3026890Y-15131000D01*
X2985409Y-15126915D01*
X2951431Y-15116607D01*
X2920110Y-15099866D01*
X2892661Y-15077339D01*
X2870134Y-15049890D01*
X2853393Y-15018569D01*
X2843085Y-14984591D01*
X2839000Y-14943110D01*
X2839000Y-14266890D01*
X2843085Y-14225409D01*
X2853393Y-14191431D01*
X2870134Y-14160110D01*
X2892661Y-14132661D01*
X2920110Y-14110134D01*
X2951431Y-14093393D01*
X2985409Y-14083085D01*
X3026890Y-14079000D01*
X3628110Y-14079000D01*
X3669591Y-14083085D01*
X3669591Y-14083085D01*
G37*
G36*
X2094591Y-14083085D02*
G01*
X2128569Y-14093393D01*
X2159890Y-14110134D01*
X2187339Y-14132661D01*
X2209866Y-14160110D01*
X2226607Y-14191431D01*
X2236915Y-14225409D01*
X2241000Y-14266890D01*
X2241000Y-14943110D01*
X2236915Y-14984591D01*
X2226607Y-15018569D01*
X2209866Y-15049890D01*
X2187339Y-15077339D01*
X2159890Y-15099866D01*
X2128569Y-15116607D01*
X2094591Y-15126915D01*
X2053110Y-15131000D01*
X1451890Y-15131000D01*
X1410409Y-15126915D01*
X1376431Y-15116607D01*
X1345110Y-15099866D01*
X1317661Y-15077339D01*
X1295134Y-15049890D01*
X1278393Y-15018569D01*
X1268085Y-14984591D01*
X1264000Y-14943110D01*
X1264000Y-14266890D01*
X1268085Y-14225409D01*
X1278393Y-14191431D01*
X1295134Y-14160110D01*
X1317661Y-14132661D01*
X1345110Y-14110134D01*
X1376431Y-14093393D01*
X1410409Y-14083085D01*
X1451890Y-14079000D01*
X2053110Y-14079000D01*
X2094591Y-14083085D01*
X2094591Y-14083085D01*
G37*
G36*
X-16650409Y-14083085D02*
G01*
X-16616431Y-14093393D01*
X-16585110Y-14110134D01*
X-16557661Y-14132661D01*
X-16535134Y-14160110D01*
X-16518393Y-14191431D01*
X-16508085Y-14225409D01*
X-16504000Y-14266890D01*
X-16504000Y-14943110D01*
X-16508085Y-14984591D01*
X-16518393Y-15018569D01*
X-16535134Y-15049890D01*
X-16557661Y-15077339D01*
X-16585110Y-15099866D01*
X-16616431Y-15116607D01*
X-16650409Y-15126915D01*
X-16691890Y-15131000D01*
X-17293110Y-15131000D01*
X-17334591Y-15126915D01*
X-17368569Y-15116607D01*
X-17399890Y-15099866D01*
X-17427339Y-15077339D01*
X-17449866Y-15049890D01*
X-17466607Y-15018569D01*
X-17476915Y-14984591D01*
X-17481000Y-14943110D01*
X-17481000Y-14266890D01*
X-17476915Y-14225409D01*
X-17466607Y-14191431D01*
X-17449866Y-14160110D01*
X-17427339Y-14132661D01*
X-17399890Y-14110134D01*
X-17368569Y-14093393D01*
X-17334591Y-14083085D01*
X-17293110Y-14079000D01*
X-16691890Y-14079000D01*
X-16650409Y-14083085D01*
X-16650409Y-14083085D01*
G37*
G36*
X-18225409Y-14083085D02*
G01*
X-18191431Y-14093393D01*
X-18160110Y-14110134D01*
X-18132661Y-14132661D01*
X-18110134Y-14160110D01*
X-18093393Y-14191431D01*
X-18083085Y-14225409D01*
X-18079000Y-14266890D01*
X-18079000Y-14943110D01*
X-18083085Y-14984591D01*
X-18093393Y-15018569D01*
X-18110134Y-15049890D01*
X-18132661Y-15077339D01*
X-18160110Y-15099866D01*
X-18191431Y-15116607D01*
X-18225409Y-15126915D01*
X-18266890Y-15131000D01*
X-18868110Y-15131000D01*
X-18909591Y-15126915D01*
X-18943569Y-15116607D01*
X-18974890Y-15099866D01*
X-19002339Y-15077339D01*
X-19024866Y-15049890D01*
X-19041607Y-15018569D01*
X-19051915Y-14984591D01*
X-19056000Y-14943110D01*
X-19056000Y-14266890D01*
X-19051915Y-14225409D01*
X-19041607Y-14191431D01*
X-19024866Y-14160110D01*
X-19002339Y-14132661D01*
X-18974890Y-14110134D01*
X-18943569Y-14093393D01*
X-18909591Y-14083085D01*
X-18868110Y-14079000D01*
X-18266890Y-14079000D01*
X-18225409Y-14083085D01*
X-18225409Y-14083085D01*
G37*
G36*
X-26810409Y-14083085D02*
G01*
X-26776431Y-14093393D01*
X-26745110Y-14110134D01*
X-26717661Y-14132661D01*
X-26695134Y-14160110D01*
X-26678393Y-14191431D01*
X-26668085Y-14225409D01*
X-26664000Y-14266890D01*
X-26664000Y-14943110D01*
X-26668085Y-14984591D01*
X-26678393Y-15018569D01*
X-26695134Y-15049890D01*
X-26717661Y-15077339D01*
X-26745110Y-15099866D01*
X-26776431Y-15116607D01*
X-26810409Y-15126915D01*
X-26851890Y-15131000D01*
X-27453110Y-15131000D01*
X-27494591Y-15126915D01*
X-27528569Y-15116607D01*
X-27559890Y-15099866D01*
X-27587339Y-15077339D01*
X-27609866Y-15049890D01*
X-27626607Y-15018569D01*
X-27636915Y-14984591D01*
X-27641000Y-14943110D01*
X-27641000Y-14266890D01*
X-27636915Y-14225409D01*
X-27626607Y-14191431D01*
X-27609866Y-14160110D01*
X-27587339Y-14132661D01*
X-27559890Y-14110134D01*
X-27528569Y-14093393D01*
X-27494591Y-14083085D01*
X-27453110Y-14079000D01*
X-26851890Y-14079000D01*
X-26810409Y-14083085D01*
X-26810409Y-14083085D01*
G37*
G36*
X-28385409Y-14083085D02*
G01*
X-28351431Y-14093393D01*
X-28320110Y-14110134D01*
X-28292661Y-14132661D01*
X-28270134Y-14160110D01*
X-28253393Y-14191431D01*
X-28243085Y-14225409D01*
X-28239000Y-14266890D01*
X-28239000Y-14943110D01*
X-28243085Y-14984591D01*
X-28253393Y-15018569D01*
X-28270134Y-15049890D01*
X-28292661Y-15077339D01*
X-28320110Y-15099866D01*
X-28351431Y-15116607D01*
X-28385409Y-15126915D01*
X-28426890Y-15131000D01*
X-29028110Y-15131000D01*
X-29069591Y-15126915D01*
X-29103569Y-15116607D01*
X-29134890Y-15099866D01*
X-29162339Y-15077339D01*
X-29184866Y-15049890D01*
X-29201607Y-15018569D01*
X-29211915Y-14984591D01*
X-29216000Y-14943110D01*
X-29216000Y-14266890D01*
X-29211915Y-14225409D01*
X-29201607Y-14191431D01*
X-29184866Y-14160110D01*
X-29162339Y-14132661D01*
X-29134890Y-14110134D01*
X-29103569Y-14093393D01*
X-29069591Y-14083085D01*
X-29028110Y-14079000D01*
X-28426890Y-14079000D01*
X-28385409Y-14083085D01*
X-28385409Y-14083085D01*
G37*
G36*
X-32640409Y-12698085D02*
G01*
X-32606431Y-12708393D01*
X-32575110Y-12725134D01*
X-32547661Y-12747661D01*
X-32525134Y-12775110D01*
X-32508393Y-12806431D01*
X-32498085Y-12840409D01*
X-32494000Y-12881890D01*
X-32494000Y-13483110D01*
X-32498085Y-13524591D01*
X-32508393Y-13558569D01*
X-32525134Y-13589890D01*
X-32547661Y-13617339D01*
X-32575110Y-13639866D01*
X-32606431Y-13656607D01*
X-32640409Y-13666915D01*
X-32681890Y-13671000D01*
X-33358110Y-13671000D01*
X-33399591Y-13666915D01*
X-33433569Y-13656607D01*
X-33464890Y-13639866D01*
X-33492339Y-13617339D01*
X-33514866Y-13589890D01*
X-33531607Y-13558569D01*
X-33541915Y-13524591D01*
X-33546000Y-13483110D01*
X-33546000Y-12881890D01*
X-33541915Y-12840409D01*
X-33531607Y-12806431D01*
X-33514866Y-12775110D01*
X-33492339Y-12747661D01*
X-33464890Y-12725134D01*
X-33433569Y-12708393D01*
X-33399591Y-12698085D01*
X-33358110Y-12694000D01*
X-32681890Y-12694000D01*
X-32640409Y-12698085D01*
X-32640409Y-12698085D01*
G37*
G36*
X-11570409Y-12178085D02*
G01*
X-11536431Y-12188393D01*
X-11505110Y-12205134D01*
X-11477661Y-12227661D01*
X-11455134Y-12255110D01*
X-11438393Y-12286431D01*
X-11428085Y-12320409D01*
X-11424000Y-12361890D01*
X-11424000Y-13038110D01*
X-11428085Y-13079591D01*
X-11438393Y-13113569D01*
X-11455134Y-13144890D01*
X-11477661Y-13172339D01*
X-11505110Y-13194866D01*
X-11536431Y-13211607D01*
X-11570409Y-13221915D01*
X-11611890Y-13226000D01*
X-12213110Y-13226000D01*
X-12254591Y-13221915D01*
X-12288569Y-13211607D01*
X-12319890Y-13194866D01*
X-12347339Y-13172339D01*
X-12369866Y-13144890D01*
X-12386607Y-13113569D01*
X-12396915Y-13079591D01*
X-12401000Y-13038110D01*
X-12401000Y-12361890D01*
X-12396915Y-12320409D01*
X-12386607Y-12286431D01*
X-12369866Y-12255110D01*
X-12347339Y-12227661D01*
X-12319890Y-12205134D01*
X-12288569Y-12188393D01*
X-12254591Y-12178085D01*
X-12213110Y-12174000D01*
X-11611890Y-12174000D01*
X-11570409Y-12178085D01*
X-11570409Y-12178085D01*
G37*
G36*
X-21730409Y-12178085D02*
G01*
X-21696431Y-12188393D01*
X-21665110Y-12205134D01*
X-21637661Y-12227661D01*
X-21615134Y-12255110D01*
X-21598393Y-12286431D01*
X-21588085Y-12320409D01*
X-21584000Y-12361890D01*
X-21584000Y-13038110D01*
X-21588085Y-13079591D01*
X-21598393Y-13113569D01*
X-21615134Y-13144890D01*
X-21637661Y-13172339D01*
X-21665110Y-13194866D01*
X-21696431Y-13211607D01*
X-21730409Y-13221915D01*
X-21771890Y-13226000D01*
X-22373110Y-13226000D01*
X-22414591Y-13221915D01*
X-22448569Y-13211607D01*
X-22479890Y-13194866D01*
X-22507339Y-13172339D01*
X-22529866Y-13144890D01*
X-22546607Y-13113569D01*
X-22556915Y-13079591D01*
X-22561000Y-13038110D01*
X-22561000Y-12361890D01*
X-22556915Y-12320409D01*
X-22546607Y-12286431D01*
X-22529866Y-12255110D01*
X-22507339Y-12227661D01*
X-22479890Y-12205134D01*
X-22448569Y-12188393D01*
X-22414591Y-12178085D01*
X-22373110Y-12174000D01*
X-21771890Y-12174000D01*
X-21730409Y-12178085D01*
X-21730409Y-12178085D01*
G37*
G36*
X-13145409Y-12178085D02*
G01*
X-13111431Y-12188393D01*
X-13080110Y-12205134D01*
X-13052661Y-12227661D01*
X-13030134Y-12255110D01*
X-13013393Y-12286431D01*
X-13003085Y-12320409D01*
X-12999000Y-12361890D01*
X-12999000Y-13038110D01*
X-13003085Y-13079591D01*
X-13013393Y-13113569D01*
X-13030134Y-13144890D01*
X-13052661Y-13172339D01*
X-13080110Y-13194866D01*
X-13111431Y-13211607D01*
X-13145409Y-13221915D01*
X-13186890Y-13226000D01*
X-13788110Y-13226000D01*
X-13829591Y-13221915D01*
X-13863569Y-13211607D01*
X-13894890Y-13194866D01*
X-13922339Y-13172339D01*
X-13944866Y-13144890D01*
X-13961607Y-13113569D01*
X-13971915Y-13079591D01*
X-13976000Y-13038110D01*
X-13976000Y-12361890D01*
X-13971915Y-12320409D01*
X-13961607Y-12286431D01*
X-13944866Y-12255110D01*
X-13922339Y-12227661D01*
X-13894890Y-12205134D01*
X-13863569Y-12188393D01*
X-13829591Y-12178085D01*
X-13788110Y-12174000D01*
X-13186890Y-12174000D01*
X-13145409Y-12178085D01*
X-13145409Y-12178085D01*
G37*
G36*
X-1410409Y-12178085D02*
G01*
X-1376431Y-12188393D01*
X-1345110Y-12205134D01*
X-1317661Y-12227661D01*
X-1295134Y-12255110D01*
X-1278393Y-12286431D01*
X-1268085Y-12320409D01*
X-1264000Y-12361890D01*
X-1264000Y-13038110D01*
X-1268085Y-13079591D01*
X-1278393Y-13113569D01*
X-1295134Y-13144890D01*
X-1317661Y-13172339D01*
X-1345110Y-13194866D01*
X-1376431Y-13211607D01*
X-1410409Y-13221915D01*
X-1451890Y-13226000D01*
X-2053110Y-13226000D01*
X-2094591Y-13221915D01*
X-2128569Y-13211607D01*
X-2159890Y-13194866D01*
X-2187339Y-13172339D01*
X-2209866Y-13144890D01*
X-2226607Y-13113569D01*
X-2236915Y-13079591D01*
X-2241000Y-13038110D01*
X-2241000Y-12361890D01*
X-2236915Y-12320409D01*
X-2226607Y-12286431D01*
X-2209866Y-12255110D01*
X-2187339Y-12227661D01*
X-2159890Y-12205134D01*
X-2128569Y-12188393D01*
X-2094591Y-12178085D01*
X-2053110Y-12174000D01*
X-1451890Y-12174000D01*
X-1410409Y-12178085D01*
X-1410409Y-12178085D01*
G37*
G36*
X-2985409Y-12178085D02*
G01*
X-2951431Y-12188393D01*
X-2920110Y-12205134D01*
X-2892661Y-12227661D01*
X-2870134Y-12255110D01*
X-2853393Y-12286431D01*
X-2843085Y-12320409D01*
X-2839000Y-12361890D01*
X-2839000Y-13038110D01*
X-2843085Y-13079591D01*
X-2853393Y-13113569D01*
X-2870134Y-13144890D01*
X-2892661Y-13172339D01*
X-2920110Y-13194866D01*
X-2951431Y-13211607D01*
X-2985409Y-13221915D01*
X-3026890Y-13226000D01*
X-3628110Y-13226000D01*
X-3669591Y-13221915D01*
X-3703569Y-13211607D01*
X-3734890Y-13194866D01*
X-3762339Y-13172339D01*
X-3784866Y-13144890D01*
X-3801607Y-13113569D01*
X-3811915Y-13079591D01*
X-3816000Y-13038110D01*
X-3816000Y-12361890D01*
X-3811915Y-12320409D01*
X-3801607Y-12286431D01*
X-3784866Y-12255110D01*
X-3762339Y-12227661D01*
X-3734890Y-12205134D01*
X-3703569Y-12188393D01*
X-3669591Y-12178085D01*
X-3628110Y-12174000D01*
X-3026890Y-12174000D01*
X-2985409Y-12178085D01*
X-2985409Y-12178085D01*
G37*
G36*
X-23305409Y-12178085D02*
G01*
X-23271431Y-12188393D01*
X-23240110Y-12205134D01*
X-23212661Y-12227661D01*
X-23190134Y-12255110D01*
X-23173393Y-12286431D01*
X-23163085Y-12320409D01*
X-23159000Y-12361890D01*
X-23159000Y-13038110D01*
X-23163085Y-13079591D01*
X-23173393Y-13113569D01*
X-23190134Y-13144890D01*
X-23212661Y-13172339D01*
X-23240110Y-13194866D01*
X-23271431Y-13211607D01*
X-23305409Y-13221915D01*
X-23346890Y-13226000D01*
X-23948110Y-13226000D01*
X-23989591Y-13221915D01*
X-24023569Y-13211607D01*
X-24054890Y-13194866D01*
X-24082339Y-13172339D01*
X-24104866Y-13144890D01*
X-24121607Y-13113569D01*
X-24131915Y-13079591D01*
X-24136000Y-13038110D01*
X-24136000Y-12361890D01*
X-24131915Y-12320409D01*
X-24121607Y-12286431D01*
X-24104866Y-12255110D01*
X-24082339Y-12227661D01*
X-24054890Y-12205134D01*
X-24023569Y-12188393D01*
X-23989591Y-12178085D01*
X-23948110Y-12174000D01*
X-23346890Y-12174000D01*
X-23305409Y-12178085D01*
X-23305409Y-12178085D01*
G37*
G36*
X-36523436Y-11054389D02*
G01*
X-36332167Y-11133615D01*
X-36332165Y-11133616D01*
X-36160027Y-11248635D01*
X-36013635Y-11395027D01*
X-35898615Y-11567167D01*
X-35819389Y-11758436D01*
X-35779000Y-11961484D01*
X-35779000Y-12168516D01*
X-35819389Y-12371564D01*
X-35838727Y-12418250D01*
X-35898616Y-12562835D01*
X-36013635Y-12734973D01*
X-36160027Y-12881365D01*
X-36332165Y-12996384D01*
X-36332166Y-12996385D01*
X-36332167Y-12996385D01*
X-36523436Y-13075611D01*
X-36726484Y-13116000D01*
X-36933516Y-13116000D01*
X-37136564Y-13075611D01*
X-37327833Y-12996385D01*
X-37327834Y-12996385D01*
X-37327835Y-12996384D01*
X-37499973Y-12881365D01*
X-37646365Y-12734973D01*
X-37761384Y-12562835D01*
X-37821273Y-12418250D01*
X-37840611Y-12371564D01*
X-37881000Y-12168516D01*
X-37881000Y-11961484D01*
X-37840611Y-11758436D01*
X-37761385Y-11567167D01*
X-37646365Y-11395027D01*
X-37499973Y-11248635D01*
X-37327835Y-11133616D01*
X-37327833Y-11133615D01*
X-37136564Y-11054389D01*
X-36933516Y-11014000D01*
X-36726484Y-11014000D01*
X-36523436Y-11054389D01*
X-36523436Y-11054389D01*
G37*
G36*
X37136564Y-11054389D02*
G01*
X37327833Y-11133615D01*
X37327835Y-11133616D01*
X37499973Y-11248635D01*
X37646365Y-11395027D01*
X37761385Y-11567167D01*
X37840611Y-11758436D01*
X37881000Y-11961484D01*
X37881000Y-12168516D01*
X37840611Y-12371564D01*
X37821273Y-12418250D01*
X37761384Y-12562835D01*
X37646365Y-12734973D01*
X37499973Y-12881365D01*
X37327835Y-12996384D01*
X37327834Y-12996385D01*
X37327833Y-12996385D01*
X37136564Y-13075611D01*
X36933516Y-13116000D01*
X36726484Y-13116000D01*
X36523436Y-13075611D01*
X36332167Y-12996385D01*
X36332166Y-12996385D01*
X36332165Y-12996384D01*
X36160027Y-12881365D01*
X36013635Y-12734973D01*
X35898616Y-12562835D01*
X35838727Y-12418250D01*
X35819389Y-12371564D01*
X35779000Y-12168516D01*
X35779000Y-11961484D01*
X35819389Y-11758436D01*
X35898615Y-11567167D01*
X36013635Y-11395027D01*
X36160027Y-11248635D01*
X36332165Y-11133616D01*
X36332167Y-11133615D01*
X36523436Y-11054389D01*
X36726484Y-11014000D01*
X36933516Y-11014000D01*
X37136564Y-11054389D01*
X37136564Y-11054389D01*
G37*
G36*
X-28639000Y-12635000D02*
G01*
X-31241000Y-12635000D01*
X-31241000Y-10733000D01*
X-28639000Y-10733000D01*
X-28639000Y-12635000D01*
X-28639000Y-12635000D01*
G37*
G36*
X-14479000Y-12635000D02*
G01*
X-17081000Y-12635000D01*
X-17081000Y-10733000D01*
X-14479000Y-10733000D01*
X-14479000Y-12635000D01*
X-14479000Y-12635000D01*
G37*
G36*
X-18479000Y-12635000D02*
G01*
X-21081000Y-12635000D01*
X-21081000Y-10733000D01*
X-18479000Y-10733000D01*
X-18479000Y-12635000D01*
X-18479000Y-12635000D01*
G37*
G36*
X-24639000Y-12635000D02*
G01*
X-27241000Y-12635000D01*
X-27241000Y-10733000D01*
X-24639000Y-10733000D01*
X-24639000Y-12635000D01*
X-24639000Y-12635000D01*
G37*
G36*
X-8319000Y-12635000D02*
G01*
X-10921000Y-12635000D01*
X-10921000Y-10733000D01*
X-8319000Y-10733000D01*
X-8319000Y-12635000D01*
X-8319000Y-12635000D01*
G37*
G36*
X-4319000Y-12635000D02*
G01*
X-6921000Y-12635000D01*
X-6921000Y-10733000D01*
X-4319000Y-10733000D01*
X-4319000Y-12635000D01*
X-4319000Y-12635000D01*
G37*
G36*
X42804928Y-10236764D02*
G01*
X42826009Y-10243160D01*
X42845445Y-10253548D01*
X42862476Y-10267524D01*
X42876452Y-10284555D01*
X42886840Y-10303991D01*
X42893236Y-10325072D01*
X42896000Y-10353140D01*
X42896000Y-12016860D01*
X42893236Y-12044928D01*
X42886840Y-12066009D01*
X42876452Y-12085445D01*
X42862476Y-12102476D01*
X42845445Y-12116452D01*
X42826009Y-12126840D01*
X42804928Y-12133236D01*
X42776860Y-12136000D01*
X42313140Y-12136000D01*
X42285072Y-12133236D01*
X42263991Y-12126840D01*
X42244555Y-12116452D01*
X42227524Y-12102476D01*
X42213548Y-12085445D01*
X42203160Y-12066009D01*
X42196764Y-12044928D01*
X42194000Y-12016860D01*
X42194000Y-10353140D01*
X42196764Y-10325072D01*
X42203160Y-10303991D01*
X42213548Y-10284555D01*
X42227524Y-10267524D01*
X42244555Y-10253548D01*
X42263991Y-10243160D01*
X42285072Y-10236764D01*
X42313140Y-10234000D01*
X42776860Y-10234000D01*
X42804928Y-10236764D01*
X42804928Y-10236764D01*
G37*
G36*
X40264928Y-10236764D02*
G01*
X40286009Y-10243160D01*
X40305445Y-10253548D01*
X40322476Y-10267524D01*
X40336452Y-10284555D01*
X40346840Y-10303991D01*
X40353236Y-10325072D01*
X40356000Y-10353140D01*
X40356000Y-12016860D01*
X40353236Y-12044928D01*
X40346840Y-12066009D01*
X40336452Y-12085445D01*
X40322476Y-12102476D01*
X40305445Y-12116452D01*
X40286009Y-12126840D01*
X40264928Y-12133236D01*
X40236860Y-12136000D01*
X39773140Y-12136000D01*
X39745072Y-12133236D01*
X39723991Y-12126840D01*
X39704555Y-12116452D01*
X39687524Y-12102476D01*
X39673548Y-12085445D01*
X39663160Y-12066009D01*
X39656764Y-12044928D01*
X39654000Y-12016860D01*
X39654000Y-10353140D01*
X39656764Y-10325072D01*
X39663160Y-10303991D01*
X39673548Y-10284555D01*
X39687524Y-10267524D01*
X39704555Y-10253548D01*
X39723991Y-10243160D01*
X39745072Y-10236764D01*
X39773140Y-10234000D01*
X40236860Y-10234000D01*
X40264928Y-10236764D01*
X40264928Y-10236764D01*
G37*
G36*
X41534928Y-10236764D02*
G01*
X41556009Y-10243160D01*
X41575445Y-10253548D01*
X41592476Y-10267524D01*
X41606452Y-10284555D01*
X41616840Y-10303991D01*
X41623236Y-10325072D01*
X41626000Y-10353140D01*
X41626000Y-12016860D01*
X41623236Y-12044928D01*
X41616840Y-12066009D01*
X41606452Y-12085445D01*
X41592476Y-12102476D01*
X41575445Y-12116452D01*
X41556009Y-12126840D01*
X41534928Y-12133236D01*
X41506860Y-12136000D01*
X41043140Y-12136000D01*
X41015072Y-12133236D01*
X40993991Y-12126840D01*
X40974555Y-12116452D01*
X40957524Y-12102476D01*
X40943548Y-12085445D01*
X40933160Y-12066009D01*
X40926764Y-12044928D01*
X40924000Y-12016860D01*
X40924000Y-10353140D01*
X40926764Y-10325072D01*
X40933160Y-10303991D01*
X40943548Y-10284555D01*
X40957524Y-10267524D01*
X40974555Y-10253548D01*
X40993991Y-10243160D01*
X41015072Y-10236764D01*
X41043140Y-10234000D01*
X41506860Y-10234000D01*
X41534928Y-10236764D01*
X41534928Y-10236764D01*
G37*
G36*
X44074928Y-10236764D02*
G01*
X44096009Y-10243160D01*
X44115445Y-10253548D01*
X44132476Y-10267524D01*
X44146452Y-10284555D01*
X44156840Y-10303991D01*
X44163236Y-10325072D01*
X44166000Y-10353140D01*
X44166000Y-12016860D01*
X44163236Y-12044928D01*
X44156840Y-12066009D01*
X44146452Y-12085445D01*
X44132476Y-12102476D01*
X44115445Y-12116452D01*
X44096009Y-12126840D01*
X44074928Y-12133236D01*
X44046860Y-12136000D01*
X43583140Y-12136000D01*
X43555072Y-12133236D01*
X43533991Y-12126840D01*
X43514555Y-12116452D01*
X43497524Y-12102476D01*
X43483548Y-12085445D01*
X43473160Y-12066009D01*
X43466764Y-12044928D01*
X43464000Y-12016860D01*
X43464000Y-10353140D01*
X43466764Y-10325072D01*
X43473160Y-10303991D01*
X43483548Y-10284555D01*
X43497524Y-10267524D01*
X43514555Y-10253548D01*
X43533991Y-10243160D01*
X43555072Y-10236764D01*
X43583140Y-10234000D01*
X44046860Y-10234000D01*
X44074928Y-10236764D01*
X44074928Y-10236764D01*
G37*
G36*
X45880721Y-8360174D02*
G01*
X45980995Y-8401709D01*
X45980996Y-8401710D01*
X46071242Y-8462010D01*
X46147990Y-8538758D01*
X46147991Y-8538760D01*
X46208291Y-8629005D01*
X46249826Y-8729279D01*
X46271000Y-8835730D01*
X46271000Y-8944270D01*
X46249826Y-9050721D01*
X46208291Y-9150995D01*
X46208290Y-9150996D01*
X46147990Y-9241242D01*
X46071242Y-9317990D01*
X46025812Y-9348345D01*
X45980995Y-9378291D01*
X45880721Y-9419826D01*
X45774270Y-9441000D01*
X45665730Y-9441000D01*
X45559279Y-9419826D01*
X45459005Y-9378291D01*
X45414188Y-9348345D01*
X45368758Y-9317990D01*
X45292010Y-9241242D01*
X45231710Y-9150996D01*
X45231709Y-9150995D01*
X45190174Y-9050721D01*
X45169000Y-8944270D01*
X45169000Y-8835730D01*
X45190174Y-8729279D01*
X45231709Y-8629005D01*
X45292009Y-8538760D01*
X45292010Y-8538758D01*
X45368758Y-8462010D01*
X45459004Y-8401710D01*
X45459005Y-8401709D01*
X45559279Y-8360174D01*
X45665730Y-8339000D01*
X45774270Y-8339000D01*
X45880721Y-8360174D01*
X45880721Y-8360174D01*
G37*
G36*
X44061000Y-9287000D02*
G01*
X43059000Y-9287000D01*
X43059000Y-7985000D01*
X44061000Y-7985000D01*
X44061000Y-9287000D01*
X44061000Y-9287000D01*
G37*
G36*
X40761000Y-9287000D02*
G01*
X39759000Y-9287000D01*
X39759000Y-7985000D01*
X40761000Y-7985000D01*
X40761000Y-9287000D01*
X40761000Y-9287000D01*
G37*
G36*
X-12150910Y-3514528D02*
G01*
X-11622915Y-3674694D01*
X-11136323Y-3934783D01*
X-11136320Y-3934785D01*
X-11136319Y-3934786D01*
X-10709811Y-4284811D01*
X-10429075Y-4626890D01*
X-10359783Y-4711323D01*
X-10099694Y-5197915D01*
X-9939528Y-5725910D01*
X-9885448Y-6275000D01*
X-9939528Y-6824090D01*
X-10099694Y-7352085D01*
X-10359783Y-7838677D01*
X-10359785Y-7838680D01*
X-10359786Y-7838681D01*
X-10709811Y-8265189D01*
X-11136319Y-8615214D01*
X-11136323Y-8615217D01*
X-11622915Y-8875306D01*
X-12150910Y-9035472D01*
X-12562401Y-9076000D01*
X-12837599Y-9076000D01*
X-13249090Y-9035472D01*
X-13777085Y-8875306D01*
X-14263677Y-8615217D01*
X-14263681Y-8615214D01*
X-14690189Y-8265189D01*
X-15040214Y-7838681D01*
X-15040215Y-7838680D01*
X-15040217Y-7838677D01*
X-15300306Y-7352085D01*
X-15460472Y-6824090D01*
X-15514552Y-6275000D01*
X-15460472Y-5725910D01*
X-15300306Y-5197915D01*
X-15040217Y-4711323D01*
X-14970925Y-4626890D01*
X-14690189Y-4284811D01*
X-14263681Y-3934786D01*
X-14263680Y-3934785D01*
X-14263677Y-3934783D01*
X-13777085Y-3674694D01*
X-13249090Y-3514528D01*
X-12837599Y-3474000D01*
X-12562401Y-3474000D01*
X-12150910Y-3514528D01*
X-12150910Y-3514528D01*
G37*
G36*
X3089090Y-3514528D02*
G01*
X3617085Y-3674694D01*
X4103677Y-3934783D01*
X4103680Y-3934785D01*
X4103681Y-3934786D01*
X4530189Y-4284811D01*
X4810925Y-4626890D01*
X4880217Y-4711323D01*
X5140306Y-5197915D01*
X5300472Y-5725910D01*
X5354552Y-6275000D01*
X5300472Y-6824090D01*
X5140306Y-7352085D01*
X4880217Y-7838677D01*
X4880215Y-7838680D01*
X4880214Y-7838681D01*
X4530189Y-8265189D01*
X4103681Y-8615214D01*
X4103677Y-8615217D01*
X3617085Y-8875306D01*
X3089090Y-9035472D01*
X2677599Y-9076000D01*
X2402401Y-9076000D01*
X1990910Y-9035472D01*
X1462915Y-8875306D01*
X976323Y-8615217D01*
X976319Y-8615214D01*
X549811Y-8265189D01*
X199786Y-7838681D01*
X199785Y-7838680D01*
X199783Y-7838677D01*
X-60306Y-7352085D01*
X-220472Y-6824090D01*
X-274552Y-6275000D01*
X-220472Y-5725910D01*
X-60306Y-5197915D01*
X199783Y-4711323D01*
X269075Y-4626890D01*
X549811Y-4284811D01*
X976319Y-3934786D01*
X976320Y-3934785D01*
X976323Y-3934783D01*
X1462915Y-3674694D01*
X1990910Y-3514528D01*
X2402401Y-3474000D01*
X2677599Y-3474000D01*
X3089090Y-3514528D01*
X3089090Y-3514528D01*
G37*
G36*
X18329090Y-3514528D02*
G01*
X18857085Y-3674694D01*
X19343677Y-3934783D01*
X19343680Y-3934785D01*
X19343681Y-3934786D01*
X19770189Y-4284811D01*
X20050925Y-4626890D01*
X20120217Y-4711323D01*
X20380306Y-5197915D01*
X20540472Y-5725910D01*
X20594552Y-6275000D01*
X20540472Y-6824090D01*
X20380306Y-7352085D01*
X20120217Y-7838677D01*
X20120215Y-7838680D01*
X20120214Y-7838681D01*
X19770189Y-8265189D01*
X19343681Y-8615214D01*
X19343677Y-8615217D01*
X18857085Y-8875306D01*
X18329090Y-9035472D01*
X17917599Y-9076000D01*
X17642401Y-9076000D01*
X17230910Y-9035472D01*
X16702915Y-8875306D01*
X16216323Y-8615217D01*
X16216319Y-8615214D01*
X15789811Y-8265189D01*
X15439786Y-7838681D01*
X15439785Y-7838680D01*
X15439783Y-7838677D01*
X15179694Y-7352085D01*
X15019528Y-6824090D01*
X14965448Y-6275000D01*
X15019528Y-5725910D01*
X15179694Y-5197915D01*
X15439783Y-4711323D01*
X15509075Y-4626890D01*
X15789811Y-4284811D01*
X16216319Y-3934786D01*
X16216320Y-3934785D01*
X16216323Y-3934783D01*
X16702915Y-3674694D01*
X17230910Y-3514528D01*
X17642401Y-3474000D01*
X17917599Y-3474000D01*
X18329090Y-3514528D01*
X18329090Y-3514528D01*
G37*
G36*
X33569090Y-3514528D02*
G01*
X34097085Y-3674694D01*
X34583677Y-3934783D01*
X34583680Y-3934785D01*
X34583681Y-3934786D01*
X35010189Y-4284811D01*
X35290925Y-4626890D01*
X35360217Y-4711323D01*
X35620306Y-5197915D01*
X35780472Y-5725910D01*
X35834552Y-6275000D01*
X35780472Y-6824090D01*
X35620306Y-7352085D01*
X35360217Y-7838677D01*
X35360215Y-7838680D01*
X35360214Y-7838681D01*
X35010189Y-8265189D01*
X34583681Y-8615214D01*
X34583677Y-8615217D01*
X34097085Y-8875306D01*
X33569090Y-9035472D01*
X33157599Y-9076000D01*
X32882401Y-9076000D01*
X32470910Y-9035472D01*
X31942915Y-8875306D01*
X31456323Y-8615217D01*
X31456319Y-8615214D01*
X31029811Y-8265189D01*
X30679786Y-7838681D01*
X30679785Y-7838680D01*
X30679783Y-7838677D01*
X30419694Y-7352085D01*
X30259528Y-6824090D01*
X30205448Y-6275000D01*
X30259528Y-5725910D01*
X30419694Y-5197915D01*
X30679783Y-4711323D01*
X30749075Y-4626890D01*
X31029811Y-4284811D01*
X31456319Y-3934786D01*
X31456320Y-3934785D01*
X31456323Y-3934783D01*
X31942915Y-3674694D01*
X32470910Y-3514528D01*
X32882401Y-3474000D01*
X33157599Y-3474000D01*
X33569090Y-3514528D01*
X33569090Y-3514528D01*
G37*
G36*
X-31508494Y-5269591D02*
G01*
X-31341343Y-5302839D01*
X-31263966Y-5334890D01*
X-31086379Y-5408449D01*
X-31010237Y-5459325D01*
X-30856914Y-5561772D01*
X-30661772Y-5756914D01*
X-30613811Y-5828693D01*
X-30508449Y-5986379D01*
X-30402839Y-6241344D01*
X-30349000Y-6512012D01*
X-30349000Y-6787988D01*
X-30363644Y-6861607D01*
X-30386518Y-6976607D01*
X-30402839Y-7058656D01*
X-30508449Y-7313621D01*
X-30508450Y-7313622D01*
X-30661772Y-7543086D01*
X-30856914Y-7738228D01*
X-31007247Y-7838677D01*
X-31086379Y-7891551D01*
X-31235733Y-7953415D01*
X-31341343Y-7997161D01*
X-31431567Y-8015107D01*
X-31612012Y-8051000D01*
X-31887988Y-8051000D01*
X-32068433Y-8015107D01*
X-32158657Y-7997161D01*
X-32264267Y-7953415D01*
X-32413621Y-7891551D01*
X-32492753Y-7838677D01*
X-32643086Y-7738228D01*
X-32838228Y-7543086D01*
X-32991550Y-7313622D01*
X-32991551Y-7313621D01*
X-33097161Y-7058656D01*
X-33113481Y-6976607D01*
X-33136356Y-6861607D01*
X-33151000Y-6787988D01*
X-33151000Y-6512012D01*
X-33097161Y-6241344D01*
X-32991551Y-5986379D01*
X-32886189Y-5828693D01*
X-32838228Y-5756914D01*
X-32643086Y-5561772D01*
X-32489763Y-5459325D01*
X-32413621Y-5408449D01*
X-32236034Y-5334890D01*
X-32158657Y-5302839D01*
X-31991506Y-5269591D01*
X-31887988Y-5249000D01*
X-31612012Y-5249000D01*
X-31508494Y-5269591D01*
X-31508494Y-5269591D01*
G37*
G36*
X44829591Y-6018085D02*
G01*
X44863569Y-6028393D01*
X44894890Y-6045134D01*
X44922339Y-6067661D01*
X44944866Y-6095110D01*
X44961607Y-6126431D01*
X44971915Y-6160409D01*
X44976000Y-6201890D01*
X44976000Y-6803110D01*
X44971915Y-6844591D01*
X44961607Y-6878569D01*
X44944866Y-6909890D01*
X44922339Y-6937339D01*
X44894890Y-6959866D01*
X44863569Y-6976607D01*
X44829591Y-6986915D01*
X44788110Y-6991000D01*
X44111890Y-6991000D01*
X44070409Y-6986915D01*
X44036431Y-6976607D01*
X44005110Y-6959866D01*
X43977661Y-6937339D01*
X43955134Y-6909890D01*
X43938393Y-6878569D01*
X43928085Y-6844591D01*
X43924000Y-6803110D01*
X43924000Y-6201890D01*
X43928085Y-6160409D01*
X43938393Y-6126431D01*
X43955134Y-6095110D01*
X43977661Y-6067661D01*
X44005110Y-6045134D01*
X44036431Y-6028393D01*
X44070409Y-6018085D01*
X44111890Y-6014000D01*
X44788110Y-6014000D01*
X44829591Y-6018085D01*
X44829591Y-6018085D01*
G37*
G36*
X41464591Y-5828085D02*
G01*
X41498569Y-5838393D01*
X41529890Y-5855134D01*
X41557339Y-5877661D01*
X41579866Y-5905110D01*
X41596607Y-5936431D01*
X41606915Y-5970409D01*
X41611000Y-6011890D01*
X41611000Y-6688110D01*
X41606915Y-6729591D01*
X41596607Y-6763569D01*
X41579866Y-6794890D01*
X41557339Y-6822339D01*
X41529890Y-6844866D01*
X41498569Y-6861607D01*
X41464591Y-6871915D01*
X41423110Y-6876000D01*
X40821890Y-6876000D01*
X40780409Y-6871915D01*
X40746431Y-6861607D01*
X40715110Y-6844866D01*
X40687661Y-6822339D01*
X40665134Y-6794890D01*
X40648393Y-6763569D01*
X40638085Y-6729591D01*
X40634000Y-6688110D01*
X40634000Y-6011890D01*
X40638085Y-5970409D01*
X40648393Y-5936431D01*
X40665134Y-5905110D01*
X40687661Y-5877661D01*
X40715110Y-5855134D01*
X40746431Y-5838393D01*
X40780409Y-5828085D01*
X40821890Y-5824000D01*
X41423110Y-5824000D01*
X41464591Y-5828085D01*
X41464591Y-5828085D01*
G37*
G36*
X43039591Y-5828085D02*
G01*
X43073569Y-5838393D01*
X43104890Y-5855134D01*
X43132339Y-5877661D01*
X43154866Y-5905110D01*
X43171607Y-5936431D01*
X43181915Y-5970409D01*
X43186000Y-6011890D01*
X43186000Y-6688110D01*
X43181915Y-6729591D01*
X43171607Y-6763569D01*
X43154866Y-6794890D01*
X43132339Y-6822339D01*
X43104890Y-6844866D01*
X43073569Y-6861607D01*
X43039591Y-6871915D01*
X42998110Y-6876000D01*
X42396890Y-6876000D01*
X42355409Y-6871915D01*
X42321431Y-6861607D01*
X42290110Y-6844866D01*
X42262661Y-6822339D01*
X42240134Y-6794890D01*
X42223393Y-6763569D01*
X42213085Y-6729591D01*
X42209000Y-6688110D01*
X42209000Y-6011890D01*
X42213085Y-5970409D01*
X42223393Y-5936431D01*
X42240134Y-5905110D01*
X42262661Y-5877661D01*
X42290110Y-5855134D01*
X42321431Y-5838393D01*
X42355409Y-5828085D01*
X42396890Y-5824000D01*
X42998110Y-5824000D01*
X43039591Y-5828085D01*
X43039591Y-5828085D01*
G37*
G36*
X44829591Y-4443085D02*
G01*
X44863569Y-4453393D01*
X44894890Y-4470134D01*
X44922339Y-4492661D01*
X44944866Y-4520110D01*
X44961607Y-4551431D01*
X44971915Y-4585409D01*
X44976000Y-4626890D01*
X44976000Y-5228110D01*
X44971915Y-5269591D01*
X44961607Y-5303569D01*
X44944866Y-5334890D01*
X44922339Y-5362339D01*
X44894890Y-5384866D01*
X44863569Y-5401607D01*
X44829591Y-5411915D01*
X44788110Y-5416000D01*
X44111890Y-5416000D01*
X44070409Y-5411915D01*
X44036431Y-5401607D01*
X44005110Y-5384866D01*
X43977661Y-5362339D01*
X43955134Y-5334890D01*
X43938393Y-5303569D01*
X43928085Y-5269591D01*
X43924000Y-5228110D01*
X43924000Y-4626890D01*
X43928085Y-4585409D01*
X43938393Y-4551431D01*
X43955134Y-4520110D01*
X43977661Y-4492661D01*
X44005110Y-4470134D01*
X44036431Y-4453393D01*
X44070409Y-4443085D01*
X44111890Y-4439000D01*
X44788110Y-4439000D01*
X44829591Y-4443085D01*
X44829591Y-4443085D01*
G37*
G36*
X-31431567Y-1324893D02*
G01*
X-31341343Y-1342839D01*
X-31235733Y-1386585D01*
X-31086379Y-1448449D01*
X-31086378Y-1448450D01*
X-30856914Y-1601772D01*
X-30661772Y-1796914D01*
X-30559325Y-1950237D01*
X-30508449Y-2026379D01*
X-30402839Y-2281344D01*
X-30349000Y-2552012D01*
X-30349000Y-2827988D01*
X-30402839Y-3098656D01*
X-30508449Y-3353621D01*
X-30508450Y-3353622D01*
X-30661772Y-3583086D01*
X-30856914Y-3778228D01*
X-31010237Y-3880675D01*
X-31086379Y-3931551D01*
X-31235733Y-3993415D01*
X-31341343Y-4037161D01*
X-31431567Y-4055107D01*
X-31612012Y-4091000D01*
X-31887988Y-4091000D01*
X-32068433Y-4055107D01*
X-32158657Y-4037161D01*
X-32264267Y-3993415D01*
X-32413621Y-3931551D01*
X-32489763Y-3880675D01*
X-32643086Y-3778228D01*
X-32838228Y-3583086D01*
X-32991550Y-3353622D01*
X-32991551Y-3353621D01*
X-33097161Y-3098656D01*
X-33151000Y-2827988D01*
X-33151000Y-2552012D01*
X-33097161Y-2281344D01*
X-32991551Y-2026379D01*
X-32940675Y-1950237D01*
X-32838228Y-1796914D01*
X-32643086Y-1601772D01*
X-32413622Y-1448450D01*
X-32413621Y-1448449D01*
X-32264267Y-1386585D01*
X-32158657Y-1342839D01*
X-32068433Y-1324893D01*
X-31887988Y-1289000D01*
X-31612012Y-1289000D01*
X-31431567Y-1324893D01*
X-31431567Y-1324893D01*
G37*
G36*
X45101000Y-3929000D02*
G01*
X43799000Y-3929000D01*
X43799000Y-2927000D01*
X45101000Y-2927000D01*
X45101000Y-3929000D01*
X45101000Y-3929000D01*
G37*
G36*
X45101000Y-629000D02*
G01*
X43799000Y-629000D01*
X43799000Y373000D01*
X45101000Y373000D01*
X45101000Y-629000D01*
X45101000Y-629000D01*
G37*
G36*
X-30475969Y2667379D02*
G01*
X-30446514Y2658444D01*
X-30419377Y2643938D01*
X-30395586Y2624414D01*
X-30376062Y2600623D01*
X-30361556Y2573486D01*
X-30352621Y2544031D01*
X-30349000Y2507266D01*
X-30349000Y32734D01*
X-30352621Y-4031D01*
X-30361556Y-33486D01*
X-30376062Y-60623D01*
X-30395586Y-84414D01*
X-30419377Y-103938D01*
X-30446514Y-118444D01*
X-30475969Y-127379D01*
X-30512734Y-131000D01*
X-32987266Y-131000D01*
X-33024031Y-127379D01*
X-33053486Y-118444D01*
X-33080623Y-103938D01*
X-33104414Y-84414D01*
X-33123938Y-60623D01*
X-33138444Y-33486D01*
X-33147379Y-4031D01*
X-33151000Y32734D01*
X-33151000Y2507266D01*
X-33147379Y2544031D01*
X-33138444Y2573486D01*
X-33123938Y2600623D01*
X-33104414Y2624414D01*
X-33080623Y2643938D01*
X-33053486Y2658444D01*
X-33024031Y2667379D01*
X-32987266Y2671000D01*
X-30512734Y2671000D01*
X-30475969Y2667379D01*
X-30475969Y2667379D01*
G37*
G36*
X42289591Y1601915D02*
G01*
X42323569Y1591607D01*
X42354890Y1574866D01*
X42382339Y1552339D01*
X42404866Y1524890D01*
X42421607Y1493569D01*
X42431915Y1459591D01*
X42436000Y1418110D01*
X42436000Y816890D01*
X42431915Y775409D01*
X42421607Y741431D01*
X42404866Y710110D01*
X42382339Y682661D01*
X42354890Y660134D01*
X42323569Y643393D01*
X42289591Y633085D01*
X42248110Y629000D01*
X41571890Y629000D01*
X41530409Y633085D01*
X41496431Y643393D01*
X41465110Y660134D01*
X41437661Y682661D01*
X41415134Y710110D01*
X41398393Y741431D01*
X41388085Y775409D01*
X41384000Y816890D01*
X41384000Y1418110D01*
X41388085Y1459591D01*
X41398393Y1493569D01*
X41415134Y1524890D01*
X41437661Y1552339D01*
X41465110Y1574866D01*
X41496431Y1591607D01*
X41530409Y1601915D01*
X41571890Y1606000D01*
X42248110Y1606000D01*
X42289591Y1601915D01*
X42289591Y1601915D01*
G37*
G36*
X45880721Y2434826D02*
G01*
X45980995Y2393291D01*
X46025812Y2363345D01*
X46071242Y2332990D01*
X46147990Y2256242D01*
X46147991Y2256240D01*
X46208291Y2165995D01*
X46249826Y2065721D01*
X46271000Y1959270D01*
X46271000Y1850730D01*
X46249826Y1744279D01*
X46208291Y1644005D01*
X46208290Y1644004D01*
X46147990Y1553758D01*
X46071242Y1477010D01*
X46045172Y1459591D01*
X45980995Y1416709D01*
X45880721Y1375174D01*
X45774270Y1354000D01*
X45665730Y1354000D01*
X45559279Y1375174D01*
X45459005Y1416709D01*
X45394828Y1459591D01*
X45368758Y1477010D01*
X45292010Y1553758D01*
X45231710Y1644004D01*
X45231709Y1644005D01*
X45190174Y1744279D01*
X45169000Y1850730D01*
X45169000Y1959270D01*
X45190174Y2065721D01*
X45231709Y2165995D01*
X45292009Y2256240D01*
X45292010Y2256242D01*
X45368758Y2332990D01*
X45414188Y2363345D01*
X45459005Y2393291D01*
X45559279Y2434826D01*
X45665730Y2456000D01*
X45774270Y2456000D01*
X45880721Y2434826D01*
X45880721Y2434826D01*
G37*
G36*
X42289591Y3176915D02*
G01*
X42323569Y3166607D01*
X42354890Y3149866D01*
X42382339Y3127339D01*
X42404866Y3099890D01*
X42421607Y3068569D01*
X42431915Y3034591D01*
X42436000Y2993110D01*
X42436000Y2391890D01*
X42431915Y2350409D01*
X42421607Y2316431D01*
X42404866Y2285110D01*
X42382339Y2257661D01*
X42354890Y2235134D01*
X42323569Y2218393D01*
X42289591Y2208085D01*
X42248110Y2204000D01*
X41571890Y2204000D01*
X41530409Y2208085D01*
X41496431Y2218393D01*
X41465110Y2235134D01*
X41437661Y2257661D01*
X41415134Y2285110D01*
X41398393Y2316431D01*
X41388085Y2350409D01*
X41384000Y2391890D01*
X41384000Y2993110D01*
X41388085Y3034591D01*
X41398393Y3068569D01*
X41415134Y3099890D01*
X41437661Y3127339D01*
X41465110Y3149866D01*
X41496431Y3166607D01*
X41530409Y3176915D01*
X41571890Y3181000D01*
X42248110Y3181000D01*
X42289591Y3176915D01*
X42289591Y3176915D01*
G37*
G36*
X44194591Y4776915D02*
G01*
X44228569Y4766607D01*
X44259890Y4749866D01*
X44287339Y4727339D01*
X44309866Y4699890D01*
X44326607Y4668569D01*
X44336915Y4634591D01*
X44341000Y4593110D01*
X44341000Y3991890D01*
X44336915Y3950409D01*
X44326607Y3916431D01*
X44309866Y3885110D01*
X44287339Y3857661D01*
X44259890Y3835134D01*
X44228569Y3818393D01*
X44194591Y3808085D01*
X44153110Y3804000D01*
X43476890Y3804000D01*
X43435409Y3808085D01*
X43401431Y3818393D01*
X43370110Y3835134D01*
X43342661Y3857661D01*
X43320134Y3885110D01*
X43303393Y3916431D01*
X43293085Y3950409D01*
X43289000Y3991890D01*
X43289000Y4593110D01*
X43293085Y4634591D01*
X43303393Y4668569D01*
X43320134Y4699890D01*
X43342661Y4727339D01*
X43370110Y4749866D01*
X43401431Y4766607D01*
X43435409Y4776915D01*
X43476890Y4781000D01*
X44153110Y4781000D01*
X44194591Y4776915D01*
X44194591Y4776915D01*
G37*
G36*
X42289591Y4776915D02*
G01*
X42323569Y4766607D01*
X42354890Y4749866D01*
X42382339Y4727339D01*
X42404866Y4699890D01*
X42421607Y4668569D01*
X42431915Y4634591D01*
X42436000Y4593110D01*
X42436000Y3991890D01*
X42431915Y3950409D01*
X42421607Y3916431D01*
X42404866Y3885110D01*
X42382339Y3857661D01*
X42354890Y3835134D01*
X42323569Y3818393D01*
X42289591Y3808085D01*
X42248110Y3804000D01*
X41571890Y3804000D01*
X41530409Y3808085D01*
X41496431Y3818393D01*
X41465110Y3835134D01*
X41437661Y3857661D01*
X41415134Y3885110D01*
X41398393Y3916431D01*
X41388085Y3950409D01*
X41384000Y3991890D01*
X41384000Y4593110D01*
X41388085Y4634591D01*
X41398393Y4668569D01*
X41415134Y4699890D01*
X41437661Y4727339D01*
X41465110Y4749866D01*
X41496431Y4766607D01*
X41530409Y4776915D01*
X41571890Y4781000D01*
X42248110Y4781000D01*
X42289591Y4776915D01*
X42289591Y4776915D01*
G37*
G36*
X-28268436Y6725611D02*
G01*
X-28077167Y6646385D01*
X-28077165Y6646384D01*
X-27905027Y6531365D01*
X-27758635Y6384973D01*
X-27643615Y6212833D01*
X-27564389Y6021564D01*
X-27524000Y5818516D01*
X-27524000Y5611484D01*
X-27564389Y5408436D01*
X-27574638Y5383693D01*
X-27643616Y5217165D01*
X-27758635Y5045027D01*
X-27905027Y4898635D01*
X-28077165Y4783616D01*
X-28077166Y4783615D01*
X-28077167Y4783615D01*
X-28268436Y4704389D01*
X-28471484Y4664000D01*
X-28678516Y4664000D01*
X-28881564Y4704389D01*
X-29072833Y4783615D01*
X-29072834Y4783615D01*
X-29072835Y4783616D01*
X-29244973Y4898635D01*
X-29391365Y5045027D01*
X-29506384Y5217165D01*
X-29575362Y5383693D01*
X-29585611Y5408436D01*
X-29626000Y5611484D01*
X-29626000Y5818516D01*
X-29585611Y6021564D01*
X-29506385Y6212833D01*
X-29391365Y6384973D01*
X-29244973Y6531365D01*
X-29072835Y6646384D01*
X-29072833Y6646385D01*
X-28881564Y6725611D01*
X-28678516Y6766000D01*
X-28471484Y6766000D01*
X-28268436Y6725611D01*
X-28268436Y6725611D01*
G37*
G36*
X42289591Y6351915D02*
G01*
X42323569Y6341607D01*
X42354890Y6324866D01*
X42382339Y6302339D01*
X42404866Y6274890D01*
X42421607Y6243569D01*
X42431915Y6209591D01*
X42436000Y6168110D01*
X42436000Y5566890D01*
X42431915Y5525409D01*
X42421607Y5491431D01*
X42404866Y5460110D01*
X42382339Y5432661D01*
X42354890Y5410134D01*
X42323569Y5393393D01*
X42289591Y5383085D01*
X42248110Y5379000D01*
X41571890Y5379000D01*
X41530409Y5383085D01*
X41496431Y5393393D01*
X41465110Y5410134D01*
X41437661Y5432661D01*
X41415134Y5460110D01*
X41398393Y5491431D01*
X41388085Y5525409D01*
X41384000Y5566890D01*
X41384000Y6168110D01*
X41388085Y6209591D01*
X41398393Y6243569D01*
X41415134Y6274890D01*
X41437661Y6302339D01*
X41465110Y6324866D01*
X41496431Y6341607D01*
X41530409Y6351915D01*
X41571890Y6356000D01*
X42248110Y6356000D01*
X42289591Y6351915D01*
X42289591Y6351915D01*
G37*
G36*
X44194591Y6351915D02*
G01*
X44228569Y6341607D01*
X44259890Y6324866D01*
X44287339Y6302339D01*
X44309866Y6274890D01*
X44326607Y6243569D01*
X44336915Y6209591D01*
X44341000Y6168110D01*
X44341000Y5566890D01*
X44336915Y5525409D01*
X44326607Y5491431D01*
X44309866Y5460110D01*
X44287339Y5432661D01*
X44259890Y5410134D01*
X44228569Y5393393D01*
X44194591Y5383085D01*
X44153110Y5379000D01*
X43476890Y5379000D01*
X43435409Y5383085D01*
X43401431Y5393393D01*
X43370110Y5410134D01*
X43342661Y5432661D01*
X43320134Y5460110D01*
X43303393Y5491431D01*
X43293085Y5525409D01*
X43289000Y5566890D01*
X43289000Y6168110D01*
X43293085Y6209591D01*
X43303393Y6243569D01*
X43320134Y6274890D01*
X43342661Y6302339D01*
X43370110Y6324866D01*
X43401431Y6341607D01*
X43435409Y6351915D01*
X43476890Y6356000D01*
X44153110Y6356000D01*
X44194591Y6351915D01*
X44194591Y6351915D01*
G37*
G36*
X42289591Y7951915D02*
G01*
X42323569Y7941607D01*
X42354890Y7924866D01*
X42382339Y7902339D01*
X42404866Y7874890D01*
X42421607Y7843569D01*
X42431915Y7809591D01*
X42436000Y7768110D01*
X42436000Y7166890D01*
X42431915Y7125409D01*
X42421607Y7091431D01*
X42404866Y7060110D01*
X42382339Y7032661D01*
X42354890Y7010134D01*
X42323569Y6993393D01*
X42289591Y6983085D01*
X42248110Y6979000D01*
X41571890Y6979000D01*
X41530409Y6983085D01*
X41496431Y6993393D01*
X41465110Y7010134D01*
X41437661Y7032661D01*
X41415134Y7060110D01*
X41398393Y7091431D01*
X41388085Y7125409D01*
X41384000Y7166890D01*
X41384000Y7768110D01*
X41388085Y7809591D01*
X41398393Y7843569D01*
X41415134Y7874890D01*
X41437661Y7902339D01*
X41465110Y7924866D01*
X41496431Y7941607D01*
X41530409Y7951915D01*
X41571890Y7956000D01*
X42248110Y7956000D01*
X42289591Y7951915D01*
X42289591Y7951915D01*
G37*
G36*
X44194591Y7951915D02*
G01*
X44228569Y7941607D01*
X44259890Y7924866D01*
X44287339Y7902339D01*
X44309866Y7874890D01*
X44326607Y7843569D01*
X44336915Y7809591D01*
X44341000Y7768110D01*
X44341000Y7166890D01*
X44336915Y7125409D01*
X44326607Y7091431D01*
X44309866Y7060110D01*
X44287339Y7032661D01*
X44259890Y7010134D01*
X44228569Y6993393D01*
X44194591Y6983085D01*
X44153110Y6979000D01*
X43476890Y6979000D01*
X43435409Y6983085D01*
X43401431Y6993393D01*
X43370110Y7010134D01*
X43342661Y7032661D01*
X43320134Y7060110D01*
X43303393Y7091431D01*
X43293085Y7125409D01*
X43289000Y7166890D01*
X43289000Y7768110D01*
X43293085Y7809591D01*
X43303393Y7843569D01*
X43320134Y7874890D01*
X43342661Y7902339D01*
X43370110Y7924866D01*
X43401431Y7941607D01*
X43435409Y7951915D01*
X43476890Y7956000D01*
X44153110Y7956000D01*
X44194591Y7951915D01*
X44194591Y7951915D01*
G37*
G36*
X40384591Y7951915D02*
G01*
X40418569Y7941607D01*
X40449890Y7924866D01*
X40477339Y7902339D01*
X40499866Y7874890D01*
X40516607Y7843569D01*
X40526915Y7809591D01*
X40531000Y7768110D01*
X40531000Y7166890D01*
X40526915Y7125409D01*
X40516607Y7091431D01*
X40499866Y7060110D01*
X40477339Y7032661D01*
X40449890Y7010134D01*
X40418569Y6993393D01*
X40384591Y6983085D01*
X40343110Y6979000D01*
X39666890Y6979000D01*
X39625409Y6983085D01*
X39591431Y6993393D01*
X39560110Y7010134D01*
X39532661Y7032661D01*
X39510134Y7060110D01*
X39493393Y7091431D01*
X39483085Y7125409D01*
X39479000Y7166890D01*
X39479000Y7768110D01*
X39483085Y7809591D01*
X39493393Y7843569D01*
X39510134Y7874890D01*
X39532661Y7902339D01*
X39560110Y7924866D01*
X39591431Y7941607D01*
X39625409Y7951915D01*
X39666890Y7956000D01*
X40343110Y7956000D01*
X40384591Y7951915D01*
X40384591Y7951915D01*
G37*
G36*
X-31431567Y10740107D02*
G01*
X-31341343Y10722161D01*
X-31235733Y10678415D01*
X-31086379Y10616551D01*
X-31086378Y10616550D01*
X-30856914Y10463228D01*
X-30661772Y10268086D01*
X-30588272Y10158085D01*
X-30508449Y10038621D01*
X-30475212Y9958380D01*
X-30402839Y9783657D01*
X-30399967Y9769219D01*
X-30349000Y9512988D01*
X-30349000Y9237012D01*
X-30357668Y9193436D01*
X-30402839Y8966343D01*
X-30446585Y8860733D01*
X-30508449Y8711379D01*
X-30515779Y8700409D01*
X-30661772Y8481914D01*
X-30856914Y8286772D01*
X-31010237Y8184325D01*
X-31086379Y8133449D01*
X-31235733Y8071585D01*
X-31341343Y8027839D01*
X-31431567Y8009893D01*
X-31612012Y7974000D01*
X-31887988Y7974000D01*
X-32068433Y8009893D01*
X-32158657Y8027839D01*
X-32264267Y8071585D01*
X-32413621Y8133449D01*
X-32489763Y8184325D01*
X-32643086Y8286772D01*
X-32838228Y8481914D01*
X-32984221Y8700409D01*
X-32991551Y8711379D01*
X-33053415Y8860733D01*
X-33097161Y8966343D01*
X-33142332Y9193436D01*
X-33151000Y9237012D01*
X-33151000Y9512988D01*
X-33100033Y9769219D01*
X-33097161Y9783657D01*
X-33024788Y9958380D01*
X-32991551Y10038621D01*
X-32911728Y10158085D01*
X-32838228Y10268086D01*
X-32643086Y10463228D01*
X-32413622Y10616550D01*
X-32413621Y10616551D01*
X-32264267Y10678415D01*
X-32158657Y10722161D01*
X-32068433Y10740107D01*
X-31887988Y10776000D01*
X-31612012Y10776000D01*
X-31431567Y10740107D01*
X-31431567Y10740107D01*
G37*
G36*
X-4773436Y10510611D02*
G01*
X-4582167Y10431385D01*
X-4582165Y10431384D01*
X-4410027Y10316365D01*
X-4263635Y10169973D01*
X-4165320Y10022835D01*
X-4148615Y9997833D01*
X-4069389Y9806564D01*
X-4029000Y9603516D01*
X-4029000Y9396484D01*
X-4069389Y9193436D01*
X-4111563Y9091619D01*
X-4148616Y9002165D01*
X-4263635Y8830027D01*
X-4410027Y8683635D01*
X-4582165Y8568616D01*
X-4582166Y8568615D01*
X-4582167Y8568615D01*
X-4773436Y8489389D01*
X-4976484Y8449000D01*
X-5183516Y8449000D01*
X-5386564Y8489389D01*
X-5577833Y8568615D01*
X-5577834Y8568615D01*
X-5577835Y8568616D01*
X-5749973Y8683635D01*
X-5896365Y8830027D01*
X-6011384Y9002165D01*
X-6048437Y9091619D01*
X-6090611Y9193436D01*
X-6131000Y9396484D01*
X-6131000Y9603516D01*
X-6090611Y9806564D01*
X-6011385Y9997833D01*
X-5994679Y10022835D01*
X-5896365Y10169973D01*
X-5749973Y10316365D01*
X-5577835Y10431384D01*
X-5577833Y10431385D01*
X-5386564Y10510611D01*
X-5183516Y10551000D01*
X-4976484Y10551000D01*
X-4773436Y10510611D01*
X-4773436Y10510611D01*
G37*
G36*
X25706564Y10510611D02*
G01*
X25897833Y10431385D01*
X25897835Y10431384D01*
X26069973Y10316365D01*
X26216365Y10169973D01*
X26314680Y10022835D01*
X26331385Y9997833D01*
X26410611Y9806564D01*
X26451000Y9603516D01*
X26451000Y9396484D01*
X26410611Y9193436D01*
X26368437Y9091619D01*
X26331384Y9002165D01*
X26216365Y8830027D01*
X26069973Y8683635D01*
X25897835Y8568616D01*
X25897834Y8568615D01*
X25897833Y8568615D01*
X25706564Y8489389D01*
X25503516Y8449000D01*
X25296484Y8449000D01*
X25093436Y8489389D01*
X24902167Y8568615D01*
X24902166Y8568615D01*
X24902165Y8568616D01*
X24730027Y8683635D01*
X24583635Y8830027D01*
X24468616Y9002165D01*
X24431563Y9091619D01*
X24389389Y9193436D01*
X24349000Y9396484D01*
X24349000Y9603516D01*
X24389389Y9806564D01*
X24468615Y9997833D01*
X24485321Y10022835D01*
X24583635Y10169973D01*
X24730027Y10316365D01*
X24902165Y10431384D01*
X24902167Y10431385D01*
X25093436Y10510611D01*
X25296484Y10551000D01*
X25503516Y10551000D01*
X25706564Y10510611D01*
X25706564Y10510611D01*
G37*
G36*
X20516719Y10561480D02*
G01*
X20705880Y10504099D01*
X20705883Y10504098D01*
X20782345Y10463228D01*
X20880212Y10410917D01*
X21033015Y10285515D01*
X21158417Y10132712D01*
X21251599Y9958381D01*
X21308980Y9769220D01*
X21323500Y9621794D01*
X21323500Y9428207D01*
X21308980Y9280781D01*
X21282484Y9193436D01*
X21251598Y9091617D01*
X21217148Y9027167D01*
X21158417Y8917288D01*
X21033015Y8764485D01*
X20880212Y8639083D01*
X20705881Y8545901D01*
X20516720Y8488520D01*
X20320000Y8469145D01*
X20123281Y8488520D01*
X19934120Y8545901D01*
X19759788Y8639083D01*
X19606985Y8764485D01*
X19481583Y8917288D01*
X19388401Y9091619D01*
X19331020Y9280780D01*
X19316500Y9428206D01*
X19316500Y9621793D01*
X19331020Y9769219D01*
X19388401Y9958380D01*
X19388402Y9958383D01*
X19437818Y10050833D01*
X19481583Y10132712D01*
X19606985Y10285515D01*
X19759788Y10410917D01*
X19934119Y10504099D01*
X20123280Y10561480D01*
X20320000Y10580855D01*
X20516719Y10561480D01*
X20516719Y10561480D01*
G37*
G36*
X5276719Y10561480D02*
G01*
X5465880Y10504099D01*
X5465883Y10504098D01*
X5542345Y10463228D01*
X5640212Y10410917D01*
X5793015Y10285515D01*
X5918417Y10132712D01*
X6011599Y9958381D01*
X6068980Y9769220D01*
X6083500Y9621794D01*
X6083500Y9428207D01*
X6068980Y9280781D01*
X6042484Y9193436D01*
X6011598Y9091617D01*
X5977148Y9027167D01*
X5918417Y8917288D01*
X5793015Y8764485D01*
X5640212Y8639083D01*
X5465881Y8545901D01*
X5276720Y8488520D01*
X5080000Y8469145D01*
X4883281Y8488520D01*
X4694120Y8545901D01*
X4519788Y8639083D01*
X4366985Y8764485D01*
X4241583Y8917288D01*
X4148401Y9091619D01*
X4091020Y9280780D01*
X4076500Y9428206D01*
X4076500Y9621793D01*
X4091020Y9769219D01*
X4148401Y9958380D01*
X4148402Y9958383D01*
X4197818Y10050833D01*
X4241583Y10132712D01*
X4366985Y10285515D01*
X4519788Y10410917D01*
X4694119Y10504099D01*
X4883280Y10561480D01*
X5080000Y10580855D01*
X5276719Y10561480D01*
X5276719Y10561480D01*
G37*
G36*
X35756719Y10561480D02*
G01*
X35945880Y10504099D01*
X35945883Y10504098D01*
X36022345Y10463228D01*
X36120212Y10410917D01*
X36273015Y10285515D01*
X36398417Y10132712D01*
X36491599Y9958381D01*
X36548980Y9769220D01*
X36563500Y9621794D01*
X36563500Y9428207D01*
X36548980Y9280781D01*
X36522484Y9193436D01*
X36491598Y9091617D01*
X36457148Y9027167D01*
X36398417Y8917288D01*
X36273015Y8764485D01*
X36120212Y8639083D01*
X35945881Y8545901D01*
X35756720Y8488520D01*
X35560000Y8469145D01*
X35363281Y8488520D01*
X35174120Y8545901D01*
X34999788Y8639083D01*
X34846985Y8764485D01*
X34721583Y8917288D01*
X34628401Y9091619D01*
X34571020Y9280780D01*
X34556500Y9428206D01*
X34556500Y9621793D01*
X34571020Y9769219D01*
X34628401Y9958380D01*
X34628402Y9958383D01*
X34677818Y10050833D01*
X34721583Y10132712D01*
X34846985Y10285515D01*
X34999788Y10410917D01*
X35174119Y10504099D01*
X35363280Y10561480D01*
X35560000Y10580855D01*
X35756719Y10561480D01*
X35756719Y10561480D01*
G37*
G36*
X-12503281Y10561480D02*
G01*
X-12314120Y10504099D01*
X-12314117Y10504098D01*
X-12237655Y10463228D01*
X-12139788Y10410917D01*
X-11986985Y10285515D01*
X-11861583Y10132712D01*
X-11768401Y9958381D01*
X-11711020Y9769220D01*
X-11696500Y9621794D01*
X-11696500Y9428207D01*
X-11711020Y9280781D01*
X-11737516Y9193436D01*
X-11768402Y9091617D01*
X-11802852Y9027167D01*
X-11861583Y8917288D01*
X-11986985Y8764485D01*
X-12139788Y8639083D01*
X-12314119Y8545901D01*
X-12503280Y8488520D01*
X-12700000Y8469145D01*
X-12896719Y8488520D01*
X-13085880Y8545901D01*
X-13260212Y8639083D01*
X-13413015Y8764485D01*
X-13538417Y8917288D01*
X-13631599Y9091619D01*
X-13688980Y9280780D01*
X-13703500Y9428206D01*
X-13703500Y9621793D01*
X-13688980Y9769219D01*
X-13631599Y9958380D01*
X-13631598Y9958383D01*
X-13582182Y10050833D01*
X-13538417Y10132712D01*
X-13413015Y10285515D01*
X-13260212Y10410917D01*
X-13085881Y10504099D01*
X-12896720Y10561480D01*
X-12700000Y10580855D01*
X-12503281Y10561480D01*
X-12503281Y10561480D01*
G37*
G36*
X2736719Y10561480D02*
G01*
X2925880Y10504099D01*
X2925883Y10504098D01*
X3002345Y10463228D01*
X3100212Y10410917D01*
X3253015Y10285515D01*
X3378417Y10132712D01*
X3471599Y9958381D01*
X3528980Y9769220D01*
X3543500Y9621794D01*
X3543500Y9428207D01*
X3528980Y9280781D01*
X3502484Y9193436D01*
X3471598Y9091617D01*
X3437148Y9027167D01*
X3378417Y8917288D01*
X3253015Y8764485D01*
X3100212Y8639083D01*
X2925881Y8545901D01*
X2736720Y8488520D01*
X2540000Y8469145D01*
X2343281Y8488520D01*
X2154120Y8545901D01*
X1979788Y8639083D01*
X1826985Y8764485D01*
X1701583Y8917288D01*
X1608401Y9091619D01*
X1551020Y9280780D01*
X1536500Y9428206D01*
X1536500Y9621793D01*
X1551020Y9769219D01*
X1608401Y9958380D01*
X1608402Y9958383D01*
X1657818Y10050833D01*
X1701583Y10132712D01*
X1826985Y10285515D01*
X1979788Y10410917D01*
X2154119Y10504099D01*
X2343280Y10561480D01*
X2540000Y10580855D01*
X2736719Y10561480D01*
X2736719Y10561480D01*
G37*
G36*
X33216719Y10561480D02*
G01*
X33405880Y10504099D01*
X33405883Y10504098D01*
X33482345Y10463228D01*
X33580212Y10410917D01*
X33733015Y10285515D01*
X33858417Y10132712D01*
X33951599Y9958381D01*
X34008980Y9769220D01*
X34023500Y9621794D01*
X34023500Y9428207D01*
X34008980Y9280781D01*
X33982484Y9193436D01*
X33951598Y9091617D01*
X33917148Y9027167D01*
X33858417Y8917288D01*
X33733015Y8764485D01*
X33580212Y8639083D01*
X33405881Y8545901D01*
X33216720Y8488520D01*
X33020000Y8469145D01*
X32823281Y8488520D01*
X32634120Y8545901D01*
X32459788Y8639083D01*
X32306985Y8764485D01*
X32181583Y8917288D01*
X32088401Y9091619D01*
X32031020Y9280780D01*
X32016500Y9428206D01*
X32016500Y9621793D01*
X32031020Y9769219D01*
X32088401Y9958380D01*
X32088402Y9958383D01*
X32137818Y10050833D01*
X32181583Y10132712D01*
X32306985Y10285515D01*
X32459788Y10410917D01*
X32634119Y10504099D01*
X32823280Y10561480D01*
X33020000Y10580855D01*
X33216719Y10561480D01*
X33216719Y10561480D01*
G37*
G36*
X17976719Y10561480D02*
G01*
X18165880Y10504099D01*
X18165883Y10504098D01*
X18242345Y10463228D01*
X18340212Y10410917D01*
X18493015Y10285515D01*
X18618417Y10132712D01*
X18711599Y9958381D01*
X18768980Y9769220D01*
X18783500Y9621794D01*
X18783500Y9428207D01*
X18768980Y9280781D01*
X18742484Y9193436D01*
X18711598Y9091617D01*
X18677148Y9027167D01*
X18618417Y8917288D01*
X18493015Y8764485D01*
X18340212Y8639083D01*
X18165881Y8545901D01*
X17976720Y8488520D01*
X17780000Y8469145D01*
X17583281Y8488520D01*
X17394120Y8545901D01*
X17219788Y8639083D01*
X17066985Y8764485D01*
X16941583Y8917288D01*
X16848401Y9091619D01*
X16791020Y9280780D01*
X16776500Y9428206D01*
X16776500Y9621793D01*
X16791020Y9769219D01*
X16848401Y9958380D01*
X16848402Y9958383D01*
X16897818Y10050833D01*
X16941583Y10132712D01*
X17066985Y10285515D01*
X17219788Y10410917D01*
X17394119Y10504099D01*
X17583280Y10561480D01*
X17780000Y10580855D01*
X17976719Y10561480D01*
X17976719Y10561480D01*
G37*
G36*
X-9963281Y10561480D02*
G01*
X-9774120Y10504099D01*
X-9774117Y10504098D01*
X-9697655Y10463228D01*
X-9599788Y10410917D01*
X-9446985Y10285515D01*
X-9321583Y10132712D01*
X-9228401Y9958381D01*
X-9171020Y9769220D01*
X-9156500Y9621794D01*
X-9156500Y9428207D01*
X-9171020Y9280781D01*
X-9197516Y9193436D01*
X-9228402Y9091617D01*
X-9262852Y9027167D01*
X-9321583Y8917288D01*
X-9446985Y8764485D01*
X-9599788Y8639083D01*
X-9774119Y8545901D01*
X-9963280Y8488520D01*
X-10160000Y8469145D01*
X-10356719Y8488520D01*
X-10545880Y8545901D01*
X-10720212Y8639083D01*
X-10873015Y8764485D01*
X-10998417Y8917288D01*
X-11091599Y9091619D01*
X-11148980Y9280780D01*
X-11163500Y9428206D01*
X-11163500Y9621793D01*
X-11148980Y9769219D01*
X-11091599Y9958380D01*
X-11091598Y9958383D01*
X-11042182Y10050833D01*
X-10998417Y10132712D01*
X-10873015Y10285515D01*
X-10720212Y10410917D01*
X-10545881Y10504099D01*
X-10356720Y10561480D01*
X-10160000Y10580855D01*
X-9963281Y10561480D01*
X-9963281Y10561480D01*
G37*
G36*
X-14236500Y8474000D02*
G01*
X-16243500Y8474000D01*
X-16243500Y10576000D01*
X-14236500Y10576000D01*
X-14236500Y8474000D01*
X-14236500Y8474000D01*
G37*
G36*
X1003500Y8474000D02*
G01*
X-1003500Y8474000D01*
X-1003500Y10576000D01*
X1003500Y10576000D01*
X1003500Y8474000D01*
X1003500Y8474000D01*
G37*
G36*
X10466564Y10535611D02*
G01*
X10641312Y10463228D01*
X10657835Y10456384D01*
X10829973Y10341365D01*
X10976365Y10194973D01*
X11000607Y10158693D01*
X11091385Y10022833D01*
X11170611Y9831564D01*
X11211000Y9628516D01*
X11211000Y9421484D01*
X11170611Y9218436D01*
X11160255Y9193435D01*
X11091384Y9027165D01*
X10976365Y8855027D01*
X10829973Y8708635D01*
X10657835Y8593616D01*
X10657834Y8593615D01*
X10657833Y8593615D01*
X10466564Y8514389D01*
X10263516Y8474000D01*
X10056484Y8474000D01*
X9853436Y8514389D01*
X9662167Y8593615D01*
X9662166Y8593615D01*
X9662165Y8593616D01*
X9490027Y8708635D01*
X9343635Y8855027D01*
X9228616Y9027165D01*
X9159745Y9193435D01*
X9149389Y9218436D01*
X9109000Y9421484D01*
X9109000Y9628516D01*
X9149389Y9831564D01*
X9228615Y10022833D01*
X9319394Y10158693D01*
X9343635Y10194973D01*
X9490027Y10341365D01*
X9662165Y10456384D01*
X9678688Y10463228D01*
X9853436Y10535611D01*
X10056484Y10576000D01*
X10263516Y10576000D01*
X10466564Y10535611D01*
X10466564Y10535611D01*
G37*
G36*
X31483500Y8474000D02*
G01*
X29476500Y8474000D01*
X29476500Y10576000D01*
X31483500Y10576000D01*
X31483500Y8474000D01*
X31483500Y8474000D01*
G37*
G36*
X16243500Y8474000D02*
G01*
X14236500Y8474000D01*
X14236500Y10576000D01*
X16243500Y10576000D01*
X16243500Y8474000D01*
X16243500Y8474000D01*
G37*
G36*
X42289591Y9526915D02*
G01*
X42323569Y9516607D01*
X42354890Y9499866D01*
X42382339Y9477339D01*
X42404866Y9449890D01*
X42421607Y9418569D01*
X42431915Y9384591D01*
X42436000Y9343110D01*
X42436000Y8741890D01*
X42431915Y8700409D01*
X42421607Y8666431D01*
X42404866Y8635110D01*
X42382339Y8607661D01*
X42354890Y8585134D01*
X42323569Y8568393D01*
X42289591Y8558085D01*
X42248110Y8554000D01*
X41571890Y8554000D01*
X41530409Y8558085D01*
X41496431Y8568393D01*
X41465110Y8585134D01*
X41437661Y8607661D01*
X41415134Y8635110D01*
X41398393Y8666431D01*
X41388085Y8700409D01*
X41384000Y8741890D01*
X41384000Y9343110D01*
X41388085Y9384591D01*
X41398393Y9418569D01*
X41415134Y9449890D01*
X41437661Y9477339D01*
X41465110Y9499866D01*
X41496431Y9516607D01*
X41530409Y9526915D01*
X41571890Y9531000D01*
X42248110Y9531000D01*
X42289591Y9526915D01*
X42289591Y9526915D01*
G37*
G36*
X44194591Y9526915D02*
G01*
X44228569Y9516607D01*
X44259890Y9499866D01*
X44287339Y9477339D01*
X44309866Y9449890D01*
X44326607Y9418569D01*
X44336915Y9384591D01*
X44341000Y9343110D01*
X44341000Y8741890D01*
X44336915Y8700409D01*
X44326607Y8666431D01*
X44309866Y8635110D01*
X44287339Y8607661D01*
X44259890Y8585134D01*
X44228569Y8568393D01*
X44194591Y8558085D01*
X44153110Y8554000D01*
X43476890Y8554000D01*
X43435409Y8558085D01*
X43401431Y8568393D01*
X43370110Y8585134D01*
X43342661Y8607661D01*
X43320134Y8635110D01*
X43303393Y8666431D01*
X43293085Y8700409D01*
X43289000Y8741890D01*
X43289000Y9343110D01*
X43293085Y9384591D01*
X43303393Y9418569D01*
X43320134Y9449890D01*
X43342661Y9477339D01*
X43370110Y9499866D01*
X43401431Y9516607D01*
X43435409Y9526915D01*
X43476890Y9531000D01*
X44153110Y9531000D01*
X44194591Y9526915D01*
X44194591Y9526915D01*
G37*
G36*
X40384591Y9526915D02*
G01*
X40418569Y9516607D01*
X40449890Y9499866D01*
X40477339Y9477339D01*
X40499866Y9449890D01*
X40516607Y9418569D01*
X40526915Y9384591D01*
X40531000Y9343110D01*
X40531000Y8741890D01*
X40526915Y8700409D01*
X40516607Y8666431D01*
X40499866Y8635110D01*
X40477339Y8607661D01*
X40449890Y8585134D01*
X40418569Y8568393D01*
X40384591Y8558085D01*
X40343110Y8554000D01*
X39666890Y8554000D01*
X39625409Y8558085D01*
X39591431Y8568393D01*
X39560110Y8585134D01*
X39532661Y8607661D01*
X39510134Y8635110D01*
X39493393Y8666431D01*
X39483085Y8700409D01*
X39479000Y8741890D01*
X39479000Y9343110D01*
X39483085Y9384591D01*
X39493393Y9418569D01*
X39510134Y9449890D01*
X39532661Y9477339D01*
X39560110Y9499866D01*
X39591431Y9516607D01*
X39625409Y9526915D01*
X39666890Y9531000D01*
X40343110Y9531000D01*
X40384591Y9526915D01*
X40384591Y9526915D01*
G37*
G36*
X42289591Y11126915D02*
G01*
X42323569Y11116607D01*
X42354890Y11099866D01*
X42382339Y11077339D01*
X42404866Y11049890D01*
X42421607Y11018569D01*
X42431915Y10984591D01*
X42436000Y10943110D01*
X42436000Y10341890D01*
X42431915Y10300409D01*
X42421607Y10266431D01*
X42404866Y10235110D01*
X42382339Y10207661D01*
X42354890Y10185134D01*
X42323569Y10168393D01*
X42289591Y10158085D01*
X42248110Y10154000D01*
X41571890Y10154000D01*
X41530409Y10158085D01*
X41496431Y10168393D01*
X41465110Y10185134D01*
X41437661Y10207661D01*
X41415134Y10235110D01*
X41398393Y10266431D01*
X41388085Y10300409D01*
X41384000Y10341890D01*
X41384000Y10943110D01*
X41388085Y10984591D01*
X41398393Y11018569D01*
X41415134Y11049890D01*
X41437661Y11077339D01*
X41465110Y11099866D01*
X41496431Y11116607D01*
X41530409Y11126915D01*
X41571890Y11131000D01*
X42248110Y11131000D01*
X42289591Y11126915D01*
X42289591Y11126915D01*
G37*
G36*
X40384591Y11126915D02*
G01*
X40418569Y11116607D01*
X40449890Y11099866D01*
X40477339Y11077339D01*
X40499866Y11049890D01*
X40516607Y11018569D01*
X40526915Y10984591D01*
X40531000Y10943110D01*
X40531000Y10341890D01*
X40526915Y10300409D01*
X40516607Y10266431D01*
X40499866Y10235110D01*
X40477339Y10207661D01*
X40449890Y10185134D01*
X40418569Y10168393D01*
X40384591Y10158085D01*
X40343110Y10154000D01*
X39666890Y10154000D01*
X39625409Y10158085D01*
X39591431Y10168393D01*
X39560110Y10185134D01*
X39532661Y10207661D01*
X39510134Y10235110D01*
X39493393Y10266431D01*
X39483085Y10300409D01*
X39479000Y10341890D01*
X39479000Y10943110D01*
X39483085Y10984591D01*
X39493393Y11018569D01*
X39510134Y11049890D01*
X39532661Y11077339D01*
X39560110Y11099866D01*
X39591431Y11116607D01*
X39625409Y11126915D01*
X39666890Y11131000D01*
X40343110Y11131000D01*
X40384591Y11126915D01*
X40384591Y11126915D01*
G37*
G36*
X44194591Y11126915D02*
G01*
X44228569Y11116607D01*
X44259890Y11099866D01*
X44287339Y11077339D01*
X44309866Y11049890D01*
X44326607Y11018569D01*
X44336915Y10984591D01*
X44341000Y10943110D01*
X44341000Y10341890D01*
X44336915Y10300409D01*
X44326607Y10266431D01*
X44309866Y10235110D01*
X44287339Y10207661D01*
X44259890Y10185134D01*
X44228569Y10168393D01*
X44194591Y10158085D01*
X44153110Y10154000D01*
X43476890Y10154000D01*
X43435409Y10158085D01*
X43401431Y10168393D01*
X43370110Y10185134D01*
X43342661Y10207661D01*
X43320134Y10235110D01*
X43303393Y10266431D01*
X43293085Y10300409D01*
X43289000Y10341890D01*
X43289000Y10943110D01*
X43293085Y10984591D01*
X43303393Y11018569D01*
X43320134Y11049890D01*
X43342661Y11077339D01*
X43370110Y11099866D01*
X43401431Y11116607D01*
X43435409Y11126915D01*
X43476890Y11131000D01*
X44153110Y11131000D01*
X44194591Y11126915D01*
X44194591Y11126915D01*
G37*
G36*
X40384591Y12701915D02*
G01*
X40418569Y12691607D01*
X40449890Y12674866D01*
X40477339Y12652339D01*
X40499866Y12624890D01*
X40516607Y12593569D01*
X40526915Y12559591D01*
X40531000Y12518110D01*
X40531000Y11916890D01*
X40526915Y11875409D01*
X40516607Y11841431D01*
X40499866Y11810110D01*
X40477339Y11782661D01*
X40449890Y11760134D01*
X40418569Y11743393D01*
X40384591Y11733085D01*
X40343110Y11729000D01*
X39666890Y11729000D01*
X39625409Y11733085D01*
X39591431Y11743393D01*
X39560110Y11760134D01*
X39532661Y11782661D01*
X39510134Y11810110D01*
X39493393Y11841431D01*
X39483085Y11875409D01*
X39479000Y11916890D01*
X39479000Y12518110D01*
X39483085Y12559591D01*
X39493393Y12593569D01*
X39510134Y12624890D01*
X39532661Y12652339D01*
X39560110Y12674866D01*
X39591431Y12691607D01*
X39625409Y12701915D01*
X39666890Y12706000D01*
X40343110Y12706000D01*
X40384591Y12701915D01*
X40384591Y12701915D01*
G37*
G36*
X42289591Y12701915D02*
G01*
X42323569Y12691607D01*
X42354890Y12674866D01*
X42382339Y12652339D01*
X42404866Y12624890D01*
X42421607Y12593569D01*
X42431915Y12559591D01*
X42436000Y12518110D01*
X42436000Y11916890D01*
X42431915Y11875409D01*
X42421607Y11841431D01*
X42404866Y11810110D01*
X42382339Y11782661D01*
X42354890Y11760134D01*
X42323569Y11743393D01*
X42289591Y11733085D01*
X42248110Y11729000D01*
X41571890Y11729000D01*
X41530409Y11733085D01*
X41496431Y11743393D01*
X41465110Y11760134D01*
X41437661Y11782661D01*
X41415134Y11810110D01*
X41398393Y11841431D01*
X41388085Y11875409D01*
X41384000Y11916890D01*
X41384000Y12518110D01*
X41388085Y12559591D01*
X41398393Y12593569D01*
X41415134Y12624890D01*
X41437661Y12652339D01*
X41465110Y12674866D01*
X41496431Y12691607D01*
X41530409Y12701915D01*
X41571890Y12706000D01*
X42248110Y12706000D01*
X42289591Y12701915D01*
X42289591Y12701915D01*
G37*
G36*
X44194591Y12701915D02*
G01*
X44228569Y12691607D01*
X44259890Y12674866D01*
X44287339Y12652339D01*
X44309866Y12624890D01*
X44326607Y12593569D01*
X44336915Y12559591D01*
X44341000Y12518110D01*
X44341000Y11916890D01*
X44336915Y11875409D01*
X44326607Y11841431D01*
X44309866Y11810110D01*
X44287339Y11782661D01*
X44259890Y11760134D01*
X44228569Y11743393D01*
X44194591Y11733085D01*
X44153110Y11729000D01*
X43476890Y11729000D01*
X43435409Y11733085D01*
X43401431Y11743393D01*
X43370110Y11760134D01*
X43342661Y11782661D01*
X43320134Y11810110D01*
X43303393Y11841431D01*
X43293085Y11875409D01*
X43289000Y11916890D01*
X43289000Y12518110D01*
X43293085Y12559591D01*
X43303393Y12593569D01*
X43320134Y12624890D01*
X43342661Y12652339D01*
X43370110Y12674866D01*
X43401431Y12691607D01*
X43435409Y12701915D01*
X43476890Y12706000D01*
X44153110Y12706000D01*
X44194591Y12701915D01*
X44194591Y12701915D01*
G37*
G36*
X-30475969Y14732379D02*
G01*
X-30446514Y14723444D01*
X-30419377Y14708938D01*
X-30395586Y14689414D01*
X-30376062Y14665623D01*
X-30361556Y14638486D01*
X-30352621Y14609031D01*
X-30349000Y14572266D01*
X-30349000Y12097734D01*
X-30352621Y12060969D01*
X-30361556Y12031514D01*
X-30376062Y12004377D01*
X-30395586Y11980586D01*
X-30419377Y11961062D01*
X-30446514Y11946556D01*
X-30475969Y11937621D01*
X-30512734Y11934000D01*
X-32987266Y11934000D01*
X-33024031Y11937621D01*
X-33053486Y11946556D01*
X-33080623Y11961062D01*
X-33104414Y11980586D01*
X-33123938Y12004377D01*
X-33138444Y12031514D01*
X-33147379Y12060969D01*
X-33151000Y12097734D01*
X-33151000Y14572266D01*
X-33147379Y14609031D01*
X-33138444Y14638486D01*
X-33123938Y14665623D01*
X-33104414Y14689414D01*
X-33080623Y14708938D01*
X-33053486Y14723444D01*
X-33024031Y14732379D01*
X-32987266Y14736000D01*
X-30512734Y14736000D01*
X-30475969Y14732379D01*
X-30475969Y14732379D01*
G37*
G36*
X40384591Y14301915D02*
G01*
X40418569Y14291607D01*
X40449890Y14274866D01*
X40477339Y14252339D01*
X40499866Y14224890D01*
X40516607Y14193569D01*
X40526915Y14159591D01*
X40531000Y14118110D01*
X40531000Y13516890D01*
X40526915Y13475409D01*
X40516607Y13441431D01*
X40499866Y13410110D01*
X40477339Y13382661D01*
X40449890Y13360134D01*
X40418569Y13343393D01*
X40384591Y13333085D01*
X40343110Y13329000D01*
X39666890Y13329000D01*
X39625409Y13333085D01*
X39591431Y13343393D01*
X39560110Y13360134D01*
X39532661Y13382661D01*
X39510134Y13410110D01*
X39493393Y13441431D01*
X39483085Y13475409D01*
X39479000Y13516890D01*
X39479000Y14118110D01*
X39483085Y14159591D01*
X39493393Y14193569D01*
X39510134Y14224890D01*
X39532661Y14252339D01*
X39560110Y14274866D01*
X39591431Y14291607D01*
X39625409Y14301915D01*
X39666890Y14306000D01*
X40343110Y14306000D01*
X40384591Y14301915D01*
X40384591Y14301915D01*
G37*
G36*
X44194591Y14301915D02*
G01*
X44228569Y14291607D01*
X44259890Y14274866D01*
X44287339Y14252339D01*
X44309866Y14224890D01*
X44326607Y14193569D01*
X44336915Y14159591D01*
X44341000Y14118110D01*
X44341000Y13516890D01*
X44336915Y13475409D01*
X44326607Y13441431D01*
X44309866Y13410110D01*
X44287339Y13382661D01*
X44259890Y13360134D01*
X44228569Y13343393D01*
X44194591Y13333085D01*
X44153110Y13329000D01*
X43476890Y13329000D01*
X43435409Y13333085D01*
X43401431Y13343393D01*
X43370110Y13360134D01*
X43342661Y13382661D01*
X43320134Y13410110D01*
X43303393Y13441431D01*
X43293085Y13475409D01*
X43289000Y13516890D01*
X43289000Y14118110D01*
X43293085Y14159591D01*
X43303393Y14193569D01*
X43320134Y14224890D01*
X43342661Y14252339D01*
X43370110Y14274866D01*
X43401431Y14291607D01*
X43435409Y14301915D01*
X43476890Y14306000D01*
X44153110Y14306000D01*
X44194591Y14301915D01*
X44194591Y14301915D01*
G37*
G36*
X42289591Y14301915D02*
G01*
X42323569Y14291607D01*
X42354890Y14274866D01*
X42382339Y14252339D01*
X42404866Y14224890D01*
X42421607Y14193569D01*
X42431915Y14159591D01*
X42436000Y14118110D01*
X42436000Y13516890D01*
X42431915Y13475409D01*
X42421607Y13441431D01*
X42404866Y13410110D01*
X42382339Y13382661D01*
X42354890Y13360134D01*
X42323569Y13343393D01*
X42289591Y13333085D01*
X42248110Y13329000D01*
X41571890Y13329000D01*
X41530409Y13333085D01*
X41496431Y13343393D01*
X41465110Y13360134D01*
X41437661Y13382661D01*
X41415134Y13410110D01*
X41398393Y13441431D01*
X41388085Y13475409D01*
X41384000Y13516890D01*
X41384000Y14118110D01*
X41388085Y14159591D01*
X41398393Y14193569D01*
X41415134Y14224890D01*
X41437661Y14252339D01*
X41465110Y14274866D01*
X41496431Y14291607D01*
X41530409Y14301915D01*
X41571890Y14306000D01*
X42248110Y14306000D01*
X42289591Y14301915D01*
X42289591Y14301915D01*
G37*
G36*
X30676720Y16911480D02*
G01*
X30865881Y16854099D01*
X31040212Y16760917D01*
X31193015Y16635515D01*
X31318417Y16482712D01*
X31362182Y16400833D01*
X31411598Y16308383D01*
X31411599Y16308380D01*
X31468980Y16119219D01*
X31483500Y15971793D01*
X31483500Y15778206D01*
X31468980Y15630780D01*
X31411599Y15441619D01*
X31318417Y15267288D01*
X31193015Y15114485D01*
X31040212Y14989083D01*
X30981425Y14957661D01*
X30865883Y14895902D01*
X30865880Y14895901D01*
X30676719Y14838520D01*
X30480000Y14819145D01*
X30283280Y14838520D01*
X30094119Y14895901D01*
X29919788Y14989083D01*
X29766985Y15114485D01*
X29641583Y15267288D01*
X29597818Y15349167D01*
X29548402Y15441617D01*
X29548401Y15441620D01*
X29491020Y15630781D01*
X29476500Y15778207D01*
X29476500Y15971794D01*
X29491020Y16119220D01*
X29548401Y16308381D01*
X29641583Y16482712D01*
X29766985Y16635515D01*
X29919788Y16760917D01*
X30094120Y16854099D01*
X30283281Y16911480D01*
X30480000Y16930855D01*
X30676720Y16911480D01*
X30676720Y16911480D01*
G37*
G36*
X33216720Y16911480D02*
G01*
X33405881Y16854099D01*
X33580212Y16760917D01*
X33733015Y16635515D01*
X33858417Y16482712D01*
X33902182Y16400833D01*
X33951598Y16308383D01*
X33951599Y16308380D01*
X34008980Y16119219D01*
X34023500Y15971793D01*
X34023500Y15778206D01*
X34008980Y15630780D01*
X33951599Y15441619D01*
X33858417Y15267288D01*
X33733015Y15114485D01*
X33580212Y14989083D01*
X33521425Y14957661D01*
X33405883Y14895902D01*
X33405880Y14895901D01*
X33216719Y14838520D01*
X33020000Y14819145D01*
X32823280Y14838520D01*
X32634119Y14895901D01*
X32459788Y14989083D01*
X32306985Y15114485D01*
X32181583Y15267288D01*
X32137818Y15349167D01*
X32088402Y15441617D01*
X32088401Y15441620D01*
X32031020Y15630781D01*
X32016500Y15778207D01*
X32016500Y15971794D01*
X32031020Y16119220D01*
X32088401Y16308381D01*
X32181583Y16482712D01*
X32306985Y16635515D01*
X32459788Y16760917D01*
X32634120Y16854099D01*
X32823281Y16911480D01*
X33020000Y16930855D01*
X33216720Y16911480D01*
X33216720Y16911480D01*
G37*
G36*
X17976720Y16911480D02*
G01*
X18165881Y16854099D01*
X18340212Y16760917D01*
X18493015Y16635515D01*
X18618417Y16482712D01*
X18662182Y16400833D01*
X18711598Y16308383D01*
X18711599Y16308380D01*
X18768980Y16119219D01*
X18783500Y15971793D01*
X18783500Y15778206D01*
X18768980Y15630780D01*
X18711599Y15441619D01*
X18618417Y15267288D01*
X18493015Y15114485D01*
X18340212Y14989083D01*
X18281425Y14957661D01*
X18165883Y14895902D01*
X18165880Y14895901D01*
X17976719Y14838520D01*
X17780000Y14819145D01*
X17583280Y14838520D01*
X17394119Y14895901D01*
X17219788Y14989083D01*
X17066985Y15114485D01*
X16941583Y15267288D01*
X16897818Y15349167D01*
X16848402Y15441617D01*
X16848401Y15441620D01*
X16791020Y15630781D01*
X16776500Y15778207D01*
X16776500Y15971794D01*
X16791020Y16119220D01*
X16848401Y16308381D01*
X16941583Y16482712D01*
X17066985Y16635515D01*
X17219788Y16760917D01*
X17394120Y16854099D01*
X17583281Y16911480D01*
X17780000Y16930855D01*
X17976720Y16911480D01*
X17976720Y16911480D01*
G37*
G36*
X196720Y16911480D02*
G01*
X385881Y16854099D01*
X560212Y16760917D01*
X713015Y16635515D01*
X838417Y16482712D01*
X882182Y16400833D01*
X931598Y16308383D01*
X931599Y16308380D01*
X988980Y16119219D01*
X1003500Y15971793D01*
X1003500Y15778206D01*
X988980Y15630780D01*
X931599Y15441619D01*
X838417Y15267288D01*
X713015Y15114485D01*
X560212Y14989083D01*
X501425Y14957661D01*
X385883Y14895902D01*
X385880Y14895901D01*
X196719Y14838520D01*
X0Y14819145D01*
X-196720Y14838520D01*
X-385881Y14895901D01*
X-560212Y14989083D01*
X-713015Y15114485D01*
X-838417Y15267288D01*
X-882182Y15349167D01*
X-931598Y15441617D01*
X-931599Y15441620D01*
X-988980Y15630781D01*
X-1003500Y15778207D01*
X-1003500Y15971794D01*
X-988980Y16119220D01*
X-931599Y16308381D01*
X-838417Y16482712D01*
X-713015Y16635515D01*
X-560212Y16760917D01*
X-385880Y16854099D01*
X-196719Y16911480D01*
X0Y16930855D01*
X196720Y16911480D01*
X196720Y16911480D01*
G37*
G36*
X2736720Y16911480D02*
G01*
X2925881Y16854099D01*
X3100212Y16760917D01*
X3253015Y16635515D01*
X3378417Y16482712D01*
X3422182Y16400833D01*
X3471598Y16308383D01*
X3471599Y16308380D01*
X3528980Y16119219D01*
X3543500Y15971793D01*
X3543500Y15778206D01*
X3528980Y15630780D01*
X3471599Y15441619D01*
X3378417Y15267288D01*
X3253015Y15114485D01*
X3100212Y14989083D01*
X3041425Y14957661D01*
X2925883Y14895902D01*
X2925880Y14895901D01*
X2736719Y14838520D01*
X2540000Y14819145D01*
X2343280Y14838520D01*
X2154119Y14895901D01*
X1979788Y14989083D01*
X1826985Y15114485D01*
X1701583Y15267288D01*
X1657818Y15349167D01*
X1608402Y15441617D01*
X1608401Y15441620D01*
X1551020Y15630781D01*
X1536500Y15778207D01*
X1536500Y15971794D01*
X1551020Y16119220D01*
X1608401Y16308381D01*
X1701583Y16482712D01*
X1826985Y16635515D01*
X1979788Y16760917D01*
X2154120Y16854099D01*
X2343281Y16911480D01*
X2540000Y16930855D01*
X2736720Y16911480D01*
X2736720Y16911480D01*
G37*
G36*
X15436720Y16911480D02*
G01*
X15625881Y16854099D01*
X15800212Y16760917D01*
X15953015Y16635515D01*
X16078417Y16482712D01*
X16122182Y16400833D01*
X16171598Y16308383D01*
X16171599Y16308380D01*
X16228980Y16119219D01*
X16243500Y15971793D01*
X16243500Y15778206D01*
X16228980Y15630780D01*
X16171599Y15441619D01*
X16078417Y15267288D01*
X15953015Y15114485D01*
X15800212Y14989083D01*
X15741425Y14957661D01*
X15625883Y14895902D01*
X15625880Y14895901D01*
X15436719Y14838520D01*
X15240000Y14819145D01*
X15043280Y14838520D01*
X14854119Y14895901D01*
X14679788Y14989083D01*
X14526985Y15114485D01*
X14401583Y15267288D01*
X14357818Y15349167D01*
X14308402Y15441617D01*
X14308401Y15441620D01*
X14251020Y15630781D01*
X14236500Y15778207D01*
X14236500Y15971794D01*
X14251020Y16119220D01*
X14308401Y16308381D01*
X14401583Y16482712D01*
X14526985Y16635515D01*
X14679788Y16760917D01*
X14854120Y16854099D01*
X15043281Y16911480D01*
X15240000Y16930855D01*
X15436720Y16911480D01*
X15436720Y16911480D01*
G37*
G36*
X21323500Y14824000D02*
G01*
X19316500Y14824000D01*
X19316500Y16926000D01*
X21323500Y16926000D01*
X21323500Y14824000D01*
X21323500Y14824000D01*
G37*
G36*
X36563500Y14824000D02*
G01*
X34556500Y14824000D01*
X34556500Y16926000D01*
X36563500Y16926000D01*
X36563500Y14824000D01*
X36563500Y14824000D01*
G37*
G36*
X6083500Y14824000D02*
G01*
X4076500Y14824000D01*
X4076500Y16926000D01*
X6083500Y16926000D01*
X6083500Y14824000D01*
X6083500Y14824000D01*
G37*
G36*
X42289591Y15876915D02*
G01*
X42323569Y15866607D01*
X42354890Y15849866D01*
X42382339Y15827339D01*
X42404866Y15799890D01*
X42421607Y15768569D01*
X42431915Y15734591D01*
X42436000Y15693110D01*
X42436000Y15091890D01*
X42431915Y15050409D01*
X42421607Y15016431D01*
X42404866Y14985110D01*
X42382339Y14957661D01*
X42354890Y14935134D01*
X42323569Y14918393D01*
X42289591Y14908085D01*
X42248110Y14904000D01*
X41571890Y14904000D01*
X41530409Y14908085D01*
X41496431Y14918393D01*
X41465110Y14935134D01*
X41437661Y14957661D01*
X41415134Y14985110D01*
X41398393Y15016431D01*
X41388085Y15050409D01*
X41384000Y15091890D01*
X41384000Y15693110D01*
X41388085Y15734591D01*
X41398393Y15768569D01*
X41415134Y15799890D01*
X41437661Y15827339D01*
X41465110Y15849866D01*
X41496431Y15866607D01*
X41530409Y15876915D01*
X41571890Y15881000D01*
X42248110Y15881000D01*
X42289591Y15876915D01*
X42289591Y15876915D01*
G37*
G36*
X40384591Y15876915D02*
G01*
X40418569Y15866607D01*
X40449890Y15849866D01*
X40477339Y15827339D01*
X40499866Y15799890D01*
X40516607Y15768569D01*
X40526915Y15734591D01*
X40531000Y15693110D01*
X40531000Y15091890D01*
X40526915Y15050409D01*
X40516607Y15016431D01*
X40499866Y14985110D01*
X40477339Y14957661D01*
X40449890Y14935134D01*
X40418569Y14918393D01*
X40384591Y14908085D01*
X40343110Y14904000D01*
X39666890Y14904000D01*
X39625409Y14908085D01*
X39591431Y14918393D01*
X39560110Y14935134D01*
X39532661Y14957661D01*
X39510134Y14985110D01*
X39493393Y15016431D01*
X39483085Y15050409D01*
X39479000Y15091890D01*
X39479000Y15693110D01*
X39483085Y15734591D01*
X39493393Y15768569D01*
X39510134Y15799890D01*
X39532661Y15827339D01*
X39560110Y15849866D01*
X39591431Y15866607D01*
X39625409Y15876915D01*
X39666890Y15881000D01*
X40343110Y15881000D01*
X40384591Y15876915D01*
X40384591Y15876915D01*
G37*
G36*
X44194591Y15876915D02*
G01*
X44228569Y15866607D01*
X44259890Y15849866D01*
X44287339Y15827339D01*
X44309866Y15799890D01*
X44326607Y15768569D01*
X44336915Y15734591D01*
X44341000Y15693110D01*
X44341000Y15091890D01*
X44336915Y15050409D01*
X44326607Y15016431D01*
X44309866Y14985110D01*
X44287339Y14957661D01*
X44259890Y14935134D01*
X44228569Y14918393D01*
X44194591Y14908085D01*
X44153110Y14904000D01*
X43476890Y14904000D01*
X43435409Y14908085D01*
X43401431Y14918393D01*
X43370110Y14935134D01*
X43342661Y14957661D01*
X43320134Y14985110D01*
X43303393Y15016431D01*
X43293085Y15050409D01*
X43289000Y15091890D01*
X43289000Y15693110D01*
X43293085Y15734591D01*
X43303393Y15768569D01*
X43320134Y15799890D01*
X43342661Y15827339D01*
X43370110Y15849866D01*
X43401431Y15866607D01*
X43435409Y15876915D01*
X43476890Y15881000D01*
X44153110Y15881000D01*
X44194591Y15876915D01*
X44194591Y15876915D01*
G37*
G36*
X-25093436Y18950611D02*
G01*
X-24902167Y18871385D01*
X-24902165Y18871384D01*
X-24730027Y18756365D01*
X-24583635Y18609973D01*
X-24468615Y18437833D01*
X-24389389Y18246564D01*
X-24349000Y18043516D01*
X-24349000Y17836484D01*
X-24389389Y17633436D01*
X-24468615Y17442167D01*
X-24468616Y17442165D01*
X-24583635Y17270027D01*
X-24730027Y17123635D01*
X-24902165Y17008616D01*
X-24902166Y17008615D01*
X-24902167Y17008615D01*
X-25093436Y16929389D01*
X-25296484Y16889000D01*
X-25503516Y16889000D01*
X-25706564Y16929389D01*
X-25897833Y17008615D01*
X-25897834Y17008615D01*
X-25897835Y17008616D01*
X-26069973Y17123635D01*
X-26216365Y17270027D01*
X-26331384Y17442165D01*
X-26331385Y17442167D01*
X-26410611Y17633436D01*
X-26451000Y17836484D01*
X-26451000Y18043516D01*
X-26410611Y18246564D01*
X-26331385Y18437833D01*
X-26216365Y18609973D01*
X-26069973Y18756365D01*
X-25897835Y18871384D01*
X-25897833Y18871385D01*
X-25706564Y18950611D01*
X-25503516Y18991000D01*
X-25296484Y18991000D01*
X-25093436Y18950611D01*
X-25093436Y18950611D01*
G37*
G36*
X-31431567Y22805107D02*
G01*
X-31341343Y22787161D01*
X-31235733Y22743415D01*
X-31086379Y22681551D01*
X-31086378Y22681550D01*
X-30856914Y22528228D01*
X-30661772Y22333086D01*
X-30559325Y22179763D01*
X-30508449Y22103621D01*
X-30402839Y21848656D01*
X-30349000Y21577988D01*
X-30349000Y21302012D01*
X-30402839Y21031344D01*
X-30508449Y20776379D01*
X-30508450Y20776378D01*
X-30661772Y20546914D01*
X-30856914Y20351772D01*
X-31010237Y20249325D01*
X-31086379Y20198449D01*
X-31235733Y20136585D01*
X-31341343Y20092839D01*
X-31431567Y20074893D01*
X-31612012Y20039000D01*
X-31887988Y20039000D01*
X-32068433Y20074893D01*
X-32158657Y20092839D01*
X-32264267Y20136585D01*
X-32413621Y20198449D01*
X-32489763Y20249325D01*
X-32643086Y20351772D01*
X-32838228Y20546914D01*
X-32991550Y20776378D01*
X-32991551Y20776379D01*
X-33097161Y21031344D01*
X-33151000Y21302012D01*
X-33151000Y21577988D01*
X-33097161Y21848656D01*
X-32991551Y22103621D01*
X-32940675Y22179763D01*
X-32838228Y22333086D01*
X-32643086Y22528228D01*
X-32413622Y22681550D01*
X-32413621Y22681551D01*
X-32264267Y22743415D01*
X-32158657Y22787161D01*
X-32068433Y22805107D01*
X-31887988Y22841000D01*
X-31612012Y22841000D01*
X-31431567Y22805107D01*
X-31431567Y22805107D01*
G37*
G36*
X-30475969Y26797379D02*
G01*
X-30446514Y26788444D01*
X-30419377Y26773938D01*
X-30395586Y26754414D01*
X-30376062Y26730623D01*
X-30361556Y26703486D01*
X-30352621Y26674031D01*
X-30349000Y26637266D01*
X-30349000Y24162734D01*
X-30352621Y24125969D01*
X-30361556Y24096514D01*
X-30376062Y24069377D01*
X-30395586Y24045586D01*
X-30419377Y24026062D01*
X-30446514Y24011556D01*
X-30475969Y24002621D01*
X-30512734Y23999000D01*
X-32987266Y23999000D01*
X-33024031Y24002621D01*
X-33053486Y24011556D01*
X-33080623Y24026062D01*
X-33104414Y24045586D01*
X-33123938Y24069377D01*
X-33138444Y24096514D01*
X-33147379Y24125969D01*
X-33151000Y24162734D01*
X-33151000Y26637266D01*
X-33147379Y26674031D01*
X-33138444Y26703486D01*
X-33123938Y26730623D01*
X-33104414Y26754414D01*
X-33080623Y26773938D01*
X-33053486Y26788444D01*
X-33024031Y26797379D01*
X-32987266Y26801000D01*
X-30512734Y26801000D01*
X-30475969Y26797379D01*
X-30475969Y26797379D01*
G37*
G36*
X-25093436Y28950611D02*
G01*
X-24902167Y28871385D01*
X-24902165Y28871384D01*
X-24846800Y28834390D01*
X-24730027Y28756365D01*
X-24583635Y28609973D01*
X-24468615Y28437833D01*
X-24389389Y28246564D01*
X-24349000Y28043516D01*
X-24349000Y27836484D01*
X-24389389Y27633436D01*
X-24468615Y27442167D01*
X-24468616Y27442165D01*
X-24583635Y27270027D01*
X-24730027Y27123635D01*
X-24902165Y27008616D01*
X-24902166Y27008615D01*
X-24902167Y27008615D01*
X-25093436Y26929389D01*
X-25296484Y26889000D01*
X-25503516Y26889000D01*
X-25706564Y26929389D01*
X-25897833Y27008615D01*
X-25897834Y27008615D01*
X-25897835Y27008616D01*
X-26069973Y27123635D01*
X-26216365Y27270027D01*
X-26331384Y27442165D01*
X-26331385Y27442167D01*
X-26410611Y27633436D01*
X-26451000Y27836484D01*
X-26451000Y28043516D01*
X-26410611Y28246564D01*
X-26331385Y28437833D01*
X-26216365Y28609973D01*
X-26069973Y28756365D01*
X-25953200Y28834390D01*
X-25897835Y28871384D01*
X-25897833Y28871385D01*
X-25706564Y28950611D01*
X-25503516Y28991000D01*
X-25296484Y28991000D01*
X-25093436Y28950611D01*
X-25093436Y28950611D01*
G37*
G36*
X-32713436Y30855611D02*
G01*
X-32522167Y30776385D01*
X-32522165Y30776384D01*
X-32350027Y30661365D01*
X-32203635Y30514973D01*
X-32088615Y30342833D01*
X-32009389Y30151564D01*
X-31969000Y29948516D01*
X-31969000Y29741484D01*
X-32009389Y29538436D01*
X-32088615Y29347167D01*
X-32088616Y29347165D01*
X-32203635Y29175027D01*
X-32350027Y29028635D01*
X-32522165Y28913616D01*
X-32522166Y28913615D01*
X-32522167Y28913615D01*
X-32713436Y28834389D01*
X-32916484Y28794000D01*
X-33123516Y28794000D01*
X-33326564Y28834389D01*
X-33517833Y28913615D01*
X-33517834Y28913615D01*
X-33517835Y28913616D01*
X-33689973Y29028635D01*
X-33836365Y29175027D01*
X-33951384Y29347165D01*
X-33951385Y29347167D01*
X-34030611Y29538436D01*
X-34071000Y29741484D01*
X-34071000Y29948516D01*
X-34030611Y30151564D01*
X-33951385Y30342833D01*
X-33836365Y30514973D01*
X-33689973Y30661365D01*
X-33517835Y30776384D01*
X-33517833Y30776385D01*
X-33326564Y30855611D01*
X-33123516Y30896000D01*
X-32916484Y30896000D01*
X-32713436Y30855611D01*
X-32713436Y30855611D01*
G37*
G36*
X3089090Y34435472D02*
G01*
X3518799Y34305121D01*
X3596314Y34281607D01*
X3617085Y34275306D01*
X4103677Y34015217D01*
X4103680Y34015215D01*
X4103681Y34015214D01*
X4530189Y33665189D01*
X4814298Y33319000D01*
X4880217Y33238677D01*
X5140306Y32752085D01*
X5140307Y32752082D01*
X5170121Y32653799D01*
X5300472Y32224090D01*
X5354552Y31675000D01*
X5300472Y31125910D01*
X5140306Y30597915D01*
X4880217Y30111323D01*
X4880215Y30111320D01*
X4880214Y30111319D01*
X4530189Y29684811D01*
X4103681Y29334786D01*
X4103677Y29334783D01*
X3617085Y29074694D01*
X3089090Y28914528D01*
X2677599Y28874000D01*
X2402401Y28874000D01*
X1990910Y28914528D01*
X1462915Y29074694D01*
X976323Y29334783D01*
X976319Y29334786D01*
X549811Y29684811D01*
X199786Y30111319D01*
X199785Y30111320D01*
X199783Y30111323D01*
X-60306Y30597915D01*
X-220472Y31125910D01*
X-274552Y31675000D01*
X-220472Y32224090D01*
X-90121Y32653799D01*
X-60307Y32752082D01*
X-60306Y32752085D01*
X199783Y33238677D01*
X265702Y33319000D01*
X549811Y33665189D01*
X976319Y34015214D01*
X976320Y34015215D01*
X976323Y34015217D01*
X1462915Y34275306D01*
X1483687Y34281607D01*
X1561201Y34305121D01*
X1990910Y34435472D01*
X2402401Y34476000D01*
X2677599Y34476000D01*
X3089090Y34435472D01*
X3089090Y34435472D01*
G37*
G36*
X33569090Y34435472D02*
G01*
X33998799Y34305121D01*
X34076314Y34281607D01*
X34097085Y34275306D01*
X34583677Y34015217D01*
X34583680Y34015215D01*
X34583681Y34015214D01*
X35010189Y33665189D01*
X35294298Y33319000D01*
X35360217Y33238677D01*
X35620306Y32752085D01*
X35620307Y32752082D01*
X35650121Y32653799D01*
X35780472Y32224090D01*
X35834552Y31675000D01*
X35780472Y31125910D01*
X35620306Y30597915D01*
X35360217Y30111323D01*
X35360215Y30111320D01*
X35360214Y30111319D01*
X35010189Y29684811D01*
X34583681Y29334786D01*
X34583677Y29334783D01*
X34097085Y29074694D01*
X33569090Y28914528D01*
X33157599Y28874000D01*
X32882401Y28874000D01*
X32470910Y28914528D01*
X31942915Y29074694D01*
X31456323Y29334783D01*
X31456319Y29334786D01*
X31029811Y29684811D01*
X30679786Y30111319D01*
X30679785Y30111320D01*
X30679783Y30111323D01*
X30419694Y30597915D01*
X30259528Y31125910D01*
X30205448Y31675000D01*
X30259528Y32224090D01*
X30389879Y32653799D01*
X30419693Y32752082D01*
X30419694Y32752085D01*
X30679783Y33238677D01*
X30745702Y33319000D01*
X31029811Y33665189D01*
X31456319Y34015214D01*
X31456320Y34015215D01*
X31456323Y34015217D01*
X31942915Y34275306D01*
X31963687Y34281607D01*
X32041201Y34305121D01*
X32470910Y34435472D01*
X32882401Y34476000D01*
X33157599Y34476000D01*
X33569090Y34435472D01*
X33569090Y34435472D01*
G37*
G36*
X18329090Y34435472D02*
G01*
X18758799Y34305121D01*
X18836314Y34281607D01*
X18857085Y34275306D01*
X19343677Y34015217D01*
X19343680Y34015215D01*
X19343681Y34015214D01*
X19770189Y33665189D01*
X20054298Y33319000D01*
X20120217Y33238677D01*
X20380306Y32752085D01*
X20380307Y32752082D01*
X20410121Y32653799D01*
X20540472Y32224090D01*
X20594552Y31675000D01*
X20540472Y31125910D01*
X20380306Y30597915D01*
X20120217Y30111323D01*
X20120215Y30111320D01*
X20120214Y30111319D01*
X19770189Y29684811D01*
X19343681Y29334786D01*
X19343677Y29334783D01*
X18857085Y29074694D01*
X18329090Y28914528D01*
X17917599Y28874000D01*
X17642401Y28874000D01*
X17230910Y28914528D01*
X16702915Y29074694D01*
X16216323Y29334783D01*
X16216319Y29334786D01*
X15789811Y29684811D01*
X15439786Y30111319D01*
X15439785Y30111320D01*
X15439783Y30111323D01*
X15179694Y30597915D01*
X15019528Y31125910D01*
X14965448Y31675000D01*
X15019528Y32224090D01*
X15149879Y32653799D01*
X15179693Y32752082D01*
X15179694Y32752085D01*
X15439783Y33238677D01*
X15505702Y33319000D01*
X15789811Y33665189D01*
X16216319Y34015214D01*
X16216320Y34015215D01*
X16216323Y34015217D01*
X16702915Y34275306D01*
X16723687Y34281607D01*
X16801201Y34305121D01*
X17230910Y34435472D01*
X17642401Y34476000D01*
X17917599Y34476000D01*
X18329090Y34435472D01*
X18329090Y34435472D01*
G37*
G36*
X44875256Y34608702D02*
G01*
X44981579Y34587553D01*
X45194037Y34499550D01*
X45250892Y34476000D01*
X45282042Y34463097D01*
X45552451Y34282415D01*
X45782415Y34052451D01*
X45963097Y33782042D01*
X46077069Y33506890D01*
X46087553Y33481578D01*
X46151000Y33162611D01*
X46151000Y32837389D01*
X46117175Y32667339D01*
X46087553Y32518421D01*
X45963097Y32217958D01*
X45782415Y31947549D01*
X45552451Y31717585D01*
X45282042Y31536903D01*
X44981579Y31412447D01*
X44875256Y31391298D01*
X44662611Y31349000D01*
X44337389Y31349000D01*
X44124744Y31391298D01*
X44018421Y31412447D01*
X43717958Y31536903D01*
X43447549Y31717585D01*
X43217585Y31947549D01*
X43036903Y32217958D01*
X42912447Y32518421D01*
X42882825Y32667339D01*
X42849000Y32837389D01*
X42849000Y33162611D01*
X42912447Y33481578D01*
X42922932Y33506890D01*
X43036903Y33782042D01*
X43217585Y34052451D01*
X43447549Y34282415D01*
X43717958Y34463097D01*
X43749109Y34476000D01*
X43805963Y34499550D01*
X44018421Y34587553D01*
X44124744Y34608702D01*
X44337389Y34651000D01*
X44662611Y34651000D01*
X44875256Y34608702D01*
X44875256Y34608702D01*
G37*
G36*
X-44124744Y34608702D02*
G01*
X-44018421Y34587553D01*
X-43805963Y34499550D01*
X-43749108Y34476000D01*
X-43717958Y34463097D01*
X-43447549Y34282415D01*
X-43217585Y34052451D01*
X-43036903Y33782042D01*
X-42922931Y33506890D01*
X-42912447Y33481578D01*
X-42849000Y33162611D01*
X-42849000Y32837389D01*
X-42882825Y32667339D01*
X-42912447Y32518421D01*
X-43036903Y32217958D01*
X-43217585Y31947549D01*
X-43447549Y31717585D01*
X-43717958Y31536903D01*
X-44018421Y31412447D01*
X-44124744Y31391298D01*
X-44337389Y31349000D01*
X-44662611Y31349000D01*
X-44875256Y31391298D01*
X-44981579Y31412447D01*
X-45282042Y31536903D01*
X-45552451Y31717585D01*
X-45782415Y31947549D01*
X-45963097Y32217958D01*
X-46087553Y32518421D01*
X-46117175Y32667339D01*
X-46151000Y32837389D01*
X-46151000Y33162611D01*
X-46087553Y33481578D01*
X-46077068Y33506890D01*
X-45963097Y33782042D01*
X-45782415Y34052451D01*
X-45552451Y34282415D01*
X-45282042Y34463097D01*
X-45250891Y34476000D01*
X-45194037Y34499550D01*
X-44981579Y34587553D01*
X-44875256Y34608702D01*
X-44662611Y34651000D01*
X-44337389Y34651000D01*
X-44124744Y34608702D01*
X-44124744Y34608702D01*
G37*
G36*
X-26925409Y32716915D02*
G01*
X-26891431Y32706607D01*
X-26860110Y32689866D01*
X-26832661Y32667339D01*
X-26810134Y32639890D01*
X-26793393Y32608569D01*
X-26783085Y32574591D01*
X-26779000Y32533110D01*
X-26779000Y31931890D01*
X-26783085Y31890409D01*
X-26793393Y31856431D01*
X-26810134Y31825110D01*
X-26832661Y31797661D01*
X-26860110Y31775134D01*
X-26891431Y31758393D01*
X-26925409Y31748085D01*
X-26966890Y31744000D01*
X-27643110Y31744000D01*
X-27684591Y31748085D01*
X-27718569Y31758393D01*
X-27749890Y31775134D01*
X-27777339Y31797661D01*
X-27799866Y31825110D01*
X-27816607Y31856431D01*
X-27826915Y31890409D01*
X-27831000Y31931890D01*
X-27831000Y32533110D01*
X-27826915Y32574591D01*
X-27816607Y32608569D01*
X-27799866Y32639890D01*
X-27777339Y32667339D01*
X-27749890Y32689866D01*
X-27718569Y32706607D01*
X-27684591Y32716915D01*
X-27643110Y32721000D01*
X-26966890Y32721000D01*
X-26925409Y32716915D01*
X-26925409Y32716915D01*
G37*
G36*
X-23115409Y32716915D02*
G01*
X-23081431Y32706607D01*
X-23050110Y32689866D01*
X-23022661Y32667339D01*
X-23000134Y32639890D01*
X-22983393Y32608569D01*
X-22973085Y32574591D01*
X-22969000Y32533110D01*
X-22969000Y31931890D01*
X-22973085Y31890409D01*
X-22983393Y31856431D01*
X-23000134Y31825110D01*
X-23022661Y31797661D01*
X-23050110Y31775134D01*
X-23081431Y31758393D01*
X-23115409Y31748085D01*
X-23156890Y31744000D01*
X-23833110Y31744000D01*
X-23874591Y31748085D01*
X-23908569Y31758393D01*
X-23939890Y31775134D01*
X-23967339Y31797661D01*
X-23989866Y31825110D01*
X-24006607Y31856431D01*
X-24016915Y31890409D01*
X-24021000Y31931890D01*
X-24021000Y32533110D01*
X-24016915Y32574591D01*
X-24006607Y32608569D01*
X-23989866Y32639890D01*
X-23967339Y32667339D01*
X-23939890Y32689866D01*
X-23908569Y32706607D01*
X-23874591Y32716915D01*
X-23833110Y32721000D01*
X-23156890Y32721000D01*
X-23115409Y32716915D01*
X-23115409Y32716915D01*
G37*
G36*
X-25020409Y32716915D02*
G01*
X-24986431Y32706607D01*
X-24955110Y32689866D01*
X-24927661Y32667339D01*
X-24905134Y32639890D01*
X-24888393Y32608569D01*
X-24878085Y32574591D01*
X-24874000Y32533110D01*
X-24874000Y31931890D01*
X-24878085Y31890409D01*
X-24888393Y31856431D01*
X-24905134Y31825110D01*
X-24927661Y31797661D01*
X-24955110Y31775134D01*
X-24986431Y31758393D01*
X-25020409Y31748085D01*
X-25061890Y31744000D01*
X-25738110Y31744000D01*
X-25779591Y31748085D01*
X-25813569Y31758393D01*
X-25844890Y31775134D01*
X-25872339Y31797661D01*
X-25894866Y31825110D01*
X-25911607Y31856431D01*
X-25921915Y31890409D01*
X-25926000Y31931890D01*
X-25926000Y32533110D01*
X-25921915Y32574591D01*
X-25911607Y32608569D01*
X-25894866Y32639890D01*
X-25872339Y32667339D01*
X-25844890Y32689866D01*
X-25813569Y32706607D01*
X-25779591Y32716915D01*
X-25738110Y32721000D01*
X-25061890Y32721000D01*
X-25020409Y32716915D01*
X-25020409Y32716915D01*
G37*
G36*
X-35180409Y32716915D02*
G01*
X-35146431Y32706607D01*
X-35115110Y32689866D01*
X-35087661Y32667339D01*
X-35065134Y32639890D01*
X-35048393Y32608569D01*
X-35038085Y32574591D01*
X-35034000Y32533110D01*
X-35034000Y31931890D01*
X-35038085Y31890409D01*
X-35048393Y31856431D01*
X-35065134Y31825110D01*
X-35087661Y31797661D01*
X-35115110Y31775134D01*
X-35146431Y31758393D01*
X-35180409Y31748085D01*
X-35221890Y31744000D01*
X-35898110Y31744000D01*
X-35939591Y31748085D01*
X-35973569Y31758393D01*
X-36004890Y31775134D01*
X-36032339Y31797661D01*
X-36054866Y31825110D01*
X-36071607Y31856431D01*
X-36081915Y31890409D01*
X-36086000Y31931890D01*
X-36086000Y32533110D01*
X-36081915Y32574591D01*
X-36071607Y32608569D01*
X-36054866Y32639890D01*
X-36032339Y32667339D01*
X-36004890Y32689866D01*
X-35973569Y32706607D01*
X-35939591Y32716915D01*
X-35898110Y32721000D01*
X-35221890Y32721000D01*
X-35180409Y32716915D01*
X-35180409Y32716915D01*
G37*
G36*
X-28830409Y32716915D02*
G01*
X-28796431Y32706607D01*
X-28765110Y32689866D01*
X-28737661Y32667339D01*
X-28715134Y32639890D01*
X-28698393Y32608569D01*
X-28688085Y32574591D01*
X-28684000Y32533110D01*
X-28684000Y31931890D01*
X-28688085Y31890409D01*
X-28698393Y31856431D01*
X-28715134Y31825110D01*
X-28737661Y31797661D01*
X-28765110Y31775134D01*
X-28796431Y31758393D01*
X-28830409Y31748085D01*
X-28871890Y31744000D01*
X-29548110Y31744000D01*
X-29589591Y31748085D01*
X-29623569Y31758393D01*
X-29654890Y31775134D01*
X-29682339Y31797661D01*
X-29704866Y31825110D01*
X-29721607Y31856431D01*
X-29731915Y31890409D01*
X-29736000Y31931890D01*
X-29736000Y32533110D01*
X-29731915Y32574591D01*
X-29721607Y32608569D01*
X-29704866Y32639890D01*
X-29682339Y32667339D01*
X-29654890Y32689866D01*
X-29623569Y32706607D01*
X-29589591Y32716915D01*
X-29548110Y32721000D01*
X-28871890Y32721000D01*
X-28830409Y32716915D01*
X-28830409Y32716915D01*
G37*
G36*
X-30735409Y32716915D02*
G01*
X-30701431Y32706607D01*
X-30670110Y32689866D01*
X-30642661Y32667339D01*
X-30620134Y32639890D01*
X-30603393Y32608569D01*
X-30593085Y32574591D01*
X-30589000Y32533110D01*
X-30589000Y31931890D01*
X-30593085Y31890409D01*
X-30603393Y31856431D01*
X-30620134Y31825110D01*
X-30642661Y31797661D01*
X-30670110Y31775134D01*
X-30701431Y31758393D01*
X-30735409Y31748085D01*
X-30776890Y31744000D01*
X-31453110Y31744000D01*
X-31494591Y31748085D01*
X-31528569Y31758393D01*
X-31559890Y31775134D01*
X-31587339Y31797661D01*
X-31609866Y31825110D01*
X-31626607Y31856431D01*
X-31636915Y31890409D01*
X-31641000Y31931890D01*
X-31641000Y32533110D01*
X-31636915Y32574591D01*
X-31626607Y32608569D01*
X-31609866Y32639890D01*
X-31587339Y32667339D01*
X-31559890Y32689866D01*
X-31528569Y32706607D01*
X-31494591Y32716915D01*
X-31453110Y32721000D01*
X-30776890Y32721000D01*
X-30735409Y32716915D01*
X-30735409Y32716915D01*
G37*
G36*
X-38428436Y34030611D02*
G01*
X-38237167Y33951385D01*
X-38237165Y33951384D01*
X-38065027Y33836365D01*
X-37918635Y33689973D01*
X-37833961Y33563250D01*
X-37803615Y33517833D01*
X-37724389Y33326564D01*
X-37684000Y33123516D01*
X-37684000Y32916484D01*
X-37724389Y32713436D01*
X-37783711Y32570220D01*
X-37803616Y32522165D01*
X-37918635Y32350027D01*
X-38065027Y32203635D01*
X-38237165Y32088616D01*
X-38237166Y32088615D01*
X-38237167Y32088615D01*
X-38428436Y32009389D01*
X-38631484Y31969000D01*
X-38838516Y31969000D01*
X-39041564Y32009389D01*
X-39232833Y32088615D01*
X-39232834Y32088615D01*
X-39232835Y32088616D01*
X-39404973Y32203635D01*
X-39551365Y32350027D01*
X-39666384Y32522165D01*
X-39686289Y32570220D01*
X-39745611Y32713436D01*
X-39786000Y32916484D01*
X-39786000Y33123516D01*
X-39745611Y33326564D01*
X-39666385Y33517833D01*
X-39636038Y33563250D01*
X-39551365Y33689973D01*
X-39404973Y33836365D01*
X-39232835Y33951384D01*
X-39232833Y33951385D01*
X-39041564Y34030611D01*
X-38838516Y34071000D01*
X-38631484Y34071000D01*
X-38428436Y34030611D01*
X-38428436Y34030611D01*
G37*
G36*
X-30735409Y34291915D02*
G01*
X-30701431Y34281607D01*
X-30670110Y34264866D01*
X-30642661Y34242339D01*
X-30620134Y34214890D01*
X-30603393Y34183569D01*
X-30593085Y34149591D01*
X-30589000Y34108110D01*
X-30589000Y33506890D01*
X-30593085Y33465409D01*
X-30603393Y33431431D01*
X-30620134Y33400110D01*
X-30642661Y33372661D01*
X-30670110Y33350134D01*
X-30701431Y33333393D01*
X-30735409Y33323085D01*
X-30776890Y33319000D01*
X-31453110Y33319000D01*
X-31494591Y33323085D01*
X-31528569Y33333393D01*
X-31559890Y33350134D01*
X-31587339Y33372661D01*
X-31609866Y33400110D01*
X-31626607Y33431431D01*
X-31636915Y33465409D01*
X-31641000Y33506890D01*
X-31641000Y34108110D01*
X-31636915Y34149591D01*
X-31626607Y34183569D01*
X-31609866Y34214890D01*
X-31587339Y34242339D01*
X-31559890Y34264866D01*
X-31528569Y34281607D01*
X-31494591Y34291915D01*
X-31453110Y34296000D01*
X-30776890Y34296000D01*
X-30735409Y34291915D01*
X-30735409Y34291915D01*
G37*
G36*
X-28830409Y34291915D02*
G01*
X-28796431Y34281607D01*
X-28765110Y34264866D01*
X-28737661Y34242339D01*
X-28715134Y34214890D01*
X-28698393Y34183569D01*
X-28688085Y34149591D01*
X-28684000Y34108110D01*
X-28684000Y33506890D01*
X-28688085Y33465409D01*
X-28698393Y33431431D01*
X-28715134Y33400110D01*
X-28737661Y33372661D01*
X-28765110Y33350134D01*
X-28796431Y33333393D01*
X-28830409Y33323085D01*
X-28871890Y33319000D01*
X-29548110Y33319000D01*
X-29589591Y33323085D01*
X-29623569Y33333393D01*
X-29654890Y33350134D01*
X-29682339Y33372661D01*
X-29704866Y33400110D01*
X-29721607Y33431431D01*
X-29731915Y33465409D01*
X-29736000Y33506890D01*
X-29736000Y34108110D01*
X-29731915Y34149591D01*
X-29721607Y34183569D01*
X-29704866Y34214890D01*
X-29682339Y34242339D01*
X-29654890Y34264866D01*
X-29623569Y34281607D01*
X-29589591Y34291915D01*
X-29548110Y34296000D01*
X-28871890Y34296000D01*
X-28830409Y34291915D01*
X-28830409Y34291915D01*
G37*
G36*
X-26925409Y34291915D02*
G01*
X-26891431Y34281607D01*
X-26860110Y34264866D01*
X-26832661Y34242339D01*
X-26810134Y34214890D01*
X-26793393Y34183569D01*
X-26783085Y34149591D01*
X-26779000Y34108110D01*
X-26779000Y33506890D01*
X-26783085Y33465409D01*
X-26793393Y33431431D01*
X-26810134Y33400110D01*
X-26832661Y33372661D01*
X-26860110Y33350134D01*
X-26891431Y33333393D01*
X-26925409Y33323085D01*
X-26966890Y33319000D01*
X-27643110Y33319000D01*
X-27684591Y33323085D01*
X-27718569Y33333393D01*
X-27749890Y33350134D01*
X-27777339Y33372661D01*
X-27799866Y33400110D01*
X-27816607Y33431431D01*
X-27826915Y33465409D01*
X-27831000Y33506890D01*
X-27831000Y34108110D01*
X-27826915Y34149591D01*
X-27816607Y34183569D01*
X-27799866Y34214890D01*
X-27777339Y34242339D01*
X-27749890Y34264866D01*
X-27718569Y34281607D01*
X-27684591Y34291915D01*
X-27643110Y34296000D01*
X-26966890Y34296000D01*
X-26925409Y34291915D01*
X-26925409Y34291915D01*
G37*
G36*
X-25020409Y34291915D02*
G01*
X-24986431Y34281607D01*
X-24955110Y34264866D01*
X-24927661Y34242339D01*
X-24905134Y34214890D01*
X-24888393Y34183569D01*
X-24878085Y34149591D01*
X-24874000Y34108110D01*
X-24874000Y33506890D01*
X-24878085Y33465409D01*
X-24888393Y33431431D01*
X-24905134Y33400110D01*
X-24927661Y33372661D01*
X-24955110Y33350134D01*
X-24986431Y33333393D01*
X-25020409Y33323085D01*
X-25061890Y33319000D01*
X-25738110Y33319000D01*
X-25779591Y33323085D01*
X-25813569Y33333393D01*
X-25844890Y33350134D01*
X-25872339Y33372661D01*
X-25894866Y33400110D01*
X-25911607Y33431431D01*
X-25921915Y33465409D01*
X-25926000Y33506890D01*
X-25926000Y34108110D01*
X-25921915Y34149591D01*
X-25911607Y34183569D01*
X-25894866Y34214890D01*
X-25872339Y34242339D01*
X-25844890Y34264866D01*
X-25813569Y34281607D01*
X-25779591Y34291915D01*
X-25738110Y34296000D01*
X-25061890Y34296000D01*
X-25020409Y34291915D01*
X-25020409Y34291915D01*
G37*
G36*
X-23115409Y34291915D02*
G01*
X-23081431Y34281607D01*
X-23050110Y34264866D01*
X-23022661Y34242339D01*
X-23000134Y34214890D01*
X-22983393Y34183569D01*
X-22973085Y34149591D01*
X-22969000Y34108110D01*
X-22969000Y33506890D01*
X-22973085Y33465409D01*
X-22983393Y33431431D01*
X-23000134Y33400110D01*
X-23022661Y33372661D01*
X-23050110Y33350134D01*
X-23081431Y33333393D01*
X-23115409Y33323085D01*
X-23156890Y33319000D01*
X-23833110Y33319000D01*
X-23874591Y33323085D01*
X-23908569Y33333393D01*
X-23939890Y33350134D01*
X-23967339Y33372661D01*
X-23989866Y33400110D01*
X-24006607Y33431431D01*
X-24016915Y33465409D01*
X-24021000Y33506890D01*
X-24021000Y34108110D01*
X-24016915Y34149591D01*
X-24006607Y34183569D01*
X-23989866Y34214890D01*
X-23967339Y34242339D01*
X-23939890Y34264866D01*
X-23908569Y34281607D01*
X-23874591Y34291915D01*
X-23833110Y34296000D01*
X-23156890Y34296000D01*
X-23115409Y34291915D01*
X-23115409Y34291915D01*
G37*
G36*
X-35180409Y34291915D02*
G01*
X-35146431Y34281607D01*
X-35115110Y34264866D01*
X-35087661Y34242339D01*
X-35065134Y34214890D01*
X-35048393Y34183569D01*
X-35038085Y34149591D01*
X-35034000Y34108110D01*
X-35034000Y33506890D01*
X-35038085Y33465409D01*
X-35048393Y33431431D01*
X-35065134Y33400110D01*
X-35087661Y33372661D01*
X-35115110Y33350134D01*
X-35146431Y33333393D01*
X-35180409Y33323085D01*
X-35221890Y33319000D01*
X-35898110Y33319000D01*
X-35939591Y33323085D01*
X-35973569Y33333393D01*
X-36004890Y33350134D01*
X-36032339Y33372661D01*
X-36054866Y33400110D01*
X-36071607Y33431431D01*
X-36081915Y33465409D01*
X-36086000Y33506890D01*
X-36086000Y34108110D01*
X-36081915Y34149591D01*
X-36071607Y34183569D01*
X-36054866Y34214890D01*
X-36032339Y34242339D01*
X-36004890Y34264866D01*
X-35973569Y34281607D01*
X-35939591Y34291915D01*
X-35898110Y34296000D01*
X-35221890Y34296000D01*
X-35180409Y34291915D01*
X-35180409Y34291915D01*
G37*
M02*
