G04 #@! TF.GenerationSoftware,KiCad,Pcbnew,(5.1.2)-1*
G04 #@! TF.CreationDate,2020-04-21T09:17:00+09:00*
G04 #@! TF.ProjectId,InverterBoard,496e7665-7274-4657-9242-6f6172642e6b,rev?*
G04 #@! TF.SameCoordinates,Original*
G04 #@! TF.FileFunction,Legend,Bot*
G04 #@! TF.FilePolarity,Positive*
%FSLAX46Y46*%
G04 Gerber Fmt 4.6, Leading zero omitted, Abs format (unit mm)*
G04 Created by KiCad (PCBNEW (5.1.2)-1) date 2020-04-21 09:17:00*
%MOMM*%
%LPD*%
G04 APERTURE LIST*
%ADD10C,0.120000*%
%ADD11C,0.150000*%
G04 APERTURE END LIST*
D10*
X-8382000Y-26162000D02*
X-6604000Y-26162000D01*
X-5242779Y-25525000D02*
X-4917221Y-25525000D01*
X-5242779Y-26545000D02*
X-4917221Y-26545000D01*
X25237221Y-20445000D02*
X25562779Y-20445000D01*
X25237221Y-21465000D02*
X25562779Y-21465000D01*
X-472221Y-25525000D02*
X-797779Y-25525000D01*
X-472221Y-26545000D02*
X-797779Y-26545000D01*
X33530000Y-20482779D02*
X33530000Y-20157221D01*
X32510000Y-20482779D02*
X32510000Y-20157221D01*
X-3337779Y-31240000D02*
X-3012221Y-31240000D01*
X-3337779Y-32260000D02*
X-3012221Y-32260000D01*
X30605000Y-20482779D02*
X30605000Y-20157221D01*
X31625000Y-20482779D02*
X31625000Y-20157221D01*
X42072779Y-9015000D02*
X41747221Y-9015000D01*
X42072779Y-10035000D02*
X41747221Y-10035000D01*
X37302221Y-23620000D02*
X37627779Y-23620000D01*
X37302221Y-24640000D02*
X37627779Y-24640000D01*
X-34570000Y8270000D02*
X-34910000Y8270000D01*
X-38750000Y8270000D02*
X-39090000Y8270000D01*
X-39090000Y8270000D02*
X-39090000Y9930000D01*
X-34570000Y9930000D02*
X-34570000Y8270000D01*
X-38750000Y8030000D02*
X-38750000Y8270000D01*
X-36990000Y8270000D02*
X-36670000Y8270000D01*
X-7130000Y-28494000D02*
G75*
G03X-6430000Y-29194000I700000J0D01*
G01*
X-6430000Y-27194000D02*
G75*
G03X-7130000Y-27894000I0J-700000D01*
G01*
X-3030000Y-27894000D02*
G75*
G03X-3730000Y-27194000I-700000J0D01*
G01*
X-3730000Y-29194000D02*
G75*
G03X-3030000Y-28494000I0J700000D01*
G01*
X-6480000Y-29194000D02*
X-3680000Y-29194000D01*
X-3030000Y-28494000D02*
X-3030000Y-27894000D01*
X-3680000Y-27194000D02*
X-6480000Y-27194000D01*
X-7130000Y-27894000D02*
X-7130000Y-28494000D01*
X23350000Y-22814000D02*
X23350000Y-23414000D01*
X26800000Y-22114000D02*
X24000000Y-22114000D01*
X27450000Y-23414000D02*
X27450000Y-22814000D01*
X24000000Y-24114000D02*
X26800000Y-24114000D01*
X26750000Y-24114000D02*
G75*
G03X27450000Y-23414000I0J700000D01*
G01*
X27450000Y-22814000D02*
G75*
G03X26750000Y-22114000I-700000J0D01*
G01*
X24050000Y-22114000D02*
G75*
G03X23350000Y-22814000I0J-700000D01*
G01*
X23350000Y-23414000D02*
G75*
G03X24050000Y-24114000I700000J0D01*
G01*
X-472221Y-24640000D02*
X-797779Y-24640000D01*
X-472221Y-23620000D02*
X-797779Y-23620000D01*
X35435000Y-20482779D02*
X35435000Y-20157221D01*
X34415000Y-20482779D02*
X34415000Y-20157221D01*
X-7147779Y-29716000D02*
X-6822221Y-29716000D01*
X-7147779Y-30736000D02*
X-6822221Y-30736000D01*
X-3337779Y-30736000D02*
X-3012221Y-30736000D01*
X-3337779Y-29716000D02*
X-3012221Y-29716000D01*
X28700000Y-23657779D02*
X28700000Y-23332221D01*
X29720000Y-23657779D02*
X29720000Y-23332221D01*
X29720000Y-20482779D02*
X29720000Y-20157221D01*
X28700000Y-20482779D02*
X28700000Y-20157221D01*
X35685000Y-26507221D02*
X35685000Y-26832779D01*
X36705000Y-26507221D02*
X36705000Y-26832779D01*
X39245000Y-26507221D02*
X39245000Y-26832779D01*
X38225000Y-26507221D02*
X38225000Y-26832779D01*
X-7640000Y-21590000D02*
X-7640000Y-18140000D01*
X-7640000Y-21590000D02*
X-7640000Y-23540000D01*
X-2520000Y-21590000D02*
X-2520000Y-19640000D01*
X-2520000Y-21590000D02*
X-2520000Y-23540000D01*
X22840000Y-16510000D02*
X22840000Y-13060000D01*
X22840000Y-16510000D02*
X22840000Y-18460000D01*
X27960000Y-16510000D02*
X27960000Y-14560000D01*
X27960000Y-16510000D02*
X27960000Y-18460000D01*
X42168578Y-2465000D02*
X41651422Y-2465000D01*
X42168578Y-3885000D02*
X41651422Y-3885000D01*
X42072779Y-4570000D02*
X41747221Y-4570000D01*
X42072779Y-5590000D02*
X41747221Y-5590000D01*
X700000Y-27940000D02*
G75*
G03X700000Y-27940000I-700000J0D01*
G01*
X37784000Y-20320000D02*
G75*
G03X37784000Y-20320000I-700000J0D01*
G01*
X-5015000Y-32385000D02*
G75*
G03X-5015000Y-32385000I-700000J0D01*
G01*
X31688000Y-22860000D02*
G75*
G03X31688000Y-22860000I-700000J0D01*
G01*
D11*
X-9263142Y-26519142D02*
X-9215523Y-26566761D01*
X-9072666Y-26614380D01*
X-8977428Y-26614380D01*
X-8834571Y-26566761D01*
X-8739333Y-26471523D01*
X-8691714Y-26376285D01*
X-8644095Y-26185809D01*
X-8644095Y-26042952D01*
X-8691714Y-25852476D01*
X-8739333Y-25757238D01*
X-8834571Y-25662000D01*
X-8977428Y-25614380D01*
X-9072666Y-25614380D01*
X-9215523Y-25662000D01*
X-9263142Y-25709619D01*
X-10215523Y-26614380D02*
X-9644095Y-26614380D01*
X-9929809Y-26614380D02*
X-9929809Y-25614380D01*
X-9834571Y-25757238D01*
X-9739333Y-25852476D01*
X-9644095Y-25900095D01*
X-11072666Y-25614380D02*
X-10882190Y-25614380D01*
X-10786952Y-25662000D01*
X-10739333Y-25709619D01*
X-10644095Y-25852476D01*
X-10596476Y-26042952D01*
X-10596476Y-26423904D01*
X-10644095Y-26519142D01*
X-10691714Y-26566761D01*
X-10786952Y-26614380D01*
X-10977428Y-26614380D01*
X-11072666Y-26566761D01*
X-11120285Y-26519142D01*
X-11167904Y-26423904D01*
X-11167904Y-26185809D01*
X-11120285Y-26090571D01*
X-11072666Y-26042952D01*
X-10977428Y-25995333D01*
X-10786952Y-25995333D01*
X-10691714Y-26042952D01*
X-10644095Y-26090571D01*
X-10596476Y-26185809D01*
X23248857Y-21439142D02*
X23296476Y-21486761D01*
X23439333Y-21534380D01*
X23534571Y-21534380D01*
X23677428Y-21486761D01*
X23772666Y-21391523D01*
X23820285Y-21296285D01*
X23867904Y-21105809D01*
X23867904Y-20962952D01*
X23820285Y-20772476D01*
X23772666Y-20677238D01*
X23677428Y-20582000D01*
X23534571Y-20534380D01*
X23439333Y-20534380D01*
X23296476Y-20582000D01*
X23248857Y-20629619D01*
X22296476Y-21534380D02*
X22867904Y-21534380D01*
X22582190Y-21534380D02*
X22582190Y-20534380D01*
X22677428Y-20677238D01*
X22772666Y-20772476D01*
X22867904Y-20820095D01*
X21963142Y-20534380D02*
X21296476Y-20534380D01*
X21725047Y-21534380D01*
X3182857Y-26392142D02*
X3230476Y-26439761D01*
X3373333Y-26487380D01*
X3468571Y-26487380D01*
X3611428Y-26439761D01*
X3706666Y-26344523D01*
X3754285Y-26249285D01*
X3801904Y-26058809D01*
X3801904Y-25915952D01*
X3754285Y-25725476D01*
X3706666Y-25630238D01*
X3611428Y-25535000D01*
X3468571Y-25487380D01*
X3373333Y-25487380D01*
X3230476Y-25535000D01*
X3182857Y-25582619D01*
X2230476Y-26487380D02*
X2801904Y-26487380D01*
X2516190Y-26487380D02*
X2516190Y-25487380D01*
X2611428Y-25630238D01*
X2706666Y-25725476D01*
X2801904Y-25773095D01*
X1659047Y-25915952D02*
X1754285Y-25868333D01*
X1801904Y-25820714D01*
X1849523Y-25725476D01*
X1849523Y-25677857D01*
X1801904Y-25582619D01*
X1754285Y-25535000D01*
X1659047Y-25487380D01*
X1468571Y-25487380D01*
X1373333Y-25535000D01*
X1325714Y-25582619D01*
X1278095Y-25677857D01*
X1278095Y-25725476D01*
X1325714Y-25820714D01*
X1373333Y-25868333D01*
X1468571Y-25915952D01*
X1659047Y-25915952D01*
X1754285Y-25963571D01*
X1801904Y-26011190D01*
X1849523Y-26106428D01*
X1849523Y-26296904D01*
X1801904Y-26392142D01*
X1754285Y-26439761D01*
X1659047Y-26487380D01*
X1468571Y-26487380D01*
X1373333Y-26439761D01*
X1325714Y-26392142D01*
X1278095Y-26296904D01*
X1278095Y-26106428D01*
X1325714Y-26011190D01*
X1373333Y-25963571D01*
X1468571Y-25915952D01*
X33377142Y-16502142D02*
X33424761Y-16454523D01*
X33472380Y-16311666D01*
X33472380Y-16216428D01*
X33424761Y-16073571D01*
X33329523Y-15978333D01*
X33234285Y-15930714D01*
X33043809Y-15883095D01*
X32900952Y-15883095D01*
X32710476Y-15930714D01*
X32615238Y-15978333D01*
X32520000Y-16073571D01*
X32472380Y-16216428D01*
X32472380Y-16311666D01*
X32520000Y-16454523D01*
X32567619Y-16502142D01*
X33472380Y-17454523D02*
X33472380Y-16883095D01*
X33472380Y-17168809D02*
X32472380Y-17168809D01*
X32615238Y-17073571D01*
X32710476Y-16978333D01*
X32758095Y-16883095D01*
X33472380Y-17930714D02*
X33472380Y-18121190D01*
X33424761Y-18216428D01*
X33377142Y-18264047D01*
X33234285Y-18359285D01*
X33043809Y-18406904D01*
X32662857Y-18406904D01*
X32567619Y-18359285D01*
X32520000Y-18311666D01*
X32472380Y-18216428D01*
X32472380Y-18025952D01*
X32520000Y-17930714D01*
X32567619Y-17883095D01*
X32662857Y-17835476D01*
X32900952Y-17835476D01*
X32996190Y-17883095D01*
X33043809Y-17930714D01*
X33091428Y-18025952D01*
X33091428Y-18216428D01*
X33043809Y-18311666D01*
X32996190Y-18359285D01*
X32900952Y-18406904D01*
X642857Y-32107142D02*
X690476Y-32154761D01*
X833333Y-32202380D01*
X928571Y-32202380D01*
X1071428Y-32154761D01*
X1166666Y-32059523D01*
X1214285Y-31964285D01*
X1261904Y-31773809D01*
X1261904Y-31630952D01*
X1214285Y-31440476D01*
X1166666Y-31345238D01*
X1071428Y-31250000D01*
X928571Y-31202380D01*
X833333Y-31202380D01*
X690476Y-31250000D01*
X642857Y-31297619D01*
X261904Y-31297619D02*
X214285Y-31250000D01*
X119047Y-31202380D01*
X-119047Y-31202380D01*
X-214285Y-31250000D01*
X-261904Y-31297619D01*
X-309523Y-31392857D01*
X-309523Y-31488095D01*
X-261904Y-31630952D01*
X309523Y-32202380D01*
X-309523Y-32202380D01*
X-928571Y-31202380D02*
X-1023809Y-31202380D01*
X-1119047Y-31250000D01*
X-1166666Y-31297619D01*
X-1214285Y-31392857D01*
X-1261904Y-31583333D01*
X-1261904Y-31821428D01*
X-1214285Y-32011904D01*
X-1166666Y-32107142D01*
X-1119047Y-32154761D01*
X-1023809Y-32202380D01*
X-928571Y-32202380D01*
X-833333Y-32154761D01*
X-785714Y-32107142D01*
X-738095Y-32011904D01*
X-690476Y-31821428D01*
X-690476Y-31583333D01*
X-738095Y-31392857D01*
X-785714Y-31297619D01*
X-833333Y-31250000D01*
X-928571Y-31202380D01*
X31599142Y-16629142D02*
X31646761Y-16581523D01*
X31694380Y-16438666D01*
X31694380Y-16343428D01*
X31646761Y-16200571D01*
X31551523Y-16105333D01*
X31456285Y-16057714D01*
X31265809Y-16010095D01*
X31122952Y-16010095D01*
X30932476Y-16057714D01*
X30837238Y-16105333D01*
X30742000Y-16200571D01*
X30694380Y-16343428D01*
X30694380Y-16438666D01*
X30742000Y-16581523D01*
X30789619Y-16629142D01*
X30789619Y-17010095D02*
X30742000Y-17057714D01*
X30694380Y-17152952D01*
X30694380Y-17391047D01*
X30742000Y-17486285D01*
X30789619Y-17533904D01*
X30884857Y-17581523D01*
X30980095Y-17581523D01*
X31122952Y-17533904D01*
X31694380Y-16962476D01*
X31694380Y-17581523D01*
X31694380Y-18533904D02*
X31694380Y-17962476D01*
X31694380Y-18248190D02*
X30694380Y-18248190D01*
X30837238Y-18152952D01*
X30932476Y-18057714D01*
X30980095Y-17962476D01*
X42552857Y-11279142D02*
X42600476Y-11326761D01*
X42743333Y-11374380D01*
X42838571Y-11374380D01*
X42981428Y-11326761D01*
X43076666Y-11231523D01*
X43124285Y-11136285D01*
X43171904Y-10945809D01*
X43171904Y-10802952D01*
X43124285Y-10612476D01*
X43076666Y-10517238D01*
X42981428Y-10422000D01*
X42838571Y-10374380D01*
X42743333Y-10374380D01*
X42600476Y-10422000D01*
X42552857Y-10469619D01*
X42171904Y-10469619D02*
X42124285Y-10422000D01*
X42029047Y-10374380D01*
X41790952Y-10374380D01*
X41695714Y-10422000D01*
X41648095Y-10469619D01*
X41600476Y-10564857D01*
X41600476Y-10660095D01*
X41648095Y-10802952D01*
X42219523Y-11374380D01*
X41600476Y-11374380D01*
X41267142Y-10374380D02*
X40648095Y-10374380D01*
X40981428Y-10755333D01*
X40838571Y-10755333D01*
X40743333Y-10802952D01*
X40695714Y-10850571D01*
X40648095Y-10945809D01*
X40648095Y-11183904D01*
X40695714Y-11279142D01*
X40743333Y-11326761D01*
X40838571Y-11374380D01*
X41124285Y-11374380D01*
X41219523Y-11326761D01*
X41267142Y-11279142D01*
X38234857Y-22709142D02*
X38282476Y-22756761D01*
X38425333Y-22804380D01*
X38520571Y-22804380D01*
X38663428Y-22756761D01*
X38758666Y-22661523D01*
X38806285Y-22566285D01*
X38853904Y-22375809D01*
X38853904Y-22232952D01*
X38806285Y-22042476D01*
X38758666Y-21947238D01*
X38663428Y-21852000D01*
X38520571Y-21804380D01*
X38425333Y-21804380D01*
X38282476Y-21852000D01*
X38234857Y-21899619D01*
X37853904Y-21899619D02*
X37806285Y-21852000D01*
X37711047Y-21804380D01*
X37472952Y-21804380D01*
X37377714Y-21852000D01*
X37330095Y-21899619D01*
X37282476Y-21994857D01*
X37282476Y-22090095D01*
X37330095Y-22232952D01*
X37901523Y-22804380D01*
X37282476Y-22804380D01*
X36377714Y-21804380D02*
X36853904Y-21804380D01*
X36901523Y-22280571D01*
X36853904Y-22232952D01*
X36758666Y-22185333D01*
X36520571Y-22185333D01*
X36425333Y-22232952D01*
X36377714Y-22280571D01*
X36330095Y-22375809D01*
X36330095Y-22613904D01*
X36377714Y-22709142D01*
X36425333Y-22756761D01*
X36520571Y-22804380D01*
X36758666Y-22804380D01*
X36853904Y-22756761D01*
X36901523Y-22709142D01*
X-40187619Y12644285D02*
X-41187619Y12644285D01*
X-41187619Y12406190D01*
X-41140000Y12263333D01*
X-41044761Y12168095D01*
X-40949523Y12120476D01*
X-40759047Y12072857D01*
X-40616190Y12072857D01*
X-40425714Y12120476D01*
X-40330476Y12168095D01*
X-40235238Y12263333D01*
X-40187619Y12406190D01*
X-40187619Y12644285D01*
X-40187619Y11120476D02*
X-40187619Y11691904D01*
X-40187619Y11406190D02*
X-41187619Y11406190D01*
X-41044761Y11501428D01*
X-40949523Y11596666D01*
X-40901904Y11691904D01*
X-41187619Y10501428D02*
X-41187619Y10406190D01*
X-41140000Y10310952D01*
X-41092380Y10263333D01*
X-40997142Y10215714D01*
X-40806666Y10168095D01*
X-40568571Y10168095D01*
X-40378095Y10215714D01*
X-40282857Y10263333D01*
X-40235238Y10310952D01*
X-40187619Y10406190D01*
X-40187619Y10501428D01*
X-40235238Y10596666D01*
X-40282857Y10644285D01*
X-40378095Y10691904D01*
X-40568571Y10739523D01*
X-40806666Y10739523D01*
X-40997142Y10691904D01*
X-41092380Y10644285D01*
X-41140000Y10596666D01*
X-41187619Y10501428D01*
X-9326666Y-27646380D02*
X-9326666Y-28360666D01*
X-9279047Y-28503523D01*
X-9183809Y-28598761D01*
X-9040952Y-28646380D01*
X-8945714Y-28646380D01*
X-9802857Y-28646380D02*
X-9802857Y-27646380D01*
X-10183809Y-27646380D01*
X-10279047Y-27694000D01*
X-10326666Y-27741619D01*
X-10374285Y-27836857D01*
X-10374285Y-27979714D01*
X-10326666Y-28074952D01*
X-10279047Y-28122571D01*
X-10183809Y-28170190D01*
X-9802857Y-28170190D01*
X-11326666Y-28646380D02*
X-10755238Y-28646380D01*
X-11040952Y-28646380D02*
X-11040952Y-27646380D01*
X-10945714Y-27789238D01*
X-10850476Y-27884476D01*
X-10755238Y-27932095D01*
X-7965714Y-28646380D02*
X-7394285Y-28646380D01*
X-7679999Y-28646380D02*
X-7679999Y-27646380D01*
X-7584761Y-27789238D01*
X-7489523Y-27884476D01*
X-7394285Y-27932095D01*
X-2146666Y-27646380D02*
X-2765714Y-27646380D01*
X-2432380Y-28027333D01*
X-2575238Y-28027333D01*
X-2670476Y-28074952D01*
X-2718095Y-28122571D01*
X-2765714Y-28217809D01*
X-2765714Y-28455904D01*
X-2718095Y-28551142D01*
X-2670476Y-28598761D01*
X-2575238Y-28646380D01*
X-2289523Y-28646380D01*
X-2194285Y-28598761D01*
X-2146666Y-28551142D01*
X26233333Y-24852380D02*
X26233333Y-25566666D01*
X26280952Y-25709523D01*
X26376190Y-25804761D01*
X26519047Y-25852380D01*
X26614285Y-25852380D01*
X25757142Y-25852380D02*
X25757142Y-24852380D01*
X25376190Y-24852380D01*
X25280952Y-24900000D01*
X25233333Y-24947619D01*
X25185714Y-25042857D01*
X25185714Y-25185714D01*
X25233333Y-25280952D01*
X25280952Y-25328571D01*
X25376190Y-25376190D01*
X25757142Y-25376190D01*
X24804761Y-24947619D02*
X24757142Y-24900000D01*
X24661904Y-24852380D01*
X24423809Y-24852380D01*
X24328571Y-24900000D01*
X24280952Y-24947619D01*
X24233333Y-25042857D01*
X24233333Y-25138095D01*
X24280952Y-25280952D01*
X24852380Y-25852380D01*
X24233333Y-25852380D01*
X28333333Y-22566380D02*
X27714285Y-22566380D01*
X28047619Y-22947333D01*
X27904761Y-22947333D01*
X27809523Y-22994952D01*
X27761904Y-23042571D01*
X27714285Y-23137809D01*
X27714285Y-23375904D01*
X27761904Y-23471142D01*
X27809523Y-23518761D01*
X27904761Y-23566380D01*
X28190476Y-23566380D01*
X28285714Y-23518761D01*
X28333333Y-23471142D01*
X22514285Y-23566380D02*
X23085714Y-23566380D01*
X22800000Y-23566380D02*
X22800000Y-22566380D01*
X22895238Y-22709238D01*
X22990476Y-22804476D01*
X23085714Y-22852095D01*
X3182857Y-24582380D02*
X3516190Y-24106190D01*
X3754285Y-24582380D02*
X3754285Y-23582380D01*
X3373333Y-23582380D01*
X3278095Y-23630000D01*
X3230476Y-23677619D01*
X3182857Y-23772857D01*
X3182857Y-23915714D01*
X3230476Y-24010952D01*
X3278095Y-24058571D01*
X3373333Y-24106190D01*
X3754285Y-24106190D01*
X2801904Y-23677619D02*
X2754285Y-23630000D01*
X2659047Y-23582380D01*
X2420952Y-23582380D01*
X2325714Y-23630000D01*
X2278095Y-23677619D01*
X2230476Y-23772857D01*
X2230476Y-23868095D01*
X2278095Y-24010952D01*
X2849523Y-24582380D01*
X2230476Y-24582380D01*
X1897142Y-23582380D02*
X1278095Y-23582380D01*
X1611428Y-23963333D01*
X1468571Y-23963333D01*
X1373333Y-24010952D01*
X1325714Y-24058571D01*
X1278095Y-24153809D01*
X1278095Y-24391904D01*
X1325714Y-24487142D01*
X1373333Y-24534761D01*
X1468571Y-24582380D01*
X1754285Y-24582380D01*
X1849523Y-24534761D01*
X1897142Y-24487142D01*
X35377380Y-16502142D02*
X34901190Y-16168809D01*
X35377380Y-15930714D02*
X34377380Y-15930714D01*
X34377380Y-16311666D01*
X34425000Y-16406904D01*
X34472619Y-16454523D01*
X34567857Y-16502142D01*
X34710714Y-16502142D01*
X34805952Y-16454523D01*
X34853571Y-16406904D01*
X34901190Y-16311666D01*
X34901190Y-15930714D01*
X34472619Y-16883095D02*
X34425000Y-16930714D01*
X34377380Y-17025952D01*
X34377380Y-17264047D01*
X34425000Y-17359285D01*
X34472619Y-17406904D01*
X34567857Y-17454523D01*
X34663095Y-17454523D01*
X34805952Y-17406904D01*
X35377380Y-16835476D01*
X35377380Y-17454523D01*
X34710714Y-18311666D02*
X35377380Y-18311666D01*
X34329761Y-18073571D02*
X35044047Y-17835476D01*
X35044047Y-18454523D01*
X-9263142Y-30678380D02*
X-8929809Y-30202190D01*
X-8691714Y-30678380D02*
X-8691714Y-29678380D01*
X-9072666Y-29678380D01*
X-9167904Y-29726000D01*
X-9215523Y-29773619D01*
X-9263142Y-29868857D01*
X-9263142Y-30011714D01*
X-9215523Y-30106952D01*
X-9167904Y-30154571D01*
X-9072666Y-30202190D01*
X-8691714Y-30202190D01*
X-9644095Y-29773619D02*
X-9691714Y-29726000D01*
X-9786952Y-29678380D01*
X-10025047Y-29678380D01*
X-10120285Y-29726000D01*
X-10167904Y-29773619D01*
X-10215523Y-29868857D01*
X-10215523Y-29964095D01*
X-10167904Y-30106952D01*
X-9596476Y-30678380D01*
X-10215523Y-30678380D01*
X-11120285Y-29678380D02*
X-10644095Y-29678380D01*
X-10596476Y-30154571D01*
X-10644095Y-30106952D01*
X-10739333Y-30059333D01*
X-10977428Y-30059333D01*
X-11072666Y-30106952D01*
X-11120285Y-30154571D01*
X-11167904Y-30249809D01*
X-11167904Y-30487904D01*
X-11120285Y-30583142D01*
X-11072666Y-30630761D01*
X-10977428Y-30678380D01*
X-10739333Y-30678380D01*
X-10644095Y-30630761D01*
X-10596476Y-30583142D01*
X642857Y-30678380D02*
X976190Y-30202190D01*
X1214285Y-30678380D02*
X1214285Y-29678380D01*
X833333Y-29678380D01*
X738095Y-29726000D01*
X690476Y-29773619D01*
X642857Y-29868857D01*
X642857Y-30011714D01*
X690476Y-30106952D01*
X738095Y-30154571D01*
X833333Y-30202190D01*
X1214285Y-30202190D01*
X261904Y-29773619D02*
X214285Y-29726000D01*
X119047Y-29678380D01*
X-119047Y-29678380D01*
X-214285Y-29726000D01*
X-261904Y-29773619D01*
X-309523Y-29868857D01*
X-309523Y-29964095D01*
X-261904Y-30106952D01*
X309523Y-30678380D01*
X-309523Y-30678380D01*
X-1166666Y-29678380D02*
X-976190Y-29678380D01*
X-880952Y-29726000D01*
X-833333Y-29773619D01*
X-738095Y-29916476D01*
X-690476Y-30106952D01*
X-690476Y-30487904D01*
X-738095Y-30583142D01*
X-785714Y-30630761D01*
X-880952Y-30678380D01*
X-1071428Y-30678380D01*
X-1166666Y-30630761D01*
X-1214285Y-30583142D01*
X-1261904Y-30487904D01*
X-1261904Y-30249809D01*
X-1214285Y-30154571D01*
X-1166666Y-30106952D01*
X-1071428Y-30059333D01*
X-880952Y-30059333D01*
X-785714Y-30106952D01*
X-738095Y-30154571D01*
X-690476Y-30249809D01*
X29852857Y-26106380D02*
X30186190Y-25630190D01*
X30424285Y-26106380D02*
X30424285Y-25106380D01*
X30043333Y-25106380D01*
X29948095Y-25154000D01*
X29900476Y-25201619D01*
X29852857Y-25296857D01*
X29852857Y-25439714D01*
X29900476Y-25534952D01*
X29948095Y-25582571D01*
X30043333Y-25630190D01*
X30424285Y-25630190D01*
X29471904Y-25201619D02*
X29424285Y-25154000D01*
X29329047Y-25106380D01*
X29090952Y-25106380D01*
X28995714Y-25154000D01*
X28948095Y-25201619D01*
X28900476Y-25296857D01*
X28900476Y-25392095D01*
X28948095Y-25534952D01*
X29519523Y-26106380D01*
X28900476Y-26106380D01*
X28567142Y-25106380D02*
X27900476Y-25106380D01*
X28329047Y-26106380D01*
X29662380Y-16629142D02*
X29186190Y-16295809D01*
X29662380Y-16057714D02*
X28662380Y-16057714D01*
X28662380Y-16438666D01*
X28710000Y-16533904D01*
X28757619Y-16581523D01*
X28852857Y-16629142D01*
X28995714Y-16629142D01*
X29090952Y-16581523D01*
X29138571Y-16533904D01*
X29186190Y-16438666D01*
X29186190Y-16057714D01*
X28757619Y-17010095D02*
X28710000Y-17057714D01*
X28662380Y-17152952D01*
X28662380Y-17391047D01*
X28710000Y-17486285D01*
X28757619Y-17533904D01*
X28852857Y-17581523D01*
X28948095Y-17581523D01*
X29090952Y-17533904D01*
X29662380Y-16962476D01*
X29662380Y-17581523D01*
X29090952Y-18152952D02*
X29043333Y-18057714D01*
X28995714Y-18010095D01*
X28900476Y-17962476D01*
X28852857Y-17962476D01*
X28757619Y-18010095D01*
X28710000Y-18057714D01*
X28662380Y-18152952D01*
X28662380Y-18343428D01*
X28710000Y-18438666D01*
X28757619Y-18486285D01*
X28852857Y-18533904D01*
X28900476Y-18533904D01*
X28995714Y-18486285D01*
X29043333Y-18438666D01*
X29090952Y-18343428D01*
X29090952Y-18152952D01*
X29138571Y-18057714D01*
X29186190Y-18010095D01*
X29281428Y-17962476D01*
X29471904Y-17962476D01*
X29567142Y-18010095D01*
X29614761Y-18057714D01*
X29662380Y-18152952D01*
X29662380Y-18343428D01*
X29614761Y-18438666D01*
X29567142Y-18486285D01*
X29471904Y-18533904D01*
X29281428Y-18533904D01*
X29186190Y-18486285D01*
X29138571Y-18438666D01*
X29090952Y-18343428D01*
X36774380Y-28948142D02*
X36298190Y-28614809D01*
X36774380Y-28376714D02*
X35774380Y-28376714D01*
X35774380Y-28757666D01*
X35822000Y-28852904D01*
X35869619Y-28900523D01*
X35964857Y-28948142D01*
X36107714Y-28948142D01*
X36202952Y-28900523D01*
X36250571Y-28852904D01*
X36298190Y-28757666D01*
X36298190Y-28376714D01*
X36107714Y-29805285D02*
X36774380Y-29805285D01*
X35726761Y-29567190D02*
X36441047Y-29329095D01*
X36441047Y-29948142D01*
X36774380Y-30852904D02*
X36774380Y-30281476D01*
X36774380Y-30567190D02*
X35774380Y-30567190D01*
X35917238Y-30471952D01*
X36012476Y-30376714D01*
X36060095Y-30281476D01*
X39314380Y-28948142D02*
X38838190Y-28614809D01*
X39314380Y-28376714D02*
X38314380Y-28376714D01*
X38314380Y-28757666D01*
X38362000Y-28852904D01*
X38409619Y-28900523D01*
X38504857Y-28948142D01*
X38647714Y-28948142D01*
X38742952Y-28900523D01*
X38790571Y-28852904D01*
X38838190Y-28757666D01*
X38838190Y-28376714D01*
X38647714Y-29805285D02*
X39314380Y-29805285D01*
X38266761Y-29567190D02*
X38981047Y-29329095D01*
X38981047Y-29948142D01*
X38409619Y-30281476D02*
X38362000Y-30329095D01*
X38314380Y-30424333D01*
X38314380Y-30662428D01*
X38362000Y-30757666D01*
X38409619Y-30805285D01*
X38504857Y-30852904D01*
X38600095Y-30852904D01*
X38742952Y-30805285D01*
X39314380Y-30233857D01*
X39314380Y-30852904D01*
X-9027619Y-20828095D02*
X-8218095Y-20828095D01*
X-8122857Y-20875714D01*
X-8075238Y-20923333D01*
X-8027619Y-21018571D01*
X-8027619Y-21209047D01*
X-8075238Y-21304285D01*
X-8122857Y-21351904D01*
X-8218095Y-21399523D01*
X-9027619Y-21399523D01*
X-8027619Y-21923333D02*
X-8027619Y-22113809D01*
X-8075238Y-22209047D01*
X-8122857Y-22256666D01*
X-8265714Y-22351904D01*
X-8456190Y-22399523D01*
X-8837142Y-22399523D01*
X-8932380Y-22351904D01*
X-8980000Y-22304285D01*
X-9027619Y-22209047D01*
X-9027619Y-22018571D01*
X-8980000Y-21923333D01*
X-8932380Y-21875714D01*
X-8837142Y-21828095D01*
X-8599047Y-21828095D01*
X-8503809Y-21875714D01*
X-8456190Y-21923333D01*
X-8408571Y-22018571D01*
X-8408571Y-22209047D01*
X-8456190Y-22304285D01*
X-8503809Y-22351904D01*
X-8599047Y-22399523D01*
X21452380Y-15271904D02*
X22261904Y-15271904D01*
X22357142Y-15319523D01*
X22404761Y-15367142D01*
X22452380Y-15462380D01*
X22452380Y-15652857D01*
X22404761Y-15748095D01*
X22357142Y-15795714D01*
X22261904Y-15843333D01*
X21452380Y-15843333D01*
X22452380Y-16843333D02*
X22452380Y-16271904D01*
X22452380Y-16557619D02*
X21452380Y-16557619D01*
X21595238Y-16462380D01*
X21690476Y-16367142D01*
X21738095Y-16271904D01*
X21452380Y-17462380D02*
X21452380Y-17557619D01*
X21500000Y-17652857D01*
X21547619Y-17700476D01*
X21642857Y-17748095D01*
X21833333Y-17795714D01*
X22071428Y-17795714D01*
X22261904Y-17748095D01*
X22357142Y-17700476D01*
X22404761Y-17652857D01*
X22452380Y-17557619D01*
X22452380Y-17462380D01*
X22404761Y-17367142D01*
X22357142Y-17319523D01*
X22261904Y-17271904D01*
X22071428Y-17224285D01*
X21833333Y-17224285D01*
X21642857Y-17271904D01*
X21547619Y-17319523D01*
X21500000Y-17367142D01*
X21452380Y-17462380D01*
X42076666Y-1881142D02*
X42124285Y-1928761D01*
X42267142Y-1976380D01*
X42362380Y-1976380D01*
X42505238Y-1928761D01*
X42600476Y-1833523D01*
X42648095Y-1738285D01*
X42695714Y-1547809D01*
X42695714Y-1404952D01*
X42648095Y-1214476D01*
X42600476Y-1119238D01*
X42505238Y-1024000D01*
X42362380Y-976380D01*
X42267142Y-976380D01*
X42124285Y-1024000D01*
X42076666Y-1071619D01*
X41743333Y-976380D02*
X41124285Y-976380D01*
X41457619Y-1357333D01*
X41314761Y-1357333D01*
X41219523Y-1404952D01*
X41171904Y-1452571D01*
X41124285Y-1547809D01*
X41124285Y-1785904D01*
X41171904Y-1881142D01*
X41219523Y-1928761D01*
X41314761Y-1976380D01*
X41600476Y-1976380D01*
X41695714Y-1928761D01*
X41743333Y-1881142D01*
X42076666Y-6961142D02*
X42124285Y-7008761D01*
X42267142Y-7056380D01*
X42362380Y-7056380D01*
X42505238Y-7008761D01*
X42600476Y-6913523D01*
X42648095Y-6818285D01*
X42695714Y-6627809D01*
X42695714Y-6484952D01*
X42648095Y-6294476D01*
X42600476Y-6199238D01*
X42505238Y-6104000D01*
X42362380Y-6056380D01*
X42267142Y-6056380D01*
X42124285Y-6104000D01*
X42076666Y-6151619D01*
X41219523Y-6389714D02*
X41219523Y-7056380D01*
X41457619Y-6008761D02*
X41695714Y-6723047D01*
X41076666Y-6723047D01*
X4278095Y-27392380D02*
X3706666Y-27392380D01*
X3992380Y-28392380D02*
X3992380Y-27392380D01*
X3373333Y-28392380D02*
X3373333Y-27392380D01*
X2992380Y-27392380D01*
X2897142Y-27440000D01*
X2849523Y-27487619D01*
X2801904Y-27582857D01*
X2801904Y-27725714D01*
X2849523Y-27820952D01*
X2897142Y-27868571D01*
X2992380Y-27916190D01*
X3373333Y-27916190D01*
X1849523Y-28392380D02*
X2420952Y-28392380D01*
X2135238Y-28392380D02*
X2135238Y-27392380D01*
X2230476Y-27535238D01*
X2325714Y-27630476D01*
X2420952Y-27678095D01*
X1373333Y-28392380D02*
X1182857Y-28392380D01*
X1087619Y-28344761D01*
X1040000Y-28297142D01*
X944761Y-28154285D01*
X897142Y-27963809D01*
X897142Y-27582857D01*
X944761Y-27487619D01*
X992380Y-27440000D01*
X1087619Y-27392380D01*
X1278095Y-27392380D01*
X1373333Y-27440000D01*
X1420952Y-27487619D01*
X1468571Y-27582857D01*
X1468571Y-27820952D01*
X1420952Y-27916190D01*
X1373333Y-27963809D01*
X1278095Y-28011428D01*
X1087619Y-28011428D01*
X992380Y-27963809D01*
X944761Y-27916190D01*
X897142Y-27820952D01*
X41616095Y-19772380D02*
X41044666Y-19772380D01*
X41330380Y-20772380D02*
X41330380Y-19772380D01*
X40711333Y-20772380D02*
X40711333Y-19772380D01*
X40330380Y-19772380D01*
X40235142Y-19820000D01*
X40187523Y-19867619D01*
X40139904Y-19962857D01*
X40139904Y-20105714D01*
X40187523Y-20200952D01*
X40235142Y-20248571D01*
X40330380Y-20296190D01*
X40711333Y-20296190D01*
X39758952Y-19867619D02*
X39711333Y-19820000D01*
X39616095Y-19772380D01*
X39378000Y-19772380D01*
X39282761Y-19820000D01*
X39235142Y-19867619D01*
X39187523Y-19962857D01*
X39187523Y-20058095D01*
X39235142Y-20200952D01*
X39806571Y-20772380D01*
X39187523Y-20772380D01*
X38568476Y-19772380D02*
X38473238Y-19772380D01*
X38378000Y-19820000D01*
X38330380Y-19867619D01*
X38282761Y-19962857D01*
X38235142Y-20153333D01*
X38235142Y-20391428D01*
X38282761Y-20581904D01*
X38330380Y-20677142D01*
X38378000Y-20724761D01*
X38473238Y-20772380D01*
X38568476Y-20772380D01*
X38663714Y-20724761D01*
X38711333Y-20677142D01*
X38758952Y-20581904D01*
X38806571Y-20391428D01*
X38806571Y-20153333D01*
X38758952Y-19962857D01*
X38711333Y-19867619D01*
X38663714Y-19820000D01*
X38568476Y-19772380D01*
X-3976904Y-33285380D02*
X-4548333Y-33285380D01*
X-4262619Y-34285380D02*
X-4262619Y-33285380D01*
X-4881666Y-34285380D02*
X-4881666Y-33285380D01*
X-5262619Y-33285380D01*
X-5357857Y-33333000D01*
X-5405476Y-33380619D01*
X-5453095Y-33475857D01*
X-5453095Y-33618714D01*
X-5405476Y-33713952D01*
X-5357857Y-33761571D01*
X-5262619Y-33809190D01*
X-4881666Y-33809190D01*
X-5834047Y-33380619D02*
X-5881666Y-33333000D01*
X-5976904Y-33285380D01*
X-6215000Y-33285380D01*
X-6310238Y-33333000D01*
X-6357857Y-33380619D01*
X-6405476Y-33475857D01*
X-6405476Y-33571095D01*
X-6357857Y-33713952D01*
X-5786428Y-34285380D01*
X-6405476Y-34285380D01*
X-7357857Y-34285380D02*
X-6786428Y-34285380D01*
X-7072142Y-34285380D02*
X-7072142Y-33285380D01*
X-6976904Y-33428238D01*
X-6881666Y-33523476D01*
X-6786428Y-33571095D01*
X31964380Y-22645904D02*
X31964380Y-23217333D01*
X32964380Y-22931619D02*
X31964380Y-22931619D01*
X32964380Y-23550666D02*
X31964380Y-23550666D01*
X31964380Y-23931619D01*
X32012000Y-24026857D01*
X32059619Y-24074476D01*
X32154857Y-24122095D01*
X32297714Y-24122095D01*
X32392952Y-24074476D01*
X32440571Y-24026857D01*
X32488190Y-23931619D01*
X32488190Y-23550666D01*
X32059619Y-24503047D02*
X32012000Y-24550666D01*
X31964380Y-24645904D01*
X31964380Y-24884000D01*
X32012000Y-24979238D01*
X32059619Y-25026857D01*
X32154857Y-25074476D01*
X32250095Y-25074476D01*
X32392952Y-25026857D01*
X32964380Y-24455428D01*
X32964380Y-25074476D01*
X32059619Y-25455428D02*
X32012000Y-25503047D01*
X31964380Y-25598285D01*
X31964380Y-25836380D01*
X32012000Y-25931619D01*
X32059619Y-25979238D01*
X32154857Y-26026857D01*
X32250095Y-26026857D01*
X32392952Y-25979238D01*
X32964380Y-25407809D01*
X32964380Y-26026857D01*
M02*
